G04 #@! TF.GenerationSoftware,KiCad,Pcbnew,9.0.4*
G04 #@! TF.CreationDate,2025-10-01T23:59:43+10:00*
G04 #@! TF.ProjectId,muCM,4d617474-6572-4524-9742-2e6b69636164,rev?*
G04 #@! TF.SameCoordinates,Original*
G04 #@! TF.FileFunction,Copper,L4,Bot*
G04 #@! TF.FilePolarity,Positive*
%FSLAX46Y46*%
G04 Gerber Fmt 4.6, Leading zero omitted, Abs format (unit mm)*
G04 Created by KiCad (PCBNEW 9.0.4) date 2025-10-01 23:59:43*
%MOMM*%
%LPD*%
G01*
G04 APERTURE LIST*
G04 Aperture macros list*
%AMRoundRect*
0 Rectangle with rounded corners*
0 $1 Rounding radius*
0 $2 $3 $4 $5 $6 $7 $8 $9 X,Y pos of 4 corners*
0 Add a 4 corners polygon primitive as box body*
4,1,4,$2,$3,$4,$5,$6,$7,$8,$9,$2,$3,0*
0 Add four circle primitives for the rounded corners*
1,1,$1+$1,$2,$3*
1,1,$1+$1,$4,$5*
1,1,$1+$1,$6,$7*
1,1,$1+$1,$8,$9*
0 Add four rect primitives between the rounded corners*
20,1,$1+$1,$2,$3,$4,$5,0*
20,1,$1+$1,$4,$5,$6,$7,0*
20,1,$1+$1,$6,$7,$8,$9,0*
20,1,$1+$1,$8,$9,$2,$3,0*%
G04 Aperture macros list end*
G04 #@! TA.AperFunction,HeatsinkPad*
%ADD10O,1.000000X2.100000*%
G04 #@! TD*
G04 #@! TA.AperFunction,HeatsinkPad*
%ADD11O,1.000000X1.800000*%
G04 #@! TD*
G04 #@! TA.AperFunction,ComponentPad*
%ADD12RoundRect,0.250000X-0.350000X-0.625000X0.350000X-0.625000X0.350000X0.625000X-0.350000X0.625000X0*%
G04 #@! TD*
G04 #@! TA.AperFunction,ComponentPad*
%ADD13O,1.200000X1.750000*%
G04 #@! TD*
G04 #@! TA.AperFunction,SMDPad,CuDef*
%ADD14RoundRect,0.243750X-0.243750X-0.456250X0.243750X-0.456250X0.243750X0.456250X-0.243750X0.456250X0*%
G04 #@! TD*
G04 #@! TA.AperFunction,SMDPad,CuDef*
%ADD15RoundRect,0.125000X-0.125000X0.175000X-0.125000X-0.175000X0.125000X-0.175000X0.125000X0.175000X0*%
G04 #@! TD*
G04 #@! TA.AperFunction,SMDPad,CuDef*
%ADD16RoundRect,0.140000X0.140000X0.170000X-0.140000X0.170000X-0.140000X-0.170000X0.140000X-0.170000X0*%
G04 #@! TD*
G04 #@! TA.AperFunction,SMDPad,CuDef*
%ADD17R,0.900000X1.500000*%
G04 #@! TD*
G04 #@! TA.AperFunction,SMDPad,CuDef*
%ADD18R,1.500000X0.900000*%
G04 #@! TD*
G04 #@! TA.AperFunction,HeatsinkPad*
%ADD19R,3.900000X3.900000*%
G04 #@! TD*
G04 #@! TA.AperFunction,ComponentPad*
%ADD20RoundRect,0.250000X0.600000X0.750000X-0.600000X0.750000X-0.600000X-0.750000X0.600000X-0.750000X0*%
G04 #@! TD*
G04 #@! TA.AperFunction,ComponentPad*
%ADD21O,1.700000X2.000000*%
G04 #@! TD*
G04 #@! TA.AperFunction,ViaPad*
%ADD22C,0.600000*%
G04 #@! TD*
G04 #@! TA.AperFunction,Conductor*
%ADD23C,0.500000*%
G04 #@! TD*
G04 #@! TA.AperFunction,Conductor*
%ADD24C,0.200000*%
G04 #@! TD*
G04 APERTURE END LIST*
D10*
G04 #@! TO.P,J1,S1,SHIELD*
G04 #@! TO.N,GND*
X109570000Y-109000000D03*
D11*
X109570000Y-113180000D03*
D10*
X118210000Y-109000000D03*
D11*
X118210000Y-113180000D03*
G04 #@! TD*
D12*
G04 #@! TO.P,J2,1,Pin_1*
G04 #@! TO.N,/OUT3*
X99800000Y-85200000D03*
D13*
G04 #@! TO.P,J2,2,Pin_2*
G04 #@! TO.N,/OUT4*
X101800000Y-85200000D03*
G04 #@! TO.P,J2,3,Pin_3*
G04 #@! TO.N,/OUT2*
X103800000Y-85200000D03*
G04 #@! TO.P,J2,4,Pin_4*
G04 #@! TO.N,/OUT1*
X105800000Y-85200000D03*
G04 #@! TD*
D14*
G04 #@! TO.P,F1,1*
G04 #@! TO.N,Net-(D3-A)*
X99250000Y-109600000D03*
G04 #@! TO.P,F1,2*
G04 #@! TO.N,Net-(J4-Pin_2)*
X101125000Y-109600000D03*
G04 #@! TD*
D12*
G04 #@! TO.P,J5,1,Pin_1*
G04 #@! TO.N,GND*
X111750000Y-85250000D03*
D13*
G04 #@! TO.P,J5,2,Pin_2*
G04 #@! TO.N,Net-(J5-Pin_2)*
X113750000Y-85250000D03*
G04 #@! TD*
D15*
G04 #@! TO.P,D1,1,K1*
G04 #@! TO.N,USB_D-*
X113900000Y-111850000D03*
G04 #@! TO.P,D1,2,K2*
G04 #@! TO.N,USB_D+*
X114900000Y-111850000D03*
G04 #@! TO.P,D1,3,A*
G04 #@! TO.N,GND*
X114400000Y-113150000D03*
G04 #@! TD*
D16*
G04 #@! TO.P,C13,1*
G04 #@! TO.N,+3V3*
X100730000Y-87250000D03*
G04 #@! TO.P,C13,2*
G04 #@! TO.N,GND*
X99770000Y-87250000D03*
G04 #@! TD*
D17*
G04 #@! TO.P,U2,1,GND*
G04 #@! TO.N,GND*
X99580000Y-88850000D03*
G04 #@! TO.P,U2,2,3V3*
G04 #@! TO.N,+3V3*
X100850000Y-88850000D03*
G04 #@! TO.P,U2,3,EN*
G04 #@! TO.N,/RESET*
X102120000Y-88850000D03*
G04 #@! TO.P,U2,4,IO4*
G04 #@! TO.N,unconnected-(U2-IO4-Pad4)*
X103390000Y-88850000D03*
G04 #@! TO.P,U2,5,IO5*
G04 #@! TO.N,unconnected-(U2-IO5-Pad5)*
X104660000Y-88850000D03*
G04 #@! TO.P,U2,6,IO6*
G04 #@! TO.N,unconnected-(U2-IO6-Pad6)*
X105930000Y-88850000D03*
G04 #@! TO.P,U2,7,IO7*
G04 #@! TO.N,unconnected-(U2-IO7-Pad7)*
X107200000Y-88850000D03*
G04 #@! TO.P,U2,8,IO15*
G04 #@! TO.N,Net-(LED2-A)*
X108470000Y-88850000D03*
G04 #@! TO.P,U2,9,IO16*
G04 #@! TO.N,unconnected-(U2-IO16-Pad9)*
X109740000Y-88850000D03*
G04 #@! TO.P,U2,10,IO17*
G04 #@! TO.N,/IN0*
X111010000Y-88850000D03*
G04 #@! TO.P,U2,11,IO18*
G04 #@! TO.N,unconnected-(U2-IO18-Pad11)*
X112280000Y-88850000D03*
G04 #@! TO.P,U2,12,IO8*
G04 #@! TO.N,/SDA*
X113550000Y-88850000D03*
G04 #@! TO.P,U2,13,USB_D-*
G04 #@! TO.N,USB_D-*
X114820000Y-88850000D03*
G04 #@! TO.P,U2,14,USB_D+*
G04 #@! TO.N,USB_D+*
X116090000Y-88850000D03*
D18*
G04 #@! TO.P,U2,15,IO3*
G04 #@! TO.N,unconnected-(U2-IO3-Pad15)*
X117340000Y-90615000D03*
G04 #@! TO.P,U2,16,IO46*
G04 #@! TO.N,unconnected-(U2-IO46-Pad16)*
X117340000Y-91885000D03*
G04 #@! TO.P,U2,17,IO9*
G04 #@! TO.N,/SCL*
X117340000Y-93155000D03*
G04 #@! TO.P,U2,18,IO10*
G04 #@! TO.N,/~{SLEEP}*
X117340000Y-94425000D03*
G04 #@! TO.P,U2,19,IO11*
G04 #@! TO.N,/INT_N*
X117340000Y-95695000D03*
G04 #@! TO.P,U2,20,IO12*
G04 #@! TO.N,/IN1*
X117340000Y-96965000D03*
G04 #@! TO.P,U2,21,IO13*
G04 #@! TO.N,/IN2*
X117340000Y-98235000D03*
G04 #@! TO.P,U2,22,IO14*
G04 #@! TO.N,unconnected-(U2-IO14-Pad22)*
X117340000Y-99505000D03*
G04 #@! TO.P,U2,23,IO21*
G04 #@! TO.N,/IN3*
X117340000Y-100775000D03*
G04 #@! TO.P,U2,24,IO47*
G04 #@! TO.N,/IN4*
X117340000Y-102045000D03*
G04 #@! TO.P,U2,25,IO48*
G04 #@! TO.N,/MODE*
X117340000Y-103315000D03*
G04 #@! TO.P,U2,26,IO45*
G04 #@! TO.N,unconnected-(U2-IO45-Pad26)*
X117340000Y-104585000D03*
D17*
G04 #@! TO.P,U2,27,IO0*
G04 #@! TO.N,/BOOT*
X116090000Y-106350000D03*
G04 #@! TO.P,U2,28,IO35*
G04 #@! TO.N,unconnected-(U2-IO35-Pad28)*
X114820000Y-106350000D03*
G04 #@! TO.P,U2,29,IO36*
G04 #@! TO.N,unconnected-(U2-IO36-Pad29)*
X113550000Y-106350000D03*
G04 #@! TO.P,U2,30,IO37*
G04 #@! TO.N,unconnected-(U2-IO37-Pad30)*
X112280000Y-106350000D03*
G04 #@! TO.P,U2,31,IO38*
G04 #@! TO.N,unconnected-(U2-IO38-Pad31)*
X111010000Y-106350000D03*
G04 #@! TO.P,U2,32,IO39*
G04 #@! TO.N,/RSVD{slash}EN1*
X109740000Y-106350000D03*
G04 #@! TO.P,U2,33,IO40*
G04 #@! TO.N,/TOFF{slash}EN2*
X108470000Y-106350000D03*
G04 #@! TO.P,U2,34,IO41*
G04 #@! TO.N,/VREF12{slash}EN3*
X107200000Y-106350000D03*
G04 #@! TO.P,U2,35,IO42*
G04 #@! TO.N,/VREF12{slash}EN4*
X105930000Y-106350000D03*
G04 #@! TO.P,U2,36,RXD0*
G04 #@! TO.N,unconnected-(U2-RXD0-Pad36)*
X104660000Y-106350000D03*
G04 #@! TO.P,U2,37,TXD0*
G04 #@! TO.N,unconnected-(U2-TXD0-Pad37)*
X103390000Y-106350000D03*
G04 #@! TO.P,U2,38,IO2*
G04 #@! TO.N,/~{FAULT}*
X102120000Y-106350000D03*
G04 #@! TO.P,U2,39,IO1*
G04 #@! TO.N,unconnected-(U2-IO1-Pad39)*
X100850000Y-106350000D03*
G04 #@! TO.P,U2,40,GND*
G04 #@! TO.N,GND*
X99580000Y-106350000D03*
D19*
G04 #@! TO.P,U2,41,GND*
X107300000Y-96100000D03*
G04 #@! TD*
D20*
G04 #@! TO.P,J4,1,Pin_1*
G04 #@! TO.N,GND*
X103600000Y-112200000D03*
D21*
G04 #@! TO.P,J4,2,Pin_2*
G04 #@! TO.N,Net-(J4-Pin_2)*
X101100000Y-112200000D03*
G04 #@! TD*
D22*
G04 #@! TO.N,GND*
X118400000Y-83400000D03*
X118400000Y-81000000D03*
X108200000Y-108600000D03*
X118400000Y-88200000D03*
X117200000Y-81000000D03*
X100000000Y-98000000D03*
X116600000Y-111200000D03*
X102000000Y-97200000D03*
X108000000Y-95200000D03*
X103200000Y-104200000D03*
X107000000Y-103200000D03*
X118400000Y-84600000D03*
X110100000Y-86400000D03*
X115100000Y-85400000D03*
X105600000Y-111200000D03*
X111600000Y-113200000D03*
X98400000Y-87600000D03*
X104800000Y-101200000D03*
X114800000Y-83400000D03*
X106800000Y-101200000D03*
X102750000Y-108000000D03*
X109200000Y-100800000D03*
X102200000Y-113800000D03*
X107400000Y-83400000D03*
X113800000Y-94800000D03*
X109400000Y-102100000D03*
X108000000Y-96800000D03*
X107200000Y-96000000D03*
X113800000Y-93800000D03*
X118400000Y-82200000D03*
X98600000Y-82000000D03*
X118400000Y-87000000D03*
X100700000Y-82000000D03*
X106400000Y-96800000D03*
X106400000Y-96000000D03*
X100400000Y-113800000D03*
X100000000Y-104500000D03*
X104900000Y-93400000D03*
X102200000Y-93000000D03*
X98600000Y-112600000D03*
X106400000Y-95200000D03*
X98600000Y-113800000D03*
X101400000Y-90200000D03*
X112800000Y-113200000D03*
X105000000Y-104800000D03*
X108000000Y-96000000D03*
X101800000Y-81000000D03*
X107200000Y-95200000D03*
X100600000Y-108000000D03*
X102400000Y-99800000D03*
X114600000Y-81000000D03*
X108200000Y-113800000D03*
X110200000Y-81000000D03*
X105000000Y-102600000D03*
X99600000Y-81000000D03*
X106800000Y-82000000D03*
X116600000Y-113200000D03*
X112200000Y-98800000D03*
X104900000Y-94100000D03*
X103400000Y-91900000D03*
X111700000Y-81490000D03*
X103200000Y-104800000D03*
X101400000Y-104600000D03*
X109600000Y-111200000D03*
X115700000Y-90400000D03*
X110100000Y-87200000D03*
X118452500Y-89400000D03*
X118400000Y-85800000D03*
X115600000Y-113200000D03*
X100000000Y-94000000D03*
X102000000Y-95600000D03*
X118200000Y-111200000D03*
X103800000Y-81000000D03*
X105600000Y-112600000D03*
X102800000Y-82000000D03*
X109400000Y-103000000D03*
X107400000Y-81000000D03*
X111800000Y-91600000D03*
X114261312Y-87611954D03*
X100000000Y-99400000D03*
X105600000Y-113800000D03*
X104800000Y-82000000D03*
X98600000Y-81000000D03*
X102000000Y-96400000D03*
X105800000Y-81000000D03*
X106800000Y-84200000D03*
X98500000Y-104500000D03*
X108800000Y-81000000D03*
X111600000Y-111200000D03*
X107200000Y-85800000D03*
X116000000Y-81000000D03*
X110200000Y-84400000D03*
X100000000Y-92400000D03*
X107200000Y-96800000D03*
G04 #@! TO.N,VBUS*
X105700000Y-109600000D03*
X112750000Y-90600000D03*
G04 #@! TO.N,+3V3*
X103600000Y-90600000D03*
X100800000Y-102200000D03*
X112200000Y-100000000D03*
X113800000Y-92600000D03*
X107700000Y-87200000D03*
X115000000Y-100000000D03*
X114600000Y-97000000D03*
X114600000Y-82280000D03*
X117000000Y-86500000D03*
G04 #@! TO.N,USB_D+*
X115880000Y-87204763D03*
X114815000Y-110800000D03*
G04 #@! TO.N,USB_D-*
X115030000Y-87204763D03*
X113965000Y-110800000D03*
G04 #@! TO.N,Net-(LED2-A)*
X110400000Y-82300000D03*
G04 #@! TO.N,/~{FAULT}*
X102449997Y-103000000D03*
G04 #@! TO.N,/MODE*
X108000000Y-99500000D03*
G04 #@! TO.N,/TOFF{slash}EN2*
X107800000Y-102200000D03*
G04 #@! TO.N,/IN1*
X111670849Y-98200000D03*
G04 #@! TO.N,/IN3*
X111394486Y-100597428D03*
G04 #@! TO.N,/IN4*
X111350000Y-101401472D03*
G04 #@! TO.N,/SDA*
X116089001Y-92812487D03*
G04 #@! TO.N,/SCL*
X115500820Y-93431371D03*
G04 #@! TO.N,/~{SLEEP}*
X113880331Y-96250000D03*
G04 #@! TO.N,/RSVD{slash}EN1*
X108500000Y-101500000D03*
G04 #@! TO.N,/VREF12{slash}EN4*
X103250000Y-103000000D03*
G04 #@! TO.N,/VREF12{slash}EN3*
X104049265Y-102950735D03*
G04 #@! TO.N,/IN2*
X111400000Y-99400000D03*
G04 #@! TO.N,Net-(D3-A)*
X99250000Y-111250000D03*
G04 #@! TO.N,/IN0*
X112700000Y-81490000D03*
G04 #@! TO.N,/RESET*
X99000000Y-93200000D03*
G04 #@! TO.N,/BOOT*
X99000000Y-98800000D03*
G04 #@! TO.N,/INT_N*
X116150000Y-95500000D03*
G04 #@! TO.N,/CC1*
X112300000Y-110100000D03*
X117600000Y-88800000D03*
G04 #@! TO.N,/CC2*
X115400000Y-109900000D03*
X113300000Y-87500000D03*
G04 #@! TO.N,VDC*
X102100000Y-94600000D03*
X109500000Y-90400000D03*
X105800000Y-102000000D03*
X105800000Y-101000000D03*
X110200000Y-90400000D03*
G04 #@! TD*
D23*
G04 #@! TO.N,+3V3*
X100730000Y-87250000D02*
X100730000Y-88730000D01*
X100730000Y-88730000D02*
X100850000Y-88850000D01*
X100780000Y-87200000D02*
X100730000Y-87250000D01*
X107700000Y-87200000D02*
X100780000Y-87200000D01*
D24*
G04 #@! TO.N,USB_D+*
X116090000Y-88850000D02*
X115680001Y-88440001D01*
X115680001Y-87404762D02*
X115880000Y-87204763D01*
X115680001Y-88440001D02*
X115680001Y-87404762D01*
D23*
X114815000Y-111765000D02*
X114900000Y-111850000D01*
X114815000Y-110800000D02*
X114815000Y-111765000D01*
D24*
G04 #@! TO.N,USB_D-*
X115229999Y-87404762D02*
X115030000Y-87204763D01*
X114820000Y-88850000D02*
X115229999Y-88440001D01*
D23*
X113965000Y-111785000D02*
X113900000Y-111850000D01*
X113965000Y-110800000D02*
X113965000Y-111785000D01*
D24*
X115229999Y-88440001D02*
X115229999Y-87404762D01*
G04 #@! TO.N,Net-(LED2-A)*
X108470000Y-84230000D02*
X110400000Y-82300000D01*
X108470000Y-88850000D02*
X108470000Y-84230000D01*
G04 #@! TO.N,/~{FAULT}*
X102449997Y-103000000D02*
X102120000Y-103329997D01*
X102120000Y-103329997D02*
X102120000Y-106350000D01*
G04 #@! TO.N,/MODE*
X109500000Y-99500000D02*
X110683456Y-100683456D01*
X110683456Y-101883456D02*
X112115000Y-103315000D01*
X112115000Y-103315000D02*
X117340000Y-103315000D01*
X108000000Y-99500000D02*
X109500000Y-99500000D01*
X110683456Y-100683456D02*
X110683456Y-101883456D01*
G04 #@! TO.N,/TOFF{slash}EN2*
X107800000Y-102200000D02*
X107800000Y-103550000D01*
X108470000Y-104220000D02*
X108470000Y-106350000D01*
X107800000Y-103550000D02*
X108470000Y-104220000D01*
G04 #@! TO.N,/IN1*
X114600000Y-98000000D02*
X115635000Y-96965000D01*
X111670849Y-98200000D02*
X111870849Y-98000000D01*
X111870849Y-98000000D02*
X114600000Y-98000000D01*
X115635000Y-96965000D02*
X117340000Y-96965000D01*
G04 #@! TO.N,/IN3*
X111572058Y-100775000D02*
X111394486Y-100597428D01*
X117340000Y-100775000D02*
X111572058Y-100775000D01*
G04 #@! TO.N,/IN4*
X111350000Y-101401472D02*
X111401472Y-101401472D01*
X112045000Y-102045000D02*
X117340000Y-102045000D01*
X111401472Y-101401472D02*
X112045000Y-102045000D01*
G04 #@! TO.N,/SDA*
X116089001Y-92812487D02*
X113550000Y-90273486D01*
X113550000Y-90273486D02*
X113550000Y-88850000D01*
G04 #@! TO.N,/SCL*
X116596431Y-93155000D02*
X117340000Y-93155000D01*
X115500820Y-93431371D02*
X116320060Y-93431371D01*
X116320060Y-93431371D02*
X116596431Y-93155000D01*
G04 #@! TO.N,/~{SLEEP}*
X113880331Y-96250000D02*
X115430331Y-94700000D01*
X115430331Y-94700000D02*
X117065000Y-94700000D01*
X117065000Y-94700000D02*
X117340000Y-94425000D01*
G04 #@! TO.N,/RSVD{slash}EN1*
X108500000Y-101500000D02*
X108500000Y-103250000D01*
X108500000Y-103250000D02*
X109740000Y-104490000D01*
X109740000Y-104490000D02*
X109740000Y-106350000D01*
G04 #@! TO.N,/VREF12{slash}EN4*
X103250000Y-103000000D02*
X104250000Y-104000000D01*
X105930000Y-104600000D02*
X105930000Y-106350000D01*
X104250000Y-104000000D02*
X105330000Y-104000000D01*
X105330000Y-104000000D02*
X105930000Y-104600000D01*
G04 #@! TO.N,/VREF12{slash}EN3*
X104498530Y-103400000D02*
X106000000Y-103400000D01*
X104049265Y-102950735D02*
X104498530Y-103400000D01*
X106000000Y-103400000D02*
X107200000Y-104600000D01*
X107200000Y-104600000D02*
X107200000Y-106350000D01*
G04 #@! TO.N,/IN2*
X115365000Y-98235000D02*
X117340000Y-98235000D01*
X114200000Y-99400000D02*
X115365000Y-98235000D01*
X111400000Y-99400000D02*
X114200000Y-99400000D01*
D23*
G04 #@! TO.N,Net-(D3-A)*
X99250000Y-109600000D02*
X99250000Y-111250000D01*
D24*
G04 #@! TO.N,/IN0*
X110849000Y-83341000D02*
X112634000Y-81556000D01*
X112634000Y-81556000D02*
X112700000Y-81556000D01*
X110849000Y-88689000D02*
X110849000Y-83341000D01*
X111010000Y-88850000D02*
X110849000Y-88689000D01*
D23*
G04 #@! TO.N,Net-(J4-Pin_2)*
X101125000Y-112175000D02*
X101100000Y-112200000D01*
X101125000Y-109600000D02*
X101125000Y-112175000D01*
D24*
G04 #@! TO.N,/RESET*
X99000000Y-93200000D02*
X100700000Y-93200000D01*
X102120000Y-91780000D02*
X102120000Y-88850000D01*
X100700000Y-93200000D02*
X102120000Y-91780000D01*
G04 #@! TO.N,/BOOT*
X107699000Y-100100000D02*
X109500000Y-100100000D01*
X109500000Y-100100000D02*
X110232746Y-100832746D01*
X110232746Y-100832746D02*
X110232746Y-102032746D01*
X99000000Y-98800000D02*
X106399000Y-98800000D01*
X110232746Y-102032746D02*
X112600000Y-104400000D01*
X106399000Y-98800000D02*
X107699000Y-100100000D01*
X116090000Y-104790000D02*
X116090000Y-106350000D01*
X115700000Y-104400000D02*
X116090000Y-104790000D01*
X112600000Y-104400000D02*
X115700000Y-104400000D01*
G04 #@! TO.N,/INT_N*
X116399265Y-95524265D02*
X116570000Y-95695000D01*
X116570000Y-95695000D02*
X117340000Y-95695000D01*
X116174265Y-95524265D02*
X116399265Y-95524265D01*
X116150000Y-95500000D02*
X116174265Y-95524265D01*
G04 #@! TD*
G04 #@! TA.AperFunction,Conductor*
G04 #@! TO.N,GND*
G36*
X102856928Y-103484264D02*
G01*
X102861404Y-103483301D01*
X102881303Y-103490771D01*
X102914293Y-103499577D01*
X102949198Y-103519730D01*
X102966176Y-103531911D01*
X102987894Y-103542071D01*
X103018216Y-103559577D01*
X103024275Y-103561200D01*
X103044730Y-103568659D01*
X103414962Y-103741857D01*
X103450100Y-103766493D01*
X103700464Y-104016856D01*
X103929518Y-104245910D01*
X103929520Y-104245913D01*
X104004087Y-104320480D01*
X104029952Y-104335413D01*
X104095413Y-104373207D01*
X104197273Y-104400501D01*
X104197275Y-104400501D01*
X104310323Y-104400501D01*
X104310339Y-104400500D01*
X105112745Y-104400500D01*
X105179784Y-104420185D01*
X105200426Y-104436819D01*
X105493181Y-104729574D01*
X105507884Y-104756501D01*
X105524477Y-104782320D01*
X105525368Y-104788520D01*
X105526666Y-104790897D01*
X105529500Y-104817255D01*
X105529500Y-104996205D01*
X105509815Y-105063244D01*
X105503380Y-105072334D01*
X105346928Y-105273486D01*
X105290231Y-105314318D01*
X105220459Y-105318016D01*
X105198961Y-105310791D01*
X105179992Y-105302415D01*
X105154865Y-105299500D01*
X104165143Y-105299500D01*
X104165117Y-105299502D01*
X104140012Y-105302413D01*
X104140010Y-105302414D01*
X104075085Y-105331081D01*
X104005807Y-105340152D01*
X103974915Y-105331081D01*
X103909992Y-105302415D01*
X103884865Y-105299500D01*
X102895143Y-105299500D01*
X102895117Y-105299502D01*
X102870012Y-105302413D01*
X102870007Y-105302415D01*
X102851035Y-105310792D01*
X102781757Y-105319862D01*
X102718572Y-105290038D01*
X102703071Y-105273485D01*
X102546620Y-105072333D01*
X102521000Y-105007331D01*
X102520500Y-104996205D01*
X102520500Y-103719858D01*
X102524331Y-103706810D01*
X102523390Y-103693242D01*
X102533983Y-103673939D01*
X102540185Y-103652819D01*
X102551181Y-103642603D01*
X102557005Y-103631991D01*
X102583679Y-103612410D01*
X102585305Y-103610900D01*
X102586103Y-103610465D01*
X102747098Y-103526003D01*
X102761127Y-103518166D01*
X102762173Y-103517545D01*
X102781289Y-103505210D01*
X102782937Y-103503529D01*
X102793100Y-103498008D01*
X102822862Y-103491599D01*
X102852064Y-103482966D01*
X102856928Y-103484264D01*
G37*
G04 #@! TD.AperFunction*
G04 #@! TA.AperFunction,Conductor*
G36*
X114400784Y-98420185D02*
G01*
X114446539Y-98472989D01*
X114456483Y-98542147D01*
X114427458Y-98605703D01*
X114421426Y-98612181D01*
X114070426Y-98963181D01*
X114009103Y-98996666D01*
X113982745Y-98999500D01*
X112083488Y-98999500D01*
X112078543Y-98998631D01*
X112075775Y-98999260D01*
X112041222Y-98992074D01*
X112002126Y-98977899D01*
X111959132Y-98962310D01*
X111902817Y-98920952D01*
X111877802Y-98855714D01*
X111892028Y-98787308D01*
X111939398Y-98738350D01*
X112039565Y-98680520D01*
X112151369Y-98568716D01*
X112151370Y-98568713D01*
X112152970Y-98567114D01*
X112160677Y-98558324D01*
X112282185Y-98436818D01*
X112343509Y-98403334D01*
X112369866Y-98400500D01*
X114333745Y-98400500D01*
X114400784Y-98420185D01*
G37*
G04 #@! TD.AperFunction*
G04 #@! TA.AperFunction,Conductor*
G36*
X115505085Y-89868919D02*
G01*
X115570004Y-89897583D01*
X115570009Y-89897585D01*
X115595135Y-89900500D01*
X116187999Y-89900499D01*
X116255037Y-89920183D01*
X116300792Y-89972987D01*
X116310736Y-90042146D01*
X116301433Y-90074584D01*
X116292415Y-90095006D01*
X116292415Y-90095008D01*
X116289500Y-90120131D01*
X116289500Y-91109856D01*
X116289502Y-91109882D01*
X116292413Y-91134987D01*
X116292414Y-91134988D01*
X116321081Y-91199914D01*
X116330152Y-91269192D01*
X116321081Y-91300084D01*
X116292415Y-91365006D01*
X116292415Y-91365008D01*
X116289500Y-91390131D01*
X116289500Y-92046689D01*
X116289333Y-92047255D01*
X116289495Y-92047825D01*
X116279492Y-92080771D01*
X116269815Y-92113728D01*
X116269369Y-92114114D01*
X116269197Y-92114681D01*
X116242942Y-92137012D01*
X116217011Y-92159483D01*
X116216427Y-92159566D01*
X116215976Y-92159951D01*
X116181856Y-92164537D01*
X116147853Y-92169427D01*
X116147118Y-92169207D01*
X116146729Y-92169260D01*
X116112957Y-92159007D01*
X115924036Y-92070629D01*
X115888898Y-92045992D01*
X114051376Y-90208469D01*
X114017891Y-90147146D01*
X114022875Y-90077454D01*
X114041177Y-90044660D01*
X114133070Y-89926510D01*
X114189764Y-89885680D01*
X114259536Y-89881981D01*
X114281030Y-89889204D01*
X114300009Y-89897585D01*
X114325135Y-89900500D01*
X115314864Y-89900499D01*
X115314879Y-89900497D01*
X115314882Y-89900497D01*
X115339987Y-89897586D01*
X115339987Y-89897585D01*
X115339991Y-89897585D01*
X115404914Y-89868918D01*
X115474190Y-89859847D01*
X115505085Y-89868919D01*
G37*
G04 #@! TD.AperFunction*
G04 #@! TA.AperFunction,Conductor*
G36*
X110455112Y-83018930D02*
G01*
X110493424Y-83077360D01*
X110494064Y-83147226D01*
X110482161Y-83175381D01*
X110475792Y-83186411D01*
X110475792Y-83186412D01*
X110475793Y-83186413D01*
X110448500Y-83288273D01*
X110448500Y-87551561D01*
X110446784Y-87560073D01*
X110447723Y-87565424D01*
X110438826Y-87599578D01*
X110385358Y-87726881D01*
X110341249Y-87781068D01*
X110274846Y-87802805D01*
X110256741Y-87802038D01*
X110243484Y-87800500D01*
X110234865Y-87799500D01*
X109245143Y-87799500D01*
X109245117Y-87799502D01*
X109220012Y-87802413D01*
X109220007Y-87802415D01*
X109201035Y-87810792D01*
X109131757Y-87819862D01*
X109068572Y-87790038D01*
X109053071Y-87773485D01*
X108896620Y-87572333D01*
X108871000Y-87507331D01*
X108870500Y-87496205D01*
X108870500Y-84447254D01*
X108890185Y-84380215D01*
X108906814Y-84359578D01*
X110199901Y-83066490D01*
X110204007Y-83063611D01*
X110205520Y-83061210D01*
X110235036Y-83041857D01*
X110322229Y-83001067D01*
X110391293Y-82990489D01*
X110455112Y-83018930D01*
G37*
G04 #@! TD.AperFunction*
G04 #@! TA.AperFunction,Conductor*
G36*
X118995039Y-80220185D02*
G01*
X119040794Y-80272989D01*
X119052000Y-80324500D01*
X119052000Y-107578931D01*
X119032315Y-107645970D01*
X118979511Y-107691725D01*
X118910353Y-107701669D01*
X118852754Y-107676293D01*
X118852528Y-107676633D01*
X118850600Y-107675344D01*
X118849343Y-107674791D01*
X118847464Y-107673249D01*
X118683684Y-107563814D01*
X118683671Y-107563807D01*
X118501691Y-107488429D01*
X118501683Y-107488427D01*
X118460000Y-107480135D01*
X118460000Y-108283011D01*
X118450060Y-108265795D01*
X118394205Y-108209940D01*
X118325796Y-108170444D01*
X118249496Y-108150000D01*
X118170504Y-108150000D01*
X118094204Y-108170444D01*
X118025795Y-108209940D01*
X117969940Y-108265795D01*
X117960000Y-108283011D01*
X117960000Y-107480136D01*
X117959999Y-107480135D01*
X117918316Y-107488427D01*
X117918308Y-107488429D01*
X117736328Y-107563807D01*
X117736315Y-107563814D01*
X117572537Y-107673248D01*
X117572533Y-107673251D01*
X117433251Y-107812533D01*
X117433248Y-107812537D01*
X117323814Y-107976315D01*
X117323807Y-107976328D01*
X117248430Y-108158306D01*
X117248427Y-108158318D01*
X117210000Y-108351504D01*
X117210000Y-108750000D01*
X117910000Y-108750000D01*
X117910000Y-109250000D01*
X117183110Y-109250000D01*
X117116071Y-109230315D01*
X117095429Y-109213681D01*
X117041265Y-109159517D01*
X117041263Y-109159515D01*
X116944237Y-109103497D01*
X116836018Y-109074500D01*
X116723982Y-109074500D01*
X116615763Y-109103497D01*
X116615760Y-109103498D01*
X116518740Y-109159513D01*
X116518734Y-109159517D01*
X116439517Y-109238734D01*
X116439513Y-109238740D01*
X116383498Y-109335760D01*
X116383497Y-109335763D01*
X116354500Y-109443982D01*
X116354500Y-109556018D01*
X116383497Y-109664237D01*
X116439515Y-109761263D01*
X116518737Y-109840485D01*
X116615763Y-109896503D01*
X116723982Y-109925500D01*
X116723984Y-109925500D01*
X116836016Y-109925500D01*
X116836018Y-109925500D01*
X116944237Y-109896503D01*
X117041263Y-109840485D01*
X117056174Y-109825573D01*
X117117494Y-109792088D01*
X117187186Y-109797071D01*
X117243120Y-109838941D01*
X117258416Y-109865801D01*
X117323809Y-110023675D01*
X117323814Y-110023684D01*
X117433248Y-110187462D01*
X117433251Y-110187466D01*
X117572533Y-110326748D01*
X117572537Y-110326751D01*
X117736315Y-110436185D01*
X117736328Y-110436192D01*
X117918308Y-110511569D01*
X117960000Y-110519862D01*
X117960000Y-109716988D01*
X117969940Y-109734205D01*
X118025795Y-109790060D01*
X118094204Y-109829556D01*
X118170504Y-109850000D01*
X118249496Y-109850000D01*
X118325796Y-109829556D01*
X118394205Y-109790060D01*
X118450060Y-109734205D01*
X118460000Y-109716988D01*
X118460000Y-110519862D01*
X118501690Y-110511569D01*
X118501692Y-110511569D01*
X118683671Y-110436192D01*
X118683684Y-110436185D01*
X118847464Y-110326750D01*
X118849334Y-110325216D01*
X118850505Y-110324718D01*
X118852528Y-110323367D01*
X118852784Y-110323750D01*
X118913644Y-110297902D01*
X118982512Y-110309693D01*
X119034072Y-110356844D01*
X119052000Y-110421068D01*
X119052000Y-111908931D01*
X119032315Y-111975970D01*
X118979511Y-112021725D01*
X118910353Y-112031669D01*
X118852754Y-112006293D01*
X118852528Y-112006633D01*
X118850600Y-112005344D01*
X118849343Y-112004791D01*
X118847464Y-112003249D01*
X118683684Y-111893814D01*
X118683671Y-111893807D01*
X118501691Y-111818429D01*
X118501683Y-111818427D01*
X118460000Y-111810135D01*
X118460000Y-112613011D01*
X118450060Y-112595795D01*
X118394205Y-112539940D01*
X118325796Y-112500444D01*
X118249496Y-112480000D01*
X118170504Y-112480000D01*
X118094204Y-112500444D01*
X118025795Y-112539940D01*
X117969940Y-112595795D01*
X117960000Y-112613011D01*
X117960000Y-111810136D01*
X117959999Y-111810135D01*
X117918316Y-111818427D01*
X117918308Y-111818429D01*
X117736328Y-111893807D01*
X117736315Y-111893814D01*
X117572537Y-112003248D01*
X117572533Y-112003251D01*
X117433251Y-112142533D01*
X117433248Y-112142537D01*
X117323814Y-112306315D01*
X117323807Y-112306328D01*
X117248430Y-112488306D01*
X117248427Y-112488318D01*
X117210000Y-112681504D01*
X117210000Y-112930000D01*
X117910000Y-112930000D01*
X117910000Y-113430000D01*
X117210000Y-113430000D01*
X117210000Y-113678495D01*
X117248427Y-113871681D01*
X117248430Y-113871693D01*
X117323807Y-114053671D01*
X117323814Y-114053684D01*
X117433248Y-114217462D01*
X117433251Y-114217466D01*
X117572533Y-114356748D01*
X117572537Y-114356751D01*
X117736315Y-114466185D01*
X117736328Y-114466192D01*
X117918306Y-114541569D01*
X117918318Y-114541572D01*
X117980206Y-114553883D01*
X118042117Y-114586267D01*
X118076691Y-114646983D01*
X118072952Y-114716753D01*
X118032086Y-114773425D01*
X117967068Y-114799006D01*
X117956015Y-114799500D01*
X109823985Y-114799500D01*
X109756946Y-114779815D01*
X109711191Y-114727011D01*
X109701247Y-114657853D01*
X109730272Y-114594297D01*
X109789050Y-114556523D01*
X109799794Y-114553883D01*
X109861681Y-114541572D01*
X109861693Y-114541569D01*
X110043671Y-114466192D01*
X110043684Y-114466185D01*
X110207462Y-114356751D01*
X110207466Y-114356748D01*
X110346748Y-114217466D01*
X110346751Y-114217462D01*
X110456185Y-114053684D01*
X110456192Y-114053671D01*
X110531569Y-113871693D01*
X110531572Y-113871681D01*
X110569999Y-113678495D01*
X110570000Y-113678492D01*
X110570000Y-113430000D01*
X109870000Y-113430000D01*
X109870000Y-112930000D01*
X110570000Y-112930000D01*
X110570000Y-112681508D01*
X110569999Y-112681504D01*
X110531572Y-112488318D01*
X110531569Y-112488306D01*
X110456192Y-112306328D01*
X110456185Y-112306315D01*
X110346751Y-112142537D01*
X110346748Y-112142533D01*
X110207466Y-112003251D01*
X110207462Y-112003248D01*
X110043684Y-111893814D01*
X110043671Y-111893807D01*
X109861691Y-111818429D01*
X109861683Y-111818427D01*
X109820000Y-111810135D01*
X109820000Y-112613011D01*
X109810060Y-112595795D01*
X109754205Y-112539940D01*
X109685796Y-112500444D01*
X109609496Y-112480000D01*
X109530504Y-112480000D01*
X109454204Y-112500444D01*
X109385795Y-112539940D01*
X109329940Y-112595795D01*
X109320000Y-112613011D01*
X109320000Y-111810136D01*
X109319999Y-111810135D01*
X109278316Y-111818427D01*
X109278308Y-111818429D01*
X109096328Y-111893807D01*
X109096315Y-111893814D01*
X108932537Y-112003248D01*
X108932533Y-112003251D01*
X108793251Y-112142533D01*
X108793248Y-112142537D01*
X108683814Y-112306315D01*
X108683807Y-112306328D01*
X108608430Y-112488306D01*
X108608427Y-112488318D01*
X108570000Y-112681504D01*
X108570000Y-112930000D01*
X109270000Y-112930000D01*
X109270000Y-113430000D01*
X108570000Y-113430000D01*
X108570000Y-113678495D01*
X108608427Y-113871681D01*
X108608430Y-113871693D01*
X108683807Y-114053671D01*
X108683814Y-114053684D01*
X108793248Y-114217462D01*
X108793251Y-114217466D01*
X108932533Y-114356748D01*
X108932537Y-114356751D01*
X109096315Y-114466185D01*
X109096328Y-114466192D01*
X109278306Y-114541569D01*
X109278318Y-114541572D01*
X109340206Y-114553883D01*
X109402117Y-114586267D01*
X109436691Y-114646983D01*
X109432952Y-114716753D01*
X109392086Y-114773425D01*
X109327068Y-114799006D01*
X109316015Y-114799500D01*
X98214000Y-114799500D01*
X98146961Y-114779815D01*
X98101206Y-114727011D01*
X98090000Y-114675500D01*
X98090000Y-111959448D01*
X99949500Y-111959448D01*
X99949500Y-112440551D01*
X99977829Y-112619410D01*
X100033787Y-112791636D01*
X100033788Y-112791639D01*
X100116006Y-112952997D01*
X100222441Y-113099494D01*
X100222445Y-113099499D01*
X100350500Y-113227554D01*
X100350505Y-113227558D01*
X100478287Y-113320396D01*
X100497006Y-113333996D01*
X100573632Y-113373039D01*
X100658360Y-113416211D01*
X100658363Y-113416212D01*
X100734815Y-113441052D01*
X100830591Y-113472171D01*
X100913429Y-113485291D01*
X101009449Y-113500500D01*
X101009454Y-113500500D01*
X101190551Y-113500500D01*
X101277259Y-113486765D01*
X101369409Y-113472171D01*
X101541639Y-113416211D01*
X101702994Y-113333996D01*
X101849501Y-113227553D01*
X101977553Y-113099501D01*
X102034624Y-113020948D01*
X102089954Y-112978282D01*
X102159567Y-112972303D01*
X102221362Y-113004908D01*
X102255720Y-113065746D01*
X102258301Y-113081230D01*
X102260494Y-113102697D01*
X102315641Y-113269119D01*
X102315644Y-113269126D01*
X102381538Y-113375954D01*
X102400000Y-113441052D01*
X102400000Y-113800000D01*
X105100000Y-113800000D01*
X105100000Y-111641512D01*
X113349500Y-111641512D01*
X113349500Y-111654017D01*
X113349500Y-112058493D01*
X113365279Y-112158121D01*
X113365280Y-112158124D01*
X113365281Y-112158126D01*
X113400000Y-112226265D01*
X113426473Y-112278221D01*
X113426476Y-112278225D01*
X113521774Y-112373523D01*
X113521778Y-112373526D01*
X113521780Y-112373528D01*
X113641874Y-112434719D01*
X113641876Y-112434719D01*
X113641878Y-112434720D01*
X113741507Y-112450500D01*
X113741512Y-112450500D01*
X114058493Y-112450500D01*
X114158121Y-112434720D01*
X114158121Y-112434719D01*
X114158126Y-112434719D01*
X114278220Y-112373528D01*
X114312318Y-112339430D01*
X114373640Y-112305944D01*
X114443332Y-112310928D01*
X114487682Y-112339430D01*
X114521775Y-112373524D01*
X114521778Y-112373526D01*
X114521780Y-112373528D01*
X114641874Y-112434719D01*
X114641876Y-112434719D01*
X114641878Y-112434720D01*
X114741507Y-112450500D01*
X114741512Y-112450500D01*
X115058493Y-112450500D01*
X115158121Y-112434720D01*
X115158121Y-112434719D01*
X115158126Y-112434719D01*
X115278220Y-112373528D01*
X115373528Y-112278220D01*
X115434719Y-112158126D01*
X115438513Y-112134174D01*
X115450500Y-112058493D01*
X115450500Y-111641506D01*
X115434720Y-111541878D01*
X115434719Y-111541876D01*
X115434719Y-111541874D01*
X115385852Y-111445967D01*
X115372759Y-111379472D01*
X115374733Y-111355572D01*
X115412529Y-110897834D01*
X115414583Y-110886020D01*
X115415500Y-110879059D01*
X115415500Y-110720946D01*
X115415500Y-110720943D01*
X115396739Y-110650926D01*
X115398402Y-110581082D01*
X115437564Y-110523219D01*
X115484418Y-110499063D01*
X115631784Y-110459577D01*
X115768716Y-110380520D01*
X115880520Y-110268716D01*
X115959577Y-110131784D01*
X116000500Y-109979057D01*
X116000500Y-109820943D01*
X115959577Y-109668216D01*
X115931437Y-109619475D01*
X115880524Y-109531290D01*
X115880518Y-109531282D01*
X115768717Y-109419481D01*
X115768709Y-109419475D01*
X115631790Y-109340426D01*
X115631786Y-109340424D01*
X115631784Y-109340423D01*
X115479057Y-109299500D01*
X115320943Y-109299500D01*
X115168216Y-109340423D01*
X115168209Y-109340426D01*
X115031290Y-109419475D01*
X115031282Y-109419481D01*
X114919481Y-109531282D01*
X114919475Y-109531290D01*
X114840426Y-109668209D01*
X114840423Y-109668216D01*
X114799500Y-109820943D01*
X114799500Y-109979057D01*
X114811455Y-110023675D01*
X114818260Y-110049069D01*
X114816597Y-110118918D01*
X114777435Y-110176781D01*
X114730579Y-110200937D01*
X114583215Y-110240423D01*
X114451999Y-110316180D01*
X114384099Y-110332652D01*
X114328001Y-110316180D01*
X114196784Y-110240423D01*
X114044057Y-110199500D01*
X113885943Y-110199500D01*
X113733216Y-110240423D01*
X113733209Y-110240426D01*
X113596290Y-110319475D01*
X113596282Y-110319481D01*
X113484481Y-110431282D01*
X113484475Y-110431290D01*
X113405426Y-110568209D01*
X113405423Y-110568216D01*
X113364500Y-110720943D01*
X113364500Y-110879057D01*
X113364501Y-110879059D01*
X113365419Y-110886033D01*
X113367468Y-110897824D01*
X113410029Y-111413249D01*
X113405673Y-111457540D01*
X113402376Y-111469069D01*
X113365281Y-111541874D01*
X113349500Y-111641512D01*
X105100000Y-111641512D01*
X105100000Y-110600000D01*
X102400000Y-110600000D01*
X102400000Y-110958945D01*
X102381539Y-111024041D01*
X102315645Y-111130871D01*
X102315642Y-111130878D01*
X102269109Y-111271305D01*
X102229336Y-111328749D01*
X102164820Y-111355572D01*
X102096044Y-111343257D01*
X102044844Y-111295714D01*
X102035035Y-111275131D01*
X101996687Y-111170943D01*
X101789244Y-110607345D01*
X101784562Y-110537635D01*
X101788322Y-110524282D01*
X101880737Y-110255004D01*
X101890856Y-110218158D01*
X101890857Y-110218152D01*
X101891186Y-110216955D01*
X101895399Y-110204317D01*
X101902497Y-110186321D01*
X101913000Y-110098860D01*
X101913000Y-109520943D01*
X105099500Y-109520943D01*
X105099500Y-109679057D01*
X105138760Y-109825575D01*
X105140423Y-109831783D01*
X105140426Y-109831790D01*
X105219475Y-109968709D01*
X105219479Y-109968714D01*
X105219480Y-109968716D01*
X105331284Y-110080520D01*
X105331286Y-110080521D01*
X105331290Y-110080524D01*
X105420087Y-110131790D01*
X105468216Y-110159577D01*
X105620943Y-110200500D01*
X105620945Y-110200500D01*
X105779055Y-110200500D01*
X105779057Y-110200500D01*
X105931784Y-110159577D01*
X106068716Y-110080520D01*
X106180520Y-109968716D01*
X106259577Y-109831784D01*
X106300500Y-109679057D01*
X106300500Y-109520943D01*
X106259577Y-109368216D01*
X106189689Y-109247166D01*
X106180522Y-109231287D01*
X106180518Y-109231282D01*
X106068717Y-109119481D01*
X106068709Y-109119475D01*
X105931790Y-109040426D01*
X105931786Y-109040424D01*
X105931784Y-109040423D01*
X105779057Y-108999500D01*
X105620943Y-108999500D01*
X105468216Y-109040423D01*
X105468209Y-109040426D01*
X105331290Y-109119475D01*
X105331282Y-109119481D01*
X105219481Y-109231282D01*
X105219475Y-109231290D01*
X105140426Y-109368209D01*
X105140423Y-109368216D01*
X105099500Y-109520943D01*
X101913000Y-109520943D01*
X101913000Y-109101140D01*
X101902497Y-109013679D01*
X101847611Y-108874500D01*
X101757211Y-108755288D01*
X101637999Y-108664888D01*
X101637997Y-108664887D01*
X101498822Y-108610003D01*
X101486326Y-108608502D01*
X101411360Y-108599500D01*
X100838640Y-108599500D01*
X100773044Y-108607377D01*
X100751177Y-108610003D01*
X100612002Y-108664887D01*
X100612000Y-108664888D01*
X100492788Y-108755288D01*
X100402388Y-108874500D01*
X100402387Y-108874502D01*
X100347503Y-109013677D01*
X100347503Y-109013679D01*
X100337000Y-109101140D01*
X100337000Y-110098860D01*
X100347503Y-110186321D01*
X100353267Y-110200937D01*
X100360851Y-110220170D01*
X100361371Y-110225941D01*
X100364501Y-110230819D01*
X100368179Y-110247635D01*
X100369260Y-110254997D01*
X100369264Y-110255012D01*
X100456317Y-110508670D01*
X100459460Y-110578469D01*
X100454123Y-110595074D01*
X100101586Y-111474198D01*
X100096980Y-111484339D01*
X100033791Y-111608355D01*
X100033787Y-111608363D01*
X99977829Y-111780589D01*
X99949500Y-111959448D01*
X98090000Y-111959448D01*
X98090000Y-109101140D01*
X98462000Y-109101140D01*
X98462000Y-110098860D01*
X98472503Y-110186321D01*
X98478267Y-110200937D01*
X98485851Y-110220170D01*
X98493179Y-110247635D01*
X98494260Y-110254997D01*
X98494264Y-110255012D01*
X98673068Y-110776017D01*
X98679362Y-110826472D01*
X98652468Y-111152172D01*
X98650411Y-111164014D01*
X98649500Y-111170942D01*
X98649500Y-111170943D01*
X98649500Y-111329057D01*
X98689778Y-111479374D01*
X98690423Y-111481783D01*
X98690426Y-111481790D01*
X98769475Y-111618709D01*
X98769479Y-111618714D01*
X98769480Y-111618716D01*
X98881284Y-111730520D01*
X98881286Y-111730521D01*
X98881290Y-111730524D01*
X99018209Y-111809573D01*
X99018216Y-111809577D01*
X99170943Y-111850500D01*
X99170945Y-111850500D01*
X99329055Y-111850500D01*
X99329057Y-111850500D01*
X99481784Y-111809577D01*
X99618716Y-111730520D01*
X99730520Y-111618716D01*
X99809577Y-111481784D01*
X99850500Y-111329057D01*
X99850500Y-111170943D01*
X99850500Y-111170942D01*
X99850500Y-111170941D01*
X99849582Y-111163976D01*
X99847529Y-111152167D01*
X99820635Y-110826471D01*
X99826928Y-110776021D01*
X100005737Y-110255004D01*
X100015856Y-110218158D01*
X100015857Y-110218152D01*
X100016186Y-110216955D01*
X100016809Y-110215084D01*
X100016810Y-110214762D01*
X100017032Y-110214416D01*
X100020399Y-110204317D01*
X100027497Y-110186321D01*
X100038000Y-110098860D01*
X100038000Y-109101140D01*
X100027497Y-109013679D01*
X99972611Y-108874500D01*
X99882211Y-108755288D01*
X99762999Y-108664888D01*
X99762997Y-108664887D01*
X99623822Y-108610003D01*
X99611326Y-108608502D01*
X99536360Y-108599500D01*
X98963640Y-108599500D01*
X98898044Y-108607377D01*
X98876177Y-108610003D01*
X98737002Y-108664887D01*
X98737000Y-108664888D01*
X98617788Y-108755288D01*
X98527388Y-108874500D01*
X98527387Y-108874502D01*
X98472503Y-109013677D01*
X98472503Y-109013679D01*
X98462000Y-109101140D01*
X98090000Y-109101140D01*
X98090000Y-102120943D01*
X100199500Y-102120943D01*
X100199500Y-102279057D01*
X100229538Y-102391158D01*
X100240423Y-102431783D01*
X100240426Y-102431790D01*
X100319475Y-102568709D01*
X100319479Y-102568714D01*
X100319480Y-102568716D01*
X100431284Y-102680520D01*
X100431286Y-102680521D01*
X100431290Y-102680524D01*
X100526627Y-102735566D01*
X100568216Y-102759577D01*
X100720943Y-102800500D01*
X100720945Y-102800500D01*
X100879055Y-102800500D01*
X100879057Y-102800500D01*
X101031784Y-102759577D01*
X101168716Y-102680520D01*
X101280520Y-102568716D01*
X101359577Y-102431784D01*
X101400500Y-102279057D01*
X101400500Y-102120943D01*
X101359577Y-101968216D01*
X101331531Y-101919638D01*
X101280524Y-101831290D01*
X101280518Y-101831282D01*
X101168717Y-101719481D01*
X101168709Y-101719475D01*
X101031790Y-101640426D01*
X101031786Y-101640424D01*
X101031784Y-101640423D01*
X100879057Y-101599500D01*
X100720943Y-101599500D01*
X100568216Y-101640423D01*
X100568209Y-101640426D01*
X100431290Y-101719475D01*
X100431282Y-101719481D01*
X100319481Y-101831282D01*
X100319475Y-101831290D01*
X100240426Y-101968209D01*
X100240423Y-101968216D01*
X100199500Y-102120943D01*
X98090000Y-102120943D01*
X98090000Y-101124000D01*
X105194500Y-101124000D01*
X105194500Y-101876000D01*
X105194501Y-101876009D01*
X105198789Y-101915892D01*
X105199500Y-101929147D01*
X105199500Y-102079057D01*
X105216156Y-102141216D01*
X105240423Y-102231783D01*
X105240426Y-102231790D01*
X105319475Y-102368709D01*
X105319479Y-102368714D01*
X105319480Y-102368716D01*
X105431284Y-102480520D01*
X105431286Y-102480521D01*
X105431290Y-102480524D01*
X105552953Y-102550765D01*
X105568216Y-102559577D01*
X105720943Y-102600500D01*
X105720945Y-102600500D01*
X105879055Y-102600500D01*
X105879057Y-102600500D01*
X106031784Y-102559577D01*
X106168716Y-102480520D01*
X106280520Y-102368716D01*
X106359577Y-102231784D01*
X106400500Y-102079057D01*
X106400500Y-101920943D01*
X106400500Y-101919638D01*
X106401763Y-101901987D01*
X106405500Y-101876000D01*
X106405500Y-101124000D01*
X106401210Y-101084096D01*
X106400500Y-101070841D01*
X106400500Y-100920945D01*
X106400500Y-100920943D01*
X106359577Y-100768216D01*
X106359573Y-100768209D01*
X106280524Y-100631290D01*
X106280518Y-100631282D01*
X106168717Y-100519481D01*
X106168709Y-100519475D01*
X106031790Y-100440426D01*
X106031786Y-100440424D01*
X106031784Y-100440423D01*
X105879057Y-100399500D01*
X105720943Y-100399500D01*
X105568216Y-100440423D01*
X105568209Y-100440426D01*
X105431290Y-100519475D01*
X105431282Y-100519481D01*
X105319481Y-100631282D01*
X105319475Y-100631290D01*
X105240426Y-100768209D01*
X105240423Y-100768216D01*
X105199500Y-100920943D01*
X105199500Y-101080354D01*
X105198481Y-101094600D01*
X105198504Y-101096036D01*
X105198375Y-101097045D01*
X105194500Y-101124000D01*
X98090000Y-101124000D01*
X98090000Y-94520943D01*
X101499500Y-94520943D01*
X101499500Y-94679056D01*
X101540423Y-94831783D01*
X101540426Y-94831790D01*
X101619475Y-94968709D01*
X101619479Y-94968714D01*
X101619480Y-94968716D01*
X101731284Y-95080520D01*
X101731286Y-95080521D01*
X101731290Y-95080524D01*
X101868209Y-95159573D01*
X101868216Y-95159577D01*
X102020943Y-95200500D01*
X102020945Y-95200500D01*
X102179055Y-95200500D01*
X102179057Y-95200500D01*
X102331784Y-95159577D01*
X102468716Y-95080520D01*
X102580520Y-94968716D01*
X102659577Y-94831784D01*
X102700500Y-94679057D01*
X102700500Y-94520943D01*
X102659577Y-94368216D01*
X102618015Y-94296227D01*
X102580524Y-94231290D01*
X102580518Y-94231282D01*
X102468717Y-94119481D01*
X102468709Y-94119475D01*
X102331790Y-94040426D01*
X102331786Y-94040424D01*
X102331784Y-94040423D01*
X102179057Y-93999500D01*
X102020943Y-93999500D01*
X101868216Y-94040423D01*
X101868209Y-94040426D01*
X101731290Y-94119475D01*
X101731282Y-94119481D01*
X101619481Y-94231282D01*
X101619475Y-94231290D01*
X101540426Y-94368209D01*
X101540423Y-94368216D01*
X101499500Y-94520943D01*
X98090000Y-94520943D01*
X98090000Y-93120943D01*
X98399500Y-93120943D01*
X98399500Y-93279056D01*
X98440423Y-93431783D01*
X98440426Y-93431790D01*
X98519475Y-93568709D01*
X98519479Y-93568714D01*
X98519480Y-93568716D01*
X98631284Y-93680520D01*
X98631286Y-93680521D01*
X98631290Y-93680524D01*
X98768209Y-93759573D01*
X98768216Y-93759577D01*
X98920943Y-93800500D01*
X98920945Y-93800500D01*
X99079055Y-93800500D01*
X99079057Y-93800500D01*
X99154800Y-93780204D01*
X99175424Y-93776812D01*
X99197969Y-93768637D01*
X99231784Y-93759577D01*
X99237223Y-93756436D01*
X99256949Y-93747252D01*
X99641218Y-93607926D01*
X99683485Y-93600500D01*
X100752725Y-93600500D01*
X100752727Y-93600500D01*
X100854588Y-93573207D01*
X100945913Y-93520480D01*
X101945450Y-92520943D01*
X113199500Y-92520943D01*
X113199500Y-92679057D01*
X113240289Y-92831282D01*
X113240423Y-92831783D01*
X113240426Y-92831790D01*
X113319475Y-92968709D01*
X113319479Y-92968714D01*
X113319480Y-92968716D01*
X113431284Y-93080520D01*
X113431286Y-93080521D01*
X113431290Y-93080524D01*
X113501299Y-93120943D01*
X113568216Y-93159577D01*
X113720943Y-93200500D01*
X113720945Y-93200500D01*
X113879055Y-93200500D01*
X113879057Y-93200500D01*
X114031784Y-93159577D01*
X114168716Y-93080520D01*
X114280520Y-92968716D01*
X114359577Y-92831784D01*
X114400500Y-92679057D01*
X114400500Y-92520943D01*
X114359577Y-92368216D01*
X114359573Y-92368209D01*
X114280524Y-92231290D01*
X114280518Y-92231282D01*
X114168717Y-92119481D01*
X114168709Y-92119475D01*
X114031790Y-92040426D01*
X114031786Y-92040424D01*
X114031784Y-92040423D01*
X113879057Y-91999500D01*
X113720943Y-91999500D01*
X113568216Y-92040423D01*
X113568209Y-92040426D01*
X113431290Y-92119475D01*
X113431282Y-92119481D01*
X113319481Y-92231282D01*
X113319475Y-92231290D01*
X113240426Y-92368209D01*
X113240423Y-92368216D01*
X113199500Y-92520943D01*
X101945450Y-92520943D01*
X102440480Y-92025913D01*
X102493207Y-91934588D01*
X102520500Y-91832727D01*
X102520500Y-91727273D01*
X102520500Y-90203791D01*
X102540185Y-90136752D01*
X102546620Y-90127663D01*
X102552984Y-90119481D01*
X102703071Y-89926510D01*
X102759764Y-89885680D01*
X102829536Y-89881981D01*
X102851030Y-89889204D01*
X102870009Y-89897585D01*
X102895135Y-89900500D01*
X103151374Y-89900499D01*
X103218411Y-89920183D01*
X103264166Y-89972987D01*
X103274110Y-90042146D01*
X103245085Y-90105701D01*
X103236804Y-90113506D01*
X103237031Y-90113733D01*
X103119481Y-90231282D01*
X103119475Y-90231290D01*
X103040426Y-90368209D01*
X103040423Y-90368216D01*
X102999500Y-90520943D01*
X102999500Y-90679057D01*
X103023525Y-90768717D01*
X103040423Y-90831783D01*
X103040426Y-90831790D01*
X103119475Y-90968709D01*
X103119479Y-90968714D01*
X103119480Y-90968716D01*
X103231284Y-91080520D01*
X103231286Y-91080521D01*
X103231290Y-91080524D01*
X103325624Y-91134987D01*
X103368216Y-91159577D01*
X103520943Y-91200500D01*
X103520945Y-91200500D01*
X103679055Y-91200500D01*
X103679057Y-91200500D01*
X103831784Y-91159577D01*
X103968716Y-91080520D01*
X104080520Y-90968716D01*
X104159577Y-90831784D01*
X104200500Y-90679057D01*
X104200500Y-90520943D01*
X104159577Y-90368216D01*
X104159573Y-90368209D01*
X104080524Y-90231290D01*
X104080518Y-90231282D01*
X103968717Y-90119481D01*
X103968712Y-90119477D01*
X103937050Y-90101197D01*
X103928230Y-90091946D01*
X103916671Y-90086491D01*
X103904578Y-90067141D01*
X103888834Y-90050630D01*
X103886415Y-90038080D01*
X103879641Y-90027241D01*
X103879929Y-90004422D01*
X103875612Y-89982022D01*
X103880361Y-89970158D01*
X103880523Y-89957377D01*
X103893100Y-89938338D01*
X103901580Y-89917158D01*
X103912896Y-89908373D01*
X103919036Y-89899080D01*
X103948961Y-89880378D01*
X103974916Y-89868917D01*
X104044193Y-89859848D01*
X104075085Y-89868919D01*
X104140004Y-89897583D01*
X104140009Y-89897585D01*
X104165135Y-89900500D01*
X105154864Y-89900499D01*
X105154879Y-89900497D01*
X105154882Y-89900497D01*
X105179987Y-89897586D01*
X105179987Y-89897585D01*
X105179991Y-89897585D01*
X105244914Y-89868918D01*
X105314190Y-89859847D01*
X105345085Y-89868919D01*
X105410004Y-89897583D01*
X105410009Y-89897585D01*
X105435135Y-89900500D01*
X106424864Y-89900499D01*
X106424879Y-89900497D01*
X106424882Y-89900497D01*
X106449987Y-89897586D01*
X106449987Y-89897585D01*
X106449991Y-89897585D01*
X106514914Y-89868918D01*
X106584190Y-89859847D01*
X106615085Y-89868919D01*
X106680004Y-89897583D01*
X106680009Y-89897585D01*
X106705135Y-89900500D01*
X107694864Y-89900499D01*
X107694879Y-89900497D01*
X107694882Y-89900497D01*
X107719987Y-89897586D01*
X107719987Y-89897585D01*
X107719991Y-89897585D01*
X107784914Y-89868918D01*
X107854190Y-89859847D01*
X107885085Y-89868919D01*
X107950004Y-89897583D01*
X107950009Y-89897585D01*
X107975135Y-89900500D01*
X108880214Y-89900499D01*
X108947253Y-89920183D01*
X108993008Y-89972987D01*
X109002952Y-90042146D01*
X108987602Y-90086498D01*
X108940423Y-90168215D01*
X108940423Y-90168216D01*
X108899500Y-90320943D01*
X108899500Y-90479057D01*
X108910724Y-90520943D01*
X108940423Y-90631783D01*
X108940426Y-90631790D01*
X109019475Y-90768709D01*
X109019479Y-90768714D01*
X109019480Y-90768716D01*
X109131284Y-90880520D01*
X109131286Y-90880521D01*
X109131290Y-90880524D01*
X109211998Y-90927120D01*
X109268216Y-90959577D01*
X109420943Y-91000500D01*
X109420945Y-91000500D01*
X109579055Y-91000500D01*
X109579057Y-91000500D01*
X109731784Y-90959577D01*
X109788002Y-90927119D01*
X109855899Y-90910647D01*
X109911996Y-90927118D01*
X109968216Y-90959577D01*
X110120943Y-91000500D01*
X110120945Y-91000500D01*
X110279055Y-91000500D01*
X110279057Y-91000500D01*
X110431784Y-90959577D01*
X110568716Y-90880520D01*
X110680520Y-90768716D01*
X110759577Y-90631784D01*
X110800500Y-90479057D01*
X110800500Y-90320943D01*
X110759577Y-90168216D01*
X110712397Y-90086498D01*
X110695925Y-90018599D01*
X110718778Y-89952572D01*
X110773699Y-89909381D01*
X110819785Y-89900499D01*
X111504856Y-89900499D01*
X111504864Y-89900499D01*
X111504879Y-89900497D01*
X111504882Y-89900497D01*
X111529987Y-89897586D01*
X111529987Y-89897585D01*
X111529991Y-89897585D01*
X111594914Y-89868918D01*
X111664190Y-89859847D01*
X111695085Y-89868919D01*
X111760004Y-89897583D01*
X111760009Y-89897585D01*
X111785135Y-89900500D01*
X112301374Y-89900499D01*
X112368412Y-89920183D01*
X112414167Y-89972987D01*
X112424111Y-90042146D01*
X112395086Y-90105702D01*
X112386804Y-90113506D01*
X112387031Y-90113733D01*
X112269481Y-90231282D01*
X112269475Y-90231290D01*
X112190426Y-90368209D01*
X112190423Y-90368216D01*
X112149500Y-90520943D01*
X112149500Y-90679057D01*
X112173525Y-90768717D01*
X112190423Y-90831783D01*
X112190426Y-90831790D01*
X112269475Y-90968709D01*
X112269479Y-90968714D01*
X112269480Y-90968716D01*
X112381284Y-91080520D01*
X112381286Y-91080521D01*
X112381290Y-91080524D01*
X112475624Y-91134987D01*
X112518216Y-91159577D01*
X112670943Y-91200500D01*
X112670945Y-91200500D01*
X112829055Y-91200500D01*
X112829057Y-91200500D01*
X112981784Y-91159577D01*
X113118716Y-91080520D01*
X113230520Y-90968716D01*
X113264046Y-90910647D01*
X113313641Y-90824746D01*
X113316695Y-90826509D01*
X113350189Y-90784731D01*
X113416427Y-90762498D01*
X113484170Y-90779605D01*
X113508847Y-90798725D01*
X114437394Y-91727273D01*
X115322505Y-92612384D01*
X115325386Y-92616494D01*
X115327789Y-92618007D01*
X115347139Y-92647518D01*
X115361894Y-92679057D01*
X115368975Y-92694193D01*
X115379551Y-92763258D01*
X115351110Y-92827077D01*
X115292681Y-92865388D01*
X115288755Y-92866510D01*
X115269035Y-92871794D01*
X115269029Y-92871797D01*
X115132110Y-92950846D01*
X115132102Y-92950852D01*
X115020301Y-93062653D01*
X115020295Y-93062661D01*
X114941246Y-93199580D01*
X114941243Y-93199587D01*
X114900320Y-93352314D01*
X114900320Y-93510428D01*
X114926445Y-93607926D01*
X114941243Y-93663154D01*
X114941246Y-93663161D01*
X115020295Y-93800080D01*
X115020299Y-93800085D01*
X115020300Y-93800087D01*
X115132104Y-93911891D01*
X115132106Y-93911892D01*
X115132110Y-93911895D01*
X115269029Y-93990944D01*
X115269036Y-93990948D01*
X115421763Y-94031871D01*
X115421765Y-94031871D01*
X115579875Y-94031871D01*
X115579877Y-94031871D01*
X115655620Y-94011575D01*
X115676244Y-94008183D01*
X115698789Y-94000008D01*
X115732604Y-93990948D01*
X115738043Y-93987807D01*
X115757769Y-93978623D01*
X116113654Y-93849587D01*
X116183388Y-93845242D01*
X116244402Y-93879288D01*
X116277324Y-93940915D01*
X116271701Y-94010559D01*
X116244999Y-94052424D01*
X116042278Y-94261762D01*
X115981500Y-94296227D01*
X115953200Y-94299500D01*
X115377604Y-94299500D01*
X115275741Y-94326793D01*
X115184418Y-94379520D01*
X115184415Y-94379522D01*
X114080434Y-95483502D01*
X114045296Y-95508139D01*
X113675048Y-95681344D01*
X113675048Y-95681343D01*
X113665148Y-95685973D01*
X113648547Y-95690423D01*
X113618257Y-95707910D01*
X113613433Y-95710167D01*
X113613418Y-95710175D01*
X113596505Y-95718087D01*
X113576103Y-95728582D01*
X113574632Y-95729410D01*
X113574597Y-95729431D01*
X113549737Y-95745041D01*
X113546445Y-95747688D01*
X113530766Y-95758422D01*
X113511615Y-95769479D01*
X113399809Y-95881286D01*
X113399806Y-95881290D01*
X113320757Y-96018209D01*
X113320754Y-96018216D01*
X113279831Y-96170943D01*
X113279831Y-96329057D01*
X113309672Y-96440423D01*
X113320754Y-96481783D01*
X113320757Y-96481790D01*
X113399806Y-96618709D01*
X113399810Y-96618714D01*
X113399811Y-96618716D01*
X113511615Y-96730520D01*
X113511617Y-96730521D01*
X113511621Y-96730524D01*
X113648540Y-96809573D01*
X113648547Y-96809577D01*
X113801274Y-96850500D01*
X113801276Y-96850500D01*
X113875500Y-96850500D01*
X113942539Y-96870185D01*
X113988294Y-96922989D01*
X113999500Y-96974500D01*
X113999500Y-97079056D01*
X114040423Y-97231783D01*
X114040426Y-97231790D01*
X114119475Y-97368709D01*
X114119481Y-97368717D01*
X114138583Y-97387819D01*
X114172068Y-97449142D01*
X114167084Y-97518834D01*
X114125212Y-97574767D01*
X114059748Y-97599184D01*
X114050902Y-97599500D01*
X112210508Y-97599500D01*
X112188947Y-97597611D01*
X112181733Y-97596337D01*
X112172082Y-97594633D01*
X112172081Y-97594633D01*
X111996422Y-97596395D01*
X111690797Y-97599461D01*
X111690796Y-97599461D01*
X111686911Y-97599500D01*
X111591792Y-97599500D01*
X111567167Y-97606098D01*
X111558721Y-97607450D01*
X111557722Y-97607873D01*
X111557111Y-97607912D01*
X111555741Y-97608305D01*
X111544537Y-97612160D01*
X111439069Y-97640421D01*
X111439058Y-97640426D01*
X111302139Y-97719475D01*
X111302131Y-97719481D01*
X111190330Y-97831282D01*
X111190324Y-97831290D01*
X111111275Y-97968209D01*
X111111272Y-97968216D01*
X111070349Y-98120943D01*
X111070349Y-98279057D01*
X111111138Y-98431282D01*
X111111272Y-98431783D01*
X111111275Y-98431790D01*
X111190324Y-98568709D01*
X111190330Y-98568717D01*
X111248076Y-98626463D01*
X111281561Y-98687786D01*
X111276577Y-98757478D01*
X111234705Y-98813411D01*
X111192491Y-98833918D01*
X111168218Y-98840422D01*
X111168209Y-98840426D01*
X111031290Y-98919475D01*
X111031282Y-98919481D01*
X110919481Y-99031282D01*
X110919475Y-99031290D01*
X110840426Y-99168209D01*
X110840423Y-99168216D01*
X110799500Y-99320943D01*
X110799500Y-99479057D01*
X110840289Y-99631282D01*
X110840423Y-99631783D01*
X110840426Y-99631790D01*
X110919475Y-99768709D01*
X110919479Y-99768714D01*
X110919480Y-99768716D01*
X111031284Y-99880520D01*
X111031285Y-99880521D01*
X111031287Y-99880522D01*
X111047244Y-99889735D01*
X111095460Y-99940302D01*
X111108682Y-100008909D01*
X111082714Y-100073774D01*
X111067415Y-100089987D01*
X111058057Y-100098266D01*
X111025770Y-100116908D01*
X110939545Y-100203132D01*
X110936706Y-100205645D01*
X110908363Y-100218945D01*
X110880892Y-100233946D01*
X110876994Y-100233667D01*
X110873456Y-100235328D01*
X110842429Y-100231195D01*
X110811201Y-100228962D01*
X110807420Y-100226532D01*
X110804198Y-100226103D01*
X110796220Y-100219334D01*
X110766854Y-100200461D01*
X109745915Y-99179522D01*
X109745914Y-99179521D01*
X109745913Y-99179520D01*
X109700250Y-99153156D01*
X109654589Y-99126793D01*
X109603657Y-99113146D01*
X109552727Y-99099500D01*
X109552726Y-99099500D01*
X108683488Y-99099500D01*
X108641221Y-99092074D01*
X108256948Y-98952745D01*
X108256948Y-98952744D01*
X108246672Y-98949018D01*
X108231784Y-98940423D01*
X108197990Y-98931367D01*
X108192963Y-98929545D01*
X108192955Y-98929543D01*
X108189492Y-98928287D01*
X108175408Y-98923180D01*
X108154027Y-98916308D01*
X108152362Y-98915840D01*
X108152355Y-98915838D01*
X108123242Y-98909164D01*
X108123229Y-98909161D01*
X108119015Y-98908702D01*
X108100364Y-98905208D01*
X108079064Y-98899501D01*
X108079058Y-98899500D01*
X108079057Y-98899500D01*
X107920943Y-98899500D01*
X107768216Y-98940423D01*
X107768209Y-98940426D01*
X107631290Y-99019475D01*
X107631282Y-99019481D01*
X107519481Y-99131282D01*
X107519475Y-99131290D01*
X107518722Y-99132595D01*
X107517799Y-99133474D01*
X107514530Y-99137735D01*
X107513865Y-99137224D01*
X107468151Y-99180806D01*
X107399543Y-99194024D01*
X107334680Y-99168050D01*
X107323659Y-99158267D01*
X107040160Y-98874768D01*
X106644913Y-98479520D01*
X106570952Y-98436818D01*
X106553589Y-98426793D01*
X106502657Y-98413146D01*
X106451727Y-98399500D01*
X106451726Y-98399500D01*
X99683488Y-98399500D01*
X99641221Y-98392074D01*
X99256948Y-98252745D01*
X99256948Y-98252744D01*
X99246672Y-98249018D01*
X99231784Y-98240423D01*
X99197990Y-98231367D01*
X99192963Y-98229545D01*
X99192955Y-98229543D01*
X99189492Y-98228287D01*
X99175408Y-98223180D01*
X99154027Y-98216308D01*
X99152362Y-98215840D01*
X99152355Y-98215838D01*
X99123242Y-98209164D01*
X99123229Y-98209161D01*
X99119015Y-98208702D01*
X99100364Y-98205208D01*
X99079064Y-98199501D01*
X99079058Y-98199500D01*
X99079057Y-98199500D01*
X98920943Y-98199500D01*
X98768216Y-98240423D01*
X98768209Y-98240426D01*
X98631290Y-98319475D01*
X98631282Y-98319481D01*
X98519481Y-98431282D01*
X98519475Y-98431290D01*
X98440426Y-98568209D01*
X98440423Y-98568216D01*
X98399500Y-98720943D01*
X98399500Y-98879057D01*
X98440289Y-99031282D01*
X98440423Y-99031783D01*
X98440426Y-99031790D01*
X98519475Y-99168709D01*
X98519479Y-99168714D01*
X98519480Y-99168716D01*
X98631284Y-99280520D01*
X98631286Y-99280521D01*
X98631290Y-99280524D01*
X98768209Y-99359573D01*
X98768216Y-99359577D01*
X98920943Y-99400500D01*
X98920945Y-99400500D01*
X99079055Y-99400500D01*
X99079057Y-99400500D01*
X99154800Y-99380204D01*
X99175424Y-99376812D01*
X99197969Y-99368637D01*
X99231784Y-99359577D01*
X99237223Y-99356436D01*
X99256949Y-99347252D01*
X99641218Y-99207926D01*
X99683485Y-99200500D01*
X106181745Y-99200500D01*
X106248784Y-99220185D01*
X106269426Y-99236819D01*
X107374179Y-100341571D01*
X107374189Y-100341582D01*
X107378519Y-100345912D01*
X107378520Y-100345913D01*
X107453087Y-100420480D01*
X107524082Y-100461469D01*
X107544413Y-100473207D01*
X107646273Y-100500501D01*
X107646275Y-100500501D01*
X107759323Y-100500501D01*
X107759339Y-100500500D01*
X109282745Y-100500500D01*
X109349784Y-100520185D01*
X109370426Y-100536819D01*
X109795927Y-100962320D01*
X109829412Y-101023643D01*
X109832246Y-101050001D01*
X109832246Y-101980019D01*
X109832246Y-102085473D01*
X109844758Y-102132170D01*
X109859539Y-102187335D01*
X109885202Y-102231783D01*
X109912266Y-102278659D01*
X112279518Y-104645910D01*
X112279520Y-104645913D01*
X112354087Y-104720480D01*
X112413164Y-104754588D01*
X112421658Y-104759492D01*
X112445407Y-104773204D01*
X112445410Y-104773206D01*
X112445412Y-104773206D01*
X112445413Y-104773207D01*
X112547273Y-104800501D01*
X112547275Y-104800501D01*
X112660323Y-104800501D01*
X112660339Y-104800500D01*
X115482745Y-104800500D01*
X115512185Y-104809144D01*
X115542172Y-104815668D01*
X115547187Y-104819422D01*
X115549784Y-104820185D01*
X115570426Y-104836819D01*
X115648346Y-104914739D01*
X115681831Y-104976062D01*
X115676847Y-105045754D01*
X115658545Y-105078548D01*
X115506928Y-105273485D01*
X115450232Y-105314318D01*
X115380460Y-105318017D01*
X115358961Y-105310791D01*
X115339992Y-105302415D01*
X115314865Y-105299500D01*
X114325143Y-105299500D01*
X114325117Y-105299502D01*
X114300012Y-105302413D01*
X114300010Y-105302414D01*
X114235085Y-105331081D01*
X114165807Y-105340152D01*
X114134915Y-105331081D01*
X114069992Y-105302415D01*
X114044865Y-105299500D01*
X113055143Y-105299500D01*
X113055117Y-105299502D01*
X113030012Y-105302413D01*
X113030010Y-105302414D01*
X112965085Y-105331081D01*
X112895807Y-105340152D01*
X112864915Y-105331081D01*
X112799992Y-105302415D01*
X112774865Y-105299500D01*
X111785143Y-105299500D01*
X111785117Y-105299502D01*
X111760012Y-105302413D01*
X111760010Y-105302414D01*
X111695085Y-105331081D01*
X111625807Y-105340152D01*
X111594915Y-105331081D01*
X111529992Y-105302415D01*
X111504865Y-105299500D01*
X110515143Y-105299500D01*
X110515117Y-105299502D01*
X110490012Y-105302413D01*
X110490007Y-105302415D01*
X110471035Y-105310792D01*
X110401757Y-105319862D01*
X110338572Y-105290038D01*
X110323071Y-105273485D01*
X110166620Y-105072333D01*
X110141000Y-105007331D01*
X110140500Y-104996205D01*
X110140500Y-104437275D01*
X110140500Y-104437273D01*
X110113207Y-104335412D01*
X110060480Y-104244087D01*
X108936819Y-103120426D01*
X108903334Y-103059103D01*
X108900500Y-103032745D01*
X108900500Y-102183483D01*
X108907926Y-102141216D01*
X108928138Y-102085472D01*
X109050975Y-101746683D01*
X109059577Y-101731784D01*
X109068637Y-101697969D01*
X109076812Y-101675424D01*
X109083704Y-101653982D01*
X109084173Y-101652314D01*
X109090835Y-101623242D01*
X109090834Y-101623237D01*
X109091289Y-101619063D01*
X109094786Y-101600381D01*
X109100500Y-101579057D01*
X109100500Y-101420943D01*
X109059577Y-101268216D01*
X109059573Y-101268209D01*
X108980524Y-101131290D01*
X108980518Y-101131282D01*
X108868717Y-101019481D01*
X108868709Y-101019475D01*
X108731790Y-100940426D01*
X108731786Y-100940424D01*
X108731784Y-100940423D01*
X108579057Y-100899500D01*
X108420943Y-100899500D01*
X108268216Y-100940423D01*
X108268209Y-100940426D01*
X108131290Y-101019475D01*
X108131282Y-101019481D01*
X108019481Y-101131282D01*
X108019475Y-101131290D01*
X107940426Y-101268209D01*
X107940423Y-101268216D01*
X107899500Y-101420943D01*
X107899500Y-101475500D01*
X107879815Y-101542539D01*
X107827011Y-101588294D01*
X107775500Y-101599500D01*
X107720943Y-101599500D01*
X107568216Y-101640423D01*
X107568209Y-101640426D01*
X107431290Y-101719475D01*
X107431282Y-101719481D01*
X107319481Y-101831282D01*
X107319475Y-101831290D01*
X107240426Y-101968209D01*
X107240423Y-101968216D01*
X107199500Y-102120943D01*
X107199500Y-102279058D01*
X107218206Y-102348875D01*
X107218207Y-102348875D01*
X107219793Y-102354793D01*
X107223187Y-102375422D01*
X107231359Y-102397962D01*
X107232744Y-102403128D01*
X107236785Y-102418207D01*
X107240423Y-102431784D01*
X107243563Y-102437223D01*
X107252747Y-102456950D01*
X107298096Y-102582022D01*
X107365992Y-102769283D01*
X107392074Y-102841216D01*
X107399500Y-102883483D01*
X107399500Y-103497273D01*
X107399500Y-103602727D01*
X107407341Y-103631991D01*
X107426793Y-103704589D01*
X107435609Y-103719858D01*
X107479520Y-103795913D01*
X107479522Y-103795915D01*
X108033181Y-104349574D01*
X108066666Y-104410897D01*
X108069500Y-104437255D01*
X108069500Y-104996205D01*
X108062949Y-105018513D01*
X108060863Y-105041674D01*
X108051144Y-105058716D01*
X108049815Y-105063244D01*
X108043380Y-105072333D01*
X108043379Y-105072334D01*
X107932878Y-105214406D01*
X107876182Y-105255238D01*
X107806410Y-105258936D01*
X107745715Y-105224326D01*
X107737119Y-105214406D01*
X107731954Y-105207765D01*
X107626619Y-105072333D01*
X107601000Y-105007333D01*
X107600500Y-104996207D01*
X107600500Y-104547274D01*
X107600499Y-104547267D01*
X107598681Y-104540483D01*
X107598680Y-104540481D01*
X107590131Y-104508574D01*
X107573207Y-104445412D01*
X107520480Y-104354087D01*
X106245913Y-103079520D01*
X106200250Y-103053156D01*
X106154589Y-103026793D01*
X106103657Y-103013146D01*
X106052727Y-102999500D01*
X106052726Y-102999500D01*
X104815654Y-102999500D01*
X104799081Y-102994633D01*
X104781811Y-102994792D01*
X104766253Y-102984994D01*
X104748615Y-102979815D01*
X104737071Y-102966615D01*
X104722689Y-102957558D01*
X104703337Y-102928043D01*
X104617923Y-102745460D01*
X104610465Y-102725009D01*
X104608842Y-102718951D01*
X104593993Y-102693233D01*
X104589076Y-102683799D01*
X104587541Y-102680518D01*
X104581176Y-102666910D01*
X104570753Y-102646636D01*
X104569904Y-102645126D01*
X104565944Y-102638816D01*
X104554219Y-102620136D01*
X104551573Y-102616844D01*
X104540836Y-102601160D01*
X104529787Y-102582022D01*
X104529783Y-102582017D01*
X104417982Y-102470216D01*
X104417974Y-102470210D01*
X104281055Y-102391161D01*
X104281051Y-102391159D01*
X104281049Y-102391158D01*
X104128322Y-102350235D01*
X103970208Y-102350235D01*
X103817481Y-102391158D01*
X103817474Y-102391161D01*
X103673510Y-102474278D01*
X103672419Y-102472388D01*
X103617924Y-102493455D01*
X103549479Y-102479416D01*
X103545609Y-102477272D01*
X103481786Y-102440424D01*
X103481785Y-102440423D01*
X103481784Y-102440423D01*
X103329057Y-102399500D01*
X103170943Y-102399500D01*
X103018216Y-102440423D01*
X103018215Y-102440423D01*
X102911997Y-102501747D01*
X102844096Y-102518218D01*
X102787999Y-102501747D01*
X102681781Y-102440423D01*
X102649536Y-102431783D01*
X102529054Y-102399500D01*
X102370940Y-102399500D01*
X102218213Y-102440423D01*
X102218206Y-102440426D01*
X102081287Y-102519475D01*
X102081279Y-102519481D01*
X101969478Y-102631282D01*
X101969472Y-102631290D01*
X101890423Y-102768209D01*
X101890419Y-102768218D01*
X101870694Y-102841828D01*
X101870194Y-102843638D01*
X101867387Y-102853511D01*
X101857521Y-102874360D01*
X101808640Y-103060170D01*
X101808298Y-103061375D01*
X101807362Y-103062858D01*
X101796412Y-103089466D01*
X101778538Y-103120426D01*
X101746792Y-103175409D01*
X101746792Y-103175410D01*
X101741101Y-103196646D01*
X101741102Y-103196647D01*
X101719500Y-103277268D01*
X101719500Y-103277270D01*
X101719500Y-103425590D01*
X101718058Y-103452909D01*
X101719500Y-103459744D01*
X101719500Y-104996205D01*
X101699815Y-105063244D01*
X101693380Y-105072334D01*
X101536928Y-105273486D01*
X101480231Y-105314318D01*
X101410459Y-105318016D01*
X101388961Y-105310791D01*
X101369992Y-105302415D01*
X101344865Y-105299500D01*
X100355143Y-105299500D01*
X100355117Y-105299502D01*
X100330012Y-105302413D01*
X100330008Y-105302415D01*
X100227235Y-105347793D01*
X100147794Y-105427234D01*
X100102415Y-105530006D01*
X100102415Y-105530008D01*
X100099500Y-105555131D01*
X100099500Y-107144856D01*
X100099502Y-107144882D01*
X100102413Y-107169987D01*
X100102415Y-107169991D01*
X100147793Y-107272764D01*
X100147794Y-107272765D01*
X100227235Y-107352206D01*
X100330009Y-107397585D01*
X100355135Y-107400500D01*
X101344864Y-107400499D01*
X101344879Y-107400497D01*
X101344882Y-107400497D01*
X101369987Y-107397586D01*
X101369987Y-107397585D01*
X101369991Y-107397585D01*
X101434914Y-107368918D01*
X101504190Y-107359847D01*
X101535085Y-107368919D01*
X101600004Y-107397583D01*
X101600009Y-107397585D01*
X101625135Y-107400500D01*
X102614864Y-107400499D01*
X102614879Y-107400497D01*
X102614882Y-107400497D01*
X102639987Y-107397586D01*
X102639987Y-107397585D01*
X102639991Y-107397585D01*
X102704914Y-107368918D01*
X102774190Y-107359847D01*
X102805085Y-107368919D01*
X102870004Y-107397583D01*
X102870009Y-107397585D01*
X102895135Y-107400500D01*
X103884864Y-107400499D01*
X103884879Y-107400497D01*
X103884882Y-107400497D01*
X103909987Y-107397586D01*
X103909987Y-107397585D01*
X103909991Y-107397585D01*
X103974914Y-107368918D01*
X104044190Y-107359847D01*
X104075085Y-107368919D01*
X104140004Y-107397583D01*
X104140009Y-107397585D01*
X104165135Y-107400500D01*
X105154864Y-107400499D01*
X105154879Y-107400497D01*
X105154882Y-107400497D01*
X105179987Y-107397586D01*
X105179987Y-107397585D01*
X105179991Y-107397585D01*
X105244914Y-107368918D01*
X105314190Y-107359847D01*
X105345085Y-107368919D01*
X105410004Y-107397583D01*
X105410009Y-107397585D01*
X105435135Y-107400500D01*
X106424864Y-107400499D01*
X106424879Y-107400497D01*
X106424882Y-107400497D01*
X106449987Y-107397586D01*
X106449987Y-107397585D01*
X106449991Y-107397585D01*
X106514914Y-107368918D01*
X106584190Y-107359847D01*
X106615085Y-107368919D01*
X106680004Y-107397583D01*
X106680009Y-107397585D01*
X106705135Y-107400500D01*
X107694864Y-107400499D01*
X107694879Y-107400497D01*
X107694882Y-107400497D01*
X107719987Y-107397586D01*
X107719987Y-107397585D01*
X107719991Y-107397585D01*
X107784914Y-107368918D01*
X107854190Y-107359847D01*
X107885085Y-107368919D01*
X107950004Y-107397583D01*
X107950009Y-107397585D01*
X107975135Y-107400500D01*
X108931962Y-107400499D01*
X108999001Y-107420183D01*
X109044756Y-107472987D01*
X109054700Y-107542146D01*
X109025675Y-107605702D01*
X109000853Y-107627601D01*
X108932537Y-107673248D01*
X108932533Y-107673251D01*
X108793251Y-107812533D01*
X108793248Y-107812537D01*
X108683814Y-107976315D01*
X108683807Y-107976328D01*
X108608430Y-108158306D01*
X108608427Y-108158318D01*
X108570000Y-108351504D01*
X108570000Y-108750000D01*
X109270000Y-108750000D01*
X109270000Y-109250000D01*
X108570000Y-109250000D01*
X108570000Y-109648495D01*
X108608427Y-109841681D01*
X108608430Y-109841693D01*
X108683807Y-110023671D01*
X108683814Y-110023684D01*
X108793248Y-110187462D01*
X108793251Y-110187466D01*
X108932533Y-110326748D01*
X108932537Y-110326751D01*
X109096315Y-110436185D01*
X109096328Y-110436192D01*
X109278308Y-110511569D01*
X109320000Y-110519862D01*
X109320000Y-109716988D01*
X109329940Y-109734205D01*
X109385795Y-109790060D01*
X109454204Y-109829556D01*
X109530504Y-109850000D01*
X109609496Y-109850000D01*
X109685796Y-109829556D01*
X109754205Y-109790060D01*
X109810060Y-109734205D01*
X109820000Y-109716988D01*
X109820000Y-110519862D01*
X109861690Y-110511569D01*
X109861692Y-110511569D01*
X110043671Y-110436192D01*
X110043684Y-110436185D01*
X110207462Y-110326751D01*
X110207466Y-110326748D01*
X110346748Y-110187466D01*
X110346751Y-110187462D01*
X110456185Y-110023684D01*
X110456192Y-110023671D01*
X110457322Y-110020943D01*
X111699500Y-110020943D01*
X111699500Y-110179057D01*
X111739075Y-110326751D01*
X111740423Y-110331783D01*
X111740426Y-110331790D01*
X111819475Y-110468709D01*
X111819479Y-110468714D01*
X111819480Y-110468716D01*
X111931284Y-110580520D01*
X111931286Y-110580521D01*
X111931290Y-110580524D01*
X111977750Y-110607347D01*
X112068216Y-110659577D01*
X112220943Y-110700500D01*
X112220945Y-110700500D01*
X112379055Y-110700500D01*
X112379057Y-110700500D01*
X112531784Y-110659577D01*
X112668716Y-110580520D01*
X112780520Y-110468716D01*
X112859577Y-110331784D01*
X112900500Y-110179057D01*
X112900500Y-110020943D01*
X112859577Y-109868216D01*
X112843567Y-109840485D01*
X112780524Y-109731290D01*
X112780518Y-109731282D01*
X112668717Y-109619481D01*
X112668709Y-109619475D01*
X112531790Y-109540426D01*
X112531786Y-109540424D01*
X112531784Y-109540423D01*
X112379057Y-109499500D01*
X112220943Y-109499500D01*
X112068216Y-109540423D01*
X112068209Y-109540426D01*
X111931290Y-109619475D01*
X111931282Y-109619481D01*
X111819481Y-109731282D01*
X111819475Y-109731290D01*
X111740426Y-109868209D01*
X111740423Y-109868216D01*
X111699500Y-110020943D01*
X110457322Y-110020943D01*
X110521583Y-109865802D01*
X110565423Y-109811398D01*
X110631718Y-109789333D01*
X110699417Y-109806612D01*
X110723825Y-109825573D01*
X110738737Y-109840485D01*
X110835763Y-109896503D01*
X110943982Y-109925500D01*
X110943984Y-109925500D01*
X111056016Y-109925500D01*
X111056018Y-109925500D01*
X111164237Y-109896503D01*
X111261263Y-109840485D01*
X111340485Y-109761263D01*
X111396503Y-109664237D01*
X111425500Y-109556018D01*
X111425500Y-109443982D01*
X111396503Y-109335763D01*
X111340485Y-109238737D01*
X111261263Y-109159515D01*
X111164237Y-109103497D01*
X111056018Y-109074500D01*
X110943982Y-109074500D01*
X110835763Y-109103497D01*
X110835760Y-109103498D01*
X110738740Y-109159513D01*
X110738734Y-109159517D01*
X110684571Y-109213681D01*
X110623248Y-109247166D01*
X110596890Y-109250000D01*
X109870000Y-109250000D01*
X109870000Y-108750000D01*
X110570000Y-108750000D01*
X110570000Y-108351508D01*
X110569999Y-108351504D01*
X110531572Y-108158318D01*
X110531569Y-108158306D01*
X110456192Y-107976328D01*
X110456185Y-107976315D01*
X110346751Y-107812537D01*
X110346748Y-107812533D01*
X110207466Y-107673251D01*
X110207458Y-107673245D01*
X110139147Y-107627601D01*
X110094341Y-107573989D01*
X110085634Y-107504664D01*
X110115788Y-107441637D01*
X110175231Y-107404917D01*
X110177688Y-107404270D01*
X110192626Y-107400499D01*
X110234864Y-107400499D01*
X110259991Y-107397585D01*
X110334500Y-107364686D01*
X110344650Y-107362124D01*
X110369517Y-107363077D01*
X110394190Y-107359847D01*
X110410553Y-107364651D01*
X110414468Y-107364802D01*
X110416938Y-107366526D01*
X110425085Y-107368919D01*
X110490004Y-107397583D01*
X110490009Y-107397585D01*
X110515135Y-107400500D01*
X111504864Y-107400499D01*
X111504879Y-107400497D01*
X111504882Y-107400497D01*
X111529987Y-107397586D01*
X111529987Y-107397585D01*
X111529991Y-107397585D01*
X111594914Y-107368918D01*
X111664190Y-107359847D01*
X111695085Y-107368919D01*
X111760004Y-107397583D01*
X111760009Y-107397585D01*
X111785135Y-107400500D01*
X112774864Y-107400499D01*
X112774879Y-107400497D01*
X112774882Y-107400497D01*
X112799987Y-107397586D01*
X112799987Y-107397585D01*
X112799991Y-107397585D01*
X112864914Y-107368918D01*
X112934190Y-107359847D01*
X112965085Y-107368919D01*
X113030004Y-107397583D01*
X113030009Y-107397585D01*
X113055135Y-107400500D01*
X114044864Y-107400499D01*
X114044879Y-107400497D01*
X114044882Y-107400497D01*
X114069987Y-107397586D01*
X114069987Y-107397585D01*
X114069991Y-107397585D01*
X114134914Y-107368918D01*
X114204190Y-107359847D01*
X114235085Y-107368919D01*
X114300004Y-107397583D01*
X114300009Y-107397585D01*
X114325135Y-107400500D01*
X115314864Y-107400499D01*
X115314879Y-107400497D01*
X115314882Y-107400497D01*
X115339987Y-107397586D01*
X115339987Y-107397585D01*
X115339991Y-107397585D01*
X115404914Y-107368918D01*
X115474190Y-107359847D01*
X115505085Y-107368919D01*
X115570004Y-107397583D01*
X115570009Y-107397585D01*
X115595135Y-107400500D01*
X116584864Y-107400499D01*
X116584879Y-107400497D01*
X116584882Y-107400497D01*
X116609987Y-107397586D01*
X116609988Y-107397585D01*
X116609991Y-107397585D01*
X116712765Y-107352206D01*
X116792206Y-107272765D01*
X116837585Y-107169991D01*
X116840500Y-107144865D01*
X116840499Y-105637223D01*
X116841393Y-105633162D01*
X116840499Y-105622498D01*
X116840499Y-105555136D01*
X116837585Y-105530009D01*
X116832521Y-105518541D01*
X116829454Y-105510920D01*
X116827975Y-105506861D01*
X116827697Y-105505894D01*
X116827443Y-105505401D01*
X116826187Y-105501955D01*
X116826078Y-105500263D01*
X116826009Y-105500020D01*
X116826062Y-105500004D01*
X116824067Y-105468806D01*
X116820996Y-105435706D01*
X116821845Y-105434068D01*
X116821728Y-105432228D01*
X116837878Y-105403172D01*
X116853179Y-105373689D01*
X116854777Y-105372771D01*
X116855674Y-105371159D01*
X116884955Y-105355455D01*
X116913781Y-105338916D01*
X116916367Y-105338610D01*
X116917248Y-105338138D01*
X116919114Y-105338285D01*
X116942692Y-105335499D01*
X118134856Y-105335499D01*
X118134864Y-105335499D01*
X118134879Y-105335497D01*
X118134882Y-105335497D01*
X118159987Y-105332586D01*
X118159988Y-105332585D01*
X118159991Y-105332585D01*
X118262765Y-105287206D01*
X118342206Y-105207765D01*
X118387585Y-105104991D01*
X118390500Y-105079865D01*
X118390499Y-104090136D01*
X118389268Y-104079520D01*
X118387586Y-104065012D01*
X118387585Y-104065010D01*
X118387585Y-104065009D01*
X118358919Y-104000086D01*
X118349847Y-103930808D01*
X118358919Y-103899913D01*
X118359733Y-103898071D01*
X118387585Y-103834991D01*
X118390500Y-103809865D01*
X118390499Y-102820136D01*
X118388222Y-102800499D01*
X118387586Y-102795012D01*
X118387585Y-102795010D01*
X118387585Y-102795009D01*
X118365707Y-102745460D01*
X118358919Y-102730086D01*
X118349847Y-102660808D01*
X118358919Y-102629913D01*
X118387584Y-102564993D01*
X118387585Y-102564991D01*
X118390500Y-102539865D01*
X118390499Y-101550136D01*
X118389618Y-101542539D01*
X118387586Y-101525012D01*
X118387585Y-101525010D01*
X118387585Y-101525009D01*
X118358919Y-101460086D01*
X118349847Y-101390808D01*
X118358919Y-101359913D01*
X118359053Y-101359611D01*
X118387585Y-101294991D01*
X118390500Y-101269865D01*
X118390499Y-100280136D01*
X118390497Y-100280117D01*
X118387586Y-100255012D01*
X118387585Y-100255010D01*
X118387585Y-100255009D01*
X118358919Y-100190086D01*
X118349847Y-100120808D01*
X118358919Y-100089913D01*
X118363713Y-100079057D01*
X118387585Y-100024991D01*
X118390500Y-99999865D01*
X118390499Y-99010136D01*
X118388937Y-98996666D01*
X118387586Y-98985012D01*
X118387585Y-98985010D01*
X118387585Y-98985009D01*
X118363095Y-98929545D01*
X118358919Y-98920086D01*
X118349847Y-98850808D01*
X118358919Y-98819913D01*
X118359733Y-98818071D01*
X118387585Y-98754991D01*
X118390500Y-98729865D01*
X118390499Y-97740136D01*
X118388103Y-97719475D01*
X118387586Y-97715012D01*
X118387585Y-97715010D01*
X118387585Y-97715009D01*
X118358919Y-97650086D01*
X118349847Y-97580808D01*
X118358919Y-97549913D01*
X118387584Y-97484993D01*
X118387585Y-97484991D01*
X118390500Y-97459865D01*
X118390499Y-96470136D01*
X118390497Y-96470117D01*
X118387586Y-96445012D01*
X118387585Y-96445010D01*
X118387585Y-96445009D01*
X118358919Y-96380086D01*
X118349847Y-96310808D01*
X118358919Y-96279913D01*
X118368660Y-96257853D01*
X118387585Y-96214991D01*
X118390500Y-96189865D01*
X118390499Y-95200136D01*
X118390497Y-95200117D01*
X118387586Y-95175012D01*
X118387585Y-95175010D01*
X118387585Y-95175009D01*
X118358919Y-95110086D01*
X118349847Y-95040808D01*
X118358919Y-95009913D01*
X118377113Y-94968709D01*
X118387585Y-94944991D01*
X118390500Y-94919865D01*
X118390499Y-93930136D01*
X118388384Y-93911895D01*
X118387586Y-93905012D01*
X118387585Y-93905010D01*
X118387585Y-93905009D01*
X118363114Y-93849588D01*
X118358919Y-93840086D01*
X118349847Y-93770808D01*
X118358919Y-93739913D01*
X118385145Y-93680518D01*
X118387585Y-93674991D01*
X118390500Y-93649865D01*
X118390499Y-92660136D01*
X118389210Y-92649021D01*
X118387586Y-92635012D01*
X118387585Y-92635010D01*
X118387585Y-92635009D01*
X118358919Y-92570086D01*
X118349847Y-92500808D01*
X118358919Y-92469913D01*
X118378691Y-92425135D01*
X118387585Y-92404991D01*
X118390500Y-92379865D01*
X118390499Y-91390136D01*
X118390497Y-91390117D01*
X118387586Y-91365012D01*
X118387585Y-91365010D01*
X118387585Y-91365009D01*
X118358919Y-91300086D01*
X118349847Y-91230808D01*
X118358919Y-91199913D01*
X118387584Y-91134993D01*
X118387585Y-91134991D01*
X118390500Y-91109865D01*
X118390499Y-90120136D01*
X118390216Y-90117696D01*
X118387586Y-90095012D01*
X118387585Y-90095010D01*
X118387585Y-90095009D01*
X118342206Y-89992235D01*
X118262765Y-89912794D01*
X118234922Y-89900500D01*
X118159992Y-89867415D01*
X118134868Y-89864500D01*
X118134865Y-89864500D01*
X116942002Y-89864500D01*
X116874963Y-89844815D01*
X116829208Y-89792011D01*
X116819264Y-89722853D01*
X116828568Y-89690413D01*
X116837584Y-89669993D01*
X116837585Y-89669991D01*
X116840500Y-89644865D01*
X116840499Y-89148278D01*
X116860183Y-89081242D01*
X116912987Y-89035487D01*
X116982146Y-89025543D01*
X117045702Y-89054568D01*
X117071886Y-89086281D01*
X117119477Y-89168712D01*
X117119479Y-89168715D01*
X117119480Y-89168716D01*
X117231284Y-89280520D01*
X117231286Y-89280521D01*
X117231290Y-89280524D01*
X117368209Y-89359573D01*
X117368216Y-89359577D01*
X117520943Y-89400500D01*
X117520945Y-89400500D01*
X117679055Y-89400500D01*
X117679057Y-89400500D01*
X117831784Y-89359577D01*
X117968716Y-89280520D01*
X118080520Y-89168716D01*
X118159577Y-89031784D01*
X118200500Y-88879057D01*
X118200500Y-88720943D01*
X118159577Y-88568216D01*
X118155950Y-88561934D01*
X118080524Y-88431290D01*
X118080518Y-88431282D01*
X117968717Y-88319481D01*
X117968709Y-88319475D01*
X117831790Y-88240426D01*
X117831786Y-88240424D01*
X117831784Y-88240423D01*
X117679057Y-88199500D01*
X117520943Y-88199500D01*
X117368216Y-88240423D01*
X117368209Y-88240426D01*
X117231290Y-88319475D01*
X117231282Y-88319481D01*
X117119481Y-88431282D01*
X117119477Y-88431287D01*
X117071886Y-88513719D01*
X117021319Y-88561934D01*
X116952712Y-88575158D01*
X116887847Y-88549190D01*
X116847319Y-88492276D01*
X116840499Y-88451719D01*
X116840499Y-88055143D01*
X116840499Y-88055136D01*
X116839993Y-88050770D01*
X116837586Y-88030012D01*
X116837585Y-88030010D01*
X116837585Y-88030009D01*
X116792206Y-87927235D01*
X116712765Y-87847794D01*
X116696968Y-87840819D01*
X116609992Y-87802415D01*
X116584868Y-87799500D01*
X116584865Y-87799500D01*
X116472941Y-87799500D01*
X116448116Y-87792210D01*
X116422470Y-87788764D01*
X116410317Y-87781111D01*
X116405902Y-87779815D01*
X116392618Y-87769968D01*
X116371483Y-87751993D01*
X116333172Y-87693567D01*
X116332528Y-87623700D01*
X116357409Y-87581332D01*
X116355574Y-87579924D01*
X116360515Y-87573483D01*
X116360520Y-87573479D01*
X116374103Y-87549952D01*
X116378243Y-87544258D01*
X116380228Y-87539342D01*
X116439577Y-87436547D01*
X116480500Y-87283820D01*
X116480500Y-87125706D01*
X116480499Y-87125705D01*
X116480230Y-87123657D01*
X116480500Y-87121925D01*
X116480500Y-87117579D01*
X116481178Y-87117579D01*
X116490995Y-87054621D01*
X116537374Y-87002365D01*
X116604643Y-86983479D01*
X116665167Y-87000082D01*
X116768216Y-87059577D01*
X116920943Y-87100500D01*
X116920945Y-87100500D01*
X117079055Y-87100500D01*
X117079057Y-87100500D01*
X117231784Y-87059577D01*
X117368716Y-86980520D01*
X117480520Y-86868716D01*
X117559577Y-86731784D01*
X117600500Y-86579057D01*
X117600500Y-86420943D01*
X117559577Y-86268216D01*
X117501098Y-86166926D01*
X117480524Y-86131290D01*
X117480518Y-86131282D01*
X117368717Y-86019481D01*
X117368709Y-86019475D01*
X117231790Y-85940426D01*
X117231786Y-85940424D01*
X117231784Y-85940423D01*
X117079057Y-85899500D01*
X116920943Y-85899500D01*
X116768216Y-85940423D01*
X116768209Y-85940426D01*
X116631290Y-86019475D01*
X116631282Y-86019481D01*
X116519481Y-86131282D01*
X116519475Y-86131290D01*
X116440426Y-86268209D01*
X116440423Y-86268216D01*
X116399500Y-86420943D01*
X116399500Y-86579064D01*
X116399770Y-86581116D01*
X116399500Y-86582846D01*
X116399500Y-86587184D01*
X116398823Y-86587184D01*
X116389000Y-86650150D01*
X116342616Y-86702403D01*
X116275345Y-86721283D01*
X116214830Y-86704679D01*
X116111786Y-86645187D01*
X116111785Y-86645186D01*
X116111784Y-86645186D01*
X115959057Y-86604263D01*
X115800943Y-86604263D01*
X115648216Y-86645186D01*
X115648215Y-86645186D01*
X115516999Y-86720943D01*
X115449099Y-86737415D01*
X115393001Y-86720943D01*
X115261784Y-86645186D01*
X115259399Y-86644547D01*
X115109057Y-86604263D01*
X114950943Y-86604263D01*
X114798216Y-86645186D01*
X114798209Y-86645189D01*
X114661290Y-86724238D01*
X114661282Y-86724244D01*
X114549481Y-86836045D01*
X114549475Y-86836053D01*
X114470426Y-86972972D01*
X114470423Y-86972979D01*
X114429500Y-87125706D01*
X114429500Y-87283820D01*
X114466243Y-87420945D01*
X114470423Y-87436546D01*
X114470426Y-87436553D01*
X114549475Y-87573472D01*
X114554426Y-87579924D01*
X114552261Y-87581584D01*
X114552583Y-87582174D01*
X114563105Y-87591463D01*
X114568995Y-87612231D01*
X114579342Y-87631179D01*
X114578340Y-87645177D01*
X114582171Y-87658681D01*
X114575897Y-87679338D01*
X114574358Y-87700871D01*
X114565540Y-87713446D01*
X114561869Y-87725536D01*
X114538511Y-87751995D01*
X114517390Y-87769958D01*
X114453569Y-87798395D01*
X114437056Y-87799500D01*
X114325143Y-87799500D01*
X114325118Y-87799502D01*
X114300011Y-87802414D01*
X114300010Y-87802414D01*
X114235085Y-87831081D01*
X114165807Y-87840152D01*
X114157021Y-87838448D01*
X114145615Y-87835806D01*
X114069991Y-87802415D01*
X114044865Y-87799500D01*
X113988861Y-87799500D01*
X113975053Y-87796302D01*
X113956463Y-87785825D01*
X113935993Y-87779815D01*
X113926635Y-87769016D01*
X113914184Y-87761999D01*
X113904208Y-87743133D01*
X113890238Y-87727011D01*
X113888204Y-87712867D01*
X113881523Y-87700232D01*
X113883330Y-87678970D01*
X113880294Y-87657853D01*
X113883257Y-87643408D01*
X113900500Y-87579057D01*
X113900500Y-87420943D01*
X113859577Y-87268216D01*
X113859573Y-87268209D01*
X113780524Y-87131290D01*
X113780518Y-87131282D01*
X113668717Y-87019481D01*
X113668709Y-87019475D01*
X113531790Y-86940426D01*
X113531786Y-86940424D01*
X113531784Y-86940423D01*
X113379057Y-86899500D01*
X113220943Y-86899500D01*
X113068216Y-86940423D01*
X113068209Y-86940426D01*
X112931290Y-87019475D01*
X112931282Y-87019481D01*
X112819481Y-87131282D01*
X112819475Y-87131290D01*
X112740426Y-87268209D01*
X112740423Y-87268216D01*
X112699500Y-87420943D01*
X112699500Y-87579058D01*
X112716742Y-87643408D01*
X112715079Y-87713258D01*
X112675915Y-87771120D01*
X112611687Y-87798623D01*
X112596967Y-87799500D01*
X111785143Y-87799500D01*
X111785117Y-87799502D01*
X111760012Y-87802413D01*
X111760010Y-87802414D01*
X111695085Y-87831081D01*
X111662797Y-87835308D01*
X111630700Y-87840819D01*
X111627455Y-87839936D01*
X111625807Y-87840152D01*
X111596577Y-87831801D01*
X111595742Y-87831446D01*
X111529991Y-87802415D01*
X111526287Y-87801985D01*
X111514740Y-87797087D01*
X111495182Y-87781051D01*
X111471943Y-87766925D01*
X111282280Y-87560943D01*
X111251350Y-87498292D01*
X111249500Y-87476950D01*
X111249500Y-86824000D01*
X111269185Y-86756961D01*
X111321989Y-86711206D01*
X111373500Y-86700000D01*
X112800000Y-86700000D01*
X112800000Y-86166926D01*
X112800450Y-86164135D01*
X112800073Y-86162665D01*
X112806294Y-86127923D01*
X112813841Y-86105147D01*
X112853613Y-86047702D01*
X112918128Y-86020878D01*
X112986904Y-86033192D01*
X113034649Y-86075259D01*
X113050535Y-86099034D01*
X113050538Y-86099038D01*
X113175961Y-86224461D01*
X113175965Y-86224464D01*
X113323446Y-86323009D01*
X113323459Y-86323016D01*
X113424523Y-86364877D01*
X113487334Y-86390894D01*
X113487336Y-86390894D01*
X113487341Y-86390896D01*
X113661304Y-86425499D01*
X113661307Y-86425500D01*
X113661309Y-86425500D01*
X113838693Y-86425500D01*
X113838694Y-86425499D01*
X113896682Y-86413964D01*
X114012658Y-86390896D01*
X114012661Y-86390894D01*
X114012666Y-86390894D01*
X114176547Y-86323013D01*
X114324035Y-86224464D01*
X114449464Y-86099035D01*
X114548013Y-85951547D01*
X114615894Y-85787666D01*
X114623461Y-85749628D01*
X114650499Y-85613695D01*
X114650500Y-85613693D01*
X114650500Y-84886306D01*
X114650499Y-84886304D01*
X114615896Y-84712341D01*
X114615893Y-84712332D01*
X114548016Y-84548459D01*
X114548009Y-84548446D01*
X114449464Y-84400965D01*
X114449461Y-84400961D01*
X114324038Y-84275538D01*
X114324034Y-84275535D01*
X114176553Y-84176990D01*
X114176540Y-84176983D01*
X114012667Y-84109106D01*
X114012658Y-84109103D01*
X113838694Y-84074500D01*
X113838691Y-84074500D01*
X113661309Y-84074500D01*
X113661306Y-84074500D01*
X113487341Y-84109103D01*
X113487332Y-84109106D01*
X113323459Y-84176983D01*
X113323446Y-84176990D01*
X113175965Y-84275535D01*
X113175961Y-84275538D01*
X113050538Y-84400961D01*
X113050534Y-84400966D01*
X113034647Y-84424742D01*
X113023410Y-84434131D01*
X113015922Y-84446715D01*
X112997138Y-84456086D01*
X112981033Y-84469545D01*
X112966505Y-84471369D01*
X112953402Y-84477907D01*
X112932534Y-84475635D01*
X112911708Y-84478251D01*
X112898498Y-84471930D01*
X112883942Y-84470346D01*
X112867616Y-84457154D01*
X112848681Y-84448094D01*
X112840015Y-84434851D01*
X112829597Y-84426433D01*
X112813841Y-84394851D01*
X112806294Y-84372075D01*
X112800000Y-84333072D01*
X112800000Y-83900000D01*
X112316482Y-83900000D01*
X112277479Y-83893706D01*
X112252701Y-83885495D01*
X112252690Y-83885493D01*
X112149986Y-83875000D01*
X111990590Y-83875000D01*
X111949996Y-83897166D01*
X111923638Y-83900000D01*
X111576362Y-83900000D01*
X111561195Y-83899069D01*
X111358333Y-83874069D01*
X111332967Y-83863098D01*
X111306461Y-83855315D01*
X111301359Y-83849427D01*
X111294205Y-83846333D01*
X111278796Y-83823388D01*
X111260706Y-83802511D01*
X111258755Y-83793546D01*
X111255252Y-83788329D01*
X111255009Y-83776326D01*
X111249500Y-83751000D01*
X111249500Y-83558254D01*
X111269185Y-83491215D01*
X111285814Y-83470578D01*
X112499901Y-82256490D01*
X112535036Y-82231857D01*
X112601116Y-82200943D01*
X113999500Y-82200943D01*
X113999500Y-82359057D01*
X114027878Y-82464963D01*
X114040423Y-82511783D01*
X114040426Y-82511790D01*
X114119475Y-82648709D01*
X114119479Y-82648714D01*
X114119480Y-82648716D01*
X114231284Y-82760520D01*
X114231286Y-82760521D01*
X114231290Y-82760524D01*
X114354938Y-82831911D01*
X114368216Y-82839577D01*
X114520943Y-82880500D01*
X114520945Y-82880500D01*
X114679055Y-82880500D01*
X114679057Y-82880500D01*
X114831784Y-82839577D01*
X114968716Y-82760520D01*
X115080520Y-82648716D01*
X115159577Y-82511784D01*
X115200500Y-82359057D01*
X115200500Y-82200943D01*
X115159577Y-82048216D01*
X115137882Y-82010639D01*
X115080524Y-81911290D01*
X115080518Y-81911282D01*
X114968717Y-81799481D01*
X114968709Y-81799475D01*
X114831790Y-81720426D01*
X114831786Y-81720424D01*
X114831784Y-81720423D01*
X114679057Y-81679500D01*
X114520943Y-81679500D01*
X114368216Y-81720423D01*
X114368209Y-81720426D01*
X114231290Y-81799475D01*
X114231282Y-81799481D01*
X114119481Y-81911282D01*
X114119475Y-81911290D01*
X114040426Y-82048209D01*
X114040423Y-82048216D01*
X113999500Y-82200943D01*
X112601116Y-82200943D01*
X112623144Y-82190638D01*
X112905274Y-82058656D01*
X112925725Y-82051200D01*
X112931784Y-82049577D01*
X112957513Y-82034721D01*
X112966919Y-82029818D01*
X112983824Y-82021911D01*
X113004098Y-82011488D01*
X113005608Y-82010639D01*
X113030593Y-81994957D01*
X113030600Y-81994949D01*
X113033864Y-81992326D01*
X113049556Y-81981580D01*
X113068716Y-81970520D01*
X113180520Y-81858716D01*
X113259577Y-81721784D01*
X113300500Y-81569057D01*
X113300500Y-81410943D01*
X113259577Y-81258216D01*
X113242078Y-81227907D01*
X113180524Y-81121290D01*
X113180518Y-81121282D01*
X113068717Y-81009481D01*
X113068709Y-81009475D01*
X112931790Y-80930426D01*
X112931786Y-80930424D01*
X112931784Y-80930423D01*
X112779057Y-80889500D01*
X112620943Y-80889500D01*
X112468216Y-80930423D01*
X112468209Y-80930426D01*
X112331290Y-81009475D01*
X112331282Y-81009481D01*
X112219482Y-81121281D01*
X112219475Y-81121290D01*
X112183337Y-81183879D01*
X112183338Y-81183880D01*
X112180268Y-81189195D01*
X112168088Y-81206175D01*
X112157928Y-81227891D01*
X112155260Y-81232513D01*
X112155259Y-81232516D01*
X112140425Y-81258211D01*
X112140421Y-81258222D01*
X112138797Y-81264281D01*
X112131344Y-81284717D01*
X111958141Y-81654963D01*
X111933504Y-81690101D01*
X111212181Y-82411425D01*
X111150858Y-82444910D01*
X111081167Y-82439926D01*
X111025233Y-82398054D01*
X111000816Y-82332590D01*
X111000500Y-82323744D01*
X111000500Y-82220945D01*
X111000500Y-82220943D01*
X110959577Y-82068216D01*
X110932843Y-82021911D01*
X110880524Y-81931290D01*
X110880518Y-81931282D01*
X110768717Y-81819481D01*
X110768709Y-81819475D01*
X110631790Y-81740426D01*
X110631786Y-81740424D01*
X110631784Y-81740423D01*
X110479057Y-81699500D01*
X110320943Y-81699500D01*
X110168216Y-81740423D01*
X110168209Y-81740426D01*
X110031290Y-81819475D01*
X110031282Y-81819481D01*
X109919482Y-81931281D01*
X109919475Y-81931290D01*
X109883337Y-81993879D01*
X109883338Y-81993880D01*
X109880268Y-81999195D01*
X109868088Y-82016175D01*
X109857928Y-82037891D01*
X109855260Y-82042513D01*
X109855259Y-82042516D01*
X109840425Y-82068211D01*
X109840421Y-82068222D01*
X109838797Y-82074281D01*
X109831344Y-82094717D01*
X109658141Y-82464963D01*
X109633504Y-82500101D01*
X108149522Y-83984084D01*
X108149518Y-83984090D01*
X108096792Y-84075412D01*
X108096793Y-84075413D01*
X108069500Y-84177273D01*
X108069500Y-86515724D01*
X108049815Y-86582763D01*
X107997011Y-86628518D01*
X107927853Y-86638462D01*
X107913407Y-86635499D01*
X107779057Y-86599500D01*
X107620943Y-86599500D01*
X107620941Y-86599500D01*
X107613999Y-86600413D01*
X107602173Y-86602468D01*
X107091370Y-86644647D01*
X107091356Y-86644649D01*
X107089424Y-86645159D01*
X107088551Y-86645390D01*
X107056892Y-86649500D01*
X101315374Y-86649500D01*
X101293071Y-86647478D01*
X101277042Y-86644547D01*
X100982365Y-86645711D01*
X100955429Y-86642859D01*
X100952822Y-86642289D01*
X100923070Y-86639500D01*
X100923066Y-86639500D01*
X100536934Y-86639500D01*
X100536930Y-86639500D01*
X100507185Y-86642289D01*
X100507173Y-86642291D01*
X100381844Y-86686147D01*
X100275001Y-86765001D01*
X100196147Y-86871844D01*
X100152291Y-86997173D01*
X100152289Y-86997185D01*
X100149500Y-87026929D01*
X100149500Y-87409218D01*
X100148702Y-87423260D01*
X100145783Y-87448868D01*
X100161791Y-87672991D01*
X100160192Y-87703529D01*
X100099980Y-88042224D01*
X100099984Y-88043421D01*
X100099527Y-88051556D01*
X100099706Y-88051567D01*
X100099500Y-88055130D01*
X100099500Y-89644856D01*
X100099502Y-89644882D01*
X100102413Y-89669987D01*
X100102415Y-89669991D01*
X100147793Y-89772764D01*
X100147794Y-89772765D01*
X100227235Y-89852206D01*
X100330009Y-89897585D01*
X100355135Y-89900500D01*
X101344864Y-89900499D01*
X101344879Y-89900497D01*
X101344882Y-89900497D01*
X101369987Y-89897586D01*
X101369987Y-89897585D01*
X101369991Y-89897585D01*
X101388961Y-89889208D01*
X101458237Y-89880136D01*
X101521423Y-89909958D01*
X101536927Y-89926513D01*
X101693379Y-90127664D01*
X101719000Y-90192667D01*
X101719500Y-90203793D01*
X101719500Y-91562745D01*
X101699815Y-91629784D01*
X101683181Y-91650426D01*
X100570426Y-92763181D01*
X100509103Y-92796666D01*
X100482745Y-92799500D01*
X99683488Y-92799500D01*
X99641221Y-92792074D01*
X99256948Y-92652745D01*
X99256948Y-92652744D01*
X99246672Y-92649018D01*
X99231784Y-92640423D01*
X99197990Y-92631367D01*
X99192963Y-92629545D01*
X99192955Y-92629543D01*
X99188117Y-92627789D01*
X99175408Y-92623180D01*
X99154027Y-92616308D01*
X99152362Y-92615840D01*
X99152355Y-92615838D01*
X99123242Y-92609164D01*
X99123229Y-92609161D01*
X99119015Y-92608702D01*
X99100364Y-92605208D01*
X99079064Y-92599501D01*
X99079058Y-92599500D01*
X99079057Y-92599500D01*
X98920943Y-92599500D01*
X98768216Y-92640423D01*
X98768209Y-92640426D01*
X98631290Y-92719475D01*
X98631282Y-92719481D01*
X98519481Y-92831282D01*
X98519475Y-92831290D01*
X98440426Y-92968209D01*
X98440423Y-92968216D01*
X98399500Y-93120943D01*
X98090000Y-93120943D01*
X98090000Y-84531898D01*
X98899500Y-84531898D01*
X98899500Y-85868102D01*
X98903516Y-85901541D01*
X98910122Y-85956561D01*
X98965639Y-86097343D01*
X99057077Y-86217922D01*
X99177656Y-86309360D01*
X99177657Y-86309360D01*
X99177658Y-86309361D01*
X99318436Y-86364877D01*
X99406898Y-86375500D01*
X99406903Y-86375500D01*
X100193097Y-86375500D01*
X100193102Y-86375500D01*
X100281564Y-86364877D01*
X100422342Y-86309361D01*
X100542922Y-86217922D01*
X100634361Y-86097342D01*
X100689877Y-85956564D01*
X100700500Y-85868102D01*
X100700500Y-85797080D01*
X100720185Y-85730041D01*
X100772989Y-85684286D01*
X100842147Y-85674342D01*
X100905703Y-85703367D01*
X100939061Y-85749628D01*
X101001983Y-85901541D01*
X101001990Y-85901553D01*
X101100535Y-86049034D01*
X101100538Y-86049038D01*
X101225961Y-86174461D01*
X101225965Y-86174464D01*
X101373446Y-86273009D01*
X101373459Y-86273016D01*
X101494155Y-86323009D01*
X101537334Y-86340894D01*
X101537336Y-86340894D01*
X101537341Y-86340896D01*
X101711304Y-86375499D01*
X101711307Y-86375500D01*
X101711309Y-86375500D01*
X101888693Y-86375500D01*
X101888694Y-86375499D01*
X101946682Y-86363964D01*
X102062658Y-86340896D01*
X102062661Y-86340894D01*
X102062666Y-86340894D01*
X102226547Y-86273013D01*
X102374035Y-86174464D01*
X102499464Y-86049035D01*
X102598013Y-85901547D01*
X102665894Y-85737666D01*
X102678383Y-85674882D01*
X102710768Y-85612971D01*
X102771483Y-85578397D01*
X102841253Y-85582136D01*
X102897925Y-85623003D01*
X102921617Y-85674882D01*
X102934103Y-85737658D01*
X102934106Y-85737667D01*
X103001983Y-85901540D01*
X103001990Y-85901553D01*
X103100535Y-86049034D01*
X103100538Y-86049038D01*
X103225961Y-86174461D01*
X103225965Y-86174464D01*
X103373446Y-86273009D01*
X103373459Y-86273016D01*
X103494155Y-86323009D01*
X103537334Y-86340894D01*
X103537336Y-86340894D01*
X103537341Y-86340896D01*
X103711304Y-86375499D01*
X103711307Y-86375500D01*
X103711309Y-86375500D01*
X103888693Y-86375500D01*
X103888694Y-86375499D01*
X103946682Y-86363964D01*
X104062658Y-86340896D01*
X104062661Y-86340894D01*
X104062666Y-86340894D01*
X104226547Y-86273013D01*
X104374035Y-86174464D01*
X104499464Y-86049035D01*
X104598013Y-85901547D01*
X104665894Y-85737666D01*
X104678383Y-85674882D01*
X104710768Y-85612971D01*
X104771483Y-85578397D01*
X104841253Y-85582136D01*
X104897925Y-85623003D01*
X104921617Y-85674882D01*
X104934103Y-85737658D01*
X104934106Y-85737667D01*
X105001983Y-85901540D01*
X105001990Y-85901553D01*
X105100535Y-86049034D01*
X105100538Y-86049038D01*
X105225961Y-86174461D01*
X105225965Y-86174464D01*
X105373446Y-86273009D01*
X105373459Y-86273016D01*
X105494155Y-86323009D01*
X105537334Y-86340894D01*
X105537336Y-86340894D01*
X105537341Y-86340896D01*
X105711304Y-86375499D01*
X105711307Y-86375500D01*
X105711309Y-86375500D01*
X105888693Y-86375500D01*
X105888694Y-86375499D01*
X105946682Y-86363964D01*
X106062658Y-86340896D01*
X106062661Y-86340894D01*
X106062666Y-86340894D01*
X106226547Y-86273013D01*
X106374035Y-86174464D01*
X106499464Y-86049035D01*
X106598013Y-85901547D01*
X106665894Y-85737666D01*
X106700500Y-85563691D01*
X106700500Y-84836309D01*
X106700500Y-84836306D01*
X106700499Y-84836304D01*
X106665896Y-84662341D01*
X106665893Y-84662332D01*
X106598016Y-84498459D01*
X106598009Y-84498446D01*
X106499464Y-84350965D01*
X106499461Y-84350961D01*
X106374038Y-84225538D01*
X106374034Y-84225535D01*
X106226553Y-84126990D01*
X106226540Y-84126983D01*
X106062667Y-84059106D01*
X106062658Y-84059103D01*
X105888694Y-84024500D01*
X105888691Y-84024500D01*
X105711309Y-84024500D01*
X105711306Y-84024500D01*
X105537341Y-84059103D01*
X105537332Y-84059106D01*
X105373459Y-84126983D01*
X105373446Y-84126990D01*
X105225965Y-84225535D01*
X105225961Y-84225538D01*
X105100538Y-84350961D01*
X105100535Y-84350965D01*
X105001990Y-84498446D01*
X105001983Y-84498459D01*
X104934106Y-84662332D01*
X104934104Y-84662340D01*
X104921617Y-84725118D01*
X104889232Y-84787028D01*
X104828516Y-84821603D01*
X104758747Y-84817863D01*
X104702075Y-84776996D01*
X104678383Y-84725118D01*
X104665895Y-84662340D01*
X104665894Y-84662334D01*
X104618726Y-84548459D01*
X104598016Y-84498459D01*
X104598009Y-84498446D01*
X104499464Y-84350965D01*
X104499461Y-84350961D01*
X104374038Y-84225538D01*
X104374034Y-84225535D01*
X104226553Y-84126990D01*
X104226540Y-84126983D01*
X104062667Y-84059106D01*
X104062658Y-84059103D01*
X103888694Y-84024500D01*
X103888691Y-84024500D01*
X103711309Y-84024500D01*
X103711306Y-84024500D01*
X103537341Y-84059103D01*
X103537332Y-84059106D01*
X103373459Y-84126983D01*
X103373446Y-84126990D01*
X103225965Y-84225535D01*
X103225961Y-84225538D01*
X103100538Y-84350961D01*
X103100535Y-84350965D01*
X103001990Y-84498446D01*
X103001983Y-84498459D01*
X102934106Y-84662332D01*
X102934104Y-84662340D01*
X102921617Y-84725118D01*
X102889232Y-84787028D01*
X102828516Y-84821603D01*
X102758747Y-84817863D01*
X102702075Y-84776996D01*
X102678383Y-84725118D01*
X102665895Y-84662340D01*
X102665894Y-84662334D01*
X102618726Y-84548459D01*
X102598016Y-84498459D01*
X102598009Y-84498446D01*
X102499464Y-84350965D01*
X102499461Y-84350961D01*
X102374038Y-84225538D01*
X102374034Y-84225535D01*
X102226553Y-84126990D01*
X102226540Y-84126983D01*
X102062667Y-84059106D01*
X102062658Y-84059103D01*
X101888694Y-84024500D01*
X101888691Y-84024500D01*
X101711309Y-84024500D01*
X101711306Y-84024500D01*
X101537341Y-84059103D01*
X101537332Y-84059106D01*
X101373459Y-84126983D01*
X101373446Y-84126990D01*
X101225965Y-84225535D01*
X101225961Y-84225538D01*
X101100538Y-84350961D01*
X101100535Y-84350965D01*
X101001990Y-84498446D01*
X101001983Y-84498459D01*
X100939061Y-84650371D01*
X100895221Y-84704775D01*
X100828927Y-84726840D01*
X100761227Y-84709561D01*
X100713616Y-84658424D01*
X100700500Y-84602919D01*
X100700500Y-84531903D01*
X100700500Y-84531898D01*
X100689877Y-84443436D01*
X100634361Y-84302658D01*
X100634360Y-84302657D01*
X100634360Y-84302656D01*
X100542922Y-84182077D01*
X100422343Y-84090639D01*
X100281561Y-84035122D01*
X100235926Y-84029642D01*
X100193102Y-84024500D01*
X99406898Y-84024500D01*
X99367853Y-84029188D01*
X99318438Y-84035122D01*
X99177656Y-84090639D01*
X99057077Y-84182077D01*
X98965639Y-84302656D01*
X98910122Y-84443438D01*
X98905942Y-84478251D01*
X98899500Y-84531898D01*
X98090000Y-84531898D01*
X98090000Y-80324500D01*
X98109685Y-80257461D01*
X98162489Y-80211706D01*
X98214000Y-80200500D01*
X118928000Y-80200500D01*
X118995039Y-80220185D01*
G37*
G04 #@! TD.AperFunction*
G04 #@! TD*
G04 #@! TA.AperFunction,Conductor*
G04 #@! TO.N,VDC*
G36*
X106043039Y-101019685D02*
G01*
X106088794Y-101072489D01*
X106100000Y-101124000D01*
X106100000Y-101876000D01*
X106080315Y-101943039D01*
X106027511Y-101988794D01*
X105976000Y-102000000D01*
X105624000Y-102000000D01*
X105556961Y-101980315D01*
X105511206Y-101927511D01*
X105500000Y-101876000D01*
X105500000Y-101124000D01*
X105519685Y-101056961D01*
X105572489Y-101011206D01*
X105624000Y-101000000D01*
X105976000Y-101000000D01*
X106043039Y-101019685D01*
G37*
G04 #@! TD.AperFunction*
G04 #@! TD*
G04 #@! TA.AperFunction,Conductor*
G04 #@! TO.N,+3V3*
G36*
X100981351Y-87653427D02*
G01*
X100983333Y-87656067D01*
X101224242Y-88094611D01*
X101225221Y-88103512D01*
X101224442Y-88105495D01*
X100859552Y-88831981D01*
X100852777Y-88837836D01*
X100843846Y-88837185D01*
X100839061Y-88832744D01*
X100831222Y-88819662D01*
X100402247Y-88103751D01*
X100400765Y-88095693D01*
X100478284Y-87659651D01*
X100483106Y-87652106D01*
X100489803Y-87650000D01*
X100973078Y-87650000D01*
X100981351Y-87653427D01*
G37*
G04 #@! TD.AperFunction*
G04 #@! TD*
G04 #@! TA.AperFunction,Conductor*
G04 #@! TO.N,+3V3*
G36*
X100736098Y-87252724D02*
G01*
X101003920Y-87416287D01*
X101009195Y-87423523D01*
X101009492Y-87427106D01*
X100980776Y-87829134D01*
X100976769Y-87837142D01*
X100969106Y-87840000D01*
X100490894Y-87840000D01*
X100482621Y-87836573D01*
X100479224Y-87829134D01*
X100473480Y-87748728D01*
X100450507Y-87427104D01*
X100453335Y-87418609D01*
X100456077Y-87416288D01*
X100723902Y-87252723D01*
X100732749Y-87251336D01*
X100736098Y-87252724D01*
G37*
G04 #@! TD.AperFunction*
G04 #@! TD*
G04 #@! TA.AperFunction,Conductor*
G04 #@! TO.N,+3V3*
G36*
X101286540Y-86953440D02*
G01*
X101290000Y-86961700D01*
X101290000Y-87440295D01*
X101286573Y-87448568D01*
X101280463Y-87451793D01*
X100981837Y-87507956D01*
X100973073Y-87506118D01*
X100971198Y-87504523D01*
X100921021Y-87451793D01*
X100735395Y-87256720D01*
X100732175Y-87248365D01*
X100734086Y-87242242D01*
X100921304Y-86956702D01*
X100928706Y-86951663D01*
X100931040Y-86951418D01*
X101278254Y-86950046D01*
X101286540Y-86953440D01*
G37*
G04 #@! TD.AperFunction*
G04 #@! TD*
G04 #@! TA.AperFunction,Conductor*
G04 #@! TO.N,+3V3*
G36*
X107639631Y-86909354D02*
G01*
X107643535Y-86915960D01*
X107700530Y-87197680D01*
X107700530Y-87202320D01*
X107643535Y-87484039D01*
X107638535Y-87491468D01*
X107631104Y-87493379D01*
X107116501Y-87450886D01*
X107108538Y-87446790D01*
X107105764Y-87439226D01*
X107105764Y-86960773D01*
X107109191Y-86952500D01*
X107116499Y-86949113D01*
X107631104Y-86906620D01*
X107639631Y-86909354D01*
G37*
G04 #@! TD.AperFunction*
G04 #@! TD*
G04 #@! TA.AperFunction,Conductor*
G04 #@! TO.N,USB_D+*
G36*
X115783278Y-87652787D02*
G01*
X116303346Y-88095088D01*
X116307428Y-88103059D01*
X116306998Y-88107278D01*
X116092060Y-88843939D01*
X116086453Y-88850921D01*
X116082744Y-88852204D01*
X115652984Y-88923538D01*
X115644261Y-88921512D01*
X115639526Y-88913912D01*
X115639382Y-88912556D01*
X115580577Y-87662249D01*
X115583611Y-87653825D01*
X115591714Y-87650013D01*
X115592264Y-87650000D01*
X115775698Y-87650000D01*
X115783278Y-87652787D01*
G37*
G04 #@! TD.AperFunction*
G04 #@! TD*
G04 #@! TA.AperFunction,Conductor*
G04 #@! TO.N,USB_D+*
G36*
X115599560Y-87148933D02*
G01*
X115877683Y-87203310D01*
X115881961Y-87205081D01*
X116067916Y-87330078D01*
X116117642Y-87363503D01*
X116122596Y-87370962D01*
X116120825Y-87379740D01*
X116119388Y-87381486D01*
X115783428Y-87717449D01*
X115775155Y-87720876D01*
X115591819Y-87720876D01*
X115583546Y-87717449D01*
X115580119Y-87709176D01*
X115580120Y-87709059D01*
X115581983Y-87523153D01*
X115585622Y-87160297D01*
X115589131Y-87152061D01*
X115597438Y-87148718D01*
X115599560Y-87148933D01*
G37*
G04 #@! TD.AperFunction*
G04 #@! TD*
G04 #@! TA.AperFunction,Conductor*
G04 #@! TO.N,USB_D+*
G36*
X115099039Y-110856464D02*
G01*
X115106468Y-110861464D01*
X115108379Y-110868895D01*
X115065887Y-111383499D01*
X115061791Y-111391462D01*
X115054227Y-111394236D01*
X114575773Y-111394236D01*
X114567500Y-111390809D01*
X114564113Y-111383499D01*
X114521620Y-110868895D01*
X114524354Y-110860368D01*
X114530959Y-110856464D01*
X114812682Y-110799469D01*
X114817318Y-110799469D01*
X115099039Y-110856464D01*
G37*
G04 #@! TD.AperFunction*
G04 #@! TD*
G04 #@! TA.AperFunction,Conductor*
G04 #@! TO.N,USB_D-*
G36*
X114249039Y-110856464D02*
G01*
X114256468Y-110861464D01*
X114258379Y-110868895D01*
X114215887Y-111383499D01*
X114211791Y-111391462D01*
X114204227Y-111394236D01*
X113725773Y-111394236D01*
X113717500Y-111390809D01*
X113714113Y-111383499D01*
X113671620Y-110868895D01*
X113674354Y-110860368D01*
X113680959Y-110856464D01*
X113962682Y-110799469D01*
X113967318Y-110799469D01*
X114249039Y-110856464D01*
G37*
G04 #@! TD.AperFunction*
G04 #@! TD*
G04 #@! TA.AperFunction,Conductor*
G04 #@! TO.N,USB_D-*
G36*
X115326009Y-87653427D02*
G01*
X115329436Y-87661700D01*
X115329423Y-87662250D01*
X115270618Y-88912546D01*
X115266806Y-88920649D01*
X115258381Y-88923683D01*
X115257015Y-88923538D01*
X114827255Y-88852204D01*
X114819655Y-88847469D01*
X114817940Y-88843943D01*
X114603001Y-88107276D01*
X114603974Y-88098376D01*
X114606651Y-88095089D01*
X115126722Y-87652787D01*
X115134302Y-87650000D01*
X115317736Y-87650000D01*
X115326009Y-87653427D01*
G37*
G04 #@! TD.AperFunction*
G04 #@! TD*
G04 #@! TA.AperFunction,Conductor*
G04 #@! TO.N,USB_D-*
G36*
X115319210Y-87150710D02*
G01*
X115324161Y-87158172D01*
X115324377Y-87160300D01*
X115329880Y-87709059D01*
X115326537Y-87717366D01*
X115318298Y-87720875D01*
X115318181Y-87720876D01*
X115134845Y-87720876D01*
X115126572Y-87717449D01*
X114790611Y-87381486D01*
X114787184Y-87373213D01*
X114790611Y-87364940D01*
X114792353Y-87363505D01*
X115028040Y-87205080D01*
X115032314Y-87203310D01*
X115310434Y-87148934D01*
X115319210Y-87150710D01*
G37*
G04 #@! TD.AperFunction*
G04 #@! TD*
G04 #@! TA.AperFunction,Conductor*
G04 #@! TO.N,Net-(LED2-A)*
G36*
X110160362Y-82139986D02*
G01*
X110161872Y-82140835D01*
X110398734Y-82297984D01*
X110402015Y-82301265D01*
X110559164Y-82538127D01*
X110560883Y-82546915D01*
X110555883Y-82554344D01*
X110554373Y-82555193D01*
X110057953Y-82787422D01*
X110049007Y-82787823D01*
X110044722Y-82785097D01*
X109914902Y-82655277D01*
X109911475Y-82647004D01*
X109912575Y-82642051D01*
X110144806Y-82145625D01*
X110151416Y-82139585D01*
X110160362Y-82139986D01*
G37*
G04 #@! TD.AperFunction*
G04 #@! TD*
G04 #@! TA.AperFunction,Conductor*
G04 #@! TO.N,Net-(LED2-A)*
G36*
X108572551Y-87653427D02*
G01*
X108573513Y-87654517D01*
X108915080Y-88093675D01*
X108917455Y-88102309D01*
X108915881Y-88106872D01*
X108480036Y-88834251D01*
X108472844Y-88839586D01*
X108463986Y-88838273D01*
X108459964Y-88834251D01*
X108024118Y-88106872D01*
X108022805Y-88098014D01*
X108024919Y-88093675D01*
X108366487Y-87654517D01*
X108374271Y-87650090D01*
X108375722Y-87650000D01*
X108564278Y-87650000D01*
X108572551Y-87653427D01*
G37*
G04 #@! TD.AperFunction*
G04 #@! TD*
G04 #@! TA.AperFunction,Conductor*
G04 #@! TO.N,/~{FAULT}*
G36*
X102445206Y-102998063D02*
G01*
X102452668Y-103003014D01*
X102452701Y-103003064D01*
X102609473Y-103238630D01*
X102611204Y-103247416D01*
X102606215Y-103254852D01*
X102605169Y-103255473D01*
X102222552Y-103456207D01*
X102217116Y-103457546D01*
X102035176Y-103457546D01*
X102026903Y-103454119D01*
X102023476Y-103445846D01*
X102023861Y-103442869D01*
X102077589Y-103238630D01*
X102152969Y-102952082D01*
X102158388Y-102944955D01*
X102166528Y-102943578D01*
X102445206Y-102998063D01*
G37*
G04 #@! TD.AperFunction*
G04 #@! TD*
G04 #@! TA.AperFunction,Conductor*
G04 #@! TO.N,/~{FAULT}*
G36*
X102222551Y-105153427D02*
G01*
X102223513Y-105154517D01*
X102565080Y-105593675D01*
X102567455Y-105602309D01*
X102565881Y-105606872D01*
X102130036Y-106334251D01*
X102122844Y-106339586D01*
X102113986Y-106338273D01*
X102109964Y-106334251D01*
X101674118Y-105606872D01*
X101672805Y-105598014D01*
X101674919Y-105593675D01*
X102016487Y-105154517D01*
X102024271Y-105150090D01*
X102025722Y-105150000D01*
X102214278Y-105150000D01*
X102222551Y-105153427D01*
G37*
G04 #@! TD.AperFunction*
G04 #@! TD*
G04 #@! TA.AperFunction,Conductor*
G04 #@! TO.N,/MODE*
G36*
X116596872Y-102869118D02*
G01*
X117324251Y-103304964D01*
X117329586Y-103312156D01*
X117328273Y-103321014D01*
X117324251Y-103325036D01*
X116596872Y-103760881D01*
X116588014Y-103762194D01*
X116583675Y-103760080D01*
X116144517Y-103418513D01*
X116140090Y-103410729D01*
X116140000Y-103409278D01*
X116140000Y-103220721D01*
X116143427Y-103212448D01*
X116144509Y-103211492D01*
X116583675Y-102869918D01*
X116592309Y-102867544D01*
X116596872Y-102869118D01*
G37*
G04 #@! TD.AperFunction*
G04 #@! TD*
G04 #@! TA.AperFunction,Conductor*
G04 #@! TO.N,/MODE*
G36*
X108071282Y-99210389D02*
G01*
X108586525Y-99397204D01*
X108593134Y-99403244D01*
X108594236Y-99408202D01*
X108594236Y-99591797D01*
X108590809Y-99600070D01*
X108586524Y-99602796D01*
X108071290Y-99789608D01*
X108062344Y-99789207D01*
X108056303Y-99782597D01*
X108055837Y-99780939D01*
X107999469Y-99502318D01*
X107999469Y-99497680D01*
X108055835Y-99219067D01*
X108060834Y-99211641D01*
X108069622Y-99209922D01*
X108071282Y-99210389D01*
G37*
G04 #@! TD.AperFunction*
G04 #@! TD*
G04 #@! TA.AperFunction,Conductor*
G04 #@! TO.N,/TOFF{slash}EN2*
G36*
X108080930Y-102255835D02*
G01*
X108088358Y-102260834D01*
X108090077Y-102269622D01*
X108089608Y-102271290D01*
X107902796Y-102786524D01*
X107896755Y-102793134D01*
X107891797Y-102794236D01*
X107708203Y-102794236D01*
X107699930Y-102790809D01*
X107697204Y-102786524D01*
X107649544Y-102655078D01*
X107510391Y-102271288D01*
X107510792Y-102262344D01*
X107517402Y-102256303D01*
X107519056Y-102255837D01*
X107797682Y-102199469D01*
X107802318Y-102199469D01*
X108080930Y-102255835D01*
G37*
G04 #@! TD.AperFunction*
G04 #@! TD*
G04 #@! TA.AperFunction,Conductor*
G04 #@! TO.N,/TOFF{slash}EN2*
G36*
X108572551Y-105153427D02*
G01*
X108573513Y-105154517D01*
X108915080Y-105593675D01*
X108917455Y-105602309D01*
X108915881Y-105606872D01*
X108480036Y-106334251D01*
X108472844Y-106339586D01*
X108463986Y-106338273D01*
X108459964Y-106334251D01*
X108024118Y-105606872D01*
X108022805Y-105598014D01*
X108024919Y-105593675D01*
X108366487Y-105154517D01*
X108374271Y-105150090D01*
X108375722Y-105150000D01*
X108564278Y-105150000D01*
X108572551Y-105153427D01*
G37*
G04 #@! TD.AperFunction*
G04 #@! TD*
G04 #@! TA.AperFunction,Conductor*
G04 #@! TO.N,/IN1*
G36*
X112183451Y-97903461D02*
G01*
X112186960Y-97911700D01*
X112186961Y-97911817D01*
X112186961Y-98095154D01*
X112183534Y-98103427D01*
X111847572Y-98439388D01*
X111839299Y-98442815D01*
X111831026Y-98439388D01*
X111829589Y-98437642D01*
X111796164Y-98387916D01*
X111671167Y-98201961D01*
X111669396Y-98197683D01*
X111615020Y-97919564D01*
X111616796Y-97910789D01*
X111624258Y-97905838D01*
X111626375Y-97905623D01*
X112175145Y-97900118D01*
X112183451Y-97903461D01*
G37*
G04 #@! TD.AperFunction*
G04 #@! TD*
G04 #@! TA.AperFunction,Conductor*
G04 #@! TO.N,/IN1*
G36*
X116596872Y-96519118D02*
G01*
X117324251Y-96954964D01*
X117329586Y-96962156D01*
X117328273Y-96971014D01*
X117324251Y-96975036D01*
X116596872Y-97410881D01*
X116588014Y-97412194D01*
X116583675Y-97410080D01*
X116144517Y-97068513D01*
X116140090Y-97060729D01*
X116140000Y-97059278D01*
X116140000Y-96870721D01*
X116143427Y-96862448D01*
X116144509Y-96861492D01*
X116583675Y-96519918D01*
X116592309Y-96517544D01*
X116596872Y-96519118D01*
G37*
G04 #@! TD.AperFunction*
G04 #@! TD*
G04 #@! TA.AperFunction,Conductor*
G04 #@! TO.N,/IN3*
G36*
X116596872Y-100329118D02*
G01*
X117324251Y-100764964D01*
X117329586Y-100772156D01*
X117328273Y-100781014D01*
X117324251Y-100785036D01*
X116596872Y-101220881D01*
X116588014Y-101222194D01*
X116583675Y-101220080D01*
X116144517Y-100878513D01*
X116140090Y-100870729D01*
X116140000Y-100869278D01*
X116140000Y-100680721D01*
X116143427Y-100672448D01*
X116144509Y-100671492D01*
X116583675Y-100329918D01*
X116592309Y-100327544D01*
X116596872Y-100329118D01*
G37*
G04 #@! TD.AperFunction*
G04 #@! TD*
G04 #@! TA.AperFunction,Conductor*
G04 #@! TO.N,/IN3*
G36*
X111569962Y-100355860D02*
G01*
X111571158Y-100356781D01*
X111850259Y-100602217D01*
X111929052Y-100671505D01*
X111933002Y-100679542D01*
X111933026Y-100680291D01*
X111933026Y-100863699D01*
X111929599Y-100871972D01*
X111921732Y-100875392D01*
X111462921Y-100891320D01*
X111454534Y-100888182D01*
X111451047Y-100881947D01*
X111394455Y-100602217D01*
X111396174Y-100593429D01*
X111553725Y-100359042D01*
X111561184Y-100354089D01*
X111569962Y-100355860D01*
G37*
G04 #@! TD.AperFunction*
G04 #@! TD*
G04 #@! TA.AperFunction,Conductor*
G04 #@! TO.N,/IN4*
G36*
X116596872Y-101599118D02*
G01*
X117324251Y-102034964D01*
X117329586Y-102042156D01*
X117328273Y-102051014D01*
X117324251Y-102055036D01*
X116596872Y-102490881D01*
X116588014Y-102492194D01*
X116583675Y-102490080D01*
X116144517Y-102148513D01*
X116140090Y-102140729D01*
X116140000Y-102139278D01*
X116140000Y-101950721D01*
X116143427Y-101942448D01*
X116144509Y-101941492D01*
X116583675Y-101599918D01*
X116592309Y-101597544D01*
X116596872Y-101599118D01*
G37*
G04 #@! TD.AperFunction*
G04 #@! TD*
G04 #@! TA.AperFunction,Conductor*
G04 #@! TO.N,/IN4*
G36*
X111605022Y-101245138D02*
G01*
X111605547Y-101246008D01*
X111862447Y-101717529D01*
X111863396Y-101726434D01*
X111860446Y-101731400D01*
X111730637Y-101861209D01*
X111722364Y-101864636D01*
X111718075Y-101863821D01*
X111346846Y-101717529D01*
X111300538Y-101699280D01*
X111294098Y-101693059D01*
X111293347Y-101686146D01*
X111348353Y-101405557D01*
X111353304Y-101398103D01*
X111588806Y-101241856D01*
X111597593Y-101240138D01*
X111605022Y-101245138D01*
G37*
G04 #@! TD.AperFunction*
G04 #@! TD*
G04 #@! TA.AperFunction,Conductor*
G04 #@! TO.N,/SDA*
G36*
X115746950Y-92325063D02*
G01*
X116057714Y-92470440D01*
X116243374Y-92557293D01*
X116249415Y-92563903D01*
X116249014Y-92572849D01*
X116248165Y-92574359D01*
X116091016Y-92811221D01*
X116087735Y-92814502D01*
X115850873Y-92971651D01*
X115842085Y-92973370D01*
X115834656Y-92968370D01*
X115833807Y-92966860D01*
X115760998Y-92811221D01*
X115601577Y-92470438D01*
X115601177Y-92461494D01*
X115603901Y-92457211D01*
X115733724Y-92327388D01*
X115741996Y-92323962D01*
X115746950Y-92325063D01*
G37*
G04 #@! TD.AperFunction*
G04 #@! TD*
G04 #@! TA.AperFunction,Conductor*
G04 #@! TO.N,/SDA*
G36*
X113556014Y-88861726D02*
G01*
X113560034Y-88865746D01*
X113759018Y-89197828D01*
X113995881Y-89593127D01*
X113997194Y-89601985D01*
X113995080Y-89606324D01*
X113653513Y-90045483D01*
X113645729Y-90049910D01*
X113644278Y-90050000D01*
X113455722Y-90050000D01*
X113447449Y-90046573D01*
X113446487Y-90045483D01*
X113104919Y-89606324D01*
X113102544Y-89597690D01*
X113104118Y-89593127D01*
X113539965Y-88865747D01*
X113547156Y-88860413D01*
X113556014Y-88861726D01*
G37*
G04 #@! TD.AperFunction*
G04 #@! TD*
G04 #@! TA.AperFunction,Conductor*
G04 #@! TO.N,/SCL*
G36*
X115572102Y-93141760D02*
G01*
X115703073Y-93189246D01*
X115802891Y-93225439D01*
X115804753Y-93226305D01*
X115852436Y-93253834D01*
X115895815Y-93278879D01*
X115895817Y-93278879D01*
X115895818Y-93278880D01*
X115895816Y-93278880D01*
X115996205Y-93305778D01*
X116023106Y-93312986D01*
X116023108Y-93312987D01*
X116042297Y-93312987D01*
X116046285Y-93313688D01*
X116056461Y-93317377D01*
X116087345Y-93328575D01*
X116093954Y-93334615D01*
X116095056Y-93339573D01*
X116095056Y-93523168D01*
X116091629Y-93531441D01*
X116087344Y-93534167D01*
X115572110Y-93720979D01*
X115563164Y-93720578D01*
X115557123Y-93713968D01*
X115556657Y-93712310D01*
X115500289Y-93433689D01*
X115500289Y-93429051D01*
X115556655Y-93150438D01*
X115561654Y-93143012D01*
X115570442Y-93141293D01*
X115572102Y-93141760D01*
G37*
G04 #@! TD.AperFunction*
G04 #@! TD*
G04 #@! TA.AperFunction,Conductor*
G04 #@! TO.N,/SCL*
G36*
X116600832Y-92885246D02*
G01*
X116790035Y-92954201D01*
X117317930Y-93146592D01*
X117324529Y-93152644D01*
X117324916Y-93161590D01*
X117319937Y-93167620D01*
X116593974Y-93602618D01*
X116585471Y-93604014D01*
X116261024Y-93533376D01*
X116253669Y-93528268D01*
X116251813Y-93521944D01*
X116251813Y-93335276D01*
X116254158Y-93328249D01*
X116296772Y-93271536D01*
X116300266Y-93268440D01*
X116396315Y-93212987D01*
X116489501Y-93119801D01*
X116555393Y-93005673D01*
X116585527Y-92893207D01*
X116590976Y-92886107D01*
X116599854Y-92884938D01*
X116600832Y-92885246D01*
G37*
G04 #@! TD.AperFunction*
G04 #@! TD*
G04 #@! TA.AperFunction,Conductor*
G04 #@! TO.N,/~{SLEEP}*
G36*
X114235608Y-95764902D02*
G01*
X114365428Y-95894722D01*
X114368855Y-95902995D01*
X114367753Y-95907953D01*
X114135524Y-96404373D01*
X114128914Y-96410414D01*
X114119968Y-96410013D01*
X114118458Y-96409164D01*
X113881596Y-96252015D01*
X113878315Y-96248734D01*
X113721166Y-96011872D01*
X113719447Y-96003084D01*
X113724447Y-95995655D01*
X113725952Y-95994808D01*
X114222379Y-95762576D01*
X114231323Y-95762176D01*
X114235608Y-95764902D01*
G37*
G04 #@! TD.AperFunction*
G04 #@! TD*
G04 #@! TA.AperFunction,Conductor*
G04 #@! TO.N,/~{SLEEP}*
G36*
X116597223Y-94138100D02*
G01*
X117318630Y-94416371D01*
X117325115Y-94422546D01*
X117325335Y-94431498D01*
X117320433Y-94437323D01*
X116593692Y-94872787D01*
X116585755Y-94874292D01*
X116149777Y-94801629D01*
X116142179Y-94796888D01*
X116140000Y-94790088D01*
X116140000Y-94604736D01*
X116143295Y-94596597D01*
X116584612Y-94140877D01*
X116592828Y-94137319D01*
X116597223Y-94138100D01*
G37*
G04 #@! TD.AperFunction*
G04 #@! TD*
G04 #@! TA.AperFunction,Conductor*
G04 #@! TO.N,/RSVD{slash}EN1*
G36*
X108780930Y-101555835D02*
G01*
X108788358Y-101560834D01*
X108790077Y-101569622D01*
X108789608Y-101571290D01*
X108602796Y-102086524D01*
X108596755Y-102093134D01*
X108591797Y-102094236D01*
X108408203Y-102094236D01*
X108399930Y-102090809D01*
X108397204Y-102086524D01*
X108349544Y-101955078D01*
X108210391Y-101571288D01*
X108210792Y-101562344D01*
X108217402Y-101556303D01*
X108219056Y-101555837D01*
X108497682Y-101499469D01*
X108502318Y-101499469D01*
X108780930Y-101555835D01*
G37*
G04 #@! TD.AperFunction*
G04 #@! TD*
G04 #@! TA.AperFunction,Conductor*
G04 #@! TO.N,/RSVD{slash}EN1*
G36*
X109842551Y-105153427D02*
G01*
X109843513Y-105154517D01*
X110185080Y-105593675D01*
X110187455Y-105602309D01*
X110185881Y-105606872D01*
X109750036Y-106334251D01*
X109742844Y-106339586D01*
X109733986Y-106338273D01*
X109729964Y-106334251D01*
X109294118Y-105606872D01*
X109292805Y-105598014D01*
X109294919Y-105593675D01*
X109636487Y-105154517D01*
X109644271Y-105150090D01*
X109645722Y-105150000D01*
X109834278Y-105150000D01*
X109842551Y-105153427D01*
G37*
G04 #@! TD.AperFunction*
G04 #@! TD*
G04 #@! TA.AperFunction,Conductor*
G04 #@! TO.N,/VREF12{slash}EN4*
G36*
X103504344Y-102844115D02*
G01*
X103505193Y-102845625D01*
X103547663Y-102936411D01*
X103548765Y-102941367D01*
X103548765Y-103016629D01*
X103582871Y-103143919D01*
X103582873Y-103143923D01*
X103648762Y-103258045D01*
X103648766Y-103258050D01*
X103732272Y-103341556D01*
X103735699Y-103349829D01*
X103732272Y-103358102D01*
X103605277Y-103485097D01*
X103597004Y-103488524D01*
X103592047Y-103487422D01*
X103441428Y-103416961D01*
X103095626Y-103255193D01*
X103089585Y-103248583D01*
X103089986Y-103239637D01*
X103090835Y-103238127D01*
X103153336Y-103143923D01*
X103247985Y-103001263D01*
X103251263Y-102997985D01*
X103488130Y-102840833D01*
X103496915Y-102839115D01*
X103504344Y-102844115D01*
G37*
G04 #@! TD.AperFunction*
G04 #@! TD*
G04 #@! TA.AperFunction,Conductor*
G04 #@! TO.N,/VREF12{slash}EN4*
G36*
X106032551Y-105153427D02*
G01*
X106033513Y-105154517D01*
X106375080Y-105593675D01*
X106377455Y-105602309D01*
X106375881Y-105606872D01*
X105940036Y-106334251D01*
X105932844Y-106339586D01*
X105923986Y-106338273D01*
X105919964Y-106334251D01*
X105484118Y-105606872D01*
X105482805Y-105598014D01*
X105484919Y-105593675D01*
X105826487Y-105154517D01*
X105834271Y-105150090D01*
X105835722Y-105150000D01*
X106024278Y-105150000D01*
X106032551Y-105153427D01*
G37*
G04 #@! TD.AperFunction*
G04 #@! TD*
G04 #@! TA.AperFunction,Conductor*
G04 #@! TO.N,/VREF12{slash}EN3*
G36*
X104303609Y-102794851D02*
G01*
X104304458Y-102796361D01*
X104376345Y-102950028D01*
X104496056Y-103205928D01*
X104536687Y-103292781D01*
X104537088Y-103301727D01*
X104534362Y-103306012D01*
X104404542Y-103435832D01*
X104396269Y-103439259D01*
X104391312Y-103438157D01*
X104240693Y-103367696D01*
X103894891Y-103205928D01*
X103888850Y-103199318D01*
X103889251Y-103190372D01*
X103890100Y-103188862D01*
X104047250Y-102951998D01*
X104050528Y-102948720D01*
X104287392Y-102791569D01*
X104296180Y-102789851D01*
X104303609Y-102794851D01*
G37*
G04 #@! TD.AperFunction*
G04 #@! TD*
G04 #@! TA.AperFunction,Conductor*
G04 #@! TO.N,/VREF12{slash}EN3*
G36*
X107302551Y-105153427D02*
G01*
X107303513Y-105154517D01*
X107645080Y-105593675D01*
X107647455Y-105602309D01*
X107645881Y-105606872D01*
X107210036Y-106334251D01*
X107202844Y-106339586D01*
X107193986Y-106338273D01*
X107189964Y-106334251D01*
X106754118Y-105606872D01*
X106752805Y-105598014D01*
X106754919Y-105593675D01*
X107096487Y-105154517D01*
X107104271Y-105150090D01*
X107105722Y-105150000D01*
X107294278Y-105150000D01*
X107302551Y-105153427D01*
G37*
G04 #@! TD.AperFunction*
G04 #@! TD*
G04 #@! TA.AperFunction,Conductor*
G04 #@! TO.N,/IN2*
G36*
X116596872Y-97789118D02*
G01*
X117324251Y-98224964D01*
X117329586Y-98232156D01*
X117328273Y-98241014D01*
X117324251Y-98245036D01*
X116596872Y-98680881D01*
X116588014Y-98682194D01*
X116583675Y-98680080D01*
X116144517Y-98338513D01*
X116140090Y-98330729D01*
X116140000Y-98329278D01*
X116140000Y-98140721D01*
X116143427Y-98132448D01*
X116144509Y-98131492D01*
X116583675Y-97789918D01*
X116592309Y-97787544D01*
X116596872Y-97789118D01*
G37*
G04 #@! TD.AperFunction*
G04 #@! TD*
G04 #@! TA.AperFunction,Conductor*
G04 #@! TO.N,/IN2*
G36*
X111471282Y-99110389D02*
G01*
X111986525Y-99297204D01*
X111993134Y-99303244D01*
X111994236Y-99308202D01*
X111994236Y-99491797D01*
X111990809Y-99500070D01*
X111986524Y-99502796D01*
X111471290Y-99689608D01*
X111462344Y-99689207D01*
X111456303Y-99682597D01*
X111455837Y-99680939D01*
X111399469Y-99402318D01*
X111399469Y-99397680D01*
X111455835Y-99119067D01*
X111460834Y-99111641D01*
X111469622Y-99109922D01*
X111471282Y-99110389D01*
G37*
G04 #@! TD.AperFunction*
G04 #@! TD*
G04 #@! TA.AperFunction,Conductor*
G04 #@! TO.N,Net-(D3-A)*
G36*
X99257587Y-109608136D02*
G01*
X99258907Y-109609456D01*
X99714621Y-110144452D01*
X99717377Y-110152972D01*
X99716780Y-110155837D01*
X99502712Y-110779598D01*
X99496786Y-110786311D01*
X99491646Y-110787500D01*
X99008354Y-110787500D01*
X99000081Y-110784073D01*
X98997288Y-110779598D01*
X98783219Y-110155837D01*
X98783774Y-110146899D01*
X98785375Y-110144455D01*
X99241093Y-109609455D01*
X99249067Y-109605380D01*
X99257587Y-109608136D01*
G37*
G04 #@! TD.AperFunction*
G04 #@! TD*
G04 #@! TA.AperFunction,Conductor*
G04 #@! TO.N,Net-(D3-A)*
G36*
X99497500Y-110659191D02*
G01*
X99500887Y-110666501D01*
X99543379Y-111181104D01*
X99540645Y-111189631D01*
X99534039Y-111193535D01*
X99252320Y-111250530D01*
X99247680Y-111250530D01*
X98965960Y-111193535D01*
X98958531Y-111188535D01*
X98956620Y-111181104D01*
X98999113Y-110666501D01*
X99003209Y-110658538D01*
X99010773Y-110655764D01*
X99489227Y-110655764D01*
X99497500Y-110659191D01*
G37*
G04 #@! TD.AperFunction*
G04 #@! TD*
G04 #@! TA.AperFunction,Conductor*
G04 #@! TO.N,/IN0*
G36*
X112460362Y-81329986D02*
G01*
X112461872Y-81330835D01*
X112698734Y-81487984D01*
X112702015Y-81491265D01*
X112859164Y-81728127D01*
X112860883Y-81736915D01*
X112855883Y-81744344D01*
X112854373Y-81745193D01*
X112357953Y-81977422D01*
X112349007Y-81977823D01*
X112344722Y-81975097D01*
X112214902Y-81845277D01*
X112211475Y-81837004D01*
X112212575Y-81832051D01*
X112444806Y-81335625D01*
X112451416Y-81329585D01*
X112460362Y-81329986D01*
G37*
G04 #@! TD.AperFunction*
G04 #@! TD*
G04 #@! TA.AperFunction,Conductor*
G04 #@! TO.N,/IN0*
G36*
X110952142Y-87653427D02*
G01*
X110952476Y-87653775D01*
X111358020Y-88094212D01*
X111361103Y-88102619D01*
X111360000Y-88107118D01*
X111019343Y-88831142D01*
X111012720Y-88837169D01*
X111003775Y-88836748D01*
X110998720Y-88832175D01*
X110563045Y-88105082D01*
X110561732Y-88096224D01*
X110562294Y-88094537D01*
X110745989Y-87657169D01*
X110752352Y-87650869D01*
X110756776Y-87650000D01*
X110943869Y-87650000D01*
X110952142Y-87653427D01*
G37*
G04 #@! TD.AperFunction*
G04 #@! TD*
G04 #@! TA.AperFunction,Conductor*
G04 #@! TO.N,Net-(J4-Pin_2)*
G36*
X101132587Y-109608136D02*
G01*
X101133907Y-109609456D01*
X101589621Y-110144452D01*
X101592377Y-110152972D01*
X101591780Y-110155837D01*
X101377712Y-110779598D01*
X101371786Y-110786311D01*
X101366646Y-110787500D01*
X100883354Y-110787500D01*
X100875081Y-110784073D01*
X100872288Y-110779598D01*
X100658219Y-110155837D01*
X100658774Y-110146899D01*
X100660375Y-110144455D01*
X101116093Y-109609455D01*
X101124067Y-109605380D01*
X101132587Y-109608136D01*
G37*
G04 #@! TD.AperFunction*
G04 #@! TD*
G04 #@! TA.AperFunction,Conductor*
G04 #@! TO.N,Net-(J4-Pin_2)*
G36*
X101375112Y-110369760D02*
G01*
X101377819Y-110373992D01*
X101929668Y-111873308D01*
X101929310Y-111882255D01*
X101922844Y-111888286D01*
X101104156Y-112199420D01*
X101095844Y-112199420D01*
X100277470Y-111888405D01*
X100270953Y-111882262D01*
X100270689Y-111873312D01*
X100270716Y-111873240D01*
X100872055Y-110373678D01*
X100878315Y-110367275D01*
X100882914Y-110366333D01*
X101366839Y-110366333D01*
X101375112Y-110369760D01*
G37*
G04 #@! TD.AperFunction*
G04 #@! TD*
G04 #@! TA.AperFunction,Conductor*
G04 #@! TO.N,/RESET*
G36*
X99071282Y-92910389D02*
G01*
X99586525Y-93097204D01*
X99593134Y-93103244D01*
X99594236Y-93108202D01*
X99594236Y-93291797D01*
X99590809Y-93300070D01*
X99586524Y-93302796D01*
X99071290Y-93489608D01*
X99062344Y-93489207D01*
X99056303Y-93482597D01*
X99055837Y-93480939D01*
X98999469Y-93202318D01*
X98999469Y-93197680D01*
X99055835Y-92919067D01*
X99060834Y-92911641D01*
X99069622Y-92909922D01*
X99071282Y-92910389D01*
G37*
G04 #@! TD.AperFunction*
G04 #@! TD*
G04 #@! TA.AperFunction,Conductor*
G04 #@! TO.N,/RESET*
G36*
X102126014Y-88861726D02*
G01*
X102130034Y-88865746D01*
X102329018Y-89197828D01*
X102565881Y-89593127D01*
X102567194Y-89601985D01*
X102565080Y-89606324D01*
X102223513Y-90045483D01*
X102215729Y-90049910D01*
X102214278Y-90050000D01*
X102025722Y-90050000D01*
X102017449Y-90046573D01*
X102016487Y-90045483D01*
X101674919Y-89606324D01*
X101672544Y-89597690D01*
X101674118Y-89593127D01*
X102109965Y-88865747D01*
X102117156Y-88860413D01*
X102126014Y-88861726D01*
G37*
G04 #@! TD.AperFunction*
G04 #@! TD*
G04 #@! TA.AperFunction,Conductor*
G04 #@! TO.N,/BOOT*
G36*
X99071282Y-98510389D02*
G01*
X99586525Y-98697204D01*
X99593134Y-98703244D01*
X99594236Y-98708202D01*
X99594236Y-98891797D01*
X99590809Y-98900070D01*
X99586524Y-98902796D01*
X99071290Y-99089608D01*
X99062344Y-99089207D01*
X99056303Y-99082597D01*
X99055837Y-99080939D01*
X98999469Y-98802318D01*
X98999469Y-98797680D01*
X99055835Y-98519067D01*
X99060834Y-98511641D01*
X99069622Y-98509922D01*
X99071282Y-98510389D01*
G37*
G04 #@! TD.AperFunction*
G04 #@! TD*
G04 #@! TA.AperFunction,Conductor*
G04 #@! TO.N,/BOOT*
G36*
X116192551Y-105153427D02*
G01*
X116193513Y-105154517D01*
X116535080Y-105593675D01*
X116537455Y-105602309D01*
X116535881Y-105606872D01*
X116100036Y-106334251D01*
X116092844Y-106339586D01*
X116083986Y-106338273D01*
X116079964Y-106334251D01*
X115644118Y-105606872D01*
X115642805Y-105598014D01*
X115644919Y-105593675D01*
X115986487Y-105154517D01*
X115994271Y-105150090D01*
X115995722Y-105150000D01*
X116184278Y-105150000D01*
X116192551Y-105153427D01*
G37*
G04 #@! TD.AperFunction*
G04 #@! TD*
G04 #@! TA.AperFunction,Conductor*
G04 #@! TO.N,/INT_N*
G36*
X116325270Y-95258737D02*
G01*
X116326703Y-95259872D01*
X116583255Y-95498036D01*
X116683966Y-95591528D01*
X116687698Y-95599668D01*
X116687706Y-95600103D01*
X116687706Y-95783284D01*
X116684279Y-95791557D01*
X116676006Y-95794984D01*
X116675991Y-95794984D01*
X116105663Y-95794254D01*
X116097394Y-95790817D01*
X116093978Y-95782539D01*
X116094194Y-95780318D01*
X116148547Y-95502314D01*
X116150317Y-95498040D01*
X116309035Y-95261918D01*
X116316492Y-95256966D01*
X116325270Y-95258737D01*
G37*
G04 #@! TD.AperFunction*
G04 #@! TD*
G04 #@! TA.AperFunction,Conductor*
G04 #@! TO.N,/INT_N*
G36*
X116600032Y-95251024D02*
G01*
X116600145Y-95251091D01*
X117321067Y-95683916D01*
X117326396Y-95691111D01*
X117325076Y-95699968D01*
X117319641Y-95704705D01*
X116599240Y-96012452D01*
X116590286Y-96012551D01*
X116584703Y-96007861D01*
X116333443Y-95602857D01*
X116331994Y-95594022D01*
X116335111Y-95588420D01*
X116469977Y-95453555D01*
X116584056Y-95255328D01*
X116591152Y-95249868D01*
X116600032Y-95251024D01*
G37*
G04 #@! TD.AperFunction*
G04 #@! TD*
M02*
