G04 #@! TF.GenerationSoftware,KiCad,Pcbnew,9.0.4*
G04 #@! TF.CreationDate,2025-10-01T23:59:43+10:00*
G04 #@! TF.ProjectId,MatterRGB,4d617474-6572-4524-9742-2e6b69636164,rev?*
G04 #@! TF.SameCoordinates,Original*
G04 #@! TF.FileFunction,Soldermask,Top*
G04 #@! TF.FilePolarity,Negative*
%FSLAX46Y46*%
G04 Gerber Fmt 4.6, Leading zero omitted, Abs format (unit mm)*
G04 Created by KiCad (PCBNEW 9.0.4) date 2025-10-01 23:59:43*
%MOMM*%
%LPD*%
G01*
G04 APERTURE LIST*
G04 Aperture macros list*
%AMRoundRect*
0 Rectangle with rounded corners*
0 $1 Rounding radius*
0 $2 $3 $4 $5 $6 $7 $8 $9 X,Y pos of 4 corners*
0 Add a 4 corners polygon primitive as box body*
4,1,4,$2,$3,$4,$5,$6,$7,$8,$9,$2,$3,0*
0 Add four circle primitives for the rounded corners*
1,1,$1+$1,$2,$3*
1,1,$1+$1,$4,$5*
1,1,$1+$1,$6,$7*
1,1,$1+$1,$8,$9*
0 Add four rect primitives between the rounded corners*
20,1,$1+$1,$2,$3,$4,$5,0*
20,1,$1+$1,$4,$5,$6,$7,0*
20,1,$1+$1,$6,$7,$8,$9,0*
20,1,$1+$1,$8,$9,$2,$3,0*%
G04 Aperture macros list end*
%ADD10C,0.726000*%
%ADD11RoundRect,0.169000X-0.169000X-0.444000X0.169000X-0.444000X0.169000X0.444000X-0.169000X0.444000X0*%
%ADD12RoundRect,0.094000X-0.094000X-0.519000X0.094000X-0.519000X0.094000X0.519000X-0.094000X0.519000X0*%
%ADD13O,1.076000X2.176000*%
%ADD14O,1.076000X1.876000*%
%ADD15RoundRect,0.237750X0.237750X0.275250X-0.237750X0.275250X-0.237750X-0.275250X0.237750X-0.275250X0*%
%ADD16RoundRect,0.244000X0.269000X-0.244000X0.269000X0.244000X-0.269000X0.244000X-0.269000X-0.244000X0*%
%ADD17RoundRect,0.154000X-0.154000X-0.204000X0.154000X-0.204000X0.154000X0.204000X-0.154000X0.204000X0*%
%ADD18RoundRect,0.159000X-0.159000X-0.189000X0.159000X-0.189000X0.159000X0.189000X-0.159000X0.189000X0*%
%ADD19RoundRect,0.269000X-0.494000X0.269000X-0.494000X-0.269000X0.494000X-0.269000X0.494000X0.269000X0*%
%ADD20RoundRect,0.154000X0.154000X0.204000X-0.154000X0.204000X-0.154000X-0.204000X0.154000X-0.204000X0*%
%ADD21RoundRect,0.219000X0.294000X-0.219000X0.294000X0.219000X-0.294000X0.219000X-0.294000X-0.219000X0*%
%ADD22RoundRect,0.159000X0.159000X0.189000X-0.159000X0.189000X-0.159000X-0.189000X0.159000X-0.189000X0*%
%ADD23RoundRect,0.265200X0.872800X-0.397800X0.872800X0.397800X-0.872800X0.397800X-0.872800X-0.397800X0*%
%ADD24RoundRect,0.154000X-0.204000X0.154000X-0.204000X-0.154000X0.204000X-0.154000X0.204000X0.154000X0*%
%ADD25RoundRect,0.154000X0.204000X-0.154000X0.204000X0.154000X-0.204000X0.154000X-0.204000X-0.154000X0*%
%ADD26RoundRect,0.159000X0.189000X-0.159000X0.189000X0.159000X-0.189000X0.159000X-0.189000X-0.159000X0*%
%ADD27RoundRect,0.081500X-0.294000X-0.081500X0.294000X-0.081500X0.294000X0.081500X-0.294000X0.081500X0*%
%ADD28RoundRect,0.081500X-0.081500X-0.294000X0.081500X-0.294000X0.081500X0.294000X-0.081500X0.294000X0*%
%ADD29RoundRect,0.038000X-0.725000X-0.725000X0.725000X-0.725000X0.725000X0.725000X-0.725000X0.725000X0*%
%ADD30RoundRect,0.169000X-0.169000X0.531500X-0.169000X-0.531500X0.169000X-0.531500X0.169000X0.531500X0*%
%ADD31RoundRect,0.038000X-0.500000X0.450000X-0.500000X-0.450000X0.500000X-0.450000X0.500000X0.450000X0*%
%ADD32RoundRect,0.038000X-0.275000X0.850000X-0.275000X-0.850000X0.275000X-0.850000X0.275000X0.850000X0*%
%ADD33RoundRect,0.159000X-0.189000X0.159000X-0.189000X-0.159000X0.189000X-0.159000X0.189000X0.159000X0*%
%ADD34RoundRect,0.038000X-0.600000X0.600000X-0.600000X-0.600000X0.600000X-0.600000X0.600000X0.600000X0*%
%ADD35RoundRect,0.081500X-0.081500X0.344000X-0.081500X-0.344000X0.081500X-0.344000X0.081500X0.344000X0*%
%ADD36RoundRect,0.081500X-0.344000X0.081500X-0.344000X-0.081500X0.344000X-0.081500X0.344000X0.081500X0*%
%ADD37RoundRect,0.038000X-1.225000X1.225000X-1.225000X-1.225000X1.225000X-1.225000X1.225000X1.225000X0*%
%ADD38RoundRect,0.237750X-0.237750X-0.275250X0.237750X-0.275250X0.237750X0.275250X-0.237750X0.275250X0*%
%ADD39RoundRect,0.269000X0.269000X0.494000X-0.269000X0.494000X-0.269000X-0.494000X0.269000X-0.494000X0*%
%ADD40RoundRect,0.244000X0.244000X0.269000X-0.244000X0.269000X-0.244000X-0.269000X0.244000X-0.269000X0*%
%ADD41RoundRect,0.219000X0.219000X0.294000X-0.219000X0.294000X-0.219000X-0.294000X0.219000X-0.294000X0*%
%ADD42RoundRect,0.269000X0.494000X-0.269000X0.494000X0.269000X-0.494000X0.269000X-0.494000X-0.269000X0*%
%ADD43RoundRect,0.265833X-0.372167X-0.647167X0.372167X-0.647167X0.372167X0.647167X-0.372167X0.647167X0*%
%ADD44O,1.276000X1.826000*%
%ADD45RoundRect,0.261177X0.626823X0.776823X-0.626823X0.776823X-0.626823X-0.776823X0.626823X-0.776823X0*%
%ADD46O,1.776000X2.076000*%
G04 APERTURE END LIST*
D10*
G04 #@! TO.C,J1*
X111000000Y-109500000D03*
X116780000Y-109500000D03*
D11*
X110690000Y-108425000D03*
X111490000Y-108425000D03*
D12*
X112640000Y-108425000D03*
X113640000Y-108425000D03*
X114140000Y-108425000D03*
X115140000Y-108425000D03*
D11*
X116290000Y-108425000D03*
X117090000Y-108425000D03*
X117090000Y-108425000D03*
X116290000Y-108425000D03*
D12*
X115640000Y-108425000D03*
X114640000Y-108425000D03*
X113140000Y-108425000D03*
X112140000Y-108425000D03*
D11*
X111490000Y-108425000D03*
X110690000Y-108425000D03*
D13*
X109570000Y-109000000D03*
D14*
X109570000Y-113180000D03*
D13*
X118210000Y-109000000D03*
D14*
X118210000Y-113180000D03*
G04 #@! TD*
D15*
G04 #@! TO.C,LED1*
X117287500Y-82300000D03*
X115712500Y-82300000D03*
G04 #@! TD*
D16*
G04 #@! TO.C,C31*
X110550000Y-104600000D03*
X110550000Y-103050000D03*
G04 #@! TD*
G04 #@! TO.C,C4*
X103400000Y-97575000D03*
X103400000Y-96025000D03*
G04 #@! TD*
D17*
G04 #@! TO.C,R1*
X102490000Y-98750000D03*
X103510000Y-98750000D03*
G04 #@! TD*
D18*
G04 #@! TO.C,C16*
X98920000Y-103200000D03*
X99880000Y-103200000D03*
G04 #@! TD*
D19*
G04 #@! TO.C,C1*
X112000000Y-94550000D03*
X112000000Y-96450000D03*
G04 #@! TD*
D20*
G04 #@! TO.C,R10*
X118200000Y-94437500D03*
X117180000Y-94437500D03*
G04 #@! TD*
D21*
G04 #@! TO.C,C11*
X99753727Y-83444755D03*
X99753727Y-81794755D03*
G04 #@! TD*
D20*
G04 #@! TO.C,R11*
X118212500Y-95500000D03*
X117192500Y-95500000D03*
G04 #@! TD*
D22*
G04 #@! TO.C,C6*
X113760000Y-91800000D03*
X112800000Y-91800000D03*
G04 #@! TD*
D23*
G04 #@! TO.C,L2*
X117350000Y-103700000D03*
X117350000Y-101550000D03*
G04 #@! TD*
D21*
G04 #@! TO.C,C10*
X103753727Y-83444755D03*
X103753727Y-81794755D03*
G04 #@! TD*
D24*
G04 #@! TO.C,R5*
X113700000Y-82280000D03*
X113700000Y-83300000D03*
G04 #@! TD*
D25*
G04 #@! TO.C,R6*
X112700000Y-83300000D03*
X112700000Y-82280000D03*
G04 #@! TD*
D20*
G04 #@! TO.C,R7*
X99910000Y-88800000D03*
X98890000Y-88800000D03*
G04 #@! TD*
D21*
G04 #@! TO.C,C9*
X105753727Y-83444755D03*
X105753727Y-81794755D03*
G04 #@! TD*
D26*
G04 #@! TO.C,C8*
X111700000Y-83270000D03*
X111700000Y-82310000D03*
G04 #@! TD*
D27*
G04 #@! TO.C,U1*
X114437500Y-89900000D03*
X114437500Y-90400000D03*
X114437500Y-90900000D03*
D28*
X114950000Y-91662500D03*
X115450000Y-91662500D03*
X115950000Y-91662500D03*
X116450000Y-91662500D03*
D27*
X116962500Y-90900000D03*
X116962500Y-90400000D03*
X116962500Y-89900000D03*
D28*
X116450000Y-89137500D03*
X115950000Y-89137500D03*
X115450000Y-89137500D03*
X114950000Y-89137500D03*
D29*
X115700000Y-90400000D03*
G04 #@! TD*
D20*
G04 #@! TO.C,R9*
X118210000Y-93437500D03*
X117190000Y-93437500D03*
G04 #@! TD*
D30*
G04 #@! TO.C,U5*
X114050000Y-101425000D03*
X113100000Y-101425000D03*
X112150000Y-101425000D03*
X112150000Y-103700000D03*
X113100000Y-103700000D03*
X114050000Y-103700000D03*
G04 #@! TD*
D17*
G04 #@! TO.C,R2*
X108390000Y-83600000D03*
X109410000Y-83600000D03*
G04 #@! TD*
D31*
G04 #@! TO.C,SW2*
X100600000Y-96750000D03*
X100600000Y-100850000D03*
X99000000Y-96750000D03*
X99000000Y-100850000D03*
D32*
X101225000Y-98800000D03*
G04 #@! TD*
D19*
G04 #@! TO.C,C3*
X107000000Y-109600000D03*
X107000000Y-111500000D03*
G04 #@! TD*
D31*
G04 #@! TO.C,SW1*
X100600000Y-91150000D03*
X100600000Y-95250000D03*
X99000000Y-91150000D03*
X99000000Y-95250000D03*
D32*
X101225000Y-93200000D03*
G04 #@! TD*
D33*
G04 #@! TO.C,C28*
X115350000Y-102465000D03*
X115350000Y-103425000D03*
G04 #@! TD*
D34*
G04 #@! TO.C,D2*
X104249000Y-106800000D03*
X104249000Y-109600000D03*
G04 #@! TD*
D20*
G04 #@! TO.C,R4*
X109760000Y-99500000D03*
X108740000Y-99500000D03*
G04 #@! TD*
D35*
G04 #@! TO.C,U3*
X108430000Y-94032500D03*
X107930000Y-94032500D03*
X107430000Y-94032500D03*
X106930000Y-94032500D03*
X106430000Y-94032500D03*
X105930000Y-94032500D03*
D36*
X105192500Y-94770000D03*
X105192500Y-95270000D03*
X105192500Y-95770000D03*
X105192500Y-96270000D03*
X105192500Y-96770000D03*
X105192500Y-97270000D03*
D35*
X105930000Y-98007500D03*
X106430000Y-98007500D03*
X106930000Y-98007500D03*
X107430000Y-98007500D03*
X107930000Y-98007500D03*
X108430000Y-98007500D03*
D36*
X109167500Y-97270000D03*
X109167500Y-96770000D03*
X109167500Y-96270000D03*
X109167500Y-95770000D03*
X109167500Y-95270000D03*
X109167500Y-94770000D03*
D37*
X107180000Y-96020000D03*
G04 #@! TD*
D22*
G04 #@! TO.C,C30*
X114030000Y-100025000D03*
X113070000Y-100025000D03*
G04 #@! TD*
D18*
G04 #@! TO.C,C15*
X98920000Y-89800000D03*
X99880000Y-89800000D03*
G04 #@! TD*
D22*
G04 #@! TO.C,C17*
X116130000Y-88037500D03*
X115170000Y-88037500D03*
G04 #@! TD*
D34*
G04 #@! TO.C,D3*
X101600000Y-106800000D03*
X101600000Y-109600000D03*
G04 #@! TD*
D21*
G04 #@! TO.C,C14*
X103400000Y-94625000D03*
X103400000Y-92975000D03*
G04 #@! TD*
D38*
G04 #@! TO.C,LED2*
X108112500Y-82300000D03*
X109687500Y-82300000D03*
G04 #@! TD*
D39*
G04 #@! TO.C,C29*
X115100000Y-98425000D03*
X113200000Y-98425000D03*
G04 #@! TD*
D21*
G04 #@! TO.C,C12*
X101753727Y-83444755D03*
X101753727Y-81794755D03*
G04 #@! TD*
D40*
G04 #@! TO.C,C2*
X111160000Y-93000000D03*
X109610000Y-93000000D03*
G04 #@! TD*
D20*
G04 #@! TO.C,R3*
X117010000Y-83600000D03*
X115990000Y-83600000D03*
G04 #@! TD*
G04 #@! TO.C,R8*
X99910000Y-102200000D03*
X98890000Y-102200000D03*
G04 #@! TD*
D41*
G04 #@! TO.C,C7*
X109825000Y-91500000D03*
X108175000Y-91500000D03*
G04 #@! TD*
D42*
G04 #@! TO.C,C5*
X99250000Y-107450000D03*
X99250000Y-105550000D03*
G04 #@! TD*
D43*
G04 #@! TO.C,J2*
X99800000Y-85200000D03*
D44*
X101800000Y-85200000D03*
X103800000Y-85200000D03*
X105800000Y-85200000D03*
G04 #@! TD*
D43*
G04 #@! TO.C,J5*
X111750000Y-85250000D03*
D44*
X113750000Y-85250000D03*
G04 #@! TD*
D45*
G04 #@! TO.C,J4*
X103600000Y-112200000D03*
D46*
X101100000Y-112200000D03*
G04 #@! TD*
M02*
