G04 #@! TF.GenerationSoftware,KiCad,Pcbnew,9.0.4*
G04 #@! TF.CreationDate,2025-10-01T23:59:43+10:00*
G04 #@! TF.ProjectId,MatterRGB,4d617474-6572-4524-9742-2e6b69636164,rev?*
G04 #@! TF.SameCoordinates,Original*
G04 #@! TF.FileFunction,Legend,Top*
G04 #@! TF.FilePolarity,Positive*
%FSLAX46Y46*%
G04 Gerber Fmt 4.6, Leading zero omitted, Abs format (unit mm)*
G04 Created by KiCad (PCBNEW 9.0.4) date 2025-10-01 23:59:43*
%MOMM*%
%LPD*%
G01*
G04 APERTURE LIST*
G04 Aperture macros list*
%AMRoundRect*
0 Rectangle with rounded corners*
0 $1 Rounding radius*
0 $2 $3 $4 $5 $6 $7 $8 $9 X,Y pos of 4 corners*
0 Add a 4 corners polygon primitive as box body*
4,1,4,$2,$3,$4,$5,$6,$7,$8,$9,$2,$3,0*
0 Add four circle primitives for the rounded corners*
1,1,$1+$1,$2,$3*
1,1,$1+$1,$4,$5*
1,1,$1+$1,$6,$7*
1,1,$1+$1,$8,$9*
0 Add four rect primitives between the rounded corners*
20,1,$1+$1,$2,$3,$4,$5,0*
20,1,$1+$1,$4,$5,$6,$7,0*
20,1,$1+$1,$6,$7,$8,$9,0*
20,1,$1+$1,$8,$9,$2,$3,0*%
G04 Aperture macros list end*
%ADD10C,0.170000*%
%ADD11C,0.250000*%
%ADD12C,0.200000*%
%ADD13C,0.125000*%
%ADD14C,0.120000*%
%ADD15C,0.726000*%
%ADD16RoundRect,0.169000X-0.169000X-0.444000X0.169000X-0.444000X0.169000X0.444000X-0.169000X0.444000X0*%
%ADD17RoundRect,0.094000X-0.094000X-0.519000X0.094000X-0.519000X0.094000X0.519000X-0.094000X0.519000X0*%
%ADD18O,1.076000X2.176000*%
%ADD19O,1.076000X1.876000*%
%ADD20RoundRect,0.237750X0.237750X0.275250X-0.237750X0.275250X-0.237750X-0.275250X0.237750X-0.275250X0*%
%ADD21RoundRect,0.244000X0.269000X-0.244000X0.269000X0.244000X-0.269000X0.244000X-0.269000X-0.244000X0*%
%ADD22RoundRect,0.154000X-0.154000X-0.204000X0.154000X-0.204000X0.154000X0.204000X-0.154000X0.204000X0*%
%ADD23RoundRect,0.159000X-0.159000X-0.189000X0.159000X-0.189000X0.159000X0.189000X-0.159000X0.189000X0*%
%ADD24RoundRect,0.269000X-0.494000X0.269000X-0.494000X-0.269000X0.494000X-0.269000X0.494000X0.269000X0*%
%ADD25RoundRect,0.154000X0.154000X0.204000X-0.154000X0.204000X-0.154000X-0.204000X0.154000X-0.204000X0*%
%ADD26RoundRect,0.219000X0.294000X-0.219000X0.294000X0.219000X-0.294000X0.219000X-0.294000X-0.219000X0*%
%ADD27RoundRect,0.159000X0.159000X0.189000X-0.159000X0.189000X-0.159000X-0.189000X0.159000X-0.189000X0*%
%ADD28RoundRect,0.265200X0.872800X-0.397800X0.872800X0.397800X-0.872800X0.397800X-0.872800X-0.397800X0*%
%ADD29RoundRect,0.154000X-0.204000X0.154000X-0.204000X-0.154000X0.204000X-0.154000X0.204000X0.154000X0*%
%ADD30RoundRect,0.154000X0.204000X-0.154000X0.204000X0.154000X-0.204000X0.154000X-0.204000X-0.154000X0*%
%ADD31RoundRect,0.159000X0.189000X-0.159000X0.189000X0.159000X-0.189000X0.159000X-0.189000X-0.159000X0*%
%ADD32RoundRect,0.081500X-0.294000X-0.081500X0.294000X-0.081500X0.294000X0.081500X-0.294000X0.081500X0*%
%ADD33RoundRect,0.081500X-0.081500X-0.294000X0.081500X-0.294000X0.081500X0.294000X-0.081500X0.294000X0*%
%ADD34RoundRect,0.038000X-0.725000X-0.725000X0.725000X-0.725000X0.725000X0.725000X-0.725000X0.725000X0*%
%ADD35RoundRect,0.169000X-0.169000X0.531500X-0.169000X-0.531500X0.169000X-0.531500X0.169000X0.531500X0*%
%ADD36RoundRect,0.038000X-0.500000X0.450000X-0.500000X-0.450000X0.500000X-0.450000X0.500000X0.450000X0*%
%ADD37RoundRect,0.038000X-0.275000X0.850000X-0.275000X-0.850000X0.275000X-0.850000X0.275000X0.850000X0*%
%ADD38RoundRect,0.159000X-0.189000X0.159000X-0.189000X-0.159000X0.189000X-0.159000X0.189000X0.159000X0*%
%ADD39RoundRect,0.038000X-0.600000X0.600000X-0.600000X-0.600000X0.600000X-0.600000X0.600000X0.600000X0*%
%ADD40RoundRect,0.081500X-0.081500X0.344000X-0.081500X-0.344000X0.081500X-0.344000X0.081500X0.344000X0*%
%ADD41RoundRect,0.081500X-0.344000X0.081500X-0.344000X-0.081500X0.344000X-0.081500X0.344000X0.081500X0*%
%ADD42RoundRect,0.038000X-1.225000X1.225000X-1.225000X-1.225000X1.225000X-1.225000X1.225000X1.225000X0*%
%ADD43RoundRect,0.237750X-0.237750X-0.275250X0.237750X-0.275250X0.237750X0.275250X-0.237750X0.275250X0*%
%ADD44RoundRect,0.269000X0.269000X0.494000X-0.269000X0.494000X-0.269000X-0.494000X0.269000X-0.494000X0*%
%ADD45RoundRect,0.244000X0.244000X0.269000X-0.244000X0.269000X-0.244000X-0.269000X0.244000X-0.269000X0*%
%ADD46RoundRect,0.219000X0.219000X0.294000X-0.219000X0.294000X-0.219000X-0.294000X0.219000X-0.294000X0*%
%ADD47RoundRect,0.269000X0.494000X-0.269000X0.494000X0.269000X-0.494000X0.269000X-0.494000X-0.269000X0*%
%ADD48RoundRect,0.265833X-0.372167X-0.647167X0.372167X-0.647167X0.372167X0.647167X-0.372167X0.647167X0*%
%ADD49O,1.276000X1.826000*%
%ADD50RoundRect,0.261177X0.626823X0.776823X-0.626823X0.776823X-0.626823X-0.776823X0.626823X-0.776823X0*%
%ADD51O,1.776000X2.076000*%
G04 APERTURE END LIST*
D10*
G36*
X105227113Y-89303946D02*
G01*
X105287381Y-89334080D01*
X105308353Y-89355052D01*
X105333685Y-89405716D01*
X105333685Y-89446539D01*
X105308353Y-89497203D01*
X105287380Y-89518175D01*
X105227110Y-89548310D01*
X105084412Y-89583985D01*
X104902958Y-89583985D01*
X104760258Y-89548310D01*
X104699987Y-89518174D01*
X104679018Y-89497205D01*
X104653685Y-89446539D01*
X104653685Y-89405716D01*
X104679018Y-89355050D01*
X104699988Y-89334080D01*
X104760255Y-89303946D01*
X104902958Y-89268270D01*
X105084411Y-89268270D01*
X105227113Y-89303946D01*
G37*
G36*
X106332024Y-89293604D02*
G01*
X106352994Y-89314574D01*
X106378327Y-89365240D01*
X106378327Y-89487015D01*
X106352993Y-89537681D01*
X106332025Y-89558650D01*
X106281357Y-89583985D01*
X106119106Y-89583985D01*
X106068442Y-89558653D01*
X106047470Y-89537681D01*
X106022137Y-89487015D01*
X106022137Y-89365240D01*
X106047470Y-89314574D01*
X106068439Y-89293604D01*
X106119107Y-89268270D01*
X106281356Y-89268270D01*
X106332024Y-89293604D01*
G37*
G36*
X107168961Y-90696796D02*
G01*
X101611861Y-90696796D01*
X101611861Y-90265497D01*
X101706972Y-90265497D01*
X101709324Y-90298578D01*
X101724156Y-90328243D01*
X101749210Y-90349973D01*
X101764426Y-90356766D01*
X102371568Y-90559147D01*
X102379789Y-90561016D01*
X102381864Y-90561876D01*
X102383568Y-90561876D01*
X102387816Y-90562842D01*
X102401403Y-90561876D01*
X102415030Y-90561876D01*
X102417853Y-90560706D01*
X102420897Y-90560490D01*
X102433074Y-90554401D01*
X102445670Y-90549184D01*
X102447830Y-90547023D01*
X102450562Y-90545658D01*
X102459491Y-90535362D01*
X102469122Y-90525732D01*
X102470290Y-90522912D01*
X102472292Y-90520604D01*
X102476601Y-90507675D01*
X102481814Y-90495092D01*
X102482240Y-90490757D01*
X102482780Y-90489140D01*
X102482620Y-90486899D01*
X102483447Y-90478509D01*
X102483447Y-90265497D01*
X103075424Y-90265497D01*
X103077776Y-90298578D01*
X103092608Y-90328243D01*
X103117662Y-90349973D01*
X103132878Y-90356766D01*
X103740020Y-90559147D01*
X103748241Y-90561016D01*
X103750316Y-90561876D01*
X103752020Y-90561876D01*
X103756268Y-90562842D01*
X103769855Y-90561876D01*
X103783482Y-90561876D01*
X103786305Y-90560706D01*
X103789349Y-90560490D01*
X103801526Y-90554401D01*
X103814122Y-90549184D01*
X103816282Y-90547023D01*
X103819014Y-90545658D01*
X103827943Y-90535362D01*
X103837574Y-90525732D01*
X103838742Y-90522912D01*
X103840744Y-90520604D01*
X103845053Y-90507675D01*
X103850266Y-90495092D01*
X103850692Y-90490757D01*
X103851232Y-90489140D01*
X103851072Y-90486899D01*
X103851899Y-90478509D01*
X103851899Y-90265497D01*
X104443876Y-90265497D01*
X104446228Y-90298578D01*
X104461060Y-90328243D01*
X104486114Y-90349973D01*
X104501330Y-90356766D01*
X105108472Y-90559147D01*
X105116693Y-90561016D01*
X105118768Y-90561876D01*
X105120472Y-90561876D01*
X105124720Y-90562842D01*
X105138307Y-90561876D01*
X105151934Y-90561876D01*
X105154757Y-90560706D01*
X105157801Y-90560490D01*
X105169978Y-90554401D01*
X105182574Y-90549184D01*
X105184734Y-90547023D01*
X105187466Y-90545658D01*
X105196395Y-90535362D01*
X105206026Y-90525732D01*
X105207194Y-90522912D01*
X105209196Y-90520604D01*
X105213505Y-90507675D01*
X105218718Y-90495092D01*
X105219144Y-90490757D01*
X105219684Y-90489140D01*
X105219524Y-90486899D01*
X105220351Y-90478509D01*
X105220351Y-90158747D01*
X105418685Y-90158747D01*
X105435268Y-90157114D01*
X105465908Y-90144422D01*
X105489360Y-90120970D01*
X105502052Y-90090330D01*
X105502052Y-90057164D01*
X105489360Y-90026524D01*
X105465908Y-90003072D01*
X105441096Y-89992794D01*
X105852137Y-89992794D01*
X105852137Y-90518985D01*
X105853770Y-90535568D01*
X105866462Y-90566208D01*
X105889914Y-90589660D01*
X105920554Y-90602352D01*
X105953720Y-90602352D01*
X105984360Y-90589660D01*
X106007812Y-90566208D01*
X106020504Y-90535568D01*
X106022137Y-90518985D01*
X106022137Y-90180114D01*
X106204973Y-90340097D01*
X106212143Y-90345223D01*
X106213723Y-90346803D01*
X106215220Y-90347423D01*
X106218528Y-90349788D01*
X106231608Y-90354211D01*
X106244363Y-90359495D01*
X106247231Y-90359495D01*
X106249945Y-90360413D01*
X106263716Y-90359495D01*
X106277529Y-90359495D01*
X106280178Y-90358397D01*
X106283038Y-90358207D01*
X106295418Y-90352084D01*
X106308169Y-90346803D01*
X106310194Y-90344777D01*
X106312766Y-90343506D01*
X106321866Y-90333106D01*
X106331621Y-90323351D01*
X106332717Y-90320704D01*
X106334606Y-90318546D01*
X106339029Y-90305465D01*
X106344313Y-90292711D01*
X106344711Y-90288665D01*
X106345231Y-90287129D01*
X106345082Y-90284898D01*
X106345946Y-90276128D01*
X106345946Y-90174764D01*
X106371278Y-90124098D01*
X106392248Y-90103128D01*
X106442917Y-90077794D01*
X106605166Y-90077794D01*
X106655832Y-90103127D01*
X106676805Y-90124100D01*
X106702137Y-90174764D01*
X106702137Y-90377491D01*
X106676804Y-90428156D01*
X106646081Y-90458880D01*
X106635509Y-90471761D01*
X106622818Y-90502401D01*
X106622817Y-90535567D01*
X106635508Y-90566208D01*
X106658960Y-90589660D01*
X106689600Y-90602351D01*
X106722766Y-90602352D01*
X106753407Y-90589661D01*
X106766287Y-90579090D01*
X106806764Y-90538614D01*
X106812113Y-90532096D01*
X106813811Y-90530624D01*
X106815420Y-90528066D01*
X106817335Y-90525734D01*
X106818193Y-90523660D01*
X106822687Y-90516522D01*
X106863164Y-90435569D01*
X106869119Y-90420006D01*
X106869335Y-90416960D01*
X106870504Y-90414139D01*
X106872137Y-90397556D01*
X106872137Y-90154699D01*
X106870504Y-90138116D01*
X106869335Y-90135294D01*
X106869119Y-90132248D01*
X106863163Y-90116686D01*
X106822687Y-90035734D01*
X106818193Y-90028595D01*
X106817335Y-90026522D01*
X106815420Y-90024189D01*
X106813811Y-90021632D01*
X106812113Y-90020159D01*
X106806764Y-90013642D01*
X106766287Y-89973166D01*
X106759770Y-89967818D01*
X106758300Y-89966122D01*
X106755743Y-89964513D01*
X106753407Y-89962595D01*
X106751331Y-89961735D01*
X106744198Y-89957245D01*
X106663246Y-89916768D01*
X106647683Y-89910812D01*
X106644635Y-89910595D01*
X106641815Y-89909427D01*
X106625232Y-89907794D01*
X106422851Y-89907794D01*
X106406268Y-89909427D01*
X106403447Y-89910595D01*
X106400400Y-89910812D01*
X106384838Y-89916768D01*
X106303885Y-89957245D01*
X106296751Y-89961735D01*
X106294676Y-89962595D01*
X106292338Y-89964513D01*
X106289783Y-89966122D01*
X106288313Y-89967816D01*
X106281795Y-89973166D01*
X106241319Y-90013642D01*
X106235969Y-90020159D01*
X106234272Y-90021632D01*
X106232662Y-90024189D01*
X106230747Y-90026523D01*
X106229887Y-90028597D01*
X106225396Y-90035734D01*
X106191885Y-90102754D01*
X105993110Y-89928825D01*
X105985939Y-89923698D01*
X105984360Y-89922119D01*
X105982862Y-89921498D01*
X105979555Y-89919134D01*
X105966474Y-89914710D01*
X105953720Y-89909427D01*
X105950852Y-89909427D01*
X105948138Y-89908509D01*
X105934367Y-89909427D01*
X105920554Y-89909427D01*
X105917904Y-89910524D01*
X105915045Y-89910715D01*
X105902664Y-89916837D01*
X105889914Y-89922119D01*
X105887888Y-89924144D01*
X105885317Y-89925416D01*
X105876217Y-89935816D01*
X105866462Y-89945571D01*
X105865365Y-89948217D01*
X105863477Y-89950376D01*
X105859053Y-89963456D01*
X105853770Y-89976211D01*
X105853371Y-89980256D01*
X105852852Y-89981793D01*
X105853000Y-89984023D01*
X105852137Y-89992794D01*
X105441096Y-89992794D01*
X105435268Y-89990380D01*
X105418685Y-89988747D01*
X105220351Y-89988747D01*
X105220351Y-89952318D01*
X105218718Y-89935735D01*
X105206026Y-89905095D01*
X105182574Y-89881643D01*
X105151934Y-89868951D01*
X105118768Y-89868951D01*
X105088128Y-89881643D01*
X105064676Y-89905095D01*
X105051984Y-89935735D01*
X105050351Y-89952318D01*
X105050351Y-89988747D01*
X104852018Y-89988747D01*
X104835435Y-89990380D01*
X104804795Y-90003072D01*
X104781343Y-90026524D01*
X104768651Y-90057164D01*
X104768651Y-90090330D01*
X104781343Y-90120970D01*
X104804795Y-90144422D01*
X104835435Y-90157114D01*
X104852018Y-90158747D01*
X105050351Y-90158747D01*
X105050351Y-90360577D01*
X104555088Y-90195490D01*
X104538840Y-90191795D01*
X104505759Y-90194147D01*
X104476094Y-90208979D01*
X104454364Y-90234033D01*
X104443876Y-90265497D01*
X103851899Y-90265497D01*
X103851899Y-90158747D01*
X104050233Y-90158747D01*
X104066816Y-90157114D01*
X104097456Y-90144422D01*
X104120908Y-90120970D01*
X104133600Y-90090330D01*
X104133600Y-90057164D01*
X104120908Y-90026524D01*
X104097456Y-90003072D01*
X104066816Y-89990380D01*
X104050233Y-89988747D01*
X103851899Y-89988747D01*
X103851899Y-89952318D01*
X103850266Y-89935735D01*
X103837574Y-89905095D01*
X103814122Y-89881643D01*
X103783482Y-89868951D01*
X103750316Y-89868951D01*
X103719676Y-89881643D01*
X103696224Y-89905095D01*
X103683532Y-89935735D01*
X103681899Y-89952318D01*
X103681899Y-89988747D01*
X103483566Y-89988747D01*
X103466983Y-89990380D01*
X103436343Y-90003072D01*
X103412891Y-90026524D01*
X103400199Y-90057164D01*
X103400199Y-90090330D01*
X103412891Y-90120970D01*
X103436343Y-90144422D01*
X103466983Y-90157114D01*
X103483566Y-90158747D01*
X103681899Y-90158747D01*
X103681899Y-90360577D01*
X103186636Y-90195490D01*
X103170388Y-90191795D01*
X103137307Y-90194147D01*
X103107642Y-90208979D01*
X103085912Y-90234033D01*
X103075424Y-90265497D01*
X102483447Y-90265497D01*
X102483447Y-90158747D01*
X102681781Y-90158747D01*
X102698364Y-90157114D01*
X102729004Y-90144422D01*
X102752456Y-90120970D01*
X102765148Y-90090330D01*
X102765148Y-90057164D01*
X102752456Y-90026524D01*
X102729004Y-90003072D01*
X102698364Y-89990380D01*
X102681781Y-89988747D01*
X102483447Y-89988747D01*
X102483447Y-89952318D01*
X102481814Y-89935735D01*
X102469122Y-89905095D01*
X102445670Y-89881643D01*
X102415030Y-89868951D01*
X102381864Y-89868951D01*
X102351224Y-89881643D01*
X102327772Y-89905095D01*
X102315080Y-89935735D01*
X102313447Y-89952318D01*
X102313447Y-89988747D01*
X102115114Y-89988747D01*
X102098531Y-89990380D01*
X102067891Y-90003072D01*
X102044439Y-90026524D01*
X102031747Y-90057164D01*
X102031747Y-90090330D01*
X102044439Y-90120970D01*
X102067891Y-90144422D01*
X102098531Y-90157114D01*
X102115114Y-90158747D01*
X102313447Y-90158747D01*
X102313447Y-90360577D01*
X101818184Y-90195490D01*
X101801936Y-90191795D01*
X101768855Y-90194147D01*
X101739190Y-90208979D01*
X101717460Y-90234033D01*
X101706972Y-90265497D01*
X101611861Y-90265497D01*
X101611861Y-89426216D01*
X101746781Y-89426216D01*
X101748414Y-89434380D01*
X101748414Y-89442711D01*
X101751635Y-89450489D01*
X101753286Y-89458739D01*
X101757919Y-89465657D01*
X101761106Y-89473351D01*
X101767054Y-89479299D01*
X101771739Y-89486295D01*
X101784498Y-89496743D01*
X101784558Y-89496803D01*
X101784584Y-89496814D01*
X101784631Y-89496852D01*
X101899057Y-89573136D01*
X101964304Y-89638383D01*
X101998612Y-89706998D01*
X102007488Y-89721100D01*
X102032543Y-89742829D01*
X102064007Y-89753317D01*
X102097088Y-89750967D01*
X102126753Y-89736135D01*
X102148482Y-89711080D01*
X102158970Y-89679616D01*
X102156620Y-89646535D01*
X102150665Y-89630972D01*
X102110188Y-89550019D01*
X102105696Y-89542882D01*
X102104837Y-89540808D01*
X102102920Y-89538473D01*
X102101312Y-89535917D01*
X102099616Y-89534446D01*
X102094266Y-89527927D01*
X102077467Y-89511128D01*
X102596781Y-89511128D01*
X102596781Y-89668985D01*
X102598414Y-89685568D01*
X102611106Y-89716208D01*
X102634558Y-89739660D01*
X102665198Y-89752352D01*
X102698364Y-89752352D01*
X102729004Y-89739660D01*
X102752456Y-89716208D01*
X102765148Y-89685568D01*
X102766781Y-89668985D01*
X102766781Y-89345175D01*
X103115233Y-89345175D01*
X103115233Y-89547556D01*
X103116866Y-89564139D01*
X103118034Y-89566960D01*
X103118251Y-89570006D01*
X103124207Y-89585569D01*
X103164683Y-89666522D01*
X103169175Y-89673660D01*
X103170034Y-89675732D01*
X103171947Y-89678063D01*
X103173559Y-89680624D01*
X103175257Y-89682097D01*
X103180605Y-89688613D01*
X103221081Y-89729089D01*
X103233962Y-89739661D01*
X103264602Y-89752352D01*
X103297768Y-89752352D01*
X103328409Y-89739661D01*
X103351861Y-89716209D01*
X103364552Y-89685568D01*
X103364552Y-89652402D01*
X103351861Y-89621762D01*
X103341289Y-89608881D01*
X103310567Y-89578159D01*
X103285233Y-89527490D01*
X103285233Y-89365240D01*
X103310566Y-89314574D01*
X103331535Y-89293604D01*
X103382203Y-89268270D01*
X103429296Y-89268270D01*
X103518602Y-89298039D01*
X103990129Y-89769565D01*
X104003010Y-89780136D01*
X104033650Y-89792828D01*
X104066816Y-89792828D01*
X104097456Y-89780136D01*
X104120908Y-89756684D01*
X104133600Y-89726044D01*
X104135233Y-89709461D01*
X104135233Y-89385651D01*
X104483685Y-89385651D01*
X104483685Y-89466604D01*
X104485318Y-89483187D01*
X104486486Y-89486008D01*
X104486703Y-89489055D01*
X104492659Y-89504617D01*
X104533135Y-89585569D01*
X104537627Y-89592707D01*
X104538486Y-89594779D01*
X104540399Y-89597110D01*
X104542011Y-89599671D01*
X104543709Y-89601144D01*
X104549057Y-89607660D01*
X104589533Y-89648136D01*
X104596049Y-89653484D01*
X104597521Y-89655181D01*
X104600077Y-89656790D01*
X104602414Y-89658708D01*
X104604489Y-89659567D01*
X104611623Y-89664058D01*
X104692576Y-89704535D01*
X104693787Y-89704998D01*
X104694282Y-89705365D01*
X104701232Y-89707848D01*
X104708138Y-89710491D01*
X104708752Y-89710534D01*
X104709974Y-89710971D01*
X104871879Y-89751447D01*
X104874752Y-89751871D01*
X104875911Y-89752352D01*
X104882155Y-89752966D01*
X104888363Y-89753885D01*
X104889603Y-89753700D01*
X104892494Y-89753985D01*
X105094875Y-89753985D01*
X105097765Y-89753700D01*
X105099006Y-89753885D01*
X105105213Y-89752966D01*
X105111458Y-89752352D01*
X105112616Y-89751871D01*
X105115490Y-89751447D01*
X105277396Y-89710971D01*
X105278617Y-89710534D01*
X105279231Y-89710491D01*
X105286136Y-89707848D01*
X105293087Y-89705365D01*
X105293580Y-89704999D01*
X105294794Y-89704535D01*
X105375746Y-89664058D01*
X105382879Y-89659567D01*
X105384955Y-89658708D01*
X105387291Y-89656789D01*
X105389848Y-89655181D01*
X105391318Y-89653484D01*
X105397835Y-89648137D01*
X105438312Y-89607661D01*
X105443661Y-89601143D01*
X105445359Y-89599671D01*
X105446968Y-89597113D01*
X105448883Y-89594781D01*
X105449741Y-89592707D01*
X105454235Y-89585569D01*
X105494711Y-89504617D01*
X105500667Y-89489055D01*
X105500883Y-89486008D01*
X105502052Y-89483187D01*
X105503685Y-89466604D01*
X105503685Y-89385651D01*
X105502052Y-89369068D01*
X105500883Y-89366246D01*
X105500667Y-89363200D01*
X105494711Y-89347638D01*
X105493479Y-89345175D01*
X105852137Y-89345175D01*
X105852137Y-89507080D01*
X105853770Y-89523663D01*
X105854938Y-89526484D01*
X105855155Y-89529531D01*
X105861111Y-89545093D01*
X105901587Y-89626045D01*
X105906076Y-89633178D01*
X105906937Y-89635255D01*
X105908854Y-89637590D01*
X105910463Y-89640147D01*
X105912159Y-89641618D01*
X105917508Y-89648135D01*
X105957984Y-89688612D01*
X105964501Y-89693961D01*
X105965974Y-89695659D01*
X105968531Y-89697268D01*
X105970864Y-89699183D01*
X105972937Y-89700041D01*
X105980076Y-89704535D01*
X106061028Y-89745011D01*
X106076590Y-89750967D01*
X106079636Y-89751183D01*
X106082458Y-89752352D01*
X106099041Y-89753985D01*
X106301422Y-89753985D01*
X106318005Y-89752352D01*
X106320826Y-89751183D01*
X106323872Y-89750967D01*
X106339435Y-89745011D01*
X106420388Y-89704535D01*
X106427524Y-89700043D01*
X106429599Y-89699184D01*
X106431932Y-89697268D01*
X106434490Y-89695659D01*
X106435962Y-89693961D01*
X106442480Y-89688612D01*
X106482956Y-89648136D01*
X106488305Y-89641617D01*
X106490001Y-89640147D01*
X106491609Y-89637591D01*
X106493527Y-89635255D01*
X106494386Y-89633178D01*
X106498877Y-89626045D01*
X106539353Y-89545093D01*
X106545309Y-89529531D01*
X106545525Y-89526484D01*
X106546694Y-89523663D01*
X106548327Y-89507080D01*
X106548327Y-89345175D01*
X106546694Y-89328592D01*
X106545525Y-89325770D01*
X106545309Y-89322724D01*
X106539353Y-89307162D01*
X106535267Y-89298990D01*
X106549856Y-89302638D01*
X106652032Y-89370755D01*
X106676804Y-89395527D01*
X106702137Y-89446192D01*
X106702137Y-89588032D01*
X106703770Y-89604615D01*
X106716462Y-89635255D01*
X106739914Y-89658707D01*
X106770554Y-89671399D01*
X106803720Y-89671399D01*
X106834360Y-89658707D01*
X106857812Y-89635255D01*
X106870504Y-89604615D01*
X106872137Y-89588032D01*
X106872137Y-89426128D01*
X106870504Y-89409545D01*
X106869335Y-89406723D01*
X106869119Y-89403678D01*
X106863164Y-89388115D01*
X106822687Y-89307162D01*
X106818193Y-89300023D01*
X106817335Y-89297950D01*
X106815420Y-89295617D01*
X106813811Y-89293060D01*
X106812113Y-89291587D01*
X106806764Y-89285070D01*
X106766287Y-89244594D01*
X106766241Y-89244556D01*
X106766225Y-89244532D01*
X106760216Y-89239611D01*
X106753407Y-89234023D01*
X106753375Y-89234010D01*
X106753333Y-89233975D01*
X106631906Y-89153023D01*
X106622753Y-89148143D01*
X106621064Y-89146891D01*
X106619067Y-89146177D01*
X106617202Y-89145183D01*
X106615142Y-89144775D01*
X106605372Y-89141285D01*
X106443467Y-89100808D01*
X106440592Y-89100382D01*
X106439434Y-89099903D01*
X106433192Y-89099288D01*
X106426983Y-89098370D01*
X106425742Y-89098554D01*
X106422851Y-89098270D01*
X106099041Y-89098270D01*
X106082458Y-89099903D01*
X106079637Y-89101071D01*
X106076590Y-89101288D01*
X106061028Y-89107244D01*
X105980075Y-89147721D01*
X105972941Y-89152211D01*
X105970866Y-89153071D01*
X105968529Y-89154988D01*
X105965973Y-89156598D01*
X105964501Y-89158294D01*
X105957985Y-89163643D01*
X105917509Y-89204119D01*
X105912161Y-89210634D01*
X105910463Y-89212108D01*
X105908851Y-89214668D01*
X105906938Y-89217000D01*
X105906079Y-89219071D01*
X105901587Y-89226210D01*
X105861111Y-89307162D01*
X105855155Y-89322724D01*
X105854938Y-89325770D01*
X105853770Y-89328592D01*
X105852137Y-89345175D01*
X105493479Y-89345175D01*
X105454235Y-89266686D01*
X105449741Y-89259547D01*
X105448883Y-89257474D01*
X105446968Y-89255141D01*
X105445359Y-89252584D01*
X105443661Y-89251111D01*
X105438312Y-89244594D01*
X105397835Y-89204118D01*
X105391318Y-89198769D01*
X105389847Y-89197073D01*
X105387290Y-89195464D01*
X105384955Y-89193547D01*
X105382878Y-89192686D01*
X105375745Y-89188197D01*
X105294793Y-89147721D01*
X105293583Y-89147258D01*
X105293088Y-89146891D01*
X105286122Y-89144402D01*
X105279231Y-89141765D01*
X105278617Y-89141721D01*
X105277396Y-89141285D01*
X105115491Y-89100808D01*
X105112616Y-89100382D01*
X105111458Y-89099903D01*
X105105216Y-89099288D01*
X105099007Y-89098370D01*
X105097766Y-89098554D01*
X105094875Y-89098270D01*
X104892494Y-89098270D01*
X104889602Y-89098554D01*
X104888362Y-89098370D01*
X104882152Y-89099288D01*
X104875911Y-89099903D01*
X104874752Y-89100382D01*
X104871878Y-89100808D01*
X104709973Y-89141285D01*
X104708751Y-89141721D01*
X104708138Y-89141765D01*
X104701246Y-89144402D01*
X104694281Y-89146891D01*
X104693785Y-89147258D01*
X104692576Y-89147721D01*
X104611624Y-89188197D01*
X104604490Y-89192686D01*
X104602414Y-89193547D01*
X104600078Y-89195464D01*
X104597522Y-89197073D01*
X104596050Y-89198769D01*
X104589533Y-89204119D01*
X104549057Y-89244595D01*
X104543709Y-89251110D01*
X104542011Y-89252584D01*
X104540399Y-89255144D01*
X104538486Y-89257476D01*
X104537627Y-89259547D01*
X104533135Y-89266686D01*
X104492659Y-89347638D01*
X104486703Y-89363200D01*
X104486486Y-89366246D01*
X104485318Y-89369068D01*
X104483685Y-89385651D01*
X104135233Y-89385651D01*
X104135233Y-89183270D01*
X104133600Y-89166687D01*
X104120908Y-89136047D01*
X104097456Y-89112595D01*
X104066816Y-89099903D01*
X104033650Y-89099903D01*
X104003010Y-89112595D01*
X103979558Y-89136047D01*
X103966866Y-89166687D01*
X103965233Y-89183270D01*
X103965233Y-89504253D01*
X103624622Y-89163643D01*
X103611741Y-89153072D01*
X103608921Y-89151904D01*
X103606614Y-89149903D01*
X103591398Y-89143109D01*
X103469970Y-89102632D01*
X103461746Y-89100761D01*
X103459673Y-89099903D01*
X103456668Y-89099607D01*
X103453722Y-89098937D01*
X103451480Y-89099096D01*
X103443090Y-89098270D01*
X103362137Y-89098270D01*
X103345554Y-89099903D01*
X103342733Y-89101071D01*
X103339686Y-89101288D01*
X103324124Y-89107244D01*
X103243171Y-89147721D01*
X103236037Y-89152211D01*
X103233962Y-89153071D01*
X103231625Y-89154988D01*
X103229069Y-89156598D01*
X103227597Y-89158294D01*
X103221081Y-89163643D01*
X103180605Y-89204119D01*
X103175257Y-89210634D01*
X103173559Y-89212108D01*
X103171947Y-89214668D01*
X103170034Y-89217000D01*
X103169175Y-89219071D01*
X103164683Y-89226210D01*
X103124207Y-89307162D01*
X103118251Y-89322724D01*
X103118034Y-89325770D01*
X103116866Y-89328592D01*
X103115233Y-89345175D01*
X102766781Y-89345175D01*
X102766781Y-89183270D01*
X102765148Y-89166687D01*
X102752456Y-89136047D01*
X102729004Y-89112595D01*
X102698364Y-89099903D01*
X102665198Y-89099903D01*
X102634558Y-89112595D01*
X102611106Y-89136047D01*
X102598414Y-89166687D01*
X102596781Y-89183270D01*
X102596781Y-89341128D01*
X101831781Y-89341128D01*
X101831722Y-89341133D01*
X101831693Y-89341128D01*
X101831607Y-89341145D01*
X101815198Y-89342761D01*
X101807419Y-89345982D01*
X101799170Y-89347633D01*
X101792251Y-89352266D01*
X101784558Y-89355453D01*
X101778609Y-89361401D01*
X101771614Y-89366086D01*
X101766992Y-89373018D01*
X101761106Y-89378905D01*
X101757886Y-89386678D01*
X101753217Y-89393682D01*
X101751600Y-89401851D01*
X101748414Y-89409545D01*
X101748414Y-89417961D01*
X101746781Y-89426216D01*
X101611861Y-89426216D01*
X101611861Y-88211930D01*
X101706305Y-88211930D01*
X101712810Y-88244453D01*
X101731263Y-88272009D01*
X101744155Y-88282566D01*
X102837012Y-89011137D01*
X102851716Y-89018977D01*
X102884250Y-89025413D01*
X102916772Y-89018908D01*
X102944329Y-89000454D01*
X102962726Y-88972859D01*
X102969161Y-88940324D01*
X102962657Y-88907802D01*
X102944203Y-88880246D01*
X102931311Y-88869688D01*
X101944673Y-88211930D01*
X103074757Y-88211930D01*
X103081262Y-88244453D01*
X103099715Y-88272009D01*
X103112607Y-88282566D01*
X104205464Y-89011137D01*
X104220168Y-89018977D01*
X104252702Y-89025413D01*
X104285224Y-89018908D01*
X104312781Y-89000454D01*
X104331178Y-88972859D01*
X104337613Y-88940324D01*
X104331109Y-88907802D01*
X104312655Y-88880246D01*
X104299763Y-88869688D01*
X103313125Y-88211930D01*
X104443209Y-88211930D01*
X104449714Y-88244453D01*
X104468167Y-88272009D01*
X104481059Y-88282566D01*
X105573916Y-89011137D01*
X105588620Y-89018977D01*
X105621154Y-89025413D01*
X105653676Y-89018908D01*
X105681233Y-89000454D01*
X105699630Y-88972859D01*
X105706065Y-88940324D01*
X105699561Y-88907802D01*
X105681107Y-88880246D01*
X105668215Y-88869688D01*
X104681577Y-88211930D01*
X105811661Y-88211930D01*
X105818166Y-88244453D01*
X105836619Y-88272009D01*
X105849511Y-88282566D01*
X106942368Y-89011137D01*
X106957072Y-89018977D01*
X106989606Y-89025413D01*
X107022128Y-89018908D01*
X107049685Y-89000454D01*
X107068082Y-88972859D01*
X107074517Y-88940324D01*
X107068013Y-88907802D01*
X107049559Y-88880246D01*
X107036667Y-88869688D01*
X105943811Y-88141118D01*
X105929107Y-88133278D01*
X105896573Y-88126842D01*
X105864050Y-88133347D01*
X105836494Y-88151800D01*
X105818097Y-88179396D01*
X105811661Y-88211930D01*
X104681577Y-88211930D01*
X104575359Y-88141118D01*
X104560655Y-88133278D01*
X104528121Y-88126842D01*
X104495598Y-88133347D01*
X104468042Y-88151800D01*
X104449645Y-88179396D01*
X104443209Y-88211930D01*
X103313125Y-88211930D01*
X103206907Y-88141118D01*
X103192203Y-88133278D01*
X103159669Y-88126842D01*
X103127146Y-88133347D01*
X103099590Y-88151800D01*
X103081193Y-88179396D01*
X103074757Y-88211930D01*
X101944673Y-88211930D01*
X101838455Y-88141118D01*
X101823751Y-88133278D01*
X101791217Y-88126842D01*
X101758694Y-88133347D01*
X101731138Y-88151800D01*
X101712741Y-88179396D01*
X101706305Y-88211930D01*
X101611861Y-88211930D01*
X101611861Y-87645175D01*
X101746781Y-87645175D01*
X101746781Y-87847556D01*
X101748414Y-87864139D01*
X101749582Y-87866960D01*
X101749799Y-87870006D01*
X101755755Y-87885569D01*
X101796231Y-87966522D01*
X101800723Y-87973660D01*
X101801582Y-87975732D01*
X101803495Y-87978063D01*
X101805107Y-87980624D01*
X101806805Y-87982097D01*
X101812153Y-87988613D01*
X101852629Y-88029089D01*
X101865510Y-88039661D01*
X101896150Y-88052352D01*
X101929316Y-88052352D01*
X101959957Y-88039661D01*
X101983409Y-88016209D01*
X101996100Y-87985568D01*
X101996100Y-87952402D01*
X101983409Y-87921762D01*
X101972837Y-87908881D01*
X101942115Y-87878159D01*
X101916781Y-87827490D01*
X101916781Y-87665240D01*
X101942114Y-87614574D01*
X101963083Y-87593604D01*
X102013751Y-87568270D01*
X102060844Y-87568270D01*
X102150150Y-87598039D01*
X102621677Y-88069565D01*
X102634558Y-88080136D01*
X102665198Y-88092828D01*
X102698364Y-88092828D01*
X102729004Y-88080136D01*
X102752456Y-88056684D01*
X102765148Y-88026044D01*
X102766781Y-88009461D01*
X102766781Y-87755973D01*
X103075424Y-87755973D01*
X103077776Y-87789054D01*
X103092608Y-87818719D01*
X103117662Y-87840449D01*
X103132878Y-87847242D01*
X103740020Y-88049623D01*
X103748241Y-88051492D01*
X103750316Y-88052352D01*
X103752020Y-88052352D01*
X103756268Y-88053318D01*
X103769855Y-88052352D01*
X103783482Y-88052352D01*
X103786305Y-88051182D01*
X103789349Y-88050966D01*
X103801526Y-88044877D01*
X103814122Y-88039660D01*
X103816282Y-88037499D01*
X103819014Y-88036134D01*
X103827943Y-88025838D01*
X103837574Y-88016208D01*
X103838742Y-88013388D01*
X103840744Y-88011080D01*
X103845053Y-87998151D01*
X103850266Y-87985568D01*
X103850692Y-87981233D01*
X103851232Y-87979616D01*
X103851072Y-87977375D01*
X103851899Y-87968985D01*
X103851899Y-87726216D01*
X104483685Y-87726216D01*
X104485318Y-87734380D01*
X104485318Y-87742711D01*
X104488539Y-87750489D01*
X104490190Y-87758739D01*
X104494823Y-87765657D01*
X104498010Y-87773351D01*
X104503958Y-87779299D01*
X104508643Y-87786295D01*
X104521402Y-87796743D01*
X104521462Y-87796803D01*
X104521488Y-87796814D01*
X104521535Y-87796852D01*
X104635961Y-87873136D01*
X104701208Y-87938383D01*
X104735516Y-88006998D01*
X104744392Y-88021100D01*
X104769447Y-88042829D01*
X104800911Y-88053317D01*
X104833992Y-88050967D01*
X104863657Y-88036135D01*
X104885386Y-88011080D01*
X104895874Y-87979616D01*
X104893524Y-87946535D01*
X104887569Y-87930972D01*
X104847092Y-87850019D01*
X104842600Y-87842882D01*
X104841741Y-87840808D01*
X104839824Y-87838473D01*
X104838216Y-87835917D01*
X104836520Y-87834446D01*
X104831170Y-87827927D01*
X104814371Y-87811128D01*
X105333685Y-87811128D01*
X105333685Y-87968985D01*
X105335318Y-87985568D01*
X105348010Y-88016208D01*
X105371462Y-88039660D01*
X105402102Y-88052352D01*
X105435268Y-88052352D01*
X105465908Y-88039660D01*
X105489360Y-88016208D01*
X105502052Y-87985568D01*
X105503685Y-87968985D01*
X105503685Y-87726216D01*
X105852137Y-87726216D01*
X105853770Y-87734380D01*
X105853770Y-87742711D01*
X105856991Y-87750489D01*
X105858642Y-87758739D01*
X105863275Y-87765657D01*
X105866462Y-87773351D01*
X105872410Y-87779299D01*
X105877095Y-87786295D01*
X105889854Y-87796743D01*
X105889914Y-87796803D01*
X105889940Y-87796814D01*
X105889987Y-87796852D01*
X106004413Y-87873136D01*
X106069660Y-87938383D01*
X106103968Y-88006998D01*
X106112844Y-88021100D01*
X106137899Y-88042829D01*
X106169363Y-88053317D01*
X106202444Y-88050967D01*
X106232109Y-88036135D01*
X106253838Y-88011080D01*
X106264326Y-87979616D01*
X106261976Y-87946535D01*
X106256021Y-87930972D01*
X106215544Y-87850019D01*
X106211052Y-87842882D01*
X106210193Y-87840808D01*
X106208276Y-87838473D01*
X106206668Y-87835917D01*
X106204972Y-87834446D01*
X106199622Y-87827927D01*
X106182823Y-87811128D01*
X106702137Y-87811128D01*
X106702137Y-87968985D01*
X106703770Y-87985568D01*
X106716462Y-88016208D01*
X106739914Y-88039660D01*
X106770554Y-88052352D01*
X106803720Y-88052352D01*
X106834360Y-88039660D01*
X106857812Y-88016208D01*
X106870504Y-87985568D01*
X106872137Y-87968985D01*
X106872137Y-87483270D01*
X106870504Y-87466687D01*
X106857812Y-87436047D01*
X106834360Y-87412595D01*
X106803720Y-87399903D01*
X106770554Y-87399903D01*
X106739914Y-87412595D01*
X106716462Y-87436047D01*
X106703770Y-87466687D01*
X106702137Y-87483270D01*
X106702137Y-87641128D01*
X105937137Y-87641128D01*
X105937078Y-87641133D01*
X105937049Y-87641128D01*
X105936963Y-87641145D01*
X105920554Y-87642761D01*
X105912775Y-87645982D01*
X105904526Y-87647633D01*
X105897607Y-87652266D01*
X105889914Y-87655453D01*
X105883965Y-87661401D01*
X105876970Y-87666086D01*
X105872348Y-87673018D01*
X105866462Y-87678905D01*
X105863242Y-87686678D01*
X105858573Y-87693682D01*
X105856956Y-87701851D01*
X105853770Y-87709545D01*
X105853770Y-87717961D01*
X105852137Y-87726216D01*
X105503685Y-87726216D01*
X105503685Y-87483270D01*
X105502052Y-87466687D01*
X105489360Y-87436047D01*
X105465908Y-87412595D01*
X105435268Y-87399903D01*
X105402102Y-87399903D01*
X105371462Y-87412595D01*
X105348010Y-87436047D01*
X105335318Y-87466687D01*
X105333685Y-87483270D01*
X105333685Y-87641128D01*
X104568685Y-87641128D01*
X104568626Y-87641133D01*
X104568597Y-87641128D01*
X104568511Y-87641145D01*
X104552102Y-87642761D01*
X104544323Y-87645982D01*
X104536074Y-87647633D01*
X104529155Y-87652266D01*
X104521462Y-87655453D01*
X104515513Y-87661401D01*
X104508518Y-87666086D01*
X104503896Y-87673018D01*
X104498010Y-87678905D01*
X104494790Y-87686678D01*
X104490121Y-87693682D01*
X104488504Y-87701851D01*
X104485318Y-87709545D01*
X104485318Y-87717961D01*
X104483685Y-87726216D01*
X103851899Y-87726216D01*
X103851899Y-87649223D01*
X104050233Y-87649223D01*
X104066816Y-87647590D01*
X104097456Y-87634898D01*
X104120908Y-87611446D01*
X104133600Y-87580806D01*
X104133600Y-87547640D01*
X104120908Y-87517000D01*
X104097456Y-87493548D01*
X104066816Y-87480856D01*
X104050233Y-87479223D01*
X103851899Y-87479223D01*
X103851899Y-87442794D01*
X103850266Y-87426211D01*
X103837574Y-87395571D01*
X103814122Y-87372119D01*
X103783482Y-87359427D01*
X103750316Y-87359427D01*
X103719676Y-87372119D01*
X103696224Y-87395571D01*
X103683532Y-87426211D01*
X103681899Y-87442794D01*
X103681899Y-87479223D01*
X103483566Y-87479223D01*
X103466983Y-87480856D01*
X103436343Y-87493548D01*
X103412891Y-87517000D01*
X103400199Y-87547640D01*
X103400199Y-87580806D01*
X103412891Y-87611446D01*
X103436343Y-87634898D01*
X103466983Y-87647590D01*
X103483566Y-87649223D01*
X103681899Y-87649223D01*
X103681899Y-87851053D01*
X103186636Y-87685966D01*
X103170388Y-87682271D01*
X103137307Y-87684623D01*
X103107642Y-87699455D01*
X103085912Y-87724509D01*
X103075424Y-87755973D01*
X102766781Y-87755973D01*
X102766781Y-87483270D01*
X102765148Y-87466687D01*
X102752456Y-87436047D01*
X102729004Y-87412595D01*
X102698364Y-87399903D01*
X102665198Y-87399903D01*
X102634558Y-87412595D01*
X102611106Y-87436047D01*
X102598414Y-87466687D01*
X102596781Y-87483270D01*
X102596781Y-87804253D01*
X102256170Y-87463643D01*
X102243289Y-87453072D01*
X102240469Y-87451904D01*
X102238162Y-87449903D01*
X102222946Y-87443109D01*
X102101518Y-87402632D01*
X102093294Y-87400761D01*
X102091221Y-87399903D01*
X102088216Y-87399607D01*
X102085270Y-87398937D01*
X102083028Y-87399096D01*
X102074638Y-87398270D01*
X101993685Y-87398270D01*
X101977102Y-87399903D01*
X101974281Y-87401071D01*
X101971234Y-87401288D01*
X101955672Y-87407244D01*
X101874719Y-87447721D01*
X101867585Y-87452211D01*
X101865510Y-87453071D01*
X101863173Y-87454988D01*
X101860617Y-87456598D01*
X101859145Y-87458294D01*
X101852629Y-87463643D01*
X101812153Y-87504119D01*
X101806805Y-87510634D01*
X101805107Y-87512108D01*
X101803495Y-87514668D01*
X101801582Y-87517000D01*
X101800723Y-87519071D01*
X101796231Y-87526210D01*
X101755755Y-87607162D01*
X101749799Y-87622724D01*
X101749582Y-87625770D01*
X101748414Y-87628592D01*
X101746781Y-87645175D01*
X101611861Y-87645175D01*
X101611861Y-86916692D01*
X101746781Y-86916692D01*
X101748414Y-86924856D01*
X101748414Y-86933187D01*
X101751635Y-86940965D01*
X101753286Y-86949215D01*
X101757919Y-86956133D01*
X101761106Y-86963827D01*
X101767054Y-86969775D01*
X101771739Y-86976771D01*
X101784498Y-86987219D01*
X101784558Y-86987279D01*
X101784584Y-86987290D01*
X101784631Y-86987328D01*
X101899057Y-87063612D01*
X101964304Y-87128859D01*
X101998612Y-87197474D01*
X102007488Y-87211576D01*
X102032543Y-87233305D01*
X102064007Y-87243793D01*
X102097088Y-87241443D01*
X102126753Y-87226611D01*
X102148482Y-87201556D01*
X102158970Y-87170092D01*
X102156620Y-87137011D01*
X102150665Y-87121448D01*
X102110188Y-87040495D01*
X102105696Y-87033358D01*
X102104837Y-87031284D01*
X102102920Y-87028949D01*
X102101312Y-87026393D01*
X102099616Y-87024922D01*
X102094266Y-87018403D01*
X102077467Y-87001604D01*
X102596781Y-87001604D01*
X102596781Y-87159461D01*
X102598414Y-87176044D01*
X102611106Y-87206684D01*
X102634558Y-87230136D01*
X102665198Y-87242828D01*
X102698364Y-87242828D01*
X102729004Y-87230136D01*
X102752456Y-87206684D01*
X102765148Y-87176044D01*
X102766781Y-87159461D01*
X102766781Y-86673746D01*
X102765148Y-86657163D01*
X102755251Y-86633270D01*
X103115233Y-86633270D01*
X103115233Y-87199937D01*
X103116866Y-87216520D01*
X103129558Y-87247160D01*
X103153010Y-87270612D01*
X103183650Y-87283304D01*
X103216816Y-87283304D01*
X103247456Y-87270612D01*
X103270908Y-87247160D01*
X103283600Y-87216520D01*
X103285233Y-87199937D01*
X103285233Y-86762175D01*
X104016750Y-87075683D01*
X104032636Y-87080715D01*
X104065798Y-87081119D01*
X104096592Y-87068801D01*
X104120327Y-87045638D01*
X104133392Y-87015154D01*
X104133796Y-86981992D01*
X104121478Y-86951198D01*
X104098315Y-86927462D01*
X104083717Y-86919429D01*
X103510456Y-86673746D01*
X104483685Y-86673746D01*
X104483685Y-87199937D01*
X104485318Y-87216520D01*
X104498010Y-87247160D01*
X104521462Y-87270612D01*
X104552102Y-87283304D01*
X104585268Y-87283304D01*
X104615908Y-87270612D01*
X104639360Y-87247160D01*
X104652052Y-87216520D01*
X104653685Y-87199937D01*
X104653685Y-86861066D01*
X104836521Y-87021049D01*
X104843691Y-87026175D01*
X104845271Y-87027755D01*
X104846768Y-87028375D01*
X104850076Y-87030740D01*
X104863156Y-87035163D01*
X104875911Y-87040447D01*
X104878779Y-87040447D01*
X104881493Y-87041365D01*
X104895264Y-87040447D01*
X104909077Y-87040447D01*
X104911726Y-87039349D01*
X104914586Y-87039159D01*
X104926966Y-87033036D01*
X104939717Y-87027755D01*
X104941742Y-87025729D01*
X104944314Y-87024458D01*
X104953414Y-87014058D01*
X104963169Y-87004303D01*
X104964265Y-87001656D01*
X104966154Y-86999498D01*
X104970577Y-86986417D01*
X104975861Y-86973663D01*
X104976259Y-86969617D01*
X104976779Y-86968081D01*
X104976630Y-86965850D01*
X104977494Y-86957080D01*
X104977494Y-86855716D01*
X105002826Y-86805050D01*
X105023796Y-86784080D01*
X105074465Y-86758746D01*
X105236714Y-86758746D01*
X105287380Y-86784079D01*
X105308353Y-86805052D01*
X105333685Y-86855716D01*
X105333685Y-87058443D01*
X105308352Y-87109108D01*
X105277629Y-87139832D01*
X105267057Y-87152713D01*
X105254366Y-87183353D01*
X105254365Y-87216519D01*
X105267056Y-87247160D01*
X105290508Y-87270612D01*
X105321148Y-87283303D01*
X105354314Y-87283304D01*
X105384955Y-87270613D01*
X105397835Y-87260042D01*
X105438312Y-87219566D01*
X105443661Y-87213048D01*
X105445359Y-87211576D01*
X105446968Y-87209018D01*
X105448883Y-87206686D01*
X105449741Y-87204612D01*
X105454235Y-87197474D01*
X105494712Y-87116521D01*
X105500667Y-87100958D01*
X105500883Y-87097912D01*
X105502052Y-87095091D01*
X105503685Y-87078508D01*
X105503685Y-86835651D01*
X105852137Y-86835651D01*
X105852137Y-87038032D01*
X105853770Y-87054615D01*
X105854938Y-87057436D01*
X105855155Y-87060482D01*
X105861111Y-87076045D01*
X105901587Y-87156998D01*
X105906079Y-87164136D01*
X105906938Y-87166208D01*
X105908851Y-87168539D01*
X105910463Y-87171100D01*
X105912161Y-87172573D01*
X105917509Y-87179089D01*
X105957985Y-87219565D01*
X105970866Y-87230137D01*
X106001506Y-87242828D01*
X106034672Y-87242828D01*
X106065313Y-87230137D01*
X106088765Y-87206685D01*
X106101456Y-87176044D01*
X106101456Y-87142878D01*
X106088765Y-87112238D01*
X106078193Y-87099357D01*
X106047471Y-87068635D01*
X106022137Y-87017966D01*
X106022137Y-86855716D01*
X106047470Y-86805050D01*
X106068439Y-86784080D01*
X106119107Y-86758746D01*
X106166200Y-86758746D01*
X106255506Y-86788515D01*
X106727033Y-87260041D01*
X106739914Y-87270612D01*
X106770554Y-87283304D01*
X106803720Y-87283304D01*
X106834360Y-87270612D01*
X106857812Y-87247160D01*
X106870504Y-87216520D01*
X106872137Y-87199937D01*
X106872137Y-86673746D01*
X106870504Y-86657163D01*
X106857812Y-86626523D01*
X106834360Y-86603071D01*
X106803720Y-86590379D01*
X106770554Y-86590379D01*
X106739914Y-86603071D01*
X106716462Y-86626523D01*
X106703770Y-86657163D01*
X106702137Y-86673746D01*
X106702137Y-86994729D01*
X106361526Y-86654119D01*
X106348645Y-86643548D01*
X106345825Y-86642380D01*
X106343518Y-86640379D01*
X106328302Y-86633585D01*
X106206874Y-86593108D01*
X106198650Y-86591237D01*
X106196577Y-86590379D01*
X106193572Y-86590083D01*
X106190626Y-86589413D01*
X106188384Y-86589572D01*
X106179994Y-86588746D01*
X106099041Y-86588746D01*
X106082458Y-86590379D01*
X106079637Y-86591547D01*
X106076590Y-86591764D01*
X106061028Y-86597720D01*
X105980075Y-86638197D01*
X105972941Y-86642687D01*
X105970866Y-86643547D01*
X105968529Y-86645464D01*
X105965973Y-86647074D01*
X105964501Y-86648770D01*
X105957985Y-86654119D01*
X105917509Y-86694595D01*
X105912161Y-86701110D01*
X105910463Y-86702584D01*
X105908851Y-86705144D01*
X105906938Y-86707476D01*
X105906079Y-86709547D01*
X105901587Y-86716686D01*
X105861111Y-86797638D01*
X105855155Y-86813200D01*
X105854938Y-86816246D01*
X105853770Y-86819068D01*
X105852137Y-86835651D01*
X105503685Y-86835651D01*
X105502052Y-86819068D01*
X105500883Y-86816246D01*
X105500667Y-86813200D01*
X105494711Y-86797638D01*
X105454235Y-86716686D01*
X105449741Y-86709547D01*
X105448883Y-86707474D01*
X105446968Y-86705141D01*
X105445359Y-86702584D01*
X105443661Y-86701111D01*
X105438312Y-86694594D01*
X105397835Y-86654118D01*
X105391318Y-86648770D01*
X105389848Y-86647074D01*
X105387291Y-86645465D01*
X105384955Y-86643547D01*
X105382879Y-86642687D01*
X105375746Y-86638197D01*
X105294794Y-86597720D01*
X105279231Y-86591764D01*
X105276183Y-86591547D01*
X105273363Y-86590379D01*
X105256780Y-86588746D01*
X105054399Y-86588746D01*
X105037816Y-86590379D01*
X105034995Y-86591547D01*
X105031948Y-86591764D01*
X105016386Y-86597720D01*
X104935433Y-86638197D01*
X104928299Y-86642687D01*
X104926224Y-86643547D01*
X104923886Y-86645465D01*
X104921331Y-86647074D01*
X104919861Y-86648768D01*
X104913343Y-86654118D01*
X104872867Y-86694594D01*
X104867517Y-86701111D01*
X104865820Y-86702584D01*
X104864210Y-86705141D01*
X104862295Y-86707475D01*
X104861435Y-86709549D01*
X104856944Y-86716686D01*
X104823433Y-86783706D01*
X104624658Y-86609777D01*
X104617487Y-86604650D01*
X104615908Y-86603071D01*
X104614410Y-86602450D01*
X104611103Y-86600086D01*
X104598022Y-86595662D01*
X104585268Y-86590379D01*
X104582400Y-86590379D01*
X104579686Y-86589461D01*
X104565915Y-86590379D01*
X104552102Y-86590379D01*
X104549452Y-86591476D01*
X104546593Y-86591667D01*
X104534212Y-86597789D01*
X104521462Y-86603071D01*
X104519436Y-86605096D01*
X104516865Y-86606368D01*
X104507765Y-86616768D01*
X104498010Y-86626523D01*
X104496913Y-86629169D01*
X104495025Y-86631328D01*
X104490601Y-86644408D01*
X104485318Y-86657163D01*
X104484919Y-86661208D01*
X104484400Y-86662745D01*
X104484548Y-86664975D01*
X104483685Y-86673746D01*
X103510456Y-86673746D01*
X103233716Y-86555143D01*
X103217831Y-86550111D01*
X103217302Y-86550104D01*
X103216816Y-86549903D01*
X103200757Y-86549903D01*
X103184668Y-86549707D01*
X103184178Y-86549903D01*
X103183650Y-86549903D01*
X103168793Y-86556057D01*
X103153874Y-86562025D01*
X103153496Y-86562393D01*
X103153010Y-86562595D01*
X103141674Y-86573930D01*
X103130139Y-86585188D01*
X103129930Y-86585674D01*
X103129558Y-86586047D01*
X103123416Y-86600873D01*
X103117074Y-86615672D01*
X103117067Y-86616200D01*
X103116866Y-86616687D01*
X103115233Y-86633270D01*
X102755251Y-86633270D01*
X102752456Y-86626523D01*
X102729004Y-86603071D01*
X102698364Y-86590379D01*
X102665198Y-86590379D01*
X102634558Y-86603071D01*
X102611106Y-86626523D01*
X102598414Y-86657163D01*
X102596781Y-86673746D01*
X102596781Y-86831604D01*
X101831781Y-86831604D01*
X101831722Y-86831609D01*
X101831693Y-86831604D01*
X101831607Y-86831621D01*
X101815198Y-86833237D01*
X101807419Y-86836458D01*
X101799170Y-86838109D01*
X101792251Y-86842742D01*
X101784558Y-86845929D01*
X101778609Y-86851877D01*
X101771614Y-86856562D01*
X101766992Y-86863494D01*
X101761106Y-86869381D01*
X101757886Y-86877154D01*
X101753217Y-86884158D01*
X101751600Y-86892327D01*
X101748414Y-86900021D01*
X101748414Y-86908437D01*
X101746781Y-86916692D01*
X101611861Y-86916692D01*
X101611861Y-86455263D01*
X107168961Y-86455263D01*
X107168961Y-90696796D01*
G37*
D11*
G36*
X117314619Y-87140267D02*
G01*
X115814619Y-87140267D01*
X115814619Y-86273622D01*
X115939619Y-86273622D01*
X115939619Y-86892669D01*
X115942021Y-86917055D01*
X115960685Y-86962115D01*
X115995173Y-86996603D01*
X116040233Y-87015267D01*
X116089005Y-87015267D01*
X116134065Y-86996603D01*
X116168553Y-86962115D01*
X116187217Y-86917055D01*
X116189619Y-86892669D01*
X116189619Y-86549092D01*
X116363258Y-86701027D01*
X116373798Y-86708562D01*
X116376125Y-86710889D01*
X116378330Y-86711802D01*
X116383192Y-86715278D01*
X116402430Y-86721784D01*
X116421185Y-86729553D01*
X116425399Y-86729553D01*
X116429393Y-86730904D01*
X116449660Y-86729553D01*
X116469957Y-86729553D01*
X116473849Y-86727940D01*
X116478059Y-86727660D01*
X116496264Y-86718656D01*
X116515017Y-86710889D01*
X116517998Y-86707907D01*
X116521777Y-86706039D01*
X116535147Y-86690758D01*
X116549505Y-86676401D01*
X116551118Y-86672506D01*
X116553894Y-86669334D01*
X116560400Y-86650095D01*
X116568169Y-86631341D01*
X116568754Y-86625396D01*
X116569520Y-86623133D01*
X116569301Y-86619848D01*
X116570571Y-86606955D01*
X116570571Y-86493606D01*
X116595921Y-86442904D01*
X116614854Y-86423972D01*
X116665556Y-86398622D01*
X116844634Y-86398622D01*
X116895336Y-86423973D01*
X116914268Y-86442905D01*
X116939619Y-86493606D01*
X116939619Y-86720303D01*
X116914268Y-86771004D01*
X116880993Y-86804280D01*
X116865447Y-86823222D01*
X116846782Y-86868281D01*
X116846782Y-86917054D01*
X116865446Y-86962114D01*
X116899933Y-86996602D01*
X116944992Y-87015267D01*
X116993765Y-87015267D01*
X117038825Y-86996603D01*
X117057767Y-86981058D01*
X117105387Y-86933439D01*
X117113256Y-86923850D01*
X117115749Y-86921689D01*
X117118112Y-86917934D01*
X117120933Y-86914498D01*
X117122197Y-86911444D01*
X117128803Y-86900952D01*
X117176422Y-86805714D01*
X117185180Y-86782828D01*
X117185498Y-86778347D01*
X117187217Y-86774198D01*
X117189619Y-86749812D01*
X117189619Y-86464098D01*
X117187217Y-86439712D01*
X117185498Y-86435562D01*
X117185180Y-86431082D01*
X117176422Y-86408196D01*
X117128803Y-86312958D01*
X117122197Y-86302465D01*
X117120933Y-86299412D01*
X117118112Y-86295975D01*
X117115749Y-86292221D01*
X117113256Y-86290059D01*
X117105387Y-86280471D01*
X117057767Y-86232852D01*
X117048182Y-86224986D01*
X117046019Y-86222492D01*
X117042258Y-86220124D01*
X117038825Y-86217307D01*
X117035777Y-86216044D01*
X117025281Y-86209437D01*
X116930044Y-86161819D01*
X116907158Y-86153061D01*
X116902676Y-86152742D01*
X116898528Y-86151024D01*
X116874142Y-86148622D01*
X116636047Y-86148622D01*
X116611661Y-86151024D01*
X116607511Y-86152742D01*
X116603031Y-86153061D01*
X116580145Y-86161819D01*
X116484907Y-86209438D01*
X116474412Y-86216044D01*
X116471362Y-86217308D01*
X116467927Y-86220126D01*
X116464170Y-86222492D01*
X116462008Y-86224983D01*
X116452420Y-86232853D01*
X116404802Y-86280472D01*
X116396935Y-86290057D01*
X116394441Y-86292221D01*
X116392072Y-86295982D01*
X116389257Y-86299414D01*
X116387995Y-86302460D01*
X116381386Y-86312959D01*
X116356433Y-86362864D01*
X116146932Y-86179550D01*
X116136391Y-86172014D01*
X116134065Y-86169688D01*
X116131859Y-86168774D01*
X116126998Y-86165299D01*
X116107759Y-86158792D01*
X116089005Y-86151024D01*
X116084791Y-86151024D01*
X116080797Y-86149673D01*
X116060536Y-86151024D01*
X116040233Y-86151024D01*
X116036337Y-86152637D01*
X116032131Y-86152918D01*
X116013932Y-86161917D01*
X115995173Y-86169688D01*
X115992191Y-86172669D01*
X115988413Y-86174538D01*
X115975042Y-86189818D01*
X115960685Y-86204176D01*
X115959071Y-86208070D01*
X115956296Y-86211243D01*
X115949789Y-86230481D01*
X115942021Y-86249236D01*
X115941435Y-86255180D01*
X115940670Y-86257444D01*
X115940889Y-86260728D01*
X115939619Y-86273622D01*
X115814619Y-86273622D01*
X115814619Y-84464098D01*
X115939619Y-84464098D01*
X115939619Y-85083145D01*
X115942021Y-85107531D01*
X115960685Y-85152591D01*
X115995173Y-85187079D01*
X116029975Y-85201494D01*
X115987979Y-85222492D01*
X115956024Y-85259338D01*
X115940601Y-85305607D01*
X115944058Y-85354256D01*
X115965870Y-85397881D01*
X116002716Y-85429836D01*
X116025091Y-85439826D01*
X116669335Y-85654574D01*
X116025091Y-85869322D01*
X116002716Y-85879312D01*
X115965870Y-85911267D01*
X115944058Y-85954892D01*
X115940601Y-86003541D01*
X115956024Y-86049810D01*
X115987979Y-86086656D01*
X116031604Y-86108468D01*
X116080253Y-86111925D01*
X116104147Y-86106492D01*
X117104147Y-85773160D01*
X117126522Y-85763169D01*
X117133269Y-85757317D01*
X117141258Y-85753323D01*
X117151524Y-85741485D01*
X117163368Y-85731214D01*
X117167363Y-85723222D01*
X117173214Y-85716477D01*
X117178169Y-85701612D01*
X117185180Y-85687590D01*
X117185813Y-85678679D01*
X117188637Y-85670208D01*
X117187526Y-85654574D01*
X117188637Y-85638940D01*
X117185813Y-85630468D01*
X117185180Y-85621558D01*
X117178169Y-85607536D01*
X117173214Y-85592671D01*
X117167363Y-85585925D01*
X117163368Y-85577934D01*
X117151524Y-85567662D01*
X117141258Y-85555825D01*
X117133269Y-85551830D01*
X117126522Y-85545979D01*
X117104147Y-85535988D01*
X116104147Y-85202656D01*
X116099182Y-85201527D01*
X116134065Y-85187079D01*
X116168553Y-85152591D01*
X116187217Y-85107531D01*
X116189619Y-85083145D01*
X116189619Y-84739568D01*
X116363258Y-84891503D01*
X116373798Y-84899038D01*
X116376125Y-84901365D01*
X116378330Y-84902278D01*
X116383192Y-84905754D01*
X116402430Y-84912260D01*
X116421185Y-84920029D01*
X116425399Y-84920029D01*
X116429393Y-84921380D01*
X116449660Y-84920029D01*
X116469957Y-84920029D01*
X116473849Y-84918416D01*
X116478059Y-84918136D01*
X116496264Y-84909132D01*
X116515017Y-84901365D01*
X116517998Y-84898383D01*
X116521777Y-84896515D01*
X116535147Y-84881234D01*
X116549505Y-84866877D01*
X116551118Y-84862982D01*
X116553894Y-84859810D01*
X116560400Y-84840571D01*
X116568169Y-84821817D01*
X116568754Y-84815872D01*
X116569520Y-84813609D01*
X116569301Y-84810324D01*
X116570571Y-84797431D01*
X116570571Y-84684082D01*
X116595921Y-84633380D01*
X116614854Y-84614448D01*
X116665556Y-84589098D01*
X116844634Y-84589098D01*
X116895336Y-84614449D01*
X116914268Y-84633381D01*
X116939619Y-84684082D01*
X116939619Y-84910779D01*
X116914268Y-84961480D01*
X116880993Y-84994756D01*
X116865447Y-85013698D01*
X116846782Y-85058757D01*
X116846782Y-85107530D01*
X116865446Y-85152590D01*
X116899933Y-85187078D01*
X116944992Y-85205743D01*
X116993765Y-85205743D01*
X117038825Y-85187079D01*
X117057767Y-85171534D01*
X117105387Y-85123915D01*
X117113256Y-85114326D01*
X117115749Y-85112165D01*
X117118112Y-85108410D01*
X117120933Y-85104974D01*
X117122197Y-85101920D01*
X117128803Y-85091428D01*
X117176422Y-84996190D01*
X117185180Y-84973304D01*
X117185498Y-84968823D01*
X117187217Y-84964674D01*
X117189619Y-84940288D01*
X117189619Y-84654574D01*
X117187217Y-84630188D01*
X117185498Y-84626038D01*
X117185180Y-84621558D01*
X117176422Y-84598672D01*
X117128803Y-84503434D01*
X117122197Y-84492941D01*
X117120933Y-84489888D01*
X117118112Y-84486451D01*
X117115749Y-84482697D01*
X117113256Y-84480535D01*
X117105387Y-84470947D01*
X117057767Y-84423328D01*
X117048182Y-84415462D01*
X117046019Y-84412968D01*
X117042258Y-84410600D01*
X117038825Y-84407783D01*
X117035777Y-84406520D01*
X117025281Y-84399913D01*
X116930044Y-84352295D01*
X116907158Y-84343537D01*
X116902676Y-84343218D01*
X116898528Y-84341500D01*
X116874142Y-84339098D01*
X116636047Y-84339098D01*
X116611661Y-84341500D01*
X116607511Y-84343218D01*
X116603031Y-84343537D01*
X116580145Y-84352295D01*
X116484907Y-84399914D01*
X116474412Y-84406520D01*
X116471362Y-84407784D01*
X116467927Y-84410602D01*
X116464170Y-84412968D01*
X116462008Y-84415459D01*
X116452420Y-84423329D01*
X116404802Y-84470948D01*
X116396935Y-84480533D01*
X116394441Y-84482697D01*
X116392072Y-84486458D01*
X116389257Y-84489890D01*
X116387995Y-84492936D01*
X116381386Y-84503435D01*
X116356433Y-84553340D01*
X116146932Y-84370026D01*
X116136391Y-84362490D01*
X116134065Y-84360164D01*
X116131859Y-84359250D01*
X116126998Y-84355775D01*
X116107759Y-84349268D01*
X116089005Y-84341500D01*
X116084791Y-84341500D01*
X116080797Y-84340149D01*
X116060536Y-84341500D01*
X116040233Y-84341500D01*
X116036337Y-84343113D01*
X116032131Y-84343394D01*
X116013932Y-84352393D01*
X115995173Y-84360164D01*
X115992191Y-84363145D01*
X115988413Y-84365014D01*
X115975042Y-84380294D01*
X115960685Y-84394652D01*
X115959071Y-84398546D01*
X115956296Y-84401719D01*
X115949789Y-84420957D01*
X115942021Y-84439712D01*
X115941435Y-84445656D01*
X115940670Y-84447920D01*
X115940889Y-84451204D01*
X115939619Y-84464098D01*
X115814619Y-84464098D01*
X115814619Y-84214098D01*
X117314619Y-84214098D01*
X117314619Y-87140267D01*
G37*
G36*
X97038562Y-100165909D02*
G01*
X97057494Y-100184842D01*
X97082845Y-100235543D01*
X97082845Y-100414368D01*
X96856655Y-100414368D01*
X96856655Y-100235543D01*
X96882005Y-100184841D01*
X96900938Y-100165909D01*
X96951640Y-100140559D01*
X96987861Y-100140559D01*
X97038562Y-100165909D01*
G37*
G36*
X97562372Y-100118291D02*
G01*
X97581304Y-100137223D01*
X97606655Y-100187924D01*
X97606655Y-100414368D01*
X97332845Y-100414368D01*
X97332845Y-100226318D01*
X97364717Y-100130700D01*
X97377128Y-100118290D01*
X97427830Y-100092940D01*
X97511670Y-100092940D01*
X97562372Y-100118291D01*
G37*
G36*
X97524891Y-99080810D02*
G01*
X97581304Y-99137224D01*
X97606655Y-99187924D01*
X97606655Y-99319383D01*
X97581304Y-99370083D01*
X97524891Y-99426497D01*
X97382932Y-99461987D01*
X97080377Y-99461987D01*
X96938417Y-99426497D01*
X96882006Y-99370086D01*
X96856655Y-99319384D01*
X96856655Y-99187924D01*
X96882006Y-99137222D01*
X96938417Y-99080811D01*
X97080377Y-99045321D01*
X97382932Y-99045321D01*
X97524891Y-99080810D01*
G37*
G36*
X97524891Y-98033191D02*
G01*
X97581304Y-98089605D01*
X97606655Y-98140305D01*
X97606655Y-98271764D01*
X97581304Y-98322464D01*
X97524891Y-98378878D01*
X97382932Y-98414368D01*
X97080377Y-98414368D01*
X96938417Y-98378878D01*
X96882006Y-98322467D01*
X96856655Y-98271765D01*
X96856655Y-98140305D01*
X96882006Y-98089603D01*
X96938417Y-98033192D01*
X97080377Y-97997702D01*
X97382932Y-97997702D01*
X97524891Y-98033191D01*
G37*
G36*
X97981655Y-100789368D02*
G01*
X96481655Y-100789368D01*
X96481655Y-100206035D01*
X96606655Y-100206035D01*
X96606655Y-100539368D01*
X96609057Y-100563754D01*
X96627721Y-100608814D01*
X96662209Y-100643302D01*
X96707269Y-100661966D01*
X96731655Y-100664368D01*
X97731655Y-100664368D01*
X97756041Y-100661966D01*
X97801101Y-100643302D01*
X97835589Y-100608814D01*
X97854253Y-100563754D01*
X97856655Y-100539368D01*
X97856655Y-100158416D01*
X97854253Y-100134030D01*
X97852534Y-100129880D01*
X97852216Y-100125400D01*
X97843458Y-100102514D01*
X97795839Y-100007276D01*
X97789233Y-99996783D01*
X97787969Y-99993730D01*
X97785148Y-99990293D01*
X97782785Y-99986539D01*
X97780292Y-99984377D01*
X97772423Y-99974789D01*
X97724803Y-99927170D01*
X97715218Y-99919304D01*
X97713055Y-99916810D01*
X97709294Y-99914442D01*
X97705861Y-99911625D01*
X97702813Y-99910362D01*
X97692317Y-99903755D01*
X97597080Y-99856137D01*
X97574194Y-99847379D01*
X97569712Y-99847060D01*
X97565564Y-99845342D01*
X97541178Y-99842940D01*
X97398321Y-99842940D01*
X97373935Y-99845342D01*
X97369785Y-99847060D01*
X97365305Y-99847379D01*
X97342419Y-99856137D01*
X97247181Y-99903756D01*
X97236686Y-99910362D01*
X97233636Y-99911626D01*
X97230201Y-99914444D01*
X97226444Y-99916810D01*
X97224282Y-99919301D01*
X97214694Y-99927171D01*
X97182364Y-99959500D01*
X97182053Y-99959245D01*
X97179006Y-99957983D01*
X97168508Y-99951374D01*
X97073271Y-99903756D01*
X97050385Y-99894998D01*
X97045903Y-99894679D01*
X97041755Y-99892961D01*
X97017369Y-99890559D01*
X96922131Y-99890559D01*
X96897745Y-99892961D01*
X96893595Y-99894679D01*
X96889115Y-99894998D01*
X96866229Y-99903756D01*
X96770991Y-99951375D01*
X96760496Y-99957981D01*
X96757446Y-99959245D01*
X96754011Y-99962063D01*
X96750254Y-99964429D01*
X96748092Y-99966920D01*
X96738504Y-99974790D01*
X96690886Y-100022409D01*
X96683019Y-100031994D01*
X96680525Y-100034158D01*
X96678156Y-100037919D01*
X96675341Y-100041351D01*
X96674079Y-100044397D01*
X96667470Y-100054896D01*
X96619852Y-100150133D01*
X96611094Y-100173019D01*
X96610775Y-100177500D01*
X96609057Y-100181649D01*
X96606655Y-100206035D01*
X96481655Y-100206035D01*
X96481655Y-99158416D01*
X96606655Y-99158416D01*
X96606655Y-99348892D01*
X96609057Y-99373278D01*
X96610775Y-99377426D01*
X96611094Y-99381908D01*
X96619852Y-99404794D01*
X96667470Y-99500031D01*
X96674079Y-99510529D01*
X96675341Y-99513576D01*
X96678156Y-99517007D01*
X96680525Y-99520769D01*
X96683019Y-99522932D01*
X96690886Y-99532518D01*
X96786124Y-99627756D01*
X96805066Y-99643301D01*
X96813651Y-99646857D01*
X96821120Y-99652391D01*
X96844195Y-99660636D01*
X97034671Y-99708255D01*
X97038900Y-99708880D01*
X97040602Y-99709585D01*
X97049781Y-99710489D01*
X97058911Y-99711839D01*
X97060733Y-99711567D01*
X97064988Y-99711987D01*
X97398321Y-99711987D01*
X97402575Y-99711567D01*
X97404397Y-99711839D01*
X97413525Y-99710489D01*
X97422707Y-99709585D01*
X97424408Y-99708880D01*
X97428638Y-99708255D01*
X97619114Y-99660636D01*
X97642189Y-99652391D01*
X97649655Y-99646858D01*
X97658243Y-99643302D01*
X97677185Y-99627757D01*
X97772424Y-99532519D01*
X97780293Y-99522930D01*
X97782785Y-99520769D01*
X97785150Y-99517011D01*
X97787969Y-99513577D01*
X97789232Y-99510526D01*
X97795839Y-99500032D01*
X97843458Y-99404794D01*
X97852216Y-99381908D01*
X97852534Y-99377427D01*
X97854253Y-99373278D01*
X97856655Y-99348892D01*
X97856655Y-99158416D01*
X97854253Y-99134030D01*
X97852534Y-99129880D01*
X97852216Y-99125400D01*
X97843458Y-99102514D01*
X97795839Y-99007276D01*
X97789232Y-98996781D01*
X97787969Y-98993731D01*
X97785150Y-98990296D01*
X97782785Y-98986539D01*
X97780293Y-98984377D01*
X97772424Y-98974789D01*
X97677185Y-98879551D01*
X97658243Y-98864006D01*
X97649655Y-98860449D01*
X97642189Y-98854917D01*
X97619114Y-98846672D01*
X97428638Y-98799053D01*
X97424408Y-98798427D01*
X97422707Y-98797723D01*
X97413525Y-98796818D01*
X97404397Y-98795469D01*
X97402575Y-98795740D01*
X97398321Y-98795321D01*
X97064988Y-98795321D01*
X97060733Y-98795740D01*
X97058911Y-98795469D01*
X97049781Y-98796818D01*
X97040602Y-98797723D01*
X97038900Y-98798427D01*
X97034671Y-98799053D01*
X96844195Y-98846672D01*
X96821120Y-98854917D01*
X96813651Y-98860450D01*
X96805066Y-98864007D01*
X96786124Y-98879552D01*
X96690886Y-98974790D01*
X96683019Y-98984375D01*
X96680525Y-98986539D01*
X96678156Y-98990300D01*
X96675341Y-98993732D01*
X96674079Y-98996778D01*
X96667470Y-99007277D01*
X96619852Y-99102514D01*
X96611094Y-99125400D01*
X96610775Y-99129881D01*
X96609057Y-99134030D01*
X96606655Y-99158416D01*
X96481655Y-99158416D01*
X96481655Y-98110797D01*
X96606655Y-98110797D01*
X96606655Y-98301273D01*
X96609057Y-98325659D01*
X96610775Y-98329807D01*
X96611094Y-98334289D01*
X96619852Y-98357175D01*
X96667470Y-98452412D01*
X96674079Y-98462910D01*
X96675341Y-98465957D01*
X96678156Y-98469388D01*
X96680525Y-98473150D01*
X96683019Y-98475313D01*
X96690886Y-98484899D01*
X96786124Y-98580137D01*
X96805066Y-98595682D01*
X96813651Y-98599238D01*
X96821120Y-98604772D01*
X96844195Y-98613017D01*
X97034671Y-98660636D01*
X97038900Y-98661261D01*
X97040602Y-98661966D01*
X97049781Y-98662870D01*
X97058911Y-98664220D01*
X97060733Y-98663948D01*
X97064988Y-98664368D01*
X97398321Y-98664368D01*
X97402575Y-98663948D01*
X97404397Y-98664220D01*
X97413525Y-98662870D01*
X97422707Y-98661966D01*
X97424408Y-98661261D01*
X97428638Y-98660636D01*
X97619114Y-98613017D01*
X97642189Y-98604772D01*
X97649655Y-98599239D01*
X97658243Y-98595683D01*
X97677185Y-98580138D01*
X97772424Y-98484900D01*
X97780293Y-98475311D01*
X97782785Y-98473150D01*
X97785150Y-98469392D01*
X97787969Y-98465958D01*
X97789232Y-98462907D01*
X97795839Y-98452413D01*
X97843458Y-98357175D01*
X97852216Y-98334289D01*
X97852534Y-98329808D01*
X97854253Y-98325659D01*
X97856655Y-98301273D01*
X97856655Y-98110797D01*
X97854253Y-98086411D01*
X97852534Y-98082261D01*
X97852216Y-98077781D01*
X97843458Y-98054895D01*
X97795839Y-97959657D01*
X97789232Y-97949162D01*
X97787969Y-97946112D01*
X97785150Y-97942677D01*
X97782785Y-97938920D01*
X97780293Y-97936758D01*
X97772424Y-97927170D01*
X97677185Y-97831932D01*
X97658243Y-97816387D01*
X97649655Y-97812830D01*
X97642189Y-97807298D01*
X97619114Y-97799053D01*
X97428638Y-97751434D01*
X97424408Y-97750808D01*
X97422707Y-97750104D01*
X97413525Y-97749199D01*
X97404397Y-97747850D01*
X97402575Y-97748121D01*
X97398321Y-97747702D01*
X97064988Y-97747702D01*
X97060733Y-97748121D01*
X97058911Y-97747850D01*
X97049781Y-97749199D01*
X97040602Y-97750104D01*
X97038900Y-97750808D01*
X97034671Y-97751434D01*
X96844195Y-97799053D01*
X96821120Y-97807298D01*
X96813651Y-97812831D01*
X96805066Y-97816388D01*
X96786124Y-97831933D01*
X96690886Y-97927171D01*
X96683019Y-97936756D01*
X96680525Y-97938920D01*
X96678156Y-97942681D01*
X96675341Y-97946113D01*
X96674079Y-97949159D01*
X96667470Y-97959658D01*
X96619852Y-98054895D01*
X96611094Y-98077781D01*
X96610775Y-98082262D01*
X96609057Y-98086411D01*
X96606655Y-98110797D01*
X96481655Y-98110797D01*
X96481655Y-97015559D01*
X96606655Y-97015559D01*
X96606655Y-97586987D01*
X96609057Y-97611373D01*
X96627721Y-97656433D01*
X96662209Y-97690921D01*
X96707269Y-97709585D01*
X96756041Y-97709585D01*
X96801101Y-97690921D01*
X96835589Y-97656433D01*
X96854253Y-97611373D01*
X96856655Y-97586987D01*
X96856655Y-97426273D01*
X97731655Y-97426273D01*
X97756041Y-97423871D01*
X97801101Y-97405207D01*
X97835589Y-97370719D01*
X97854253Y-97325659D01*
X97854253Y-97276887D01*
X97835589Y-97231827D01*
X97801101Y-97197339D01*
X97756041Y-97178675D01*
X97731655Y-97176273D01*
X96856655Y-97176273D01*
X96856655Y-97015559D01*
X96854253Y-96991173D01*
X96835589Y-96946113D01*
X96801101Y-96911625D01*
X96756041Y-96892961D01*
X96707269Y-96892961D01*
X96662209Y-96911625D01*
X96627721Y-96946113D01*
X96609057Y-96991173D01*
X96606655Y-97015559D01*
X96481655Y-97015559D01*
X96481655Y-96767961D01*
X97981655Y-96767961D01*
X97981655Y-100789368D01*
G37*
D12*
X97267219Y-114130326D02*
X96267219Y-114130326D01*
X96267219Y-114130326D02*
X96981504Y-113796993D01*
X96981504Y-113796993D02*
X96267219Y-113463660D01*
X96267219Y-113463660D02*
X97267219Y-113463660D01*
X97267219Y-112558898D02*
X96743409Y-112558898D01*
X96743409Y-112558898D02*
X96648171Y-112606517D01*
X96648171Y-112606517D02*
X96600552Y-112701755D01*
X96600552Y-112701755D02*
X96600552Y-112892231D01*
X96600552Y-112892231D02*
X96648171Y-112987469D01*
X97219600Y-112558898D02*
X97267219Y-112654136D01*
X97267219Y-112654136D02*
X97267219Y-112892231D01*
X97267219Y-112892231D02*
X97219600Y-112987469D01*
X97219600Y-112987469D02*
X97124361Y-113035088D01*
X97124361Y-113035088D02*
X97029123Y-113035088D01*
X97029123Y-113035088D02*
X96933885Y-112987469D01*
X96933885Y-112987469D02*
X96886266Y-112892231D01*
X96886266Y-112892231D02*
X96886266Y-112654136D01*
X96886266Y-112654136D02*
X96838647Y-112558898D01*
X96600552Y-112225564D02*
X96600552Y-111844612D01*
X96267219Y-112082707D02*
X97124361Y-112082707D01*
X97124361Y-112082707D02*
X97219600Y-112035088D01*
X97219600Y-112035088D02*
X97267219Y-111939850D01*
X97267219Y-111939850D02*
X97267219Y-111844612D01*
X96600552Y-111654135D02*
X96600552Y-111273183D01*
X96267219Y-111511278D02*
X97124361Y-111511278D01*
X97124361Y-111511278D02*
X97219600Y-111463659D01*
X97219600Y-111463659D02*
X97267219Y-111368421D01*
X97267219Y-111368421D02*
X97267219Y-111273183D01*
X97219600Y-110558897D02*
X97267219Y-110654135D01*
X97267219Y-110654135D02*
X97267219Y-110844611D01*
X97267219Y-110844611D02*
X97219600Y-110939849D01*
X97219600Y-110939849D02*
X97124361Y-110987468D01*
X97124361Y-110987468D02*
X96743409Y-110987468D01*
X96743409Y-110987468D02*
X96648171Y-110939849D01*
X96648171Y-110939849D02*
X96600552Y-110844611D01*
X96600552Y-110844611D02*
X96600552Y-110654135D01*
X96600552Y-110654135D02*
X96648171Y-110558897D01*
X96648171Y-110558897D02*
X96743409Y-110511278D01*
X96743409Y-110511278D02*
X96838647Y-110511278D01*
X96838647Y-110511278D02*
X96933885Y-110987468D01*
X97267219Y-110082706D02*
X96600552Y-110082706D01*
X96791028Y-110082706D02*
X96695790Y-110035087D01*
X96695790Y-110035087D02*
X96648171Y-109987468D01*
X96648171Y-109987468D02*
X96600552Y-109892230D01*
X96600552Y-109892230D02*
X96600552Y-109796992D01*
X97171980Y-108130325D02*
X97219600Y-108177944D01*
X97219600Y-108177944D02*
X97267219Y-108320801D01*
X97267219Y-108320801D02*
X97267219Y-108416039D01*
X97267219Y-108416039D02*
X97219600Y-108558896D01*
X97219600Y-108558896D02*
X97124361Y-108654134D01*
X97124361Y-108654134D02*
X97029123Y-108701753D01*
X97029123Y-108701753D02*
X96838647Y-108749372D01*
X96838647Y-108749372D02*
X96695790Y-108749372D01*
X96695790Y-108749372D02*
X96505314Y-108701753D01*
X96505314Y-108701753D02*
X96410076Y-108654134D01*
X96410076Y-108654134D02*
X96314838Y-108558896D01*
X96314838Y-108558896D02*
X96267219Y-108416039D01*
X96267219Y-108416039D02*
X96267219Y-108320801D01*
X96267219Y-108320801D02*
X96314838Y-108177944D01*
X96314838Y-108177944D02*
X96362457Y-108130325D01*
X97267219Y-107558896D02*
X97219600Y-107654134D01*
X97219600Y-107654134D02*
X97171980Y-107701753D01*
X97171980Y-107701753D02*
X97076742Y-107749372D01*
X97076742Y-107749372D02*
X96791028Y-107749372D01*
X96791028Y-107749372D02*
X96695790Y-107701753D01*
X96695790Y-107701753D02*
X96648171Y-107654134D01*
X96648171Y-107654134D02*
X96600552Y-107558896D01*
X96600552Y-107558896D02*
X96600552Y-107416039D01*
X96600552Y-107416039D02*
X96648171Y-107320801D01*
X96648171Y-107320801D02*
X96695790Y-107273182D01*
X96695790Y-107273182D02*
X96791028Y-107225563D01*
X96791028Y-107225563D02*
X97076742Y-107225563D01*
X97076742Y-107225563D02*
X97171980Y-107273182D01*
X97171980Y-107273182D02*
X97219600Y-107320801D01*
X97219600Y-107320801D02*
X97267219Y-107416039D01*
X97267219Y-107416039D02*
X97267219Y-107558896D01*
X96600552Y-106796991D02*
X97267219Y-106796991D01*
X96695790Y-106796991D02*
X96648171Y-106749372D01*
X96648171Y-106749372D02*
X96600552Y-106654134D01*
X96600552Y-106654134D02*
X96600552Y-106511277D01*
X96600552Y-106511277D02*
X96648171Y-106416039D01*
X96648171Y-106416039D02*
X96743409Y-106368420D01*
X96743409Y-106368420D02*
X97267219Y-106368420D01*
X96600552Y-106035086D02*
X96600552Y-105654134D01*
X96267219Y-105892229D02*
X97124361Y-105892229D01*
X97124361Y-105892229D02*
X97219600Y-105844610D01*
X97219600Y-105844610D02*
X97267219Y-105749372D01*
X97267219Y-105749372D02*
X97267219Y-105654134D01*
X97267219Y-105320800D02*
X96600552Y-105320800D01*
X96791028Y-105320800D02*
X96695790Y-105273181D01*
X96695790Y-105273181D02*
X96648171Y-105225562D01*
X96648171Y-105225562D02*
X96600552Y-105130324D01*
X96600552Y-105130324D02*
X96600552Y-105035086D01*
X97267219Y-104558895D02*
X97219600Y-104654133D01*
X97219600Y-104654133D02*
X97171980Y-104701752D01*
X97171980Y-104701752D02*
X97076742Y-104749371D01*
X97076742Y-104749371D02*
X96791028Y-104749371D01*
X96791028Y-104749371D02*
X96695790Y-104701752D01*
X96695790Y-104701752D02*
X96648171Y-104654133D01*
X96648171Y-104654133D02*
X96600552Y-104558895D01*
X96600552Y-104558895D02*
X96600552Y-104416038D01*
X96600552Y-104416038D02*
X96648171Y-104320800D01*
X96648171Y-104320800D02*
X96695790Y-104273181D01*
X96695790Y-104273181D02*
X96791028Y-104225562D01*
X96791028Y-104225562D02*
X97076742Y-104225562D01*
X97076742Y-104225562D02*
X97171980Y-104273181D01*
X97171980Y-104273181D02*
X97219600Y-104320800D01*
X97219600Y-104320800D02*
X97267219Y-104416038D01*
X97267219Y-104416038D02*
X97267219Y-104558895D01*
X97267219Y-103654133D02*
X97219600Y-103749371D01*
X97219600Y-103749371D02*
X97124361Y-103796990D01*
X97124361Y-103796990D02*
X96267219Y-103796990D01*
X97267219Y-103130323D02*
X97219600Y-103225561D01*
X97219600Y-103225561D02*
X97124361Y-103273180D01*
X97124361Y-103273180D02*
X96267219Y-103273180D01*
X97219600Y-102368418D02*
X97267219Y-102463656D01*
X97267219Y-102463656D02*
X97267219Y-102654132D01*
X97267219Y-102654132D02*
X97219600Y-102749370D01*
X97219600Y-102749370D02*
X97124361Y-102796989D01*
X97124361Y-102796989D02*
X96743409Y-102796989D01*
X96743409Y-102796989D02*
X96648171Y-102749370D01*
X96648171Y-102749370D02*
X96600552Y-102654132D01*
X96600552Y-102654132D02*
X96600552Y-102463656D01*
X96600552Y-102463656D02*
X96648171Y-102368418D01*
X96648171Y-102368418D02*
X96743409Y-102320799D01*
X96743409Y-102320799D02*
X96838647Y-102320799D01*
X96838647Y-102320799D02*
X96933885Y-102796989D01*
X97267219Y-101892227D02*
X96600552Y-101892227D01*
X96791028Y-101892227D02*
X96695790Y-101844608D01*
X96695790Y-101844608D02*
X96648171Y-101796989D01*
X96648171Y-101796989D02*
X96600552Y-101701751D01*
X96600552Y-101701751D02*
X96600552Y-101606513D01*
D11*
G36*
X109257855Y-86662683D02*
G01*
X109314268Y-86719097D01*
X109339619Y-86769797D01*
X109339619Y-86901256D01*
X109314268Y-86951956D01*
X109257855Y-87008370D01*
X109115896Y-87043860D01*
X108813341Y-87043860D01*
X108671381Y-87008370D01*
X108614970Y-86951959D01*
X108589619Y-86901257D01*
X108589619Y-86769797D01*
X108614970Y-86719095D01*
X108671381Y-86662684D01*
X108813341Y-86627194D01*
X109115896Y-86627194D01*
X109257855Y-86662683D01*
G37*
G36*
X109714619Y-87847431D02*
G01*
X108214619Y-87847431D01*
X108214619Y-87573045D01*
X108342021Y-87573045D01*
X108342021Y-87621817D01*
X108360685Y-87666877D01*
X108395173Y-87701365D01*
X108440233Y-87720029D01*
X108464619Y-87722431D01*
X109464619Y-87722431D01*
X109489005Y-87720029D01*
X109534065Y-87701365D01*
X109568553Y-87666877D01*
X109587217Y-87621817D01*
X109587217Y-87573045D01*
X109568553Y-87527985D01*
X109534065Y-87493497D01*
X109489005Y-87474833D01*
X109464619Y-87472431D01*
X108464619Y-87472431D01*
X108440233Y-87474833D01*
X108395173Y-87493497D01*
X108360685Y-87527985D01*
X108342021Y-87573045D01*
X108214619Y-87573045D01*
X108214619Y-86740289D01*
X108339619Y-86740289D01*
X108339619Y-86930765D01*
X108342021Y-86955151D01*
X108343739Y-86959299D01*
X108344058Y-86963781D01*
X108352816Y-86986667D01*
X108400434Y-87081904D01*
X108407043Y-87092402D01*
X108408305Y-87095449D01*
X108411120Y-87098880D01*
X108413489Y-87102642D01*
X108415983Y-87104805D01*
X108423850Y-87114391D01*
X108519088Y-87209629D01*
X108538030Y-87225174D01*
X108546615Y-87228730D01*
X108554084Y-87234264D01*
X108577159Y-87242509D01*
X108767635Y-87290128D01*
X108771864Y-87290753D01*
X108773566Y-87291458D01*
X108782745Y-87292362D01*
X108791875Y-87293712D01*
X108793697Y-87293440D01*
X108797952Y-87293860D01*
X109131285Y-87293860D01*
X109135539Y-87293440D01*
X109137361Y-87293712D01*
X109146489Y-87292362D01*
X109155671Y-87291458D01*
X109157372Y-87290753D01*
X109161602Y-87290128D01*
X109352078Y-87242509D01*
X109375153Y-87234264D01*
X109382619Y-87228731D01*
X109391207Y-87225175D01*
X109410149Y-87209630D01*
X109505388Y-87114392D01*
X109513257Y-87104803D01*
X109515749Y-87102642D01*
X109518114Y-87098884D01*
X109520933Y-87095450D01*
X109522196Y-87092399D01*
X109528803Y-87081905D01*
X109576422Y-86986667D01*
X109585180Y-86963781D01*
X109585498Y-86959300D01*
X109587217Y-86955151D01*
X109589619Y-86930765D01*
X109589619Y-86740289D01*
X109587217Y-86715903D01*
X109585498Y-86711753D01*
X109585180Y-86707273D01*
X109576422Y-86684387D01*
X109528803Y-86589149D01*
X109522196Y-86578654D01*
X109520933Y-86575604D01*
X109518114Y-86572169D01*
X109515749Y-86568412D01*
X109513257Y-86566250D01*
X109505388Y-86556662D01*
X109410149Y-86461424D01*
X109391207Y-86445879D01*
X109382619Y-86442322D01*
X109375153Y-86436790D01*
X109352078Y-86428545D01*
X109161602Y-86380926D01*
X109157372Y-86380300D01*
X109155671Y-86379596D01*
X109146489Y-86378691D01*
X109137361Y-86377342D01*
X109135539Y-86377613D01*
X109131285Y-86377194D01*
X108797952Y-86377194D01*
X108793697Y-86377613D01*
X108791875Y-86377342D01*
X108782745Y-86378691D01*
X108773566Y-86379596D01*
X108771864Y-86380300D01*
X108767635Y-86380926D01*
X108577159Y-86428545D01*
X108554084Y-86436790D01*
X108546615Y-86442323D01*
X108538030Y-86445880D01*
X108519088Y-86461425D01*
X108423850Y-86556663D01*
X108415983Y-86566248D01*
X108413489Y-86568412D01*
X108411120Y-86572173D01*
X108408305Y-86575605D01*
X108407043Y-86578651D01*
X108400434Y-86589150D01*
X108352816Y-86684387D01*
X108344058Y-86707273D01*
X108343739Y-86711754D01*
X108342021Y-86715903D01*
X108339619Y-86740289D01*
X108214619Y-86740289D01*
X108214619Y-85835657D01*
X108339619Y-85835657D01*
X108342021Y-85847667D01*
X108342021Y-85859913D01*
X108346756Y-85871345D01*
X108349184Y-85883484D01*
X108355999Y-85893660D01*
X108360685Y-85904973D01*
X108369435Y-85913723D01*
X108376323Y-85924008D01*
X108395082Y-85939370D01*
X108395173Y-85939461D01*
X108395213Y-85939477D01*
X108395281Y-85939533D01*
X108527840Y-86027905D01*
X108599981Y-86100046D01*
X108638529Y-86177142D01*
X108651584Y-86197880D01*
X108688429Y-86229836D01*
X108734699Y-86245259D01*
X108783349Y-86241801D01*
X108826972Y-86219990D01*
X108858928Y-86183145D01*
X108874351Y-86136874D01*
X108870894Y-86088225D01*
X108862136Y-86065339D01*
X108814517Y-85970101D01*
X108808490Y-85960527D01*
X109339619Y-85960527D01*
X109339619Y-86121241D01*
X109342021Y-86145627D01*
X109360685Y-86190687D01*
X109395173Y-86225175D01*
X109440233Y-86243839D01*
X109489005Y-86243839D01*
X109534065Y-86225175D01*
X109568553Y-86190687D01*
X109587217Y-86145627D01*
X109589619Y-86121241D01*
X109589619Y-85549813D01*
X109587217Y-85525427D01*
X109568553Y-85480367D01*
X109534065Y-85445879D01*
X109489005Y-85427215D01*
X109440233Y-85427215D01*
X109395173Y-85445879D01*
X109360685Y-85480367D01*
X109342021Y-85525427D01*
X109339619Y-85549813D01*
X109339619Y-85710527D01*
X108464619Y-85710527D01*
X108464532Y-85710535D01*
X108464489Y-85710527D01*
X108464362Y-85710552D01*
X108440233Y-85712929D01*
X108428800Y-85717664D01*
X108416662Y-85720092D01*
X108406485Y-85726907D01*
X108395173Y-85731593D01*
X108386422Y-85740343D01*
X108376138Y-85747231D01*
X108369344Y-85757422D01*
X108360685Y-85766081D01*
X108355949Y-85777513D01*
X108349084Y-85787812D01*
X108346706Y-85799827D01*
X108342021Y-85811141D01*
X108342021Y-85823515D01*
X108339619Y-85835657D01*
X108214619Y-85835657D01*
X108214619Y-84645051D01*
X108339619Y-84645051D01*
X108339619Y-85121241D01*
X108340507Y-85130261D01*
X108340203Y-85133307D01*
X108341100Y-85136281D01*
X108342021Y-85145627D01*
X108349013Y-85162508D01*
X108354291Y-85180001D01*
X108358276Y-85184872D01*
X108360685Y-85190687D01*
X108373605Y-85203607D01*
X108385176Y-85217749D01*
X108390722Y-85220724D01*
X108395173Y-85225175D01*
X108412055Y-85232167D01*
X108428155Y-85240804D01*
X108437362Y-85242650D01*
X108440233Y-85243839D01*
X108443293Y-85243839D01*
X108452181Y-85245621D01*
X108928371Y-85293240D01*
X108952875Y-85293276D01*
X108958901Y-85291458D01*
X108965195Y-85291458D01*
X108982073Y-85284466D01*
X108999569Y-85279188D01*
X109004442Y-85275200D01*
X109010255Y-85272793D01*
X109023170Y-85259877D01*
X109037317Y-85248303D01*
X109040293Y-85242754D01*
X109044742Y-85238306D01*
X109051732Y-85221428D01*
X109060372Y-85205324D01*
X109060998Y-85199060D01*
X109063407Y-85193246D01*
X109063407Y-85174974D01*
X109065225Y-85156794D01*
X109063407Y-85150768D01*
X109063407Y-85144473D01*
X109056414Y-85127592D01*
X109051137Y-85110100D01*
X109047150Y-85105227D01*
X109044742Y-85099413D01*
X109029197Y-85080471D01*
X108995921Y-85047196D01*
X108970571Y-84996495D01*
X108970571Y-84817416D01*
X108995921Y-84766714D01*
X109014854Y-84747782D01*
X109065556Y-84722432D01*
X109244634Y-84722432D01*
X109295336Y-84747783D01*
X109314268Y-84766715D01*
X109339619Y-84817416D01*
X109339619Y-84996494D01*
X109314268Y-85047195D01*
X109280993Y-85080471D01*
X109265447Y-85099413D01*
X109246782Y-85144472D01*
X109246782Y-85193245D01*
X109265446Y-85238305D01*
X109299933Y-85272793D01*
X109344992Y-85291458D01*
X109393765Y-85291458D01*
X109438825Y-85272794D01*
X109457767Y-85257249D01*
X109505387Y-85209630D01*
X109513256Y-85200041D01*
X109515749Y-85197880D01*
X109518112Y-85194125D01*
X109520933Y-85190689D01*
X109522197Y-85187635D01*
X109528803Y-85177143D01*
X109576422Y-85081905D01*
X109585180Y-85059019D01*
X109585498Y-85054538D01*
X109587217Y-85050389D01*
X109589619Y-85026003D01*
X109589619Y-84787908D01*
X109587217Y-84763522D01*
X109585498Y-84759372D01*
X109585180Y-84754892D01*
X109576422Y-84732006D01*
X109528803Y-84636768D01*
X109522197Y-84626275D01*
X109520933Y-84623222D01*
X109518112Y-84619785D01*
X109515749Y-84616031D01*
X109513256Y-84613869D01*
X109505387Y-84604281D01*
X109457767Y-84556662D01*
X109448182Y-84548796D01*
X109446019Y-84546302D01*
X109442258Y-84543934D01*
X109438825Y-84541117D01*
X109435777Y-84539854D01*
X109425281Y-84533247D01*
X109330044Y-84485629D01*
X109307158Y-84476871D01*
X109302676Y-84476552D01*
X109298528Y-84474834D01*
X109274142Y-84472432D01*
X109036047Y-84472432D01*
X109011661Y-84474834D01*
X109007511Y-84476552D01*
X109003031Y-84476871D01*
X108980145Y-84485629D01*
X108884907Y-84533248D01*
X108874412Y-84539854D01*
X108871362Y-84541118D01*
X108867927Y-84543936D01*
X108864170Y-84546302D01*
X108862008Y-84548793D01*
X108852420Y-84556663D01*
X108804802Y-84604282D01*
X108796935Y-84613867D01*
X108794441Y-84616031D01*
X108792072Y-84619792D01*
X108789257Y-84623224D01*
X108787995Y-84626270D01*
X108781386Y-84636769D01*
X108733768Y-84732006D01*
X108725010Y-84754892D01*
X108724691Y-84759373D01*
X108722973Y-84763522D01*
X108720571Y-84787908D01*
X108720571Y-85021212D01*
X108589619Y-85008117D01*
X108589619Y-84645051D01*
X108587217Y-84620665D01*
X108568553Y-84575605D01*
X108534065Y-84541117D01*
X108489005Y-84522453D01*
X108440233Y-84522453D01*
X108395173Y-84541117D01*
X108360685Y-84575605D01*
X108342021Y-84620665D01*
X108339619Y-84645051D01*
X108214619Y-84645051D01*
X108214619Y-84347432D01*
X109714619Y-84347432D01*
X109714619Y-87847431D01*
G37*
G36*
X97030286Y-94776353D02*
G01*
X97049218Y-94795286D01*
X97074569Y-94845987D01*
X97074569Y-95072431D01*
X96800760Y-95072431D01*
X96800760Y-94845987D01*
X96826110Y-94795285D01*
X96845043Y-94776353D01*
X96895745Y-94751003D01*
X96979585Y-94751003D01*
X97030286Y-94776353D01*
G37*
G36*
X97925760Y-95447431D02*
G01*
X96425760Y-95447431D01*
X96425760Y-94816479D01*
X96550760Y-94816479D01*
X96550760Y-95197431D01*
X96553162Y-95221817D01*
X96571826Y-95266877D01*
X96606314Y-95301365D01*
X96651374Y-95320029D01*
X96675760Y-95322431D01*
X97675760Y-95322431D01*
X97700146Y-95320029D01*
X97745206Y-95301365D01*
X97779694Y-95266877D01*
X97798358Y-95221817D01*
X97798358Y-95173045D01*
X97779694Y-95127985D01*
X97745206Y-95093497D01*
X97700146Y-95074833D01*
X97675760Y-95072431D01*
X97324569Y-95072431D01*
X97324569Y-95024418D01*
X97747443Y-94728407D01*
X97766043Y-94712455D01*
X97792255Y-94671324D01*
X97800731Y-94623293D01*
X97790181Y-94575675D01*
X97762212Y-94535720D01*
X97721082Y-94509508D01*
X97673050Y-94501032D01*
X97625433Y-94511582D01*
X97604077Y-94523599D01*
X97299488Y-94736810D01*
X97263753Y-94665339D01*
X97257146Y-94654844D01*
X97255883Y-94651794D01*
X97253064Y-94648359D01*
X97250699Y-94644602D01*
X97248207Y-94642440D01*
X97240338Y-94632852D01*
X97192719Y-94585234D01*
X97183133Y-94577367D01*
X97180970Y-94574873D01*
X97177208Y-94572504D01*
X97173777Y-94569689D01*
X97170730Y-94568427D01*
X97160232Y-94561818D01*
X97064995Y-94514200D01*
X97042109Y-94505442D01*
X97037627Y-94505123D01*
X97033479Y-94503405D01*
X97009093Y-94501003D01*
X96866236Y-94501003D01*
X96841850Y-94503405D01*
X96837700Y-94505123D01*
X96833220Y-94505442D01*
X96810334Y-94514200D01*
X96715096Y-94561819D01*
X96704601Y-94568425D01*
X96701551Y-94569689D01*
X96698116Y-94572507D01*
X96694359Y-94574873D01*
X96692197Y-94577364D01*
X96682609Y-94585234D01*
X96634991Y-94632853D01*
X96627124Y-94642438D01*
X96624630Y-94644602D01*
X96622261Y-94648363D01*
X96619446Y-94651795D01*
X96618184Y-94654841D01*
X96611575Y-94665340D01*
X96563957Y-94760577D01*
X96555199Y-94783463D01*
X96554880Y-94787944D01*
X96553162Y-94792093D01*
X96550760Y-94816479D01*
X96425760Y-94816479D01*
X96425760Y-93721241D01*
X96550760Y-93721241D01*
X96550760Y-94197431D01*
X96553162Y-94221817D01*
X96571826Y-94266877D01*
X96606314Y-94301365D01*
X96651374Y-94320029D01*
X96675760Y-94322431D01*
X97675760Y-94322431D01*
X97700146Y-94320029D01*
X97745206Y-94301365D01*
X97779694Y-94266877D01*
X97798358Y-94221817D01*
X97800760Y-94197431D01*
X97800760Y-93721241D01*
X97798358Y-93696855D01*
X97779694Y-93651795D01*
X97745206Y-93617307D01*
X97700146Y-93598643D01*
X97651374Y-93598643D01*
X97606314Y-93617307D01*
X97571826Y-93651795D01*
X97553162Y-93696855D01*
X97550760Y-93721241D01*
X97550760Y-94072431D01*
X97276950Y-94072431D01*
X97276950Y-93864098D01*
X97274548Y-93839712D01*
X97255884Y-93794652D01*
X97221396Y-93760164D01*
X97176336Y-93741500D01*
X97127564Y-93741500D01*
X97082504Y-93760164D01*
X97048016Y-93794652D01*
X97029352Y-93839712D01*
X97026950Y-93864098D01*
X97026950Y-94072431D01*
X96800760Y-94072431D01*
X96800760Y-93721241D01*
X96798358Y-93696855D01*
X96779694Y-93651795D01*
X96745206Y-93617307D01*
X96700146Y-93598643D01*
X96651374Y-93598643D01*
X96606314Y-93617307D01*
X96571826Y-93651795D01*
X96553162Y-93696855D01*
X96550760Y-93721241D01*
X96425760Y-93721241D01*
X96425760Y-92911717D01*
X96550760Y-92911717D01*
X96550760Y-93149812D01*
X96553162Y-93174198D01*
X96554880Y-93178346D01*
X96555199Y-93182828D01*
X96563957Y-93205714D01*
X96611575Y-93300951D01*
X96618184Y-93311449D01*
X96619446Y-93314496D01*
X96622261Y-93317927D01*
X96624630Y-93321689D01*
X96627124Y-93323852D01*
X96634991Y-93333438D01*
X96682609Y-93381057D01*
X96692197Y-93388926D01*
X96694359Y-93391418D01*
X96698116Y-93393783D01*
X96701551Y-93396602D01*
X96704601Y-93397865D01*
X96715096Y-93404472D01*
X96810334Y-93452091D01*
X96833220Y-93460849D01*
X96837700Y-93461167D01*
X96841850Y-93462886D01*
X96866236Y-93465288D01*
X96961474Y-93465288D01*
X96985860Y-93462886D01*
X96990008Y-93461167D01*
X96994490Y-93460849D01*
X97017376Y-93452091D01*
X97112613Y-93404473D01*
X97123111Y-93397863D01*
X97126158Y-93396602D01*
X97129589Y-93393786D01*
X97133351Y-93391418D01*
X97135514Y-93388923D01*
X97145100Y-93381057D01*
X97192719Y-93333439D01*
X97200588Y-93323850D01*
X97203080Y-93321689D01*
X97205445Y-93317931D01*
X97208264Y-93314497D01*
X97209527Y-93311446D01*
X97216134Y-93300952D01*
X97263753Y-93205714D01*
X97264436Y-93203928D01*
X97264973Y-93203204D01*
X97268628Y-93192974D01*
X97272511Y-93182828D01*
X97272574Y-93181928D01*
X97273218Y-93180129D01*
X97317509Y-93002963D01*
X97349919Y-92938142D01*
X97368852Y-92919210D01*
X97419554Y-92893860D01*
X97455775Y-92893860D01*
X97506477Y-92919211D01*
X97525409Y-92938143D01*
X97550760Y-92988844D01*
X97550760Y-93177145D01*
X97509556Y-93300760D01*
X97504123Y-93324654D01*
X97507580Y-93373303D01*
X97529392Y-93416928D01*
X97566238Y-93448883D01*
X97612507Y-93464306D01*
X97661156Y-93460849D01*
X97704781Y-93439037D01*
X97736736Y-93402191D01*
X97746726Y-93379816D01*
X97794345Y-93236960D01*
X97797094Y-93224866D01*
X97798358Y-93221817D01*
X97798793Y-93217395D01*
X97799778Y-93213066D01*
X97799544Y-93209774D01*
X97800760Y-93197431D01*
X97800760Y-92959336D01*
X97798358Y-92934950D01*
X97796639Y-92930800D01*
X97796321Y-92926320D01*
X97787563Y-92903434D01*
X97739944Y-92808196D01*
X97733338Y-92797703D01*
X97732074Y-92794650D01*
X97729253Y-92791213D01*
X97726890Y-92787459D01*
X97724397Y-92785297D01*
X97716528Y-92775709D01*
X97668908Y-92728090D01*
X97659323Y-92720224D01*
X97657160Y-92717730D01*
X97653399Y-92715362D01*
X97649966Y-92712545D01*
X97646918Y-92711282D01*
X97636422Y-92704675D01*
X97541185Y-92657057D01*
X97518299Y-92648299D01*
X97513817Y-92647980D01*
X97509669Y-92646262D01*
X97485283Y-92643860D01*
X97390045Y-92643860D01*
X97365659Y-92646262D01*
X97361509Y-92647980D01*
X97357029Y-92648299D01*
X97334143Y-92657057D01*
X97238905Y-92704676D01*
X97228410Y-92711282D01*
X97225360Y-92712546D01*
X97221925Y-92715364D01*
X97218168Y-92717730D01*
X97216006Y-92720221D01*
X97206418Y-92728091D01*
X97158800Y-92775710D01*
X97150933Y-92785295D01*
X97148439Y-92787459D01*
X97146070Y-92791220D01*
X97143255Y-92794652D01*
X97141993Y-92797698D01*
X97135384Y-92808197D01*
X97087766Y-92903434D01*
X97087082Y-92905219D01*
X97086546Y-92905944D01*
X97082890Y-92916173D01*
X97079008Y-92926320D01*
X97078944Y-92927219D01*
X97078301Y-92929019D01*
X97034009Y-93106183D01*
X97001599Y-93171004D01*
X96982667Y-93189937D01*
X96931966Y-93215288D01*
X96895745Y-93215288D01*
X96845043Y-93189937D01*
X96826110Y-93171005D01*
X96800760Y-93120304D01*
X96800760Y-92932000D01*
X96841964Y-92808389D01*
X96847397Y-92784495D01*
X96843940Y-92735845D01*
X96822128Y-92692221D01*
X96785282Y-92660265D01*
X96739013Y-92644842D01*
X96690363Y-92648299D01*
X96646739Y-92670111D01*
X96614784Y-92706957D01*
X96604793Y-92729332D01*
X96557175Y-92872189D01*
X96554425Y-92884279D01*
X96553162Y-92887331D01*
X96552726Y-92891753D01*
X96551742Y-92896083D01*
X96551975Y-92899373D01*
X96550760Y-92911717D01*
X96425760Y-92911717D01*
X96425760Y-91864098D01*
X96550760Y-91864098D01*
X96550760Y-92340288D01*
X96553162Y-92364674D01*
X96571826Y-92409734D01*
X96606314Y-92444222D01*
X96651374Y-92462886D01*
X96675760Y-92465288D01*
X97675760Y-92465288D01*
X97700146Y-92462886D01*
X97745206Y-92444222D01*
X97779694Y-92409734D01*
X97798358Y-92364674D01*
X97800760Y-92340288D01*
X97800760Y-91864098D01*
X97798358Y-91839712D01*
X97779694Y-91794652D01*
X97745206Y-91760164D01*
X97700146Y-91741500D01*
X97651374Y-91741500D01*
X97606314Y-91760164D01*
X97571826Y-91794652D01*
X97553162Y-91839712D01*
X97550760Y-91864098D01*
X97550760Y-92215288D01*
X97276950Y-92215288D01*
X97276950Y-92006955D01*
X97274548Y-91982569D01*
X97255884Y-91937509D01*
X97221396Y-91903021D01*
X97176336Y-91884357D01*
X97127564Y-91884357D01*
X97082504Y-91903021D01*
X97048016Y-91937509D01*
X97029352Y-91982569D01*
X97026950Y-92006955D01*
X97026950Y-92215288D01*
X96800760Y-92215288D01*
X96800760Y-91864098D01*
X96798358Y-91839712D01*
X96779694Y-91794652D01*
X96745206Y-91760164D01*
X96700146Y-91741500D01*
X96651374Y-91741500D01*
X96606314Y-91760164D01*
X96571826Y-91794652D01*
X96553162Y-91839712D01*
X96550760Y-91864098D01*
X96425760Y-91864098D01*
X96425760Y-91006955D01*
X96550760Y-91006955D01*
X96550760Y-91578383D01*
X96553162Y-91602769D01*
X96571826Y-91647829D01*
X96606314Y-91682317D01*
X96651374Y-91700981D01*
X96700146Y-91700981D01*
X96745206Y-91682317D01*
X96779694Y-91647829D01*
X96798358Y-91602769D01*
X96800760Y-91578383D01*
X96800760Y-91417669D01*
X97675760Y-91417669D01*
X97700146Y-91415267D01*
X97745206Y-91396603D01*
X97779694Y-91362115D01*
X97798358Y-91317055D01*
X97798358Y-91268283D01*
X97779694Y-91223223D01*
X97745206Y-91188735D01*
X97700146Y-91170071D01*
X97675760Y-91167669D01*
X96800760Y-91167669D01*
X96800760Y-91006955D01*
X96798358Y-90982569D01*
X96779694Y-90937509D01*
X96745206Y-90903021D01*
X96700146Y-90884357D01*
X96651374Y-90884357D01*
X96606314Y-90903021D01*
X96571826Y-90937509D01*
X96553162Y-90982569D01*
X96550760Y-91006955D01*
X96425760Y-91006955D01*
X96425760Y-90759357D01*
X97925760Y-90759357D01*
X97925760Y-95447431D01*
G37*
D13*
X97695595Y-90127287D02*
X96895595Y-90127287D01*
X96895595Y-90127287D02*
X96895595Y-89822525D01*
X96895595Y-89822525D02*
X96933690Y-89746335D01*
X96933690Y-89746335D02*
X96971785Y-89708240D01*
X96971785Y-89708240D02*
X97047976Y-89670144D01*
X97047976Y-89670144D02*
X97162261Y-89670144D01*
X97162261Y-89670144D02*
X97238452Y-89708240D01*
X97238452Y-89708240D02*
X97276547Y-89746335D01*
X97276547Y-89746335D02*
X97314642Y-89822525D01*
X97314642Y-89822525D02*
X97314642Y-90127287D01*
X97695595Y-89327287D02*
X96895595Y-89327287D01*
X96895595Y-89327287D02*
X97467023Y-89060621D01*
X97467023Y-89060621D02*
X96895595Y-88793954D01*
X96895595Y-88793954D02*
X97695595Y-88793954D01*
X97619404Y-87955858D02*
X97657500Y-87993954D01*
X97657500Y-87993954D02*
X97695595Y-88108239D01*
X97695595Y-88108239D02*
X97695595Y-88184430D01*
X97695595Y-88184430D02*
X97657500Y-88298716D01*
X97657500Y-88298716D02*
X97581309Y-88374906D01*
X97581309Y-88374906D02*
X97505119Y-88413001D01*
X97505119Y-88413001D02*
X97352738Y-88451097D01*
X97352738Y-88451097D02*
X97238452Y-88451097D01*
X97238452Y-88451097D02*
X97086071Y-88413001D01*
X97086071Y-88413001D02*
X97009880Y-88374906D01*
X97009880Y-88374906D02*
X96933690Y-88298716D01*
X96933690Y-88298716D02*
X96895595Y-88184430D01*
X96895595Y-88184430D02*
X96895595Y-88108239D01*
X96895595Y-88108239D02*
X96933690Y-87993954D01*
X96933690Y-87993954D02*
X96971785Y-87955858D01*
X97695595Y-86546334D02*
X97314642Y-86813001D01*
X97695595Y-87003477D02*
X96895595Y-87003477D01*
X96895595Y-87003477D02*
X96895595Y-86698715D01*
X96895595Y-86698715D02*
X96933690Y-86622525D01*
X96933690Y-86622525D02*
X96971785Y-86584430D01*
X96971785Y-86584430D02*
X97047976Y-86546334D01*
X97047976Y-86546334D02*
X97162261Y-86546334D01*
X97162261Y-86546334D02*
X97238452Y-86584430D01*
X97238452Y-86584430D02*
X97276547Y-86622525D01*
X97276547Y-86622525D02*
X97314642Y-86698715D01*
X97314642Y-86698715D02*
X97314642Y-87003477D01*
X96895595Y-86051096D02*
X96895595Y-85974906D01*
X96895595Y-85974906D02*
X96933690Y-85898715D01*
X96933690Y-85898715D02*
X96971785Y-85860620D01*
X96971785Y-85860620D02*
X97047976Y-85822525D01*
X97047976Y-85822525D02*
X97200357Y-85784430D01*
X97200357Y-85784430D02*
X97390833Y-85784430D01*
X97390833Y-85784430D02*
X97543214Y-85822525D01*
X97543214Y-85822525D02*
X97619404Y-85860620D01*
X97619404Y-85860620D02*
X97657500Y-85898715D01*
X97657500Y-85898715D02*
X97695595Y-85974906D01*
X97695595Y-85974906D02*
X97695595Y-86051096D01*
X97695595Y-86051096D02*
X97657500Y-86127287D01*
X97657500Y-86127287D02*
X97619404Y-86165382D01*
X97619404Y-86165382D02*
X97543214Y-86203477D01*
X97543214Y-86203477D02*
X97390833Y-86241573D01*
X97390833Y-86241573D02*
X97200357Y-86241573D01*
X97200357Y-86241573D02*
X97047976Y-86203477D01*
X97047976Y-86203477D02*
X96971785Y-86165382D01*
X96971785Y-86165382D02*
X96933690Y-86127287D01*
X96933690Y-86127287D02*
X96895595Y-86051096D01*
X97695595Y-85441572D02*
X96895595Y-85441572D01*
X96895595Y-85441572D02*
X96895595Y-85251096D01*
X96895595Y-85251096D02*
X96933690Y-85136810D01*
X96933690Y-85136810D02*
X97009880Y-85060620D01*
X97009880Y-85060620D02*
X97086071Y-85022525D01*
X97086071Y-85022525D02*
X97238452Y-84984429D01*
X97238452Y-84984429D02*
X97352738Y-84984429D01*
X97352738Y-84984429D02*
X97505119Y-85022525D01*
X97505119Y-85022525D02*
X97581309Y-85060620D01*
X97581309Y-85060620D02*
X97657500Y-85136810D01*
X97657500Y-85136810D02*
X97695595Y-85251096D01*
X97695595Y-85251096D02*
X97695595Y-85441572D01*
X96971785Y-84679668D02*
X96933690Y-84641572D01*
X96933690Y-84641572D02*
X96895595Y-84565382D01*
X96895595Y-84565382D02*
X96895595Y-84374906D01*
X96895595Y-84374906D02*
X96933690Y-84298715D01*
X96933690Y-84298715D02*
X96971785Y-84260620D01*
X96971785Y-84260620D02*
X97047976Y-84222525D01*
X97047976Y-84222525D02*
X97124166Y-84222525D01*
X97124166Y-84222525D02*
X97238452Y-84260620D01*
X97238452Y-84260620D02*
X97695595Y-84717763D01*
X97695595Y-84717763D02*
X97695595Y-84222525D01*
X96895595Y-83498715D02*
X96895595Y-83879667D01*
X96895595Y-83879667D02*
X97276547Y-83917763D01*
X97276547Y-83917763D02*
X97238452Y-83879667D01*
X97238452Y-83879667D02*
X97200357Y-83803477D01*
X97200357Y-83803477D02*
X97200357Y-83613001D01*
X97200357Y-83613001D02*
X97238452Y-83536810D01*
X97238452Y-83536810D02*
X97276547Y-83498715D01*
X97276547Y-83498715D02*
X97352738Y-83460620D01*
X97352738Y-83460620D02*
X97543214Y-83460620D01*
X97543214Y-83460620D02*
X97619404Y-83498715D01*
X97619404Y-83498715D02*
X97657500Y-83536810D01*
X97657500Y-83536810D02*
X97695595Y-83613001D01*
X97695595Y-83613001D02*
X97695595Y-83803477D01*
X97695595Y-83803477D02*
X97657500Y-83879667D01*
X97657500Y-83879667D02*
X97619404Y-83917763D01*
X97695595Y-82698715D02*
X97695595Y-83155858D01*
X97695595Y-82927286D02*
X96895595Y-82927286D01*
X96895595Y-82927286D02*
X97009880Y-83003477D01*
X97009880Y-83003477D02*
X97086071Y-83079667D01*
X97086071Y-83079667D02*
X97124166Y-83155858D01*
X96895595Y-82203476D02*
X96895595Y-82127286D01*
X96895595Y-82127286D02*
X96933690Y-82051095D01*
X96933690Y-82051095D02*
X96971785Y-82013000D01*
X96971785Y-82013000D02*
X97047976Y-81974905D01*
X97047976Y-81974905D02*
X97200357Y-81936810D01*
X97200357Y-81936810D02*
X97390833Y-81936810D01*
X97390833Y-81936810D02*
X97543214Y-81974905D01*
X97543214Y-81974905D02*
X97619404Y-82013000D01*
X97619404Y-82013000D02*
X97657500Y-82051095D01*
X97657500Y-82051095D02*
X97695595Y-82127286D01*
X97695595Y-82127286D02*
X97695595Y-82203476D01*
X97695595Y-82203476D02*
X97657500Y-82279667D01*
X97657500Y-82279667D02*
X97619404Y-82317762D01*
X97619404Y-82317762D02*
X97543214Y-82355857D01*
X97543214Y-82355857D02*
X97390833Y-82393953D01*
X97390833Y-82393953D02*
X97200357Y-82393953D01*
X97200357Y-82393953D02*
X97047976Y-82355857D01*
X97047976Y-82355857D02*
X96971785Y-82317762D01*
X96971785Y-82317762D02*
X96933690Y-82279667D01*
X96933690Y-82279667D02*
X96895595Y-82203476D01*
X96895595Y-81441571D02*
X96895595Y-81365381D01*
X96895595Y-81365381D02*
X96933690Y-81289190D01*
X96933690Y-81289190D02*
X96971785Y-81251095D01*
X96971785Y-81251095D02*
X97047976Y-81213000D01*
X97047976Y-81213000D02*
X97200357Y-81174905D01*
X97200357Y-81174905D02*
X97390833Y-81174905D01*
X97390833Y-81174905D02*
X97543214Y-81213000D01*
X97543214Y-81213000D02*
X97619404Y-81251095D01*
X97619404Y-81251095D02*
X97657500Y-81289190D01*
X97657500Y-81289190D02*
X97695595Y-81365381D01*
X97695595Y-81365381D02*
X97695595Y-81441571D01*
X97695595Y-81441571D02*
X97657500Y-81517762D01*
X97657500Y-81517762D02*
X97619404Y-81555857D01*
X97619404Y-81555857D02*
X97543214Y-81593952D01*
X97543214Y-81593952D02*
X97390833Y-81632048D01*
X97390833Y-81632048D02*
X97200357Y-81632048D01*
X97200357Y-81632048D02*
X97047976Y-81593952D01*
X97047976Y-81593952D02*
X96971785Y-81555857D01*
X96971785Y-81555857D02*
X96933690Y-81517762D01*
X96933690Y-81517762D02*
X96895595Y-81441571D01*
X97695595Y-80413000D02*
X97695595Y-80870143D01*
X97695595Y-80641571D02*
X96895595Y-80641571D01*
X96895595Y-80641571D02*
X97009880Y-80717762D01*
X97009880Y-80717762D02*
X97086071Y-80793952D01*
X97086071Y-80793952D02*
X97124166Y-80870143D01*
D14*
G04 #@! TO.C,J1*
X109220000Y-112005000D02*
X109220000Y-110305000D01*
X118560000Y-112005000D02*
X118560000Y-110305000D01*
G04 #@! TO.C,LED1*
X115700000Y-83035000D02*
X117985000Y-83035000D01*
X117985000Y-81565000D02*
X115700000Y-81565000D01*
X117985000Y-83035000D02*
X117985000Y-81565000D01*
G04 #@! TO.C,C31*
X110040000Y-103965580D02*
X110040000Y-103684420D01*
X111060000Y-103965580D02*
X111060000Y-103684420D01*
G04 #@! TO.C,C4*
X102890000Y-96940580D02*
X102890000Y-96659420D01*
X103910000Y-96940580D02*
X103910000Y-96659420D01*
G04 #@! TO.C,R1*
X102846359Y-98370000D02*
X103153641Y-98370000D01*
X102846359Y-99130000D02*
X103153641Y-99130000D01*
G04 #@! TO.C,C16*
X99292164Y-102840000D02*
X99507836Y-102840000D01*
X99292164Y-103560000D02*
X99507836Y-103560000D01*
G04 #@! TO.C,C1*
X111265000Y-95238748D02*
X111265000Y-95761252D01*
X112735000Y-95238748D02*
X112735000Y-95761252D01*
G04 #@! TO.C,R10*
X117843641Y-94057500D02*
X117536359Y-94057500D01*
X117843641Y-94817500D02*
X117536359Y-94817500D01*
G04 #@! TO.C,C11*
X99231227Y-82857013D02*
X99231227Y-82382497D01*
X100276227Y-82857013D02*
X100276227Y-82382497D01*
G04 #@! TO.C,R11*
X117856141Y-95120000D02*
X117548859Y-95120000D01*
X117856141Y-95880000D02*
X117548859Y-95880000D01*
G04 #@! TO.C,C6*
X113387836Y-91440000D02*
X113172164Y-91440000D01*
X113387836Y-92160000D02*
X113172164Y-92160000D01*
G04 #@! TO.C,L2*
X116240000Y-102886252D02*
X116240000Y-102363748D01*
X118460000Y-102886252D02*
X118460000Y-102363748D01*
G04 #@! TO.C,C10*
X103231227Y-82857013D02*
X103231227Y-82382497D01*
X104276227Y-82857013D02*
X104276227Y-82382497D01*
G04 #@! TO.C,R5*
X113320000Y-82636359D02*
X113320000Y-82943641D01*
X114080000Y-82636359D02*
X114080000Y-82943641D01*
G04 #@! TO.C,R6*
X112320000Y-82943641D02*
X112320000Y-82636359D01*
X113080000Y-82943641D02*
X113080000Y-82636359D01*
G04 #@! TO.C,R7*
X99553641Y-88420000D02*
X99246359Y-88420000D01*
X99553641Y-89180000D02*
X99246359Y-89180000D01*
G04 #@! TO.C,C9*
X105231227Y-82857013D02*
X105231227Y-82382497D01*
X106276227Y-82857013D02*
X106276227Y-82382497D01*
G04 #@! TO.C,C8*
X111340000Y-82897836D02*
X111340000Y-82682164D01*
X112060000Y-82897836D02*
X112060000Y-82682164D01*
G04 #@! TO.C,U1*
X114320000Y-89515000D02*
X114320000Y-89280000D01*
X114340000Y-91760000D02*
X114340000Y-91285000D01*
X114565000Y-91760000D02*
X114340000Y-91760000D01*
X116835000Y-89040000D02*
X117060000Y-89040000D01*
X116835000Y-91760000D02*
X117060000Y-91760000D01*
X117060000Y-89040000D02*
X117060000Y-89515000D01*
X117060000Y-91760000D02*
X117060000Y-91285000D01*
X114320000Y-89040000D02*
X114080000Y-88710000D01*
X114560000Y-88710000D01*
X114320000Y-89040000D01*
G36*
X114320000Y-89040000D02*
G01*
X114080000Y-88710000D01*
X114560000Y-88710000D01*
X114320000Y-89040000D01*
G37*
G04 #@! TO.C,R9*
X117853641Y-93057500D02*
X117546359Y-93057500D01*
X117853641Y-93817500D02*
X117546359Y-93817500D01*
G04 #@! TO.C,U5*
X111540000Y-102562500D02*
X111540000Y-101762500D01*
X111540000Y-102562500D02*
X111540000Y-103362500D01*
X114660000Y-102562500D02*
X114660000Y-101762500D01*
X114660000Y-102562500D02*
X114660000Y-103362500D01*
X114940000Y-101502500D02*
X114610000Y-101262500D01*
X114940000Y-101022500D01*
X114940000Y-101502500D01*
G36*
X114940000Y-101502500D02*
G01*
X114610000Y-101262500D01*
X114940000Y-101022500D01*
X114940000Y-101502500D01*
G37*
G04 #@! TO.C,R2*
X108746359Y-83220000D02*
X109053641Y-83220000D01*
X108746359Y-83980000D02*
X109053641Y-83980000D01*
G04 #@! TO.C,SW2*
X98250000Y-96600000D02*
X98250000Y-101000000D01*
X99750000Y-96600000D02*
X99850000Y-96600000D01*
X99750000Y-101000000D02*
X99850000Y-101000000D01*
X101350000Y-97650000D02*
X101350000Y-96600000D01*
X101350000Y-101000000D02*
X101350000Y-99950000D01*
G04 #@! TO.C,C3*
X106265000Y-110288748D02*
X106265000Y-110811252D01*
X107735000Y-110288748D02*
X107735000Y-110811252D01*
G04 #@! TO.C,SW1*
X98250000Y-91000000D02*
X98250000Y-95400000D01*
X99750000Y-91000000D02*
X99850000Y-91000000D01*
X99750000Y-95400000D02*
X99850000Y-95400000D01*
X101350000Y-92050000D02*
X101350000Y-91000000D01*
X101350000Y-95400000D02*
X101350000Y-94350000D01*
G04 #@! TO.C,C28*
X114990000Y-102837164D02*
X114990000Y-103052836D01*
X115710000Y-102837164D02*
X115710000Y-103052836D01*
G04 #@! TO.C,D2*
X103299000Y-105940000D02*
X103299000Y-109600000D01*
X105199000Y-105940000D02*
X103299000Y-105940000D01*
X105199000Y-105940000D02*
X105199000Y-109600000D01*
G04 #@! TO.C,R4*
X109403641Y-99120000D02*
X109096359Y-99120000D01*
X109403641Y-99880000D02*
X109096359Y-99880000D01*
G04 #@! TO.C,U3*
X105070000Y-93910000D02*
X105545000Y-93910000D01*
X105070000Y-94385000D02*
X105070000Y-93910000D01*
X105070000Y-97655000D02*
X105070000Y-98130000D01*
X105070000Y-98130000D02*
X105545000Y-98130000D01*
X108815000Y-93910000D02*
X109050000Y-93910000D01*
X109290000Y-94385000D02*
X109290000Y-94210000D01*
X109290000Y-97655000D02*
X109290000Y-98130000D01*
X109290000Y-98130000D02*
X108815000Y-98130000D01*
X109620000Y-94150000D02*
X109290000Y-93910000D01*
X109620000Y-93670000D01*
X109620000Y-94150000D01*
G36*
X109620000Y-94150000D02*
G01*
X109290000Y-93910000D01*
X109620000Y-93670000D01*
X109620000Y-94150000D01*
G37*
G04 #@! TO.C,C30*
X113657836Y-99665000D02*
X113442164Y-99665000D01*
X113657836Y-100385000D02*
X113442164Y-100385000D01*
G04 #@! TO.C,C15*
X99292164Y-89440000D02*
X99507836Y-89440000D01*
X99292164Y-90160000D02*
X99507836Y-90160000D01*
G04 #@! TO.C,C17*
X115757836Y-87677500D02*
X115542164Y-87677500D01*
X115757836Y-88397500D02*
X115542164Y-88397500D01*
G04 #@! TO.C,D3*
X100650000Y-105940000D02*
X100650000Y-109600000D01*
X102550000Y-105940000D02*
X100650000Y-105940000D01*
X102550000Y-105940000D02*
X102550000Y-109600000D01*
G04 #@! TO.C,C14*
X102877500Y-94037258D02*
X102877500Y-93562742D01*
X103922500Y-94037258D02*
X103922500Y-93562742D01*
G04 #@! TO.C,LED2*
X107415000Y-81565000D02*
X107415000Y-83035000D01*
X107415000Y-83035000D02*
X109700000Y-83035000D01*
X109700000Y-81565000D02*
X107415000Y-81565000D01*
G04 #@! TO.C,C29*
X114411252Y-97690000D02*
X113888748Y-97690000D01*
X114411252Y-99160000D02*
X113888748Y-99160000D01*
G04 #@! TO.C,C12*
X101231227Y-82857013D02*
X101231227Y-82382497D01*
X102276227Y-82857013D02*
X102276227Y-82382497D01*
G04 #@! TO.C,C2*
X110525580Y-92490000D02*
X110244420Y-92490000D01*
X110525580Y-93510000D02*
X110244420Y-93510000D01*
G04 #@! TO.C,R3*
X116653641Y-83220000D02*
X116346359Y-83220000D01*
X116653641Y-83980000D02*
X116346359Y-83980000D01*
G04 #@! TO.C,R8*
X99553641Y-101820000D02*
X99246359Y-101820000D01*
X99553641Y-102580000D02*
X99246359Y-102580000D01*
G04 #@! TO.C,C7*
X109237258Y-90977500D02*
X108762742Y-90977500D01*
X109237258Y-92022500D02*
X108762742Y-92022500D01*
G04 #@! TO.C,C5*
X98515000Y-106761252D02*
X98515000Y-106238748D01*
X99985000Y-106761252D02*
X99985000Y-106238748D01*
G04 #@! TD*
%LPC*%
D15*
G04 #@! TO.C,J1*
X111000000Y-109500000D03*
X116780000Y-109500000D03*
D16*
X110690000Y-108425000D03*
X111490000Y-108425000D03*
D17*
X112640000Y-108425000D03*
X113640000Y-108425000D03*
X114140000Y-108425000D03*
X115140000Y-108425000D03*
D16*
X116290000Y-108425000D03*
X117090000Y-108425000D03*
X117090000Y-108425000D03*
X116290000Y-108425000D03*
D17*
X115640000Y-108425000D03*
X114640000Y-108425000D03*
X113140000Y-108425000D03*
X112140000Y-108425000D03*
D16*
X111490000Y-108425000D03*
X110690000Y-108425000D03*
D18*
X109570000Y-109000000D03*
D19*
X109570000Y-113180000D03*
D18*
X118210000Y-109000000D03*
D19*
X118210000Y-113180000D03*
G04 #@! TD*
D20*
G04 #@! TO.C,LED1*
X117287500Y-82300000D03*
X115712500Y-82300000D03*
G04 #@! TD*
D21*
G04 #@! TO.C,C31*
X110550000Y-104600000D03*
X110550000Y-103050000D03*
G04 #@! TD*
G04 #@! TO.C,C4*
X103400000Y-97575000D03*
X103400000Y-96025000D03*
G04 #@! TD*
D22*
G04 #@! TO.C,R1*
X102490000Y-98750000D03*
X103510000Y-98750000D03*
G04 #@! TD*
D23*
G04 #@! TO.C,C16*
X98920000Y-103200000D03*
X99880000Y-103200000D03*
G04 #@! TD*
D24*
G04 #@! TO.C,C1*
X112000000Y-94550000D03*
X112000000Y-96450000D03*
G04 #@! TD*
D25*
G04 #@! TO.C,R10*
X118200000Y-94437500D03*
X117180000Y-94437500D03*
G04 #@! TD*
D26*
G04 #@! TO.C,C11*
X99753727Y-83444755D03*
X99753727Y-81794755D03*
G04 #@! TD*
D25*
G04 #@! TO.C,R11*
X118212500Y-95500000D03*
X117192500Y-95500000D03*
G04 #@! TD*
D27*
G04 #@! TO.C,C6*
X113760000Y-91800000D03*
X112800000Y-91800000D03*
G04 #@! TD*
D28*
G04 #@! TO.C,L2*
X117350000Y-103700000D03*
X117350000Y-101550000D03*
G04 #@! TD*
D26*
G04 #@! TO.C,C10*
X103753727Y-83444755D03*
X103753727Y-81794755D03*
G04 #@! TD*
D29*
G04 #@! TO.C,R5*
X113700000Y-82280000D03*
X113700000Y-83300000D03*
G04 #@! TD*
D30*
G04 #@! TO.C,R6*
X112700000Y-83300000D03*
X112700000Y-82280000D03*
G04 #@! TD*
D25*
G04 #@! TO.C,R7*
X99910000Y-88800000D03*
X98890000Y-88800000D03*
G04 #@! TD*
D26*
G04 #@! TO.C,C9*
X105753727Y-83444755D03*
X105753727Y-81794755D03*
G04 #@! TD*
D31*
G04 #@! TO.C,C8*
X111700000Y-83270000D03*
X111700000Y-82310000D03*
G04 #@! TD*
D32*
G04 #@! TO.C,U1*
X114437500Y-89900000D03*
X114437500Y-90400000D03*
X114437500Y-90900000D03*
D33*
X114950000Y-91662500D03*
X115450000Y-91662500D03*
X115950000Y-91662500D03*
X116450000Y-91662500D03*
D32*
X116962500Y-90900000D03*
X116962500Y-90400000D03*
X116962500Y-89900000D03*
D33*
X116450000Y-89137500D03*
X115950000Y-89137500D03*
X115450000Y-89137500D03*
X114950000Y-89137500D03*
D34*
X115700000Y-90400000D03*
G04 #@! TD*
D25*
G04 #@! TO.C,R9*
X118210000Y-93437500D03*
X117190000Y-93437500D03*
G04 #@! TD*
D35*
G04 #@! TO.C,U5*
X114050000Y-101425000D03*
X113100000Y-101425000D03*
X112150000Y-101425000D03*
X112150000Y-103700000D03*
X113100000Y-103700000D03*
X114050000Y-103700000D03*
G04 #@! TD*
D22*
G04 #@! TO.C,R2*
X108390000Y-83600000D03*
X109410000Y-83600000D03*
G04 #@! TD*
D36*
G04 #@! TO.C,SW2*
X100600000Y-96750000D03*
X100600000Y-100850000D03*
X99000000Y-96750000D03*
X99000000Y-100850000D03*
D37*
X101225000Y-98800000D03*
G04 #@! TD*
D24*
G04 #@! TO.C,C3*
X107000000Y-109600000D03*
X107000000Y-111500000D03*
G04 #@! TD*
D36*
G04 #@! TO.C,SW1*
X100600000Y-91150000D03*
X100600000Y-95250000D03*
X99000000Y-91150000D03*
X99000000Y-95250000D03*
D37*
X101225000Y-93200000D03*
G04 #@! TD*
D38*
G04 #@! TO.C,C28*
X115350000Y-102465000D03*
X115350000Y-103425000D03*
G04 #@! TD*
D39*
G04 #@! TO.C,D2*
X104249000Y-106800000D03*
X104249000Y-109600000D03*
G04 #@! TD*
D25*
G04 #@! TO.C,R4*
X109760000Y-99500000D03*
X108740000Y-99500000D03*
G04 #@! TD*
D40*
G04 #@! TO.C,U3*
X108430000Y-94032500D03*
X107930000Y-94032500D03*
X107430000Y-94032500D03*
X106930000Y-94032500D03*
X106430000Y-94032500D03*
X105930000Y-94032500D03*
D41*
X105192500Y-94770000D03*
X105192500Y-95270000D03*
X105192500Y-95770000D03*
X105192500Y-96270000D03*
X105192500Y-96770000D03*
X105192500Y-97270000D03*
D40*
X105930000Y-98007500D03*
X106430000Y-98007500D03*
X106930000Y-98007500D03*
X107430000Y-98007500D03*
X107930000Y-98007500D03*
X108430000Y-98007500D03*
D41*
X109167500Y-97270000D03*
X109167500Y-96770000D03*
X109167500Y-96270000D03*
X109167500Y-95770000D03*
X109167500Y-95270000D03*
X109167500Y-94770000D03*
D42*
X107180000Y-96020000D03*
G04 #@! TD*
D27*
G04 #@! TO.C,C30*
X114030000Y-100025000D03*
X113070000Y-100025000D03*
G04 #@! TD*
D23*
G04 #@! TO.C,C15*
X98920000Y-89800000D03*
X99880000Y-89800000D03*
G04 #@! TD*
D27*
G04 #@! TO.C,C17*
X116130000Y-88037500D03*
X115170000Y-88037500D03*
G04 #@! TD*
D39*
G04 #@! TO.C,D3*
X101600000Y-106800000D03*
X101600000Y-109600000D03*
G04 #@! TD*
D26*
G04 #@! TO.C,C14*
X103400000Y-94625000D03*
X103400000Y-92975000D03*
G04 #@! TD*
D43*
G04 #@! TO.C,LED2*
X108112500Y-82300000D03*
X109687500Y-82300000D03*
G04 #@! TD*
D44*
G04 #@! TO.C,C29*
X115100000Y-98425000D03*
X113200000Y-98425000D03*
G04 #@! TD*
D26*
G04 #@! TO.C,C12*
X101753727Y-83444755D03*
X101753727Y-81794755D03*
G04 #@! TD*
D45*
G04 #@! TO.C,C2*
X111160000Y-93000000D03*
X109610000Y-93000000D03*
G04 #@! TD*
D25*
G04 #@! TO.C,R3*
X117010000Y-83600000D03*
X115990000Y-83600000D03*
G04 #@! TD*
G04 #@! TO.C,R8*
X99910000Y-102200000D03*
X98890000Y-102200000D03*
G04 #@! TD*
D46*
G04 #@! TO.C,C7*
X109825000Y-91500000D03*
X108175000Y-91500000D03*
G04 #@! TD*
D47*
G04 #@! TO.C,C5*
X99250000Y-107450000D03*
X99250000Y-105550000D03*
G04 #@! TD*
D48*
G04 #@! TO.C,J2*
X99800000Y-85200000D03*
D49*
X101800000Y-85200000D03*
X103800000Y-85200000D03*
X105800000Y-85200000D03*
G04 #@! TD*
D48*
G04 #@! TO.C,J5*
X111750000Y-85250000D03*
D49*
X113750000Y-85250000D03*
G04 #@! TD*
D50*
G04 #@! TO.C,J4*
X103600000Y-112200000D03*
D51*
X101100000Y-112200000D03*
G04 #@! TD*
%LPD*%
M02*
