G04 #@! TF.GenerationSoftware,KiCad,Pcbnew,9.0.4*
G04 #@! TF.CreationDate,2025-10-01T23:59:43+10:00*
G04 #@! TF.ProjectId,muCM,4d617474-6572-4524-9742-2e6b69636164,rev?*
G04 #@! TF.SameCoordinates,Original*
G04 #@! TF.FileFunction,Copper,L2,Inr*
G04 #@! TF.FilePolarity,Positive*
%FSLAX46Y46*%
G04 Gerber Fmt 4.6, Leading zero omitted, Abs format (unit mm)*
G04 Created by KiCad (PCBNEW 9.0.4) date 2025-10-01 23:59:43*
%MOMM*%
%LPD*%
G01*
G04 APERTURE LIST*
G04 Aperture macros list*
%AMRoundRect*
0 Rectangle with rounded corners*
0 $1 Rounding radius*
0 $2 $3 $4 $5 $6 $7 $8 $9 X,Y pos of 4 corners*
0 Add a 4 corners polygon primitive as box body*
4,1,4,$2,$3,$4,$5,$6,$7,$8,$9,$2,$3,0*
0 Add four circle primitives for the rounded corners*
1,1,$1+$1,$2,$3*
1,1,$1+$1,$4,$5*
1,1,$1+$1,$6,$7*
1,1,$1+$1,$8,$9*
0 Add four rect primitives between the rounded corners*
20,1,$1+$1,$2,$3,$4,$5,0*
20,1,$1+$1,$4,$5,$6,$7,0*
20,1,$1+$1,$6,$7,$8,$9,0*
20,1,$1+$1,$8,$9,$2,$3,0*%
G04 Aperture macros list end*
G04 #@! TA.AperFunction,HeatsinkPad*
%ADD10O,1.000000X2.100000*%
G04 #@! TD*
G04 #@! TA.AperFunction,HeatsinkPad*
%ADD11O,1.000000X1.800000*%
G04 #@! TD*
G04 #@! TA.AperFunction,ComponentPad*
%ADD12RoundRect,0.250000X-0.350000X-0.625000X0.350000X-0.625000X0.350000X0.625000X-0.350000X0.625000X0*%
G04 #@! TD*
G04 #@! TA.AperFunction,ComponentPad*
%ADD13O,1.200000X1.750000*%
G04 #@! TD*
G04 #@! TA.AperFunction,ComponentPad*
%ADD14RoundRect,0.250000X0.600000X0.750000X-0.600000X0.750000X-0.600000X-0.750000X0.600000X-0.750000X0*%
G04 #@! TD*
G04 #@! TA.AperFunction,ComponentPad*
%ADD15O,1.700000X2.000000*%
G04 #@! TD*
G04 #@! TA.AperFunction,ViaPad*
%ADD16C,0.600000*%
G04 #@! TD*
G04 APERTURE END LIST*
D10*
G04 #@! TO.N,GND*
G04 #@! TO.C,J1*
X109570000Y-109000000D03*
D11*
X109570000Y-113180000D03*
D10*
X118210000Y-109000000D03*
D11*
X118210000Y-113180000D03*
G04 #@! TD*
D12*
G04 #@! TO.N,/OUT3*
G04 #@! TO.C,J2*
X99800000Y-85200000D03*
D13*
G04 #@! TO.N,/OUT4*
X101800000Y-85200000D03*
G04 #@! TO.N,/OUT2*
X103800000Y-85200000D03*
G04 #@! TO.N,/OUT1*
X105800000Y-85200000D03*
G04 #@! TD*
D12*
G04 #@! TO.N,GND*
G04 #@! TO.C,J5*
X111750000Y-85250000D03*
D13*
G04 #@! TO.N,Net-(J5-Pin_2)*
X113750000Y-85250000D03*
G04 #@! TD*
D14*
G04 #@! TO.N,GND*
G04 #@! TO.C,J4*
X103600000Y-112200000D03*
D15*
G04 #@! TO.N,Net-(J4-Pin_2)*
X101100000Y-112200000D03*
G04 #@! TD*
D16*
G04 #@! TO.N,GND*
X118400000Y-83400000D03*
X118400000Y-81000000D03*
X108200000Y-108600000D03*
X118400000Y-88200000D03*
X117200000Y-81000000D03*
X100000000Y-98000000D03*
X116600000Y-111200000D03*
X102000000Y-97200000D03*
X108000000Y-95200000D03*
X103200000Y-104200000D03*
X107000000Y-103200000D03*
X118400000Y-84600000D03*
X110100000Y-86400000D03*
X115100000Y-85400000D03*
X105600000Y-111200000D03*
X111600000Y-113200000D03*
X98400000Y-87600000D03*
X104800000Y-101200000D03*
X114800000Y-83400000D03*
X106800000Y-101200000D03*
X102750000Y-108000000D03*
X109200000Y-100800000D03*
X102200000Y-113800000D03*
X107400000Y-83400000D03*
X113800000Y-94800000D03*
X109400000Y-102100000D03*
X108000000Y-96800000D03*
X107200000Y-96000000D03*
X113800000Y-93800000D03*
X118400000Y-82200000D03*
X98600000Y-82000000D03*
X118400000Y-87000000D03*
X100700000Y-82000000D03*
X106400000Y-96800000D03*
X106400000Y-96000000D03*
X100400000Y-113800000D03*
X100000000Y-104500000D03*
X104900000Y-93400000D03*
X102200000Y-93000000D03*
X98600000Y-112600000D03*
X106400000Y-95200000D03*
X98600000Y-113800000D03*
X101400000Y-90200000D03*
X112800000Y-113200000D03*
X105000000Y-104800000D03*
X108000000Y-96000000D03*
X101800000Y-81000000D03*
X107200000Y-95200000D03*
X100600000Y-108000000D03*
X102400000Y-99800000D03*
X114600000Y-81000000D03*
X108200000Y-113800000D03*
X110200000Y-81000000D03*
X105000000Y-102600000D03*
X99600000Y-81000000D03*
X106800000Y-82000000D03*
X116600000Y-113200000D03*
X112200000Y-98800000D03*
X104900000Y-94100000D03*
X103400000Y-91900000D03*
X111700000Y-81490000D03*
X103200000Y-104800000D03*
X101400000Y-104600000D03*
X109600000Y-111200000D03*
X115700000Y-90400000D03*
X110100000Y-87200000D03*
X118452500Y-89400000D03*
X118400000Y-85800000D03*
X115600000Y-113200000D03*
X100000000Y-94000000D03*
X102000000Y-95600000D03*
X118200000Y-111200000D03*
X103800000Y-81000000D03*
X105600000Y-112600000D03*
X102800000Y-82000000D03*
X109400000Y-103000000D03*
X107400000Y-81000000D03*
X111800000Y-91600000D03*
X114261312Y-87611954D03*
X100000000Y-99400000D03*
X105600000Y-113800000D03*
X104800000Y-82000000D03*
X98600000Y-81000000D03*
X102000000Y-96400000D03*
X105800000Y-81000000D03*
X106800000Y-84200000D03*
X98500000Y-104500000D03*
X108800000Y-81000000D03*
X111600000Y-111200000D03*
X107200000Y-85800000D03*
X116000000Y-81000000D03*
X110200000Y-84400000D03*
X100000000Y-92400000D03*
X107200000Y-96800000D03*
G04 #@! TO.N,VBUS*
X105700000Y-109600000D03*
X112750000Y-90600000D03*
G04 #@! TO.N,+3V3*
X103600000Y-90600000D03*
X100800000Y-102200000D03*
X112200000Y-100000000D03*
X113800000Y-92600000D03*
X107700000Y-87200000D03*
X115000000Y-100000000D03*
X114600000Y-97000000D03*
X114600000Y-82280000D03*
X117000000Y-86500000D03*
G04 #@! TO.N,USB_D+*
X115880000Y-87204763D03*
X114815000Y-110800000D03*
G04 #@! TO.N,USB_D-*
X115030000Y-87204763D03*
X113965000Y-110800000D03*
G04 #@! TO.N,Net-(LED2-A)*
X110400000Y-82300000D03*
G04 #@! TO.N,/~{FAULT}*
X102449997Y-103000000D03*
G04 #@! TO.N,/MODE*
X108000000Y-99500000D03*
G04 #@! TO.N,/TOFF{slash}EN2*
X107800000Y-102200000D03*
G04 #@! TO.N,/IN1*
X111670849Y-98200000D03*
G04 #@! TO.N,/IN3*
X111394486Y-100597428D03*
G04 #@! TO.N,/IN4*
X111350000Y-101401472D03*
G04 #@! TO.N,/SDA*
X116089001Y-92812487D03*
G04 #@! TO.N,/SCL*
X115500820Y-93431371D03*
G04 #@! TO.N,/~{SLEEP}*
X113880331Y-96250000D03*
G04 #@! TO.N,/RSVD{slash}EN1*
X108500000Y-101500000D03*
G04 #@! TO.N,/VREF12{slash}EN4*
X103250000Y-103000000D03*
G04 #@! TO.N,/VREF12{slash}EN3*
X104049265Y-102950735D03*
G04 #@! TO.N,/IN2*
X111400000Y-99400000D03*
G04 #@! TO.N,Net-(D3-A)*
X99250000Y-111250000D03*
G04 #@! TO.N,/IN0*
X112700000Y-81490000D03*
G04 #@! TO.N,/RESET*
X99000000Y-93200000D03*
G04 #@! TO.N,/BOOT*
X99000000Y-98800000D03*
G04 #@! TO.N,/INT_N*
X116150000Y-95500000D03*
G04 #@! TO.N,/CC1*
X112300000Y-110100000D03*
X117600000Y-88800000D03*
G04 #@! TO.N,/CC2*
X115400000Y-109900000D03*
X113300000Y-87500000D03*
G04 #@! TO.N,VDC*
X102100000Y-94600000D03*
X109500000Y-90400000D03*
X105800000Y-102000000D03*
X105800000Y-101000000D03*
X110200000Y-90400000D03*
G04 #@! TD*
G04 #@! TA.AperFunction,Conductor*
G04 #@! TO.N,GND*
G36*
X118995039Y-80220185D02*
G01*
X119040794Y-80272989D01*
X119052000Y-80324500D01*
X119052000Y-107376000D01*
X119032315Y-107443039D01*
X118979511Y-107488794D01*
X118928000Y-107500000D01*
X118028572Y-107500000D01*
X117961533Y-107480315D01*
X117961010Y-107479934D01*
X117918316Y-107488427D01*
X117918313Y-107488428D01*
X117913162Y-107490562D01*
X117865711Y-107500000D01*
X117100000Y-107500000D01*
X117100000Y-108983633D01*
X117080315Y-109050672D01*
X117027511Y-109096427D01*
X116958353Y-109106371D01*
X116943908Y-109103408D01*
X116836019Y-109074500D01*
X116836018Y-109074500D01*
X116723982Y-109074500D01*
X116615763Y-109103497D01*
X116615760Y-109103498D01*
X116518740Y-109159513D01*
X116518734Y-109159517D01*
X116439517Y-109238734D01*
X116439513Y-109238740D01*
X116383498Y-109335760D01*
X116383497Y-109335763D01*
X116354500Y-109443982D01*
X116354500Y-109556018D01*
X116383497Y-109664237D01*
X116439515Y-109761263D01*
X116518737Y-109840485D01*
X116615763Y-109896503D01*
X116723982Y-109925500D01*
X116723984Y-109925500D01*
X116836016Y-109925500D01*
X116836018Y-109925500D01*
X116943908Y-109896591D01*
X117013756Y-109898254D01*
X117071619Y-109937417D01*
X117099123Y-110001645D01*
X117100000Y-110016366D01*
X117100000Y-110500000D01*
X118391428Y-110500000D01*
X118458467Y-110519685D01*
X118458987Y-110520063D01*
X118501689Y-110511570D01*
X118506837Y-110509438D01*
X118554288Y-110500000D01*
X118928000Y-110500000D01*
X118995039Y-110519685D01*
X119040794Y-110572489D01*
X119052000Y-110624000D01*
X119052000Y-111676000D01*
X119032315Y-111743039D01*
X118979511Y-111788794D01*
X118928000Y-111800000D01*
X117000000Y-111800000D01*
X117000000Y-114675500D01*
X116980315Y-114742539D01*
X116927511Y-114788294D01*
X116876000Y-114799500D01*
X110724000Y-114799500D01*
X110656961Y-114779815D01*
X110611206Y-114727011D01*
X110600000Y-114675500D01*
X110600000Y-111800000D01*
X108500000Y-111800000D01*
X108500000Y-114675500D01*
X108480315Y-114742539D01*
X108427511Y-114788294D01*
X108376000Y-114799500D01*
X98124000Y-114799500D01*
X98056961Y-114779815D01*
X98011206Y-114727011D01*
X98000000Y-114675500D01*
X98000000Y-111959448D01*
X99949500Y-111959448D01*
X99949500Y-112440551D01*
X99977829Y-112619410D01*
X100033787Y-112791636D01*
X100033788Y-112791639D01*
X100116006Y-112952997D01*
X100222441Y-113099494D01*
X100222445Y-113099499D01*
X100350500Y-113227554D01*
X100350505Y-113227558D01*
X100478287Y-113320396D01*
X100497006Y-113333996D01*
X100579353Y-113375954D01*
X100658360Y-113416211D01*
X100658363Y-113416212D01*
X100734815Y-113441052D01*
X100830591Y-113472171D01*
X100913429Y-113485291D01*
X101009449Y-113500500D01*
X101009454Y-113500500D01*
X101190551Y-113500500D01*
X101277259Y-113486765D01*
X101369409Y-113472171D01*
X101541639Y-113416211D01*
X101702994Y-113333996D01*
X101849501Y-113227553D01*
X101977553Y-113099501D01*
X102034624Y-113020948D01*
X102089954Y-112978282D01*
X102159567Y-112972303D01*
X102221362Y-113004908D01*
X102255720Y-113065746D01*
X102258301Y-113081230D01*
X102260494Y-113102697D01*
X102315641Y-113269119D01*
X102315644Y-113269126D01*
X102381538Y-113375954D01*
X102400000Y-113441052D01*
X102400000Y-113800000D01*
X105100000Y-113800000D01*
X105100000Y-110720943D01*
X113364500Y-110720943D01*
X113364500Y-110879057D01*
X113403349Y-111024041D01*
X113405423Y-111031783D01*
X113405426Y-111031790D01*
X113484475Y-111168709D01*
X113484479Y-111168714D01*
X113484480Y-111168716D01*
X113596284Y-111280520D01*
X113596286Y-111280521D01*
X113596290Y-111280524D01*
X113680353Y-111329057D01*
X113733216Y-111359577D01*
X113885943Y-111400500D01*
X113885945Y-111400500D01*
X114044055Y-111400500D01*
X114044057Y-111400500D01*
X114196784Y-111359577D01*
X114328000Y-111283819D01*
X114395901Y-111267347D01*
X114451999Y-111283819D01*
X114583216Y-111359577D01*
X114735943Y-111400500D01*
X114735945Y-111400500D01*
X114894055Y-111400500D01*
X114894057Y-111400500D01*
X115046784Y-111359577D01*
X115183716Y-111280520D01*
X115295520Y-111168716D01*
X115374577Y-111031784D01*
X115415500Y-110879057D01*
X115415500Y-110720943D01*
X115396739Y-110650926D01*
X115398402Y-110581082D01*
X115437564Y-110523219D01*
X115484418Y-110499063D01*
X115631784Y-110459577D01*
X115768716Y-110380520D01*
X115880520Y-110268716D01*
X115959577Y-110131784D01*
X116000500Y-109979057D01*
X116000500Y-109820943D01*
X115959577Y-109668216D01*
X115931437Y-109619475D01*
X115880524Y-109531290D01*
X115880518Y-109531282D01*
X115768717Y-109419481D01*
X115768709Y-109419475D01*
X115631790Y-109340426D01*
X115631786Y-109340424D01*
X115631784Y-109340423D01*
X115479057Y-109299500D01*
X115320943Y-109299500D01*
X115168216Y-109340423D01*
X115168209Y-109340426D01*
X115031290Y-109419475D01*
X115031282Y-109419481D01*
X114919481Y-109531282D01*
X114919475Y-109531290D01*
X114840426Y-109668209D01*
X114840423Y-109668216D01*
X114799500Y-109820943D01*
X114799500Y-109979057D01*
X114810723Y-110020943D01*
X114818260Y-110049069D01*
X114816597Y-110118918D01*
X114777435Y-110176781D01*
X114730579Y-110200937D01*
X114583215Y-110240423D01*
X114451999Y-110316180D01*
X114384099Y-110332652D01*
X114328001Y-110316180D01*
X114196784Y-110240423D01*
X114044057Y-110199500D01*
X113885943Y-110199500D01*
X113733216Y-110240423D01*
X113733209Y-110240426D01*
X113596290Y-110319475D01*
X113596282Y-110319481D01*
X113484481Y-110431282D01*
X113484475Y-110431290D01*
X113405426Y-110568209D01*
X113405423Y-110568216D01*
X113364500Y-110720943D01*
X105100000Y-110720943D01*
X105100000Y-110600000D01*
X102400000Y-110600000D01*
X102400000Y-110958945D01*
X102381539Y-111024041D01*
X102315645Y-111130871D01*
X102315641Y-111130880D01*
X102260494Y-111297302D01*
X102260491Y-111297317D01*
X102258299Y-111318773D01*
X102231901Y-111383464D01*
X102174719Y-111423613D01*
X102104908Y-111426474D01*
X102044632Y-111391138D01*
X102034623Y-111379050D01*
X102020472Y-111359573D01*
X102017951Y-111356103D01*
X101977556Y-111300502D01*
X101849499Y-111172445D01*
X101849494Y-111172441D01*
X101702997Y-111066006D01*
X101702996Y-111066005D01*
X101702994Y-111066004D01*
X101635832Y-111031783D01*
X101541639Y-110983788D01*
X101541636Y-110983787D01*
X101369410Y-110927829D01*
X101190551Y-110899500D01*
X101190546Y-110899500D01*
X101009454Y-110899500D01*
X101009449Y-110899500D01*
X100830589Y-110927829D01*
X100658363Y-110983787D01*
X100658360Y-110983788D01*
X100497002Y-111066006D01*
X100350505Y-111172441D01*
X100350500Y-111172445D01*
X100222445Y-111300500D01*
X100222441Y-111300505D01*
X100116006Y-111447002D01*
X100033788Y-111608360D01*
X100033787Y-111608363D01*
X99977829Y-111780589D01*
X99949500Y-111959448D01*
X98000000Y-111959448D01*
X98000000Y-111170943D01*
X98649500Y-111170943D01*
X98649500Y-111329057D01*
X98681105Y-111447006D01*
X98690423Y-111481783D01*
X98690426Y-111481790D01*
X98769475Y-111618709D01*
X98769479Y-111618714D01*
X98769480Y-111618716D01*
X98881284Y-111730520D01*
X98881286Y-111730521D01*
X98881290Y-111730524D01*
X99001628Y-111800000D01*
X99018216Y-111809577D01*
X99170943Y-111850500D01*
X99170945Y-111850500D01*
X99329055Y-111850500D01*
X99329057Y-111850500D01*
X99481784Y-111809577D01*
X99618716Y-111730520D01*
X99730520Y-111618716D01*
X99809577Y-111481784D01*
X99850500Y-111329057D01*
X99850500Y-111170943D01*
X99809577Y-111018216D01*
X99741037Y-110899500D01*
X99730524Y-110881290D01*
X99730518Y-110881282D01*
X99618717Y-110769481D01*
X99618709Y-110769475D01*
X99481790Y-110690426D01*
X99481786Y-110690424D01*
X99481784Y-110690423D01*
X99329057Y-110649500D01*
X99170943Y-110649500D01*
X99018216Y-110690423D01*
X99018209Y-110690426D01*
X98881290Y-110769475D01*
X98881282Y-110769481D01*
X98769481Y-110881282D01*
X98769475Y-110881290D01*
X98690426Y-111018209D01*
X98690423Y-111018216D01*
X98649500Y-111170943D01*
X98000000Y-111170943D01*
X98000000Y-109520943D01*
X105099500Y-109520943D01*
X105099500Y-109679056D01*
X105140423Y-109831783D01*
X105140426Y-109831790D01*
X105219475Y-109968709D01*
X105219479Y-109968714D01*
X105219480Y-109968716D01*
X105331284Y-110080520D01*
X105331286Y-110080521D01*
X105331290Y-110080524D01*
X105420087Y-110131790D01*
X105468216Y-110159577D01*
X105620943Y-110200500D01*
X105620945Y-110200500D01*
X105779055Y-110200500D01*
X105779057Y-110200500D01*
X105931784Y-110159577D01*
X106068716Y-110080520D01*
X106180520Y-109968716D01*
X106259577Y-109831784D01*
X106300500Y-109679057D01*
X106300500Y-109520943D01*
X106259577Y-109368216D01*
X106243531Y-109340423D01*
X106180524Y-109231290D01*
X106180518Y-109231282D01*
X106068717Y-109119481D01*
X106068709Y-109119475D01*
X105931790Y-109040426D01*
X105931786Y-109040424D01*
X105931784Y-109040423D01*
X105779057Y-108999500D01*
X105620943Y-108999500D01*
X105468216Y-109040423D01*
X105468209Y-109040426D01*
X105331290Y-109119475D01*
X105331282Y-109119481D01*
X105219481Y-109231282D01*
X105219475Y-109231290D01*
X105140426Y-109368209D01*
X105140423Y-109368216D01*
X105099500Y-109520943D01*
X98000000Y-109520943D01*
X98000000Y-107500000D01*
X108500000Y-107500000D01*
X108500000Y-110600000D01*
X110600000Y-110600000D01*
X110600000Y-110020943D01*
X111699500Y-110020943D01*
X111699500Y-110179057D01*
X111737127Y-110319481D01*
X111740423Y-110331783D01*
X111740426Y-110331790D01*
X111819475Y-110468709D01*
X111819479Y-110468714D01*
X111819480Y-110468716D01*
X111931284Y-110580520D01*
X111931286Y-110580521D01*
X111931290Y-110580524D01*
X112006594Y-110624000D01*
X112068216Y-110659577D01*
X112220943Y-110700500D01*
X112220945Y-110700500D01*
X112379055Y-110700500D01*
X112379057Y-110700500D01*
X112531784Y-110659577D01*
X112668716Y-110580520D01*
X112780520Y-110468716D01*
X112859577Y-110331784D01*
X112900500Y-110179057D01*
X112900500Y-110020943D01*
X112859577Y-109868216D01*
X112837257Y-109829556D01*
X112780524Y-109731290D01*
X112780518Y-109731282D01*
X112668717Y-109619481D01*
X112668709Y-109619475D01*
X112531790Y-109540426D01*
X112531786Y-109540424D01*
X112531784Y-109540423D01*
X112379057Y-109499500D01*
X112220943Y-109499500D01*
X112068216Y-109540423D01*
X112068209Y-109540426D01*
X111931290Y-109619475D01*
X111931282Y-109619481D01*
X111819481Y-109731282D01*
X111819475Y-109731290D01*
X111740426Y-109868209D01*
X111740423Y-109868216D01*
X111699500Y-110020943D01*
X110600000Y-110020943D01*
X110600000Y-109975159D01*
X110619685Y-109908120D01*
X110672489Y-109862365D01*
X110741647Y-109852421D01*
X110785998Y-109867771D01*
X110835763Y-109896503D01*
X110943982Y-109925500D01*
X110943984Y-109925500D01*
X111056016Y-109925500D01*
X111056018Y-109925500D01*
X111164237Y-109896503D01*
X111261263Y-109840485D01*
X111340485Y-109761263D01*
X111396503Y-109664237D01*
X111425500Y-109556018D01*
X111425500Y-109443982D01*
X111396503Y-109335763D01*
X111340485Y-109238737D01*
X111261263Y-109159515D01*
X111164237Y-109103497D01*
X111056018Y-109074500D01*
X110943982Y-109074500D01*
X110835763Y-109103497D01*
X110835762Y-109103497D01*
X110785999Y-109132228D01*
X110718099Y-109148699D01*
X110652072Y-109125847D01*
X110608882Y-109070925D01*
X110600000Y-109024840D01*
X110600000Y-107500000D01*
X109388572Y-107500000D01*
X109321533Y-107480315D01*
X109321010Y-107479934D01*
X109278316Y-107488427D01*
X109278313Y-107488428D01*
X109273162Y-107490562D01*
X109225711Y-107500000D01*
X108500000Y-107500000D01*
X98000000Y-107500000D01*
X98000000Y-102920943D01*
X101849497Y-102920943D01*
X101849497Y-103079057D01*
X101877220Y-103182518D01*
X101890420Y-103231783D01*
X101890423Y-103231790D01*
X101969472Y-103368709D01*
X101969476Y-103368714D01*
X101969477Y-103368716D01*
X102081281Y-103480520D01*
X102081283Y-103480521D01*
X102081287Y-103480524D01*
X102203762Y-103551234D01*
X102218213Y-103559577D01*
X102370940Y-103600500D01*
X102370942Y-103600500D01*
X102529052Y-103600500D01*
X102529054Y-103600500D01*
X102681781Y-103559577D01*
X102788001Y-103498251D01*
X102855898Y-103481779D01*
X102911995Y-103498251D01*
X103018216Y-103559577D01*
X103170943Y-103600500D01*
X103170945Y-103600500D01*
X103329055Y-103600500D01*
X103329057Y-103600500D01*
X103481784Y-103559577D01*
X103534380Y-103529210D01*
X103625755Y-103476457D01*
X103626848Y-103478350D01*
X103681305Y-103457282D01*
X103749753Y-103471302D01*
X103753638Y-103473453D01*
X103817481Y-103510312D01*
X103970208Y-103551235D01*
X103970210Y-103551235D01*
X104128320Y-103551235D01*
X104128322Y-103551235D01*
X104281049Y-103510312D01*
X104417981Y-103431255D01*
X104529785Y-103319451D01*
X104608842Y-103182519D01*
X104649765Y-103029792D01*
X104649765Y-102871678D01*
X104608842Y-102718951D01*
X104608838Y-102718944D01*
X104529789Y-102582025D01*
X104529783Y-102582017D01*
X104417982Y-102470216D01*
X104417974Y-102470210D01*
X104281055Y-102391161D01*
X104281051Y-102391159D01*
X104281049Y-102391158D01*
X104128322Y-102350235D01*
X103970208Y-102350235D01*
X103817481Y-102391158D01*
X103817474Y-102391161D01*
X103673510Y-102474278D01*
X103672419Y-102472388D01*
X103617924Y-102493455D01*
X103549479Y-102479416D01*
X103545609Y-102477272D01*
X103481786Y-102440424D01*
X103481785Y-102440423D01*
X103481784Y-102440423D01*
X103329057Y-102399500D01*
X103170943Y-102399500D01*
X103018216Y-102440423D01*
X103018215Y-102440423D01*
X102911997Y-102501747D01*
X102844096Y-102518218D01*
X102787999Y-102501747D01*
X102681781Y-102440423D01*
X102649536Y-102431783D01*
X102529054Y-102399500D01*
X102370940Y-102399500D01*
X102218213Y-102440423D01*
X102218206Y-102440426D01*
X102081287Y-102519475D01*
X102081279Y-102519481D01*
X101969478Y-102631282D01*
X101969472Y-102631290D01*
X101890423Y-102768209D01*
X101890420Y-102768216D01*
X101849497Y-102920943D01*
X98000000Y-102920943D01*
X98000000Y-102120943D01*
X100199500Y-102120943D01*
X100199500Y-102279057D01*
X100229538Y-102391158D01*
X100240423Y-102431783D01*
X100240426Y-102431790D01*
X100319475Y-102568709D01*
X100319479Y-102568714D01*
X100319480Y-102568716D01*
X100431284Y-102680520D01*
X100431286Y-102680521D01*
X100431290Y-102680524D01*
X100497849Y-102718951D01*
X100568216Y-102759577D01*
X100720943Y-102800500D01*
X100720945Y-102800500D01*
X100879055Y-102800500D01*
X100879057Y-102800500D01*
X101031784Y-102759577D01*
X101168716Y-102680520D01*
X101280520Y-102568716D01*
X101359577Y-102431784D01*
X101400500Y-102279057D01*
X101400500Y-102120943D01*
X101359577Y-101968216D01*
X101332284Y-101920943D01*
X101280524Y-101831290D01*
X101280518Y-101831282D01*
X101168717Y-101719481D01*
X101168709Y-101719475D01*
X101031790Y-101640426D01*
X101031786Y-101640424D01*
X101031784Y-101640423D01*
X100879057Y-101599500D01*
X100720943Y-101599500D01*
X100568216Y-101640423D01*
X100568209Y-101640426D01*
X100431290Y-101719475D01*
X100431282Y-101719481D01*
X100319481Y-101831282D01*
X100319475Y-101831290D01*
X100240426Y-101968209D01*
X100240423Y-101968216D01*
X100199500Y-102120943D01*
X98000000Y-102120943D01*
X98000000Y-101124000D01*
X105194500Y-101124000D01*
X105194500Y-101876000D01*
X105194501Y-101876009D01*
X105198789Y-101915892D01*
X105199500Y-101929147D01*
X105199500Y-102079057D01*
X105238472Y-102224500D01*
X105240423Y-102231783D01*
X105240426Y-102231790D01*
X105319475Y-102368709D01*
X105319479Y-102368714D01*
X105319480Y-102368716D01*
X105431284Y-102480520D01*
X105431286Y-102480521D01*
X105431290Y-102480524D01*
X105552953Y-102550765D01*
X105568216Y-102559577D01*
X105720943Y-102600500D01*
X105720945Y-102600500D01*
X105879055Y-102600500D01*
X105879057Y-102600500D01*
X106031784Y-102559577D01*
X106168716Y-102480520D01*
X106280520Y-102368716D01*
X106359577Y-102231784D01*
X106389277Y-102120943D01*
X107199500Y-102120943D01*
X107199500Y-102279057D01*
X107229538Y-102391158D01*
X107240423Y-102431783D01*
X107240426Y-102431790D01*
X107319475Y-102568709D01*
X107319479Y-102568714D01*
X107319480Y-102568716D01*
X107431284Y-102680520D01*
X107431286Y-102680521D01*
X107431290Y-102680524D01*
X107497849Y-102718951D01*
X107568216Y-102759577D01*
X107720943Y-102800500D01*
X107720945Y-102800500D01*
X107879055Y-102800500D01*
X107879057Y-102800500D01*
X108031784Y-102759577D01*
X108168716Y-102680520D01*
X108280520Y-102568716D01*
X108359577Y-102431784D01*
X108400500Y-102279057D01*
X108400500Y-102224500D01*
X108420185Y-102157461D01*
X108472989Y-102111706D01*
X108524500Y-102100500D01*
X108579055Y-102100500D01*
X108579057Y-102100500D01*
X108731784Y-102059577D01*
X108868716Y-101980520D01*
X108980520Y-101868716D01*
X109059577Y-101731784D01*
X109100500Y-101579057D01*
X109100500Y-101420943D01*
X109074100Y-101322415D01*
X110749500Y-101322415D01*
X110749500Y-101480529D01*
X110778376Y-101588294D01*
X110790423Y-101633255D01*
X110790426Y-101633262D01*
X110869475Y-101770181D01*
X110869479Y-101770186D01*
X110869480Y-101770188D01*
X110981284Y-101881992D01*
X110981286Y-101881993D01*
X110981290Y-101881996D01*
X111118209Y-101961045D01*
X111118216Y-101961049D01*
X111270943Y-102001972D01*
X111270945Y-102001972D01*
X111429055Y-102001972D01*
X111429057Y-102001972D01*
X111581784Y-101961049D01*
X111718716Y-101881992D01*
X111830520Y-101770188D01*
X111909577Y-101633256D01*
X111950500Y-101480529D01*
X111950500Y-101322415D01*
X111909577Y-101169688D01*
X111869100Y-101099580D01*
X111852628Y-101031681D01*
X111872553Y-100974112D01*
X111870943Y-100973183D01*
X111923696Y-100881808D01*
X111954063Y-100829212D01*
X111990799Y-100692107D01*
X112027163Y-100632450D01*
X112090009Y-100601921D01*
X112112815Y-100601518D01*
X112112815Y-100600500D01*
X112279055Y-100600500D01*
X112279057Y-100600500D01*
X112431784Y-100559577D01*
X112568716Y-100480520D01*
X112680520Y-100368716D01*
X112759577Y-100231784D01*
X112800500Y-100079057D01*
X112800500Y-99920943D01*
X114399500Y-99920943D01*
X114399500Y-100079057D01*
X114439602Y-100228718D01*
X114440423Y-100231783D01*
X114440426Y-100231790D01*
X114519475Y-100368709D01*
X114519479Y-100368714D01*
X114519480Y-100368716D01*
X114631284Y-100480520D01*
X114631286Y-100480521D01*
X114631290Y-100480524D01*
X114698765Y-100519480D01*
X114768216Y-100559577D01*
X114920943Y-100600500D01*
X114920945Y-100600500D01*
X115079055Y-100600500D01*
X115079057Y-100600500D01*
X115231784Y-100559577D01*
X115368716Y-100480520D01*
X115480520Y-100368716D01*
X115559577Y-100231784D01*
X115600500Y-100079057D01*
X115600500Y-99920943D01*
X115559577Y-99768216D01*
X115538543Y-99731783D01*
X115480524Y-99631290D01*
X115480518Y-99631282D01*
X115368717Y-99519481D01*
X115368709Y-99519475D01*
X115231790Y-99440426D01*
X115231786Y-99440424D01*
X115231784Y-99440423D01*
X115079057Y-99399500D01*
X114920943Y-99399500D01*
X114768216Y-99440423D01*
X114768209Y-99440426D01*
X114631290Y-99519475D01*
X114631282Y-99519481D01*
X114519481Y-99631282D01*
X114519475Y-99631290D01*
X114440426Y-99768209D01*
X114440423Y-99768216D01*
X114399500Y-99920943D01*
X112800500Y-99920943D01*
X112759577Y-99768216D01*
X112738543Y-99731783D01*
X112680524Y-99631290D01*
X112680518Y-99631282D01*
X112568717Y-99519481D01*
X112568709Y-99519475D01*
X112431790Y-99440426D01*
X112431786Y-99440424D01*
X112431784Y-99440423D01*
X112279057Y-99399500D01*
X112120943Y-99399500D01*
X112116697Y-99399500D01*
X112049658Y-99379815D01*
X112003903Y-99327011D01*
X111996925Y-99307602D01*
X111959577Y-99168216D01*
X111938258Y-99131290D01*
X111880524Y-99031290D01*
X111880518Y-99031282D01*
X111822772Y-98973536D01*
X111789287Y-98912213D01*
X111794271Y-98842521D01*
X111836143Y-98786588D01*
X111878360Y-98766080D01*
X111902633Y-98759577D01*
X112039565Y-98680520D01*
X112151369Y-98568716D01*
X112230426Y-98431784D01*
X112271349Y-98279057D01*
X112271349Y-98120943D01*
X112230426Y-97968216D01*
X112230422Y-97968209D01*
X112151373Y-97831290D01*
X112151367Y-97831282D01*
X112039566Y-97719481D01*
X112039558Y-97719475D01*
X111902639Y-97640426D01*
X111902635Y-97640424D01*
X111902633Y-97640423D01*
X111749906Y-97599500D01*
X111591792Y-97599500D01*
X111439065Y-97640423D01*
X111439058Y-97640426D01*
X111302139Y-97719475D01*
X111302131Y-97719481D01*
X111190330Y-97831282D01*
X111190324Y-97831290D01*
X111111275Y-97968209D01*
X111111272Y-97968216D01*
X111070349Y-98120943D01*
X111070349Y-98279057D01*
X111111138Y-98431282D01*
X111111272Y-98431783D01*
X111111275Y-98431790D01*
X111190324Y-98568709D01*
X111190330Y-98568717D01*
X111248076Y-98626463D01*
X111281561Y-98687786D01*
X111276577Y-98757478D01*
X111234705Y-98813411D01*
X111192491Y-98833918D01*
X111168218Y-98840422D01*
X111168209Y-98840426D01*
X111031290Y-98919475D01*
X111031282Y-98919481D01*
X110919481Y-99031282D01*
X110919475Y-99031290D01*
X110840426Y-99168209D01*
X110840423Y-99168216D01*
X110799500Y-99320943D01*
X110799500Y-99479057D01*
X110840289Y-99631282D01*
X110840423Y-99631783D01*
X110840426Y-99631790D01*
X110919475Y-99768709D01*
X110919479Y-99768714D01*
X110919480Y-99768716D01*
X111031284Y-99880520D01*
X111031285Y-99880521D01*
X111031287Y-99880522D01*
X111047244Y-99889735D01*
X111095460Y-99940302D01*
X111108682Y-100008909D01*
X111082714Y-100073774D01*
X111047246Y-100104508D01*
X111025773Y-100116905D01*
X111025768Y-100116909D01*
X110913967Y-100228710D01*
X110913961Y-100228718D01*
X110834912Y-100365637D01*
X110834909Y-100365644D01*
X110793986Y-100518371D01*
X110793986Y-100676485D01*
X110818564Y-100768209D01*
X110834909Y-100829211D01*
X110834909Y-100829212D01*
X110875385Y-100899319D01*
X110891857Y-100967219D01*
X110871931Y-101024786D01*
X110873543Y-101025717D01*
X110790426Y-101169681D01*
X110790423Y-101169688D01*
X110749500Y-101322415D01*
X109074100Y-101322415D01*
X109059577Y-101268216D01*
X109059573Y-101268209D01*
X108980524Y-101131290D01*
X108980518Y-101131282D01*
X108868717Y-101019481D01*
X108868709Y-101019475D01*
X108731790Y-100940426D01*
X108731786Y-100940424D01*
X108731784Y-100940423D01*
X108579057Y-100899500D01*
X108420943Y-100899500D01*
X108268216Y-100940423D01*
X108268209Y-100940426D01*
X108131290Y-101019475D01*
X108131282Y-101019481D01*
X108019481Y-101131282D01*
X108019475Y-101131290D01*
X107940426Y-101268209D01*
X107940423Y-101268216D01*
X107899500Y-101420943D01*
X107899500Y-101475500D01*
X107879815Y-101542539D01*
X107827011Y-101588294D01*
X107775500Y-101599500D01*
X107720943Y-101599500D01*
X107568216Y-101640423D01*
X107568209Y-101640426D01*
X107431290Y-101719475D01*
X107431282Y-101719481D01*
X107319481Y-101831282D01*
X107319475Y-101831290D01*
X107240426Y-101968209D01*
X107240423Y-101968216D01*
X107199500Y-102120943D01*
X106389277Y-102120943D01*
X106400500Y-102079057D01*
X106400500Y-101920943D01*
X106400437Y-101920709D01*
X106400536Y-101916640D01*
X106400765Y-101915921D01*
X106401763Y-101901987D01*
X106405500Y-101876000D01*
X106405500Y-101124000D01*
X106401210Y-101084096D01*
X106400500Y-101070841D01*
X106400500Y-100920945D01*
X106400500Y-100920943D01*
X106359577Y-100768216D01*
X106306616Y-100676484D01*
X106280524Y-100631290D01*
X106280518Y-100631282D01*
X106168717Y-100519481D01*
X106168709Y-100519475D01*
X106031790Y-100440426D01*
X106031786Y-100440424D01*
X106031784Y-100440423D01*
X105879057Y-100399500D01*
X105720943Y-100399500D01*
X105568216Y-100440423D01*
X105568209Y-100440426D01*
X105431290Y-100519475D01*
X105431282Y-100519481D01*
X105319481Y-100631282D01*
X105319475Y-100631290D01*
X105240426Y-100768209D01*
X105240423Y-100768216D01*
X105199500Y-100920943D01*
X105199500Y-101080354D01*
X105198481Y-101094600D01*
X105198504Y-101096036D01*
X105198375Y-101097045D01*
X105194500Y-101124000D01*
X98000000Y-101124000D01*
X98000000Y-99420943D01*
X107399500Y-99420943D01*
X107399500Y-99579056D01*
X107440423Y-99731783D01*
X107440426Y-99731790D01*
X107519475Y-99868709D01*
X107519479Y-99868714D01*
X107519480Y-99868716D01*
X107631284Y-99980520D01*
X107631286Y-99980521D01*
X107631290Y-99980524D01*
X107718161Y-100030678D01*
X107768216Y-100059577D01*
X107920943Y-100100500D01*
X107920945Y-100100500D01*
X108079055Y-100100500D01*
X108079057Y-100100500D01*
X108231784Y-100059577D01*
X108368716Y-99980520D01*
X108480520Y-99868716D01*
X108559577Y-99731784D01*
X108600500Y-99579057D01*
X108600500Y-99420943D01*
X108559577Y-99268216D01*
X108502132Y-99168717D01*
X108480524Y-99131290D01*
X108480518Y-99131282D01*
X108368717Y-99019481D01*
X108368709Y-99019475D01*
X108231790Y-98940426D01*
X108231786Y-98940424D01*
X108231784Y-98940423D01*
X108079057Y-98899500D01*
X107920943Y-98899500D01*
X107768216Y-98940423D01*
X107768209Y-98940426D01*
X107631290Y-99019475D01*
X107631282Y-99019481D01*
X107519481Y-99131282D01*
X107519475Y-99131290D01*
X107440426Y-99268209D01*
X107440423Y-99268216D01*
X107399500Y-99420943D01*
X98000000Y-99420943D01*
X98000000Y-98720943D01*
X98399500Y-98720943D01*
X98399500Y-98879057D01*
X98440289Y-99031282D01*
X98440423Y-99031783D01*
X98440426Y-99031790D01*
X98519475Y-99168709D01*
X98519479Y-99168714D01*
X98519480Y-99168716D01*
X98631284Y-99280520D01*
X98631286Y-99280521D01*
X98631290Y-99280524D01*
X98768209Y-99359573D01*
X98768216Y-99359577D01*
X98920943Y-99400500D01*
X98920945Y-99400500D01*
X99079055Y-99400500D01*
X99079057Y-99400500D01*
X99231784Y-99359577D01*
X99368716Y-99280520D01*
X99480520Y-99168716D01*
X99559577Y-99031784D01*
X99600500Y-98879057D01*
X99600500Y-98720943D01*
X99559577Y-98568216D01*
X99559573Y-98568209D01*
X99480524Y-98431290D01*
X99480518Y-98431282D01*
X99368717Y-98319481D01*
X99368709Y-98319475D01*
X99231790Y-98240426D01*
X99231786Y-98240424D01*
X99231784Y-98240423D01*
X99079057Y-98199500D01*
X98920943Y-98199500D01*
X98768216Y-98240423D01*
X98768209Y-98240426D01*
X98631290Y-98319475D01*
X98631282Y-98319481D01*
X98519481Y-98431282D01*
X98519475Y-98431290D01*
X98440426Y-98568209D01*
X98440423Y-98568216D01*
X98399500Y-98720943D01*
X98000000Y-98720943D01*
X98000000Y-96170943D01*
X113279831Y-96170943D01*
X113279831Y-96329057D01*
X113309672Y-96440423D01*
X113320754Y-96481783D01*
X113320757Y-96481790D01*
X113399806Y-96618709D01*
X113399810Y-96618714D01*
X113399811Y-96618716D01*
X113511615Y-96730520D01*
X113511617Y-96730521D01*
X113511621Y-96730524D01*
X113648540Y-96809573D01*
X113648547Y-96809577D01*
X113801274Y-96850500D01*
X113801276Y-96850500D01*
X113875500Y-96850500D01*
X113942539Y-96870185D01*
X113988294Y-96922989D01*
X113999500Y-96974500D01*
X113999500Y-97079056D01*
X114040423Y-97231783D01*
X114040426Y-97231790D01*
X114119475Y-97368709D01*
X114119479Y-97368714D01*
X114119480Y-97368716D01*
X114231284Y-97480520D01*
X114231286Y-97480521D01*
X114231290Y-97480524D01*
X114368209Y-97559573D01*
X114368216Y-97559577D01*
X114520943Y-97600500D01*
X114520945Y-97600500D01*
X114679055Y-97600500D01*
X114679057Y-97600500D01*
X114831784Y-97559577D01*
X114968716Y-97480520D01*
X115080520Y-97368716D01*
X115159577Y-97231784D01*
X115200500Y-97079057D01*
X115200500Y-96920943D01*
X115159577Y-96768216D01*
X115137816Y-96730524D01*
X115080524Y-96631290D01*
X115080518Y-96631282D01*
X114968717Y-96519481D01*
X114968709Y-96519475D01*
X114831790Y-96440426D01*
X114831786Y-96440424D01*
X114831784Y-96440423D01*
X114679057Y-96399500D01*
X114604831Y-96399500D01*
X114537792Y-96379815D01*
X114492037Y-96327011D01*
X114480831Y-96275500D01*
X114480831Y-96170945D01*
X114480831Y-96170943D01*
X114439908Y-96018216D01*
X114418147Y-95980524D01*
X114360855Y-95881290D01*
X114360849Y-95881282D01*
X114249048Y-95769481D01*
X114249040Y-95769475D01*
X114112121Y-95690426D01*
X114112117Y-95690424D01*
X114112115Y-95690423D01*
X113959388Y-95649500D01*
X113801274Y-95649500D01*
X113648547Y-95690423D01*
X113648540Y-95690426D01*
X113511621Y-95769475D01*
X113511613Y-95769481D01*
X113399812Y-95881282D01*
X113399806Y-95881290D01*
X113320757Y-96018209D01*
X113320754Y-96018216D01*
X113279831Y-96170943D01*
X98000000Y-96170943D01*
X98000000Y-95420943D01*
X115549500Y-95420943D01*
X115549500Y-95579057D01*
X115579341Y-95690423D01*
X115590423Y-95731783D01*
X115590426Y-95731790D01*
X115669475Y-95868709D01*
X115669479Y-95868714D01*
X115669480Y-95868716D01*
X115781284Y-95980520D01*
X115781286Y-95980521D01*
X115781290Y-95980524D01*
X115918209Y-96059573D01*
X115918216Y-96059577D01*
X116070943Y-96100500D01*
X116070945Y-96100500D01*
X116229055Y-96100500D01*
X116229057Y-96100500D01*
X116381784Y-96059577D01*
X116518716Y-95980520D01*
X116630520Y-95868716D01*
X116709577Y-95731784D01*
X116750500Y-95579057D01*
X116750500Y-95420943D01*
X116709577Y-95268216D01*
X116646855Y-95159577D01*
X116630524Y-95131290D01*
X116630518Y-95131282D01*
X116518717Y-95019481D01*
X116518709Y-95019475D01*
X116381790Y-94940426D01*
X116381786Y-94940424D01*
X116381784Y-94940423D01*
X116229057Y-94899500D01*
X116070943Y-94899500D01*
X115918216Y-94940423D01*
X115918209Y-94940426D01*
X115781290Y-95019475D01*
X115781282Y-95019481D01*
X115669481Y-95131282D01*
X115669475Y-95131290D01*
X115590426Y-95268209D01*
X115590423Y-95268216D01*
X115549500Y-95420943D01*
X98000000Y-95420943D01*
X98000000Y-94520943D01*
X101499500Y-94520943D01*
X101499500Y-94679056D01*
X101540423Y-94831783D01*
X101540426Y-94831790D01*
X101619475Y-94968709D01*
X101619479Y-94968714D01*
X101619480Y-94968716D01*
X101731284Y-95080520D01*
X101731286Y-95080521D01*
X101731290Y-95080524D01*
X101819221Y-95131290D01*
X101868216Y-95159577D01*
X102020943Y-95200500D01*
X102020945Y-95200500D01*
X102179055Y-95200500D01*
X102179057Y-95200500D01*
X102331784Y-95159577D01*
X102468716Y-95080520D01*
X102580520Y-94968716D01*
X102659577Y-94831784D01*
X102700500Y-94679057D01*
X102700500Y-94520943D01*
X102659577Y-94368216D01*
X102659573Y-94368209D01*
X102580524Y-94231290D01*
X102580518Y-94231282D01*
X102468717Y-94119481D01*
X102468709Y-94119475D01*
X102331790Y-94040426D01*
X102331786Y-94040424D01*
X102331784Y-94040423D01*
X102179057Y-93999500D01*
X102020943Y-93999500D01*
X101868216Y-94040423D01*
X101868209Y-94040426D01*
X101731290Y-94119475D01*
X101731282Y-94119481D01*
X101619481Y-94231282D01*
X101619475Y-94231290D01*
X101540426Y-94368209D01*
X101540423Y-94368216D01*
X101499500Y-94520943D01*
X98000000Y-94520943D01*
X98000000Y-93120943D01*
X98399500Y-93120943D01*
X98399500Y-93279057D01*
X98435387Y-93412987D01*
X98440423Y-93431783D01*
X98440426Y-93431790D01*
X98519475Y-93568709D01*
X98519479Y-93568714D01*
X98519480Y-93568716D01*
X98631284Y-93680520D01*
X98631286Y-93680521D01*
X98631290Y-93680524D01*
X98768209Y-93759573D01*
X98768216Y-93759577D01*
X98920943Y-93800500D01*
X98920945Y-93800500D01*
X99079055Y-93800500D01*
X99079057Y-93800500D01*
X99231784Y-93759577D01*
X99368716Y-93680520D01*
X99480520Y-93568716D01*
X99559577Y-93431784D01*
X99580871Y-93352314D01*
X114900320Y-93352314D01*
X114900320Y-93510428D01*
X114915939Y-93568717D01*
X114941243Y-93663154D01*
X114941246Y-93663161D01*
X115020295Y-93800080D01*
X115020299Y-93800085D01*
X115020300Y-93800087D01*
X115132104Y-93911891D01*
X115132106Y-93911892D01*
X115132110Y-93911895D01*
X115269029Y-93990944D01*
X115269036Y-93990948D01*
X115421763Y-94031871D01*
X115421765Y-94031871D01*
X115579875Y-94031871D01*
X115579877Y-94031871D01*
X115732604Y-93990948D01*
X115869536Y-93911891D01*
X115981340Y-93800087D01*
X116060397Y-93663155D01*
X116101320Y-93510428D01*
X116101320Y-93510416D01*
X116101361Y-93510110D01*
X116101472Y-93509858D01*
X116103423Y-93502578D01*
X116104558Y-93502882D01*
X116129625Y-93446212D01*
X116187948Y-93407739D01*
X116192154Y-93406530D01*
X116320785Y-93372064D01*
X116457717Y-93293007D01*
X116569521Y-93181203D01*
X116648578Y-93044271D01*
X116689501Y-92891544D01*
X116689501Y-92733430D01*
X116648578Y-92580703D01*
X116614076Y-92520943D01*
X116569525Y-92443777D01*
X116569519Y-92443769D01*
X116457718Y-92331968D01*
X116457710Y-92331962D01*
X116320791Y-92252913D01*
X116320787Y-92252911D01*
X116320785Y-92252910D01*
X116168058Y-92211987D01*
X116009944Y-92211987D01*
X115857217Y-92252910D01*
X115857210Y-92252913D01*
X115720291Y-92331962D01*
X115720283Y-92331968D01*
X115608482Y-92443769D01*
X115608476Y-92443777D01*
X115529427Y-92580696D01*
X115529424Y-92580703D01*
X115488500Y-92733433D01*
X115488457Y-92733763D01*
X115488343Y-92734019D01*
X115486398Y-92741280D01*
X115485265Y-92740976D01*
X115460185Y-92797657D01*
X115401857Y-92836123D01*
X115397613Y-92837342D01*
X115269034Y-92871794D01*
X115269029Y-92871797D01*
X115132110Y-92950846D01*
X115132102Y-92950852D01*
X115020301Y-93062653D01*
X115020295Y-93062661D01*
X114941246Y-93199580D01*
X114941243Y-93199587D01*
X114900320Y-93352314D01*
X99580871Y-93352314D01*
X99600500Y-93279057D01*
X99600500Y-93120943D01*
X99559577Y-92968216D01*
X99549552Y-92950852D01*
X99480524Y-92831290D01*
X99480518Y-92831282D01*
X99368717Y-92719481D01*
X99368709Y-92719475D01*
X99231790Y-92640426D01*
X99231786Y-92640424D01*
X99231784Y-92640423D01*
X99079057Y-92599500D01*
X98920943Y-92599500D01*
X98768216Y-92640423D01*
X98768209Y-92640426D01*
X98631290Y-92719475D01*
X98631282Y-92719481D01*
X98519481Y-92831282D01*
X98519475Y-92831290D01*
X98440426Y-92968209D01*
X98440423Y-92968216D01*
X98399500Y-93120943D01*
X98000000Y-93120943D01*
X98000000Y-92520943D01*
X113199500Y-92520943D01*
X113199500Y-92679057D01*
X113240289Y-92831282D01*
X113240423Y-92831783D01*
X113240426Y-92831790D01*
X113319475Y-92968709D01*
X113319479Y-92968714D01*
X113319480Y-92968716D01*
X113431284Y-93080520D01*
X113431286Y-93080521D01*
X113431290Y-93080524D01*
X113568209Y-93159573D01*
X113568216Y-93159577D01*
X113720943Y-93200500D01*
X113720945Y-93200500D01*
X113879055Y-93200500D01*
X113879057Y-93200500D01*
X114031784Y-93159577D01*
X114168716Y-93080520D01*
X114280520Y-92968716D01*
X114359577Y-92831784D01*
X114400500Y-92679057D01*
X114400500Y-92520943D01*
X114359577Y-92368216D01*
X114359573Y-92368209D01*
X114280524Y-92231290D01*
X114280518Y-92231282D01*
X114168717Y-92119481D01*
X114168709Y-92119475D01*
X114031790Y-92040426D01*
X114031786Y-92040424D01*
X114031784Y-92040423D01*
X113879057Y-91999500D01*
X113720943Y-91999500D01*
X113568216Y-92040423D01*
X113568209Y-92040426D01*
X113431290Y-92119475D01*
X113431282Y-92119481D01*
X113319481Y-92231282D01*
X113319475Y-92231290D01*
X113240426Y-92368209D01*
X113240423Y-92368216D01*
X113199500Y-92520943D01*
X98000000Y-92520943D01*
X98000000Y-90520943D01*
X102999500Y-90520943D01*
X102999500Y-90679057D01*
X103023525Y-90768717D01*
X103040423Y-90831783D01*
X103040426Y-90831790D01*
X103119475Y-90968709D01*
X103119479Y-90968714D01*
X103119480Y-90968716D01*
X103231284Y-91080520D01*
X103231286Y-91080521D01*
X103231290Y-91080524D01*
X103368209Y-91159573D01*
X103368216Y-91159577D01*
X103520943Y-91200500D01*
X103520945Y-91200500D01*
X103679055Y-91200500D01*
X103679057Y-91200500D01*
X103831784Y-91159577D01*
X103968716Y-91080520D01*
X104080520Y-90968716D01*
X104159577Y-90831784D01*
X104200500Y-90679057D01*
X104200500Y-90520943D01*
X104159577Y-90368216D01*
X104132285Y-90320945D01*
X104132284Y-90320943D01*
X108899500Y-90320943D01*
X108899500Y-90479057D01*
X108910724Y-90520943D01*
X108940423Y-90631783D01*
X108940426Y-90631790D01*
X109019475Y-90768709D01*
X109019479Y-90768714D01*
X109019480Y-90768716D01*
X109131284Y-90880520D01*
X109131286Y-90880521D01*
X109131290Y-90880524D01*
X109211998Y-90927120D01*
X109268216Y-90959577D01*
X109420943Y-91000500D01*
X109420945Y-91000500D01*
X109579055Y-91000500D01*
X109579057Y-91000500D01*
X109731784Y-90959577D01*
X109788002Y-90927119D01*
X109855899Y-90910647D01*
X109911996Y-90927118D01*
X109968216Y-90959577D01*
X110120943Y-91000500D01*
X110120945Y-91000500D01*
X110279055Y-91000500D01*
X110279057Y-91000500D01*
X110431784Y-90959577D01*
X110568716Y-90880520D01*
X110680520Y-90768716D01*
X110759577Y-90631784D01*
X110789277Y-90520943D01*
X112149500Y-90520943D01*
X112149500Y-90679057D01*
X112173525Y-90768717D01*
X112190423Y-90831783D01*
X112190426Y-90831790D01*
X112269475Y-90968709D01*
X112269479Y-90968714D01*
X112269480Y-90968716D01*
X112381284Y-91080520D01*
X112381286Y-91080521D01*
X112381290Y-91080524D01*
X112518209Y-91159573D01*
X112518216Y-91159577D01*
X112670943Y-91200500D01*
X112670945Y-91200500D01*
X112829055Y-91200500D01*
X112829057Y-91200500D01*
X112981784Y-91159577D01*
X113118716Y-91080520D01*
X113230520Y-90968716D01*
X113309577Y-90831784D01*
X113350500Y-90679057D01*
X113350500Y-90520943D01*
X113309577Y-90368216D01*
X113309573Y-90368209D01*
X113230524Y-90231290D01*
X113230518Y-90231282D01*
X113118717Y-90119481D01*
X113118709Y-90119475D01*
X112981790Y-90040426D01*
X112981786Y-90040424D01*
X112981784Y-90040423D01*
X112829057Y-89999500D01*
X112670943Y-89999500D01*
X112518216Y-90040423D01*
X112518209Y-90040426D01*
X112381290Y-90119475D01*
X112381282Y-90119481D01*
X112269481Y-90231282D01*
X112269475Y-90231290D01*
X112190426Y-90368209D01*
X112190426Y-90368210D01*
X112190423Y-90368216D01*
X112149500Y-90520943D01*
X110789277Y-90520943D01*
X110800500Y-90479057D01*
X110800500Y-90320943D01*
X110759577Y-90168216D01*
X110731437Y-90119475D01*
X110680524Y-90031290D01*
X110680518Y-90031282D01*
X110568717Y-89919481D01*
X110568709Y-89919475D01*
X110431790Y-89840426D01*
X110431786Y-89840424D01*
X110431784Y-89840423D01*
X110279057Y-89799500D01*
X110120943Y-89799500D01*
X109968216Y-89840423D01*
X109968211Y-89840425D01*
X109911998Y-89872879D01*
X109844098Y-89889350D01*
X109788002Y-89872879D01*
X109731788Y-89840425D01*
X109731786Y-89840424D01*
X109731784Y-89840423D01*
X109579057Y-89799500D01*
X109420943Y-89799500D01*
X109268216Y-89840423D01*
X109268209Y-89840426D01*
X109131290Y-89919475D01*
X109131282Y-89919481D01*
X109019481Y-90031282D01*
X109019475Y-90031290D01*
X108940426Y-90168209D01*
X108940423Y-90168216D01*
X108899500Y-90320943D01*
X104132284Y-90320943D01*
X104080522Y-90231287D01*
X104080518Y-90231282D01*
X103968717Y-90119481D01*
X103968709Y-90119475D01*
X103831790Y-90040426D01*
X103831786Y-90040424D01*
X103831784Y-90040423D01*
X103679057Y-89999500D01*
X103520943Y-89999500D01*
X103368216Y-90040423D01*
X103368209Y-90040426D01*
X103231290Y-90119475D01*
X103231282Y-90119481D01*
X103119481Y-90231282D01*
X103119475Y-90231290D01*
X103040426Y-90368209D01*
X103040426Y-90368210D01*
X103040423Y-90368216D01*
X102999500Y-90520943D01*
X98000000Y-90520943D01*
X98000000Y-88720943D01*
X116999500Y-88720943D01*
X116999500Y-88879056D01*
X117040423Y-89031783D01*
X117040426Y-89031790D01*
X117119475Y-89168709D01*
X117119479Y-89168714D01*
X117119480Y-89168716D01*
X117231284Y-89280520D01*
X117231286Y-89280521D01*
X117231290Y-89280524D01*
X117368209Y-89359573D01*
X117368216Y-89359577D01*
X117520943Y-89400500D01*
X117520945Y-89400500D01*
X117679055Y-89400500D01*
X117679057Y-89400500D01*
X117831784Y-89359577D01*
X117968716Y-89280520D01*
X118080520Y-89168716D01*
X118159577Y-89031784D01*
X118200500Y-88879057D01*
X118200500Y-88720943D01*
X118159577Y-88568216D01*
X118159573Y-88568209D01*
X118080524Y-88431290D01*
X118080518Y-88431282D01*
X117968717Y-88319481D01*
X117968709Y-88319475D01*
X117831790Y-88240426D01*
X117831786Y-88240424D01*
X117831784Y-88240423D01*
X117679057Y-88199500D01*
X117520943Y-88199500D01*
X117368216Y-88240423D01*
X117368209Y-88240426D01*
X117231290Y-88319475D01*
X117231282Y-88319481D01*
X117119481Y-88431282D01*
X117119475Y-88431290D01*
X117040426Y-88568209D01*
X117040423Y-88568216D01*
X116999500Y-88720943D01*
X98000000Y-88720943D01*
X98000000Y-87120943D01*
X107099500Y-87120943D01*
X107099500Y-87279057D01*
X107126742Y-87380723D01*
X107140423Y-87431783D01*
X107140426Y-87431790D01*
X107219475Y-87568709D01*
X107219479Y-87568714D01*
X107219480Y-87568716D01*
X107331284Y-87680520D01*
X107331286Y-87680521D01*
X107331290Y-87680524D01*
X107420087Y-87731790D01*
X107468216Y-87759577D01*
X107620943Y-87800500D01*
X107620945Y-87800500D01*
X107779055Y-87800500D01*
X107779057Y-87800500D01*
X107931784Y-87759577D01*
X108068716Y-87680520D01*
X108180520Y-87568716D01*
X108259577Y-87431784D01*
X108262482Y-87420943D01*
X112699500Y-87420943D01*
X112699500Y-87579057D01*
X112728848Y-87688583D01*
X112740423Y-87731783D01*
X112740426Y-87731790D01*
X112819475Y-87868709D01*
X112819479Y-87868714D01*
X112819480Y-87868716D01*
X112931284Y-87980520D01*
X112931286Y-87980521D01*
X112931290Y-87980524D01*
X113068209Y-88059573D01*
X113068216Y-88059577D01*
X113220943Y-88100500D01*
X113220945Y-88100500D01*
X113379055Y-88100500D01*
X113379057Y-88100500D01*
X113531784Y-88059577D01*
X113668716Y-87980520D01*
X113780520Y-87868716D01*
X113859577Y-87731784D01*
X113900500Y-87579057D01*
X113900500Y-87420943D01*
X113859577Y-87268216D01*
X113780520Y-87131284D01*
X113774942Y-87125706D01*
X114429500Y-87125706D01*
X114429500Y-87283820D01*
X114469149Y-87431790D01*
X114470423Y-87436546D01*
X114470426Y-87436553D01*
X114549475Y-87573472D01*
X114549479Y-87573477D01*
X114549480Y-87573479D01*
X114661284Y-87685283D01*
X114661286Y-87685284D01*
X114661290Y-87685287D01*
X114741837Y-87731790D01*
X114798216Y-87764340D01*
X114950943Y-87805263D01*
X114950945Y-87805263D01*
X115109055Y-87805263D01*
X115109057Y-87805263D01*
X115261784Y-87764340D01*
X115393000Y-87688582D01*
X115460901Y-87672110D01*
X115516999Y-87688582D01*
X115648216Y-87764340D01*
X115800943Y-87805263D01*
X115800945Y-87805263D01*
X115959055Y-87805263D01*
X115959057Y-87805263D01*
X116111784Y-87764340D01*
X116248716Y-87685283D01*
X116360520Y-87573479D01*
X116439577Y-87436547D01*
X116480500Y-87283820D01*
X116480500Y-87125706D01*
X116480499Y-87125705D01*
X116480230Y-87123657D01*
X116480500Y-87121925D01*
X116480500Y-87117579D01*
X116481178Y-87117579D01*
X116490995Y-87054621D01*
X116537374Y-87002365D01*
X116604643Y-86983479D01*
X116665167Y-87000082D01*
X116768216Y-87059577D01*
X116920943Y-87100500D01*
X116920945Y-87100500D01*
X117079055Y-87100500D01*
X117079057Y-87100500D01*
X117231784Y-87059577D01*
X117368716Y-86980520D01*
X117480520Y-86868716D01*
X117559577Y-86731784D01*
X117600500Y-86579057D01*
X117600500Y-86420943D01*
X117559577Y-86268216D01*
X117505448Y-86174461D01*
X117480524Y-86131290D01*
X117480518Y-86131282D01*
X117368717Y-86019481D01*
X117368709Y-86019475D01*
X117231790Y-85940426D01*
X117231786Y-85940424D01*
X117231784Y-85940423D01*
X117079057Y-85899500D01*
X116920943Y-85899500D01*
X116768216Y-85940423D01*
X116768209Y-85940426D01*
X116631290Y-86019475D01*
X116631282Y-86019481D01*
X116519481Y-86131282D01*
X116519475Y-86131290D01*
X116440426Y-86268209D01*
X116440423Y-86268216D01*
X116399500Y-86420943D01*
X116399500Y-86579064D01*
X116399770Y-86581116D01*
X116399500Y-86582846D01*
X116399500Y-86587184D01*
X116398823Y-86587184D01*
X116389000Y-86650150D01*
X116342616Y-86702403D01*
X116275345Y-86721283D01*
X116214830Y-86704679D01*
X116111786Y-86645187D01*
X116111785Y-86645186D01*
X116111784Y-86645186D01*
X115959057Y-86604263D01*
X115800943Y-86604263D01*
X115648216Y-86645186D01*
X115648215Y-86645186D01*
X115516999Y-86720943D01*
X115449099Y-86737415D01*
X115393001Y-86720943D01*
X115261784Y-86645186D01*
X115244008Y-86640423D01*
X115109057Y-86604263D01*
X114950943Y-86604263D01*
X114798216Y-86645186D01*
X114798209Y-86645189D01*
X114661290Y-86724238D01*
X114661282Y-86724244D01*
X114549481Y-86836045D01*
X114549475Y-86836053D01*
X114470426Y-86972972D01*
X114470423Y-86972979D01*
X114429500Y-87125706D01*
X113774942Y-87125706D01*
X113668716Y-87019480D01*
X113668714Y-87019479D01*
X113668709Y-87019475D01*
X113531790Y-86940426D01*
X113531786Y-86940424D01*
X113531784Y-86940423D01*
X113379057Y-86899500D01*
X113220943Y-86899500D01*
X113068216Y-86940423D01*
X113068209Y-86940426D01*
X112931290Y-87019475D01*
X112931282Y-87019481D01*
X112819481Y-87131282D01*
X112819475Y-87131290D01*
X112740426Y-87268209D01*
X112740423Y-87268216D01*
X112699500Y-87420943D01*
X108262482Y-87420943D01*
X108300500Y-87279057D01*
X108300500Y-87120943D01*
X108259577Y-86968216D01*
X108202132Y-86868717D01*
X108180524Y-86831290D01*
X108180518Y-86831282D01*
X108068717Y-86719481D01*
X108068709Y-86719475D01*
X107931790Y-86640426D01*
X107931786Y-86640424D01*
X107931784Y-86640423D01*
X107779057Y-86599500D01*
X107620943Y-86599500D01*
X107468216Y-86640423D01*
X107468209Y-86640426D01*
X107331290Y-86719475D01*
X107331282Y-86719481D01*
X107219481Y-86831282D01*
X107219475Y-86831290D01*
X107140426Y-86968209D01*
X107140423Y-86968216D01*
X107099500Y-87120943D01*
X98000000Y-87120943D01*
X98000000Y-84531898D01*
X98899500Y-84531898D01*
X98899500Y-85868102D01*
X98903516Y-85901541D01*
X98910122Y-85956561D01*
X98965639Y-86097343D01*
X99057077Y-86217922D01*
X99177656Y-86309360D01*
X99177657Y-86309360D01*
X99177658Y-86309361D01*
X99318436Y-86364877D01*
X99406898Y-86375500D01*
X99406903Y-86375500D01*
X100193097Y-86375500D01*
X100193102Y-86375500D01*
X100281564Y-86364877D01*
X100422342Y-86309361D01*
X100542922Y-86217922D01*
X100634361Y-86097342D01*
X100689877Y-85956564D01*
X100700500Y-85868102D01*
X100700500Y-85797080D01*
X100720185Y-85730041D01*
X100772989Y-85684286D01*
X100842147Y-85674342D01*
X100905703Y-85703367D01*
X100939061Y-85749628D01*
X101001983Y-85901541D01*
X101001990Y-85901553D01*
X101100535Y-86049034D01*
X101100538Y-86049038D01*
X101225961Y-86174461D01*
X101225965Y-86174464D01*
X101373446Y-86273009D01*
X101373459Y-86273016D01*
X101494155Y-86323009D01*
X101537334Y-86340894D01*
X101537336Y-86340894D01*
X101537341Y-86340896D01*
X101711304Y-86375499D01*
X101711307Y-86375500D01*
X101711309Y-86375500D01*
X101888693Y-86375500D01*
X101888694Y-86375499D01*
X101946682Y-86363964D01*
X102062658Y-86340896D01*
X102062661Y-86340894D01*
X102062666Y-86340894D01*
X102226547Y-86273013D01*
X102374035Y-86174464D01*
X102499464Y-86049035D01*
X102598013Y-85901547D01*
X102665894Y-85737666D01*
X102678383Y-85674882D01*
X102710768Y-85612971D01*
X102771483Y-85578397D01*
X102841253Y-85582136D01*
X102897925Y-85623003D01*
X102921617Y-85674882D01*
X102934103Y-85737658D01*
X102934106Y-85737667D01*
X103001983Y-85901540D01*
X103001990Y-85901553D01*
X103100535Y-86049034D01*
X103100538Y-86049038D01*
X103225961Y-86174461D01*
X103225965Y-86174464D01*
X103373446Y-86273009D01*
X103373459Y-86273016D01*
X103494155Y-86323009D01*
X103537334Y-86340894D01*
X103537336Y-86340894D01*
X103537341Y-86340896D01*
X103711304Y-86375499D01*
X103711307Y-86375500D01*
X103711309Y-86375500D01*
X103888693Y-86375500D01*
X103888694Y-86375499D01*
X103946682Y-86363964D01*
X104062658Y-86340896D01*
X104062661Y-86340894D01*
X104062666Y-86340894D01*
X104226547Y-86273013D01*
X104374035Y-86174464D01*
X104499464Y-86049035D01*
X104598013Y-85901547D01*
X104665894Y-85737666D01*
X104678383Y-85674882D01*
X104710768Y-85612971D01*
X104771483Y-85578397D01*
X104841253Y-85582136D01*
X104897925Y-85623003D01*
X104921617Y-85674882D01*
X104934103Y-85737658D01*
X104934106Y-85737667D01*
X105001983Y-85901540D01*
X105001990Y-85901553D01*
X105100535Y-86049034D01*
X105100538Y-86049038D01*
X105225961Y-86174461D01*
X105225965Y-86174464D01*
X105373446Y-86273009D01*
X105373459Y-86273016D01*
X105494155Y-86323009D01*
X105537334Y-86340894D01*
X105537336Y-86340894D01*
X105537341Y-86340896D01*
X105711304Y-86375499D01*
X105711307Y-86375500D01*
X105711309Y-86375500D01*
X105888693Y-86375500D01*
X105888694Y-86375499D01*
X105946682Y-86363964D01*
X106062658Y-86340896D01*
X106062661Y-86340894D01*
X106062666Y-86340894D01*
X106226547Y-86273013D01*
X106374035Y-86174464D01*
X106499464Y-86049035D01*
X106598013Y-85901547D01*
X106665894Y-85737666D01*
X106700500Y-85563691D01*
X106700500Y-84836309D01*
X106700500Y-84836306D01*
X106700499Y-84836304D01*
X106665896Y-84662341D01*
X106665894Y-84662338D01*
X106665894Y-84662334D01*
X106633740Y-84584706D01*
X110650000Y-84584706D01*
X110650000Y-85000000D01*
X110663681Y-85013681D01*
X110697166Y-85075004D01*
X110700000Y-85101362D01*
X110700000Y-85398639D01*
X110680315Y-85465678D01*
X110663681Y-85486320D01*
X110650001Y-85500000D01*
X110650001Y-85924986D01*
X110660494Y-86027697D01*
X110693706Y-86127923D01*
X110700000Y-86166926D01*
X110700000Y-86700000D01*
X112800000Y-86700000D01*
X112800000Y-86166926D01*
X112800450Y-86164135D01*
X112800073Y-86162665D01*
X112806294Y-86127923D01*
X112813841Y-86105147D01*
X112853613Y-86047702D01*
X112918128Y-86020878D01*
X112986904Y-86033192D01*
X113034649Y-86075259D01*
X113050535Y-86099034D01*
X113050538Y-86099038D01*
X113175961Y-86224461D01*
X113175965Y-86224464D01*
X113323446Y-86323009D01*
X113323459Y-86323016D01*
X113424523Y-86364877D01*
X113487334Y-86390894D01*
X113487336Y-86390894D01*
X113487341Y-86390896D01*
X113661304Y-86425499D01*
X113661307Y-86425500D01*
X113661309Y-86425500D01*
X113838693Y-86425500D01*
X113838694Y-86425499D01*
X113896682Y-86413964D01*
X114012658Y-86390896D01*
X114012661Y-86390894D01*
X114012666Y-86390894D01*
X114176547Y-86323013D01*
X114324035Y-86224464D01*
X114449464Y-86099035D01*
X114548013Y-85951547D01*
X114615894Y-85787666D01*
X114623461Y-85749628D01*
X114650499Y-85613695D01*
X114650500Y-85613693D01*
X114650500Y-84886306D01*
X114650499Y-84886304D01*
X114615896Y-84712341D01*
X114615893Y-84712332D01*
X114548016Y-84548459D01*
X114548009Y-84548446D01*
X114449464Y-84400965D01*
X114449461Y-84400961D01*
X114324038Y-84275538D01*
X114324034Y-84275535D01*
X114176553Y-84176990D01*
X114176540Y-84176983D01*
X114012667Y-84109106D01*
X114012658Y-84109103D01*
X113838694Y-84074500D01*
X113838691Y-84074500D01*
X113661309Y-84074500D01*
X113661306Y-84074500D01*
X113487341Y-84109103D01*
X113487332Y-84109106D01*
X113323459Y-84176983D01*
X113323446Y-84176990D01*
X113175965Y-84275535D01*
X113175961Y-84275538D01*
X113050538Y-84400961D01*
X113050534Y-84400966D01*
X113034647Y-84424742D01*
X113023410Y-84434131D01*
X113015922Y-84446715D01*
X112997138Y-84456086D01*
X112981033Y-84469545D01*
X112966505Y-84471369D01*
X112953402Y-84477907D01*
X112932534Y-84475635D01*
X112911708Y-84478251D01*
X112898498Y-84471930D01*
X112883942Y-84470346D01*
X112867616Y-84457154D01*
X112848681Y-84448094D01*
X112840015Y-84434851D01*
X112829597Y-84426433D01*
X112813841Y-84394851D01*
X112806294Y-84372075D01*
X112800000Y-84333072D01*
X112800000Y-83900000D01*
X112316482Y-83900000D01*
X112277479Y-83893706D01*
X112252701Y-83885495D01*
X112252690Y-83885493D01*
X112149986Y-83875000D01*
X111990590Y-83875000D01*
X111949996Y-83897166D01*
X111923638Y-83900000D01*
X111576362Y-83900000D01*
X111509323Y-83880315D01*
X111502727Y-83875000D01*
X111350027Y-83875000D01*
X111350012Y-83875001D01*
X111247304Y-83885493D01*
X111222523Y-83893706D01*
X111183518Y-83900000D01*
X110700000Y-83900000D01*
X110700000Y-84333072D01*
X110698325Y-84343448D01*
X110697368Y-84358485D01*
X110650000Y-84584706D01*
X106633740Y-84584706D01*
X106618726Y-84548459D01*
X106598016Y-84498459D01*
X106598009Y-84498446D01*
X106499464Y-84350965D01*
X106499461Y-84350961D01*
X106374038Y-84225538D01*
X106374034Y-84225535D01*
X106226553Y-84126990D01*
X106226540Y-84126983D01*
X106062667Y-84059106D01*
X106062658Y-84059103D01*
X105888694Y-84024500D01*
X105888691Y-84024500D01*
X105711309Y-84024500D01*
X105711306Y-84024500D01*
X105537341Y-84059103D01*
X105537332Y-84059106D01*
X105373459Y-84126983D01*
X105373446Y-84126990D01*
X105225965Y-84225535D01*
X105225961Y-84225538D01*
X105100538Y-84350961D01*
X105100535Y-84350965D01*
X105001990Y-84498446D01*
X105001983Y-84498459D01*
X104934106Y-84662332D01*
X104934104Y-84662340D01*
X104921617Y-84725118D01*
X104889232Y-84787028D01*
X104828516Y-84821603D01*
X104758747Y-84817863D01*
X104702075Y-84776996D01*
X104678383Y-84725118D01*
X104665895Y-84662340D01*
X104665894Y-84662334D01*
X104618726Y-84548459D01*
X104598016Y-84498459D01*
X104598009Y-84498446D01*
X104499464Y-84350965D01*
X104499461Y-84350961D01*
X104374038Y-84225538D01*
X104374034Y-84225535D01*
X104226553Y-84126990D01*
X104226540Y-84126983D01*
X104062667Y-84059106D01*
X104062658Y-84059103D01*
X103888694Y-84024500D01*
X103888691Y-84024500D01*
X103711309Y-84024500D01*
X103711306Y-84024500D01*
X103537341Y-84059103D01*
X103537332Y-84059106D01*
X103373459Y-84126983D01*
X103373446Y-84126990D01*
X103225965Y-84225535D01*
X103225961Y-84225538D01*
X103100538Y-84350961D01*
X103100535Y-84350965D01*
X103001990Y-84498446D01*
X103001983Y-84498459D01*
X102934106Y-84662332D01*
X102934104Y-84662340D01*
X102921617Y-84725118D01*
X102889232Y-84787028D01*
X102828516Y-84821603D01*
X102758747Y-84817863D01*
X102702075Y-84776996D01*
X102678383Y-84725118D01*
X102665895Y-84662340D01*
X102665894Y-84662334D01*
X102618726Y-84548459D01*
X102598016Y-84498459D01*
X102598009Y-84498446D01*
X102499464Y-84350965D01*
X102499461Y-84350961D01*
X102374038Y-84225538D01*
X102374034Y-84225535D01*
X102226553Y-84126990D01*
X102226540Y-84126983D01*
X102062667Y-84059106D01*
X102062658Y-84059103D01*
X101888694Y-84024500D01*
X101888691Y-84024500D01*
X101711309Y-84024500D01*
X101711306Y-84024500D01*
X101537341Y-84059103D01*
X101537332Y-84059106D01*
X101373459Y-84126983D01*
X101373446Y-84126990D01*
X101225965Y-84225535D01*
X101225961Y-84225538D01*
X101100538Y-84350961D01*
X101100535Y-84350965D01*
X101001990Y-84498446D01*
X101001983Y-84498459D01*
X100939061Y-84650371D01*
X100895221Y-84704775D01*
X100828927Y-84726840D01*
X100761227Y-84709561D01*
X100713616Y-84658424D01*
X100700500Y-84602919D01*
X100700500Y-84531903D01*
X100700500Y-84531898D01*
X100689877Y-84443436D01*
X100634361Y-84302658D01*
X100634360Y-84302657D01*
X100634360Y-84302656D01*
X100542922Y-84182077D01*
X100422343Y-84090639D01*
X100281561Y-84035122D01*
X100235926Y-84029642D01*
X100193102Y-84024500D01*
X99406898Y-84024500D01*
X99367853Y-84029188D01*
X99318438Y-84035122D01*
X99177656Y-84090639D01*
X99057077Y-84182077D01*
X98965639Y-84302656D01*
X98910122Y-84443438D01*
X98905942Y-84478251D01*
X98899500Y-84531898D01*
X98000000Y-84531898D01*
X98000000Y-82220943D01*
X109799500Y-82220943D01*
X109799500Y-82379056D01*
X109840423Y-82531783D01*
X109840426Y-82531790D01*
X109919475Y-82668709D01*
X109919479Y-82668714D01*
X109919480Y-82668716D01*
X110031284Y-82780520D01*
X110031286Y-82780521D01*
X110031290Y-82780524D01*
X110168209Y-82859573D01*
X110168216Y-82859577D01*
X110320943Y-82900500D01*
X110320945Y-82900500D01*
X110479055Y-82900500D01*
X110479057Y-82900500D01*
X110631784Y-82859577D01*
X110768716Y-82780520D01*
X110880520Y-82668716D01*
X110959577Y-82531784D01*
X111000500Y-82379057D01*
X111000500Y-82220943D01*
X110995141Y-82200943D01*
X113999500Y-82200943D01*
X113999500Y-82359057D01*
X114004859Y-82379055D01*
X114040423Y-82511783D01*
X114040426Y-82511790D01*
X114119475Y-82648709D01*
X114119479Y-82648714D01*
X114119480Y-82648716D01*
X114231284Y-82760520D01*
X114231286Y-82760521D01*
X114231290Y-82760524D01*
X114265925Y-82780520D01*
X114368216Y-82839577D01*
X114520943Y-82880500D01*
X114520945Y-82880500D01*
X114679055Y-82880500D01*
X114679057Y-82880500D01*
X114831784Y-82839577D01*
X114968716Y-82760520D01*
X115080520Y-82648716D01*
X115159577Y-82511784D01*
X115200500Y-82359057D01*
X115200500Y-82200943D01*
X115159577Y-82048216D01*
X115114720Y-81970520D01*
X115080524Y-81911290D01*
X115080518Y-81911282D01*
X114968717Y-81799481D01*
X114968709Y-81799475D01*
X114831790Y-81720426D01*
X114831786Y-81720424D01*
X114831784Y-81720423D01*
X114679057Y-81679500D01*
X114520943Y-81679500D01*
X114368216Y-81720423D01*
X114368209Y-81720426D01*
X114231290Y-81799475D01*
X114231282Y-81799481D01*
X114119481Y-81911282D01*
X114119475Y-81911290D01*
X114040426Y-82048209D01*
X114040423Y-82048216D01*
X113999500Y-82200943D01*
X110995141Y-82200943D01*
X110959577Y-82068216D01*
X110903172Y-81970518D01*
X110880524Y-81931290D01*
X110880518Y-81931282D01*
X110768717Y-81819481D01*
X110768709Y-81819475D01*
X110631790Y-81740426D01*
X110631786Y-81740424D01*
X110631784Y-81740423D01*
X110479057Y-81699500D01*
X110320943Y-81699500D01*
X110168216Y-81740423D01*
X110168209Y-81740426D01*
X110031290Y-81819475D01*
X110031282Y-81819481D01*
X109919481Y-81931282D01*
X109919475Y-81931290D01*
X109840426Y-82068209D01*
X109840423Y-82068216D01*
X109799500Y-82220943D01*
X98000000Y-82220943D01*
X98000000Y-81410943D01*
X112099500Y-81410943D01*
X112099500Y-81569057D01*
X112140059Y-81720423D01*
X112140423Y-81721783D01*
X112140426Y-81721790D01*
X112219475Y-81858709D01*
X112219479Y-81858714D01*
X112219480Y-81858716D01*
X112331284Y-81970520D01*
X112331286Y-81970521D01*
X112331290Y-81970524D01*
X112465859Y-82048216D01*
X112468216Y-82049577D01*
X112620943Y-82090500D01*
X112620945Y-82090500D01*
X112779055Y-82090500D01*
X112779057Y-82090500D01*
X112931784Y-82049577D01*
X113068716Y-81970520D01*
X113180520Y-81858716D01*
X113259577Y-81721784D01*
X113300500Y-81569057D01*
X113300500Y-81410943D01*
X113259577Y-81258216D01*
X113259573Y-81258209D01*
X113180524Y-81121290D01*
X113180518Y-81121282D01*
X113068717Y-81009481D01*
X113068709Y-81009475D01*
X112931790Y-80930426D01*
X112931786Y-80930424D01*
X112931784Y-80930423D01*
X112779057Y-80889500D01*
X112620943Y-80889500D01*
X112468216Y-80930423D01*
X112468209Y-80930426D01*
X112331290Y-81009475D01*
X112331282Y-81009481D01*
X112219481Y-81121282D01*
X112219475Y-81121290D01*
X112140426Y-81258209D01*
X112140423Y-81258216D01*
X112099500Y-81410943D01*
X98000000Y-81410943D01*
X98000000Y-80324500D01*
X98019685Y-80257461D01*
X98072489Y-80211706D01*
X98124000Y-80200500D01*
X118928000Y-80200500D01*
X118995039Y-80220185D01*
G37*
G04 #@! TD.AperFunction*
G04 #@! TD*
G04 #@! TA.AperFunction,Conductor*
G04 #@! TO.N,VDC*
G36*
X106043039Y-101019685D02*
G01*
X106088794Y-101072489D01*
X106100000Y-101124000D01*
X106100000Y-101876000D01*
X106080315Y-101943039D01*
X106027511Y-101988794D01*
X105976000Y-102000000D01*
X105624000Y-102000000D01*
X105556961Y-101980315D01*
X105511206Y-101927511D01*
X105500000Y-101876000D01*
X105500000Y-101124000D01*
X105519685Y-101056961D01*
X105572489Y-101011206D01*
X105624000Y-101000000D01*
X105976000Y-101000000D01*
X106043039Y-101019685D01*
G37*
G04 #@! TD.AperFunction*
G04 #@! TD*
M02*
