G04 #@! TF.GenerationSoftware,KiCad,Pcbnew,9.0.4*
G04 #@! TF.CreationDate,2025-10-01T23:59:43+10:00*
G04 #@! TF.ProjectId,MatterRGB,4d617474-6572-4524-9742-2e6b69636164,rev?*
G04 #@! TF.SameCoordinates,Original*
G04 #@! TF.FileFunction,Paste,Top*
G04 #@! TF.FilePolarity,Positive*
%FSLAX46Y46*%
G04 Gerber Fmt 4.6, Leading zero omitted, Abs format (unit mm)*
G04 Created by KiCad (PCBNEW 9.0.4) date 2025-10-01 23:59:43*
%MOMM*%
%LPD*%
G01*
G04 APERTURE LIST*
G04 Aperture macros list*
%AMRoundRect*
0 Rectangle with rounded corners*
0 $1 Rounding radius*
0 $2 $3 $4 $5 $6 $7 $8 $9 X,Y pos of 4 corners*
0 Add a 4 corners polygon primitive as box body*
4,1,4,$2,$3,$4,$5,$6,$7,$8,$9,$2,$3,0*
0 Add four circle primitives for the rounded corners*
1,1,$1+$1,$2,$3*
1,1,$1+$1,$4,$5*
1,1,$1+$1,$6,$7*
1,1,$1+$1,$8,$9*
0 Add four rect primitives between the rounded corners*
20,1,$1+$1,$2,$3,$4,$5,0*
20,1,$1+$1,$4,$5,$6,$7,0*
20,1,$1+$1,$6,$7,$8,$9,0*
20,1,$1+$1,$8,$9,$2,$3,0*%
G04 Aperture macros list end*
%ADD10RoundRect,0.150000X-0.150000X-0.425000X0.150000X-0.425000X0.150000X0.425000X-0.150000X0.425000X0*%
%ADD11RoundRect,0.075000X-0.075000X-0.500000X0.075000X-0.500000X0.075000X0.500000X-0.075000X0.500000X0*%
%ADD12O,1.000000X2.100000*%
%ADD13O,1.000000X1.800000*%
%ADD14RoundRect,0.218750X0.218750X0.256250X-0.218750X0.256250X-0.218750X-0.256250X0.218750X-0.256250X0*%
%ADD15RoundRect,0.225000X0.250000X-0.225000X0.250000X0.225000X-0.250000X0.225000X-0.250000X-0.225000X0*%
%ADD16RoundRect,0.135000X-0.135000X-0.185000X0.135000X-0.185000X0.135000X0.185000X-0.135000X0.185000X0*%
%ADD17RoundRect,0.140000X-0.140000X-0.170000X0.140000X-0.170000X0.140000X0.170000X-0.140000X0.170000X0*%
%ADD18RoundRect,0.250000X-0.475000X0.250000X-0.475000X-0.250000X0.475000X-0.250000X0.475000X0.250000X0*%
%ADD19RoundRect,0.135000X0.135000X0.185000X-0.135000X0.185000X-0.135000X-0.185000X0.135000X-0.185000X0*%
%ADD20RoundRect,0.200000X0.275000X-0.200000X0.275000X0.200000X-0.275000X0.200000X-0.275000X-0.200000X0*%
%ADD21RoundRect,0.140000X0.140000X0.170000X-0.140000X0.170000X-0.140000X-0.170000X0.140000X-0.170000X0*%
%ADD22RoundRect,0.250000X0.850000X-0.375000X0.850000X0.375000X-0.850000X0.375000X-0.850000X-0.375000X0*%
%ADD23RoundRect,0.135000X-0.185000X0.135000X-0.185000X-0.135000X0.185000X-0.135000X0.185000X0.135000X0*%
%ADD24RoundRect,0.135000X0.185000X-0.135000X0.185000X0.135000X-0.185000X0.135000X-0.185000X-0.135000X0*%
%ADD25RoundRect,0.140000X0.170000X-0.140000X0.170000X0.140000X-0.170000X0.140000X-0.170000X-0.140000X0*%
%ADD26RoundRect,0.145000X-0.145000X-0.145000X0.145000X-0.145000X0.145000X0.145000X-0.145000X0.145000X0*%
%ADD27RoundRect,0.062500X-0.275000X-0.062500X0.275000X-0.062500X0.275000X0.062500X-0.275000X0.062500X0*%
%ADD28RoundRect,0.062500X-0.062500X-0.275000X0.062500X-0.275000X0.062500X0.275000X-0.062500X0.275000X0*%
%ADD29RoundRect,0.150000X-0.150000X0.512500X-0.150000X-0.512500X0.150000X-0.512500X0.150000X0.512500X0*%
%ADD30R,1.000000X0.900000*%
%ADD31R,0.550000X1.700000*%
%ADD32RoundRect,0.140000X-0.170000X0.140000X-0.170000X-0.140000X0.170000X-0.140000X0.170000X0.140000X0*%
%ADD33R,1.200000X1.200000*%
%ADD34RoundRect,0.165000X-0.165000X0.165000X-0.165000X-0.165000X0.165000X-0.165000X0.165000X0.165000X0*%
%ADD35RoundRect,0.062500X-0.062500X0.325000X-0.062500X-0.325000X0.062500X-0.325000X0.062500X0.325000X0*%
%ADD36RoundRect,0.062500X-0.325000X0.062500X-0.325000X-0.062500X0.325000X-0.062500X0.325000X0.062500X0*%
%ADD37RoundRect,0.218750X-0.218750X-0.256250X0.218750X-0.256250X0.218750X0.256250X-0.218750X0.256250X0*%
%ADD38RoundRect,0.250000X0.250000X0.475000X-0.250000X0.475000X-0.250000X-0.475000X0.250000X-0.475000X0*%
%ADD39RoundRect,0.225000X0.225000X0.250000X-0.225000X0.250000X-0.225000X-0.250000X0.225000X-0.250000X0*%
%ADD40RoundRect,0.200000X0.200000X0.275000X-0.200000X0.275000X-0.200000X-0.275000X0.200000X-0.275000X0*%
%ADD41RoundRect,0.250000X0.475000X-0.250000X0.475000X0.250000X-0.475000X0.250000X-0.475000X-0.250000X0*%
G04 APERTURE END LIST*
D10*
G04 #@! TO.C,J1*
X110690000Y-108425000D03*
X111490000Y-108425000D03*
D11*
X112640000Y-108425000D03*
X113640000Y-108425000D03*
X114140000Y-108425000D03*
X115140000Y-108425000D03*
D10*
X116290000Y-108425000D03*
X117090000Y-108425000D03*
X117090000Y-108425000D03*
X116290000Y-108425000D03*
D11*
X115640000Y-108425000D03*
X114640000Y-108425000D03*
X113140000Y-108425000D03*
X112140000Y-108425000D03*
D10*
X111490000Y-108425000D03*
X110690000Y-108425000D03*
D12*
X109570000Y-109000000D03*
D13*
X109570000Y-113180000D03*
D12*
X118210000Y-109000000D03*
D13*
X118210000Y-113180000D03*
G04 #@! TD*
D14*
G04 #@! TO.C,LED1*
X117287500Y-82300000D03*
X115712500Y-82300000D03*
G04 #@! TD*
D15*
G04 #@! TO.C,C31*
X110550000Y-104600000D03*
X110550000Y-103050000D03*
G04 #@! TD*
G04 #@! TO.C,C4*
X103400000Y-97575000D03*
X103400000Y-96025000D03*
G04 #@! TD*
D16*
G04 #@! TO.C,R1*
X102490000Y-98750000D03*
X103510000Y-98750000D03*
G04 #@! TD*
D17*
G04 #@! TO.C,C16*
X98920000Y-103200000D03*
X99880000Y-103200000D03*
G04 #@! TD*
D18*
G04 #@! TO.C,C1*
X112000000Y-94550000D03*
X112000000Y-96450000D03*
G04 #@! TD*
D19*
G04 #@! TO.C,R10*
X118200000Y-94437500D03*
X117180000Y-94437500D03*
G04 #@! TD*
D20*
G04 #@! TO.C,C11*
X99753727Y-83444755D03*
X99753727Y-81794755D03*
G04 #@! TD*
D19*
G04 #@! TO.C,R11*
X118212500Y-95500000D03*
X117192500Y-95500000D03*
G04 #@! TD*
D21*
G04 #@! TO.C,C6*
X113760000Y-91800000D03*
X112800000Y-91800000D03*
G04 #@! TD*
D22*
G04 #@! TO.C,L2*
X117350000Y-103700000D03*
X117350000Y-101550000D03*
G04 #@! TD*
D20*
G04 #@! TO.C,C10*
X103753727Y-83444755D03*
X103753727Y-81794755D03*
G04 #@! TD*
D23*
G04 #@! TO.C,R5*
X113700000Y-82280000D03*
X113700000Y-83300000D03*
G04 #@! TD*
D24*
G04 #@! TO.C,R6*
X112700000Y-83300000D03*
X112700000Y-82280000D03*
G04 #@! TD*
D19*
G04 #@! TO.C,R7*
X99910000Y-88800000D03*
X98890000Y-88800000D03*
G04 #@! TD*
D20*
G04 #@! TO.C,C9*
X105753727Y-83444755D03*
X105753727Y-81794755D03*
G04 #@! TD*
D25*
G04 #@! TO.C,C8*
X111700000Y-83270000D03*
X111700000Y-82310000D03*
G04 #@! TD*
D26*
G04 #@! TO.C,U1*
X115340000Y-90040000D03*
X115340000Y-90760000D03*
X116060000Y-90040000D03*
X116060000Y-90760000D03*
D27*
X114437500Y-89900000D03*
X114437500Y-90400000D03*
X114437500Y-90900000D03*
D28*
X114950000Y-91662500D03*
X115450000Y-91662500D03*
X115950000Y-91662500D03*
X116450000Y-91662500D03*
D27*
X116962500Y-90900000D03*
X116962500Y-90400000D03*
X116962500Y-89900000D03*
D28*
X116450000Y-89137500D03*
X115950000Y-89137500D03*
X115450000Y-89137500D03*
X114950000Y-89137500D03*
G04 #@! TD*
D19*
G04 #@! TO.C,R9*
X118210000Y-93437500D03*
X117190000Y-93437500D03*
G04 #@! TD*
D29*
G04 #@! TO.C,U5*
X114050000Y-101425000D03*
X113100000Y-101425000D03*
X112150000Y-101425000D03*
X112150000Y-103700000D03*
X113100000Y-103700000D03*
X114050000Y-103700000D03*
G04 #@! TD*
D16*
G04 #@! TO.C,R2*
X108390000Y-83600000D03*
X109410000Y-83600000D03*
G04 #@! TD*
D30*
G04 #@! TO.C,SW2*
X100600000Y-96750000D03*
X100600000Y-100850000D03*
X99000000Y-96750000D03*
X99000000Y-100850000D03*
D31*
X101225000Y-98800000D03*
G04 #@! TD*
D18*
G04 #@! TO.C,C3*
X107000000Y-109600000D03*
X107000000Y-111500000D03*
G04 #@! TD*
D30*
G04 #@! TO.C,SW1*
X100600000Y-91150000D03*
X100600000Y-95250000D03*
X99000000Y-91150000D03*
X99000000Y-95250000D03*
D31*
X101225000Y-93200000D03*
G04 #@! TD*
D32*
G04 #@! TO.C,C28*
X115350000Y-102465000D03*
X115350000Y-103425000D03*
G04 #@! TD*
D33*
G04 #@! TO.C,D2*
X104249000Y-106800000D03*
X104249000Y-109600000D03*
G04 #@! TD*
D19*
G04 #@! TO.C,R4*
X109760000Y-99500000D03*
X108740000Y-99500000D03*
G04 #@! TD*
D34*
G04 #@! TO.C,U3*
X108000000Y-95200000D03*
X107180000Y-95200000D03*
X106360000Y-95200000D03*
X108000000Y-96020000D03*
X107180000Y-96020000D03*
X106360000Y-96020000D03*
X108000000Y-96840000D03*
X107180000Y-96840000D03*
X106360000Y-96840000D03*
D35*
X108430000Y-94032500D03*
X107930000Y-94032500D03*
X107430000Y-94032500D03*
X106930000Y-94032500D03*
X106430000Y-94032500D03*
X105930000Y-94032500D03*
D36*
X105192500Y-94770000D03*
X105192500Y-95270000D03*
X105192500Y-95770000D03*
X105192500Y-96270000D03*
X105192500Y-96770000D03*
X105192500Y-97270000D03*
D35*
X105930000Y-98007500D03*
X106430000Y-98007500D03*
X106930000Y-98007500D03*
X107430000Y-98007500D03*
X107930000Y-98007500D03*
X108430000Y-98007500D03*
D36*
X109167500Y-97270000D03*
X109167500Y-96770000D03*
X109167500Y-96270000D03*
X109167500Y-95770000D03*
X109167500Y-95270000D03*
X109167500Y-94770000D03*
G04 #@! TD*
D21*
G04 #@! TO.C,C30*
X114030000Y-100025000D03*
X113070000Y-100025000D03*
G04 #@! TD*
D17*
G04 #@! TO.C,C15*
X98920000Y-89800000D03*
X99880000Y-89800000D03*
G04 #@! TD*
D21*
G04 #@! TO.C,C17*
X116130000Y-88037500D03*
X115170000Y-88037500D03*
G04 #@! TD*
D33*
G04 #@! TO.C,D3*
X101600000Y-106800000D03*
X101600000Y-109600000D03*
G04 #@! TD*
D20*
G04 #@! TO.C,C14*
X103400000Y-94625000D03*
X103400000Y-92975000D03*
G04 #@! TD*
D37*
G04 #@! TO.C,LED2*
X108112500Y-82300000D03*
X109687500Y-82300000D03*
G04 #@! TD*
D38*
G04 #@! TO.C,C29*
X115100000Y-98425000D03*
X113200000Y-98425000D03*
G04 #@! TD*
D20*
G04 #@! TO.C,C12*
X101753727Y-83444755D03*
X101753727Y-81794755D03*
G04 #@! TD*
D39*
G04 #@! TO.C,C2*
X111160000Y-93000000D03*
X109610000Y-93000000D03*
G04 #@! TD*
D19*
G04 #@! TO.C,R3*
X117010000Y-83600000D03*
X115990000Y-83600000D03*
G04 #@! TD*
G04 #@! TO.C,R8*
X99910000Y-102200000D03*
X98890000Y-102200000D03*
G04 #@! TD*
D40*
G04 #@! TO.C,C7*
X109825000Y-91500000D03*
X108175000Y-91500000D03*
G04 #@! TD*
D41*
G04 #@! TO.C,C5*
X99250000Y-107450000D03*
X99250000Y-105550000D03*
G04 #@! TD*
M02*
