M48
; DRILL file {KiCad 9.0.4} date 2025-10-01T23:59:43+1000
; FORMAT={-:-/ absolute / metric / decimal}
; #@! TF.CreationDate,2025-10-01T23:59:43+10:00
; #@! TF.GenerationSoftware,Kicad,Pcbnew,9.0.4
; #@! TF.FileFunction,Plated,1,4,PTH
FMAT,2
METRIC
; #@! TA.AperFunction,Plated,PTH,ViaDrill
T1C0.300
; #@! TA.AperFunction,Plated,PTH,ComponentDrill
T2C0.600
; #@! TA.AperFunction,Plated,PTH,ComponentDrill
T3C0.750
; #@! TA.AperFunction,Plated,PTH,ComponentDrill
T4C1.000
%
G90
G05
T1
X98.4Y-87.6
X98.5Y-104.5
X98.6Y-81.0
X98.6Y-82.0
X98.6Y-112.6
X98.6Y-113.8
X99.0Y-93.2
X99.0Y-98.8
X99.25Y-111.25
X99.6Y-81.0
X100.0Y-92.4
X100.0Y-94.0
X100.0Y-98.0
X100.0Y-99.4
X100.0Y-104.5
X100.4Y-113.8
X100.6Y-108.0
X100.7Y-82.0
X100.8Y-102.2
X101.4Y-90.2
X101.4Y-104.6
X101.8Y-81.0
X102.0Y-95.6
X102.0Y-96.4
X102.0Y-97.2
X102.1Y-94.6
X102.2Y-93.0
X102.2Y-113.8
X102.4Y-99.8
X102.45Y-103.0
X102.75Y-108.0
X102.8Y-82.0
X103.2Y-104.2
X103.2Y-104.8
X103.25Y-103.0
X103.4Y-91.9
X103.6Y-90.6
X103.8Y-81.0
X104.049Y-102.951
X104.8Y-82.0
X104.8Y-101.2
X104.9Y-93.4
X104.9Y-94.1
X105.0Y-102.6
X105.0Y-104.8
X105.6Y-111.2
X105.6Y-112.6
X105.6Y-113.8
X105.7Y-109.6
X105.8Y-81.0
X105.8Y-101.0
X105.8Y-102.0
X106.4Y-95.2
X106.4Y-96.0
X106.4Y-96.8
X106.8Y-82.0
X106.8Y-84.2
X106.8Y-101.2
X107.0Y-103.2
X107.2Y-85.8
X107.2Y-95.2
X107.2Y-96.0
X107.2Y-96.8
X107.4Y-81.0
X107.4Y-83.4
X107.7Y-87.2
X107.8Y-102.2
X108.0Y-95.2
X108.0Y-96.0
X108.0Y-96.8
X108.0Y-99.5
X108.2Y-108.6
X108.2Y-113.8
X108.5Y-101.5
X108.8Y-81.0
X109.2Y-100.8
X109.4Y-102.1
X109.4Y-103.0
X109.5Y-90.4
X109.6Y-111.2
X110.1Y-86.4
X110.1Y-87.2
X110.2Y-81.0
X110.2Y-84.4
X110.2Y-90.4
X110.4Y-82.3
X111.35Y-101.401
X111.394Y-100.597
X111.4Y-99.4
X111.6Y-111.2
X111.6Y-113.2
X111.671Y-98.2
X111.7Y-81.49
X111.8Y-91.6
X112.2Y-98.8
X112.2Y-100.0
X112.3Y-110.1
X112.7Y-81.49
X112.75Y-90.6
X112.8Y-113.2
X113.3Y-87.5
X113.8Y-92.6
X113.8Y-93.8
X113.8Y-94.8
X113.88Y-96.25
X113.965Y-110.8
X114.261Y-87.612
X114.6Y-81.0
X114.6Y-82.28
X114.6Y-97.0
X114.8Y-83.4
X114.815Y-110.8
X115.0Y-100.0
X115.03Y-87.205
X115.1Y-85.4
X115.4Y-109.9
X115.501Y-93.431
X115.6Y-113.2
X115.7Y-90.4
X115.88Y-87.205
X116.0Y-81.0
X116.089Y-92.812
X116.15Y-95.5
X116.6Y-111.2
X116.6Y-113.2
X117.0Y-86.5
X117.2Y-81.0
X117.6Y-88.8
X118.2Y-111.2
X118.4Y-81.0
X118.4Y-82.2
X118.4Y-83.4
X118.4Y-84.6
X118.4Y-85.8
X118.4Y-87.0
X118.4Y-88.2
X118.453Y-89.4
T3
X99.8Y-85.2
X101.8Y-85.2
X103.8Y-85.2
X105.8Y-85.2
X111.75Y-85.25
X113.75Y-85.25
T4
X101.1Y-112.2
X103.6Y-112.2
T2
G00X109.57Y-108.45
M15
G01X109.57Y-109.55
M16
G05
G00X109.57Y-112.78
M15
G01X109.57Y-113.58
M16
G05
G00X118.21Y-108.45
M15
G01X118.21Y-109.55
M16
G05
G00X118.21Y-112.78
M15
G01X118.21Y-113.58
M16
G05
M30
